<svg width="60" height="60" fill="none" xmlns="http://www.w3.org/2000/svg"><g clip-path="url(#clip0_237_12)"><g clip-path="url(#clip1_237_12)" fill-rule="evenodd" clip-rule="evenodd" fill="#BF9075"><path d="M30 0C13.447 0 0 13.447 0 30s13.447 30 30 30 30-13.447 30-30S46.553 0 30 0zm0 2.578C45.16 2.578 57.422 14.84 57.422 30S45.16 57.422 30 57.422 2.578 45.16 2.578 30 14.84 2.578 30 2.578z"/><path d="M30 25.84c-2.282 0-4.16 1.878-4.16 4.16s1.878 4.16 4.16 4.16 4.16-1.878 4.16-4.16-1.878-4.16-4.16-4.16zm0 2.578c.889 0 1.582.693 1.582 1.582 0 .889-.693 1.582-1.582 1.582A1.563 1.563 0 0128.418 30c0-.889.693-1.582 1.582-1.582z"/><path d="M30 8.613a1.289 1.289 0 00-1.289 1.29v17.226a1.289 1.289 0 102.578 0V9.902A1.289 1.289 0 0030 8.613zm2.871 22.969a1.289 1.289 0 00-.911 2.2l8.613 8.614a1.29 1.29 0 001.823-1.823l-8.613-8.614a1.289 1.289 0 00-.912-.377z"/></g></g><defs><clipPath id="clip0_237_12"><path fill="#fff" d="M0 0h60v60H0z"/></clipPath><clipPath id="clip1_237_12"><path fill="#fff" d="M0 0h60v60H0z"/></clipPath></defs></svg>