<svg width="60" height="60" fill="none" xmlns="http://www.w3.org/2000/svg"><path fill-rule="evenodd" clip-rule="evenodd" d="M12.337 0C8.3 0 5 3.3 5 7.337v48.378c0 3.472 4.122 5.533 6.9 3.45l16.449-12.337a3.539 3.539 0 014.258 0l16.45 12.337c2.777 2.083 6.899.022 6.899-3.45V7.337C55.956 3.3 52.656 0 48.619 0H12.337zm0 2.578h36.282a4.74 4.74 0 014.759 4.759v48.378c0 1.51-1.567 2.293-2.775 1.387L34.154 44.765a6.137 6.137 0 00-7.352 0l-16.45 12.337c-1.207.906-2.774.123-2.774-1.387V7.337a4.74 4.74 0 014.759-4.759z" fill="#BF9075"/><path fill-rule="evenodd" clip-rule="evenodd" d="M30.479 9.073c-1.054 0-1.804.686-2.285 1.335-.482.648-.827 1.386-1.158 2.12-.331.733-.638 1.463-.927 2.031-.29.568-.61.947-.656.98-.046.034-.504.22-1.134.32-.63.1-1.42.165-2.22.253-.8.089-1.608.192-2.374.45-.766.257-1.647.75-1.973 1.753-.325 1.003.094 1.928.562 2.587.467.658 1.064 1.218 1.659 1.76.595.541 1.197 1.054 1.648 1.506.45.45.714.872.732.927.018.054.046.55-.053 1.18-.1.63-.28 1.398-.443 2.186-.163.788-.316 1.59-.307 2.398.008.807.21 1.801 1.063 2.42.852.62 1.857.502 2.628.26.77-.24 1.486-.628 2.185-1.027.699-.399 1.374-.815 1.943-1.104.568-.29 1.053-.408 1.11-.408.057 0 .536.118 1.104.408.569.289 1.244.705 1.943 1.104.699.399 1.414.786 2.185 1.028.771.241 1.781.36 2.634-.26s1.049-1.614 1.057-2.422c.009-.807-.138-1.61-.301-2.397-.163-.788-.35-1.555-.449-2.185-.1-.63-.065-1.127-.047-1.181.018-.055.281-.476.732-.927.451-.451 1.053-.965 1.648-1.506.595-.542 1.185-1.102 1.653-1.76.468-.659.893-1.578.567-2.581-.325-1.003-1.212-1.502-1.978-1.76s-1.568-.36-2.368-.449c-.8-.088-1.59-.154-2.22-.254-.63-.1-1.094-.285-1.14-.319-.047-.033-.36-.412-.65-.98-.29-.568-.596-1.298-.927-2.031-.331-.734-.682-1.472-1.164-2.12-.481-.649-1.225-1.335-2.28-1.335zm0 2.575c-.111 0-.044-.05.213.295.256.345.57.958.88 1.642.308.684.621 1.44.98 2.143.358.703.718 1.376 1.435 1.896.716.52 1.465.656 2.244.78.779.123 1.599.19 2.344.271.746.083 1.424.194 1.831.331.408.137.383.218.349.112-.035-.105.03-.06-.219.29-.25.35-.732.841-1.287 1.346-.556.505-1.179 1.037-1.737 1.595-.557.558-1.084 1.106-1.358 1.948-.274.843-.17 1.601-.047 2.38.123.78.314 1.575.466 2.31.153.734.259 1.412.254 1.842-.004.43-.09.431 0 .366s.068.016-.342-.112c-.41-.129-1.026-.443-1.677-.815-.652-.372-1.352-.8-2.056-1.158-.702-.357-1.387-.69-2.273-.69-.886 0-1.577.333-2.28.69-.703.358-1.397.786-2.049 1.158-.652.372-1.267.686-1.677.815-.41.128-.438.047-.348.112.09.065.01.064.005-.366-.004-.43.096-1.108.248-1.843.153-.734.35-1.53.473-2.309.123-.779.226-1.537-.047-2.38-.274-.842-.807-1.39-1.364-1.948-.558-.558-1.176-1.09-1.73-1.595-.556-.505-1.045-.996-1.294-1.346-.25-.35-.178-.401-.213-.296-.034.106-.059.031.349-.106.407-.137 1.085-.248 1.83-.33.746-.083 1.56-.149 2.339-.272.78-.124 1.533-.26 2.25-.78.717-.52 1.077-1.193 1.435-1.895.359-.703.672-1.46.98-2.144.31-.684.624-1.297.88-1.642.257-.345.324-.295.213-.295z" fill="#BF9075"/></svg>