<svg width="60" height="60" fill="none" xmlns="http://www.w3.org/2000/svg"><g clip-path="url(#clip0_237_8)" fill-rule="evenodd" clip-rule="evenodd" fill="#BF9075"><path d="M24.259 5.742a5.282 5.282 0 00-5.003 3.607l-.71 2.135H7.03c-3.872 0-7.03 3.159-7.03 7.032v28.71c0 3.874 3.158 7.032 7.031 7.032H52.97c3.873 0 7.031-3.158 7.031-7.031V18.516c0-3.873-3.158-7.032-7.031-7.032h-.03l-.71-2.135a5.282 5.282 0 00-5.003-3.607H24.259zm0 2.578h22.967c1.165 0 2.188.738 2.556 1.844l1.005 3.017a1.289 1.289 0 001.223.882h.959a4.415 4.415 0 014.453 4.453v28.71a4.415 4.415 0 01-4.453 4.454H7.03a4.415 4.415 0 01-4.453-4.453V18.516a4.415 4.415 0 014.453-4.453h12.443a1.29 1.29 0 001.224-.882l1.004-3.017A2.685 2.685 0 0124.26 8.32z"/><path d="M9.902 28.71c-2.283 0-4.16 1.878-4.16 4.16 0 2.283 1.877 4.16 4.16 4.16 2.282 0 4.16-1.877 4.16-4.16 0-2.282-1.878-4.16-4.16-4.16zm0 2.578c.889 0 1.582.693 1.582 1.582 0 .89-.693 1.582-1.582 1.582A1.563 1.563 0 018.32 32.87c0-.889.693-1.582 1.582-1.582zm0-14.062c-2.283 0-4.16 1.878-4.16 4.16s1.877 4.16 4.16 4.16c2.282 0 4.16-1.878 4.16-4.16s-1.878-4.16-4.16-4.16zm0 2.578c.889 0 1.582.693 1.582 1.582 0 .889-.693 1.582-1.582 1.582a1.563 1.563 0 01-1.582-1.582c0-.889.693-1.582 1.582-1.582zm25.84-2.578c-8.625 0-15.645 7.02-15.645 15.644 0 8.625 7.02 15.645 15.645 15.645s15.644-7.02 15.644-15.645-7.02-15.644-15.644-15.644zm0 2.578A13.047 13.047 0 0148.808 32.87a13.047 13.047 0 01-13.066 13.067A13.047 13.047 0 0122.675 32.87a13.047 13.047 0 0113.067-13.066zm-11.485-8.32a1.29 1.29 0 000 2.578h22.969a1.289 1.289 0 100-2.578H24.257z"/></g><defs><clipPath id="clip0_237_8"><path fill="#fff" d="M0 0h60v60H0z"/></clipPath></defs></svg>