<svg width="60" height="60" fill="none" xmlns="http://www.w3.org/2000/svg"><g clip-path="url(#clip0_237_10)"><g clip-path="url(#clip1_237_10)" fill="#BF9075"><path fill-rule="evenodd" clip-rule="evenodd" d="M7.031 14.355C3.158 14.355 0 17.514 0 21.387v25.84c0 3.873 3.158 7.03 7.031 7.03H52.97c3.873 0 7.031-3.157 7.031-7.03v-25.84c0-3.873-3.158-7.032-7.031-7.032H7.03zm0 2.579H52.97a4.415 4.415 0 014.453 4.453v25.84a4.415 4.415 0 01-4.453 4.453H7.03a4.415 4.415 0 01-4.453-4.453v-25.84a4.415 4.415 0 014.453-4.453z"/><path d="M41.484 22.977a4.148 4.148 0 00-2.941 1.21L27.129 35.603l-5.672-5.672c-1.614-1.614-4.269-1.614-5.883 0-1.613 1.614-1.613 4.269 0 5.883l7.178 7.177c2.396 2.397 6.358 2.397 8.754 0l12.92-12.92c1.613-1.613 1.613-4.268 0-5.882a4.148 4.148 0 00-2.942-1.21zm0 2.563c.402 0 .805.157 1.119.47a1.563 1.563 0 010 2.238l-12.92 12.92c-1.383 1.383-3.725 1.383-5.108 0l-7.178-7.178a1.563 1.563 0 010-2.237 1.563 1.563 0 012.237 0l6.584 6.583a1.29 1.29 0 001.823 0l12.325-12.325a1.577 1.577 0 011.118-.471z"/><path fill-rule="evenodd" clip-rule="evenodd" d="M7.03 5.742a5.939 5.939 0 00-5.306 3.28L.136 12.197a1.29 1.29 0 002.306 1.153l1.588-3.175a3.349 3.349 0 013-1.855h45.94a3.39 3.39 0 013.025 1.854l1.567 3.076a1.29 1.29 0 002.297-1.17l-1.567-3.077a5.979 5.979 0 00-5.322-3.26H7.03z"/></g></g><defs><clipPath id="clip0_237_10"><path fill="#fff" d="M0 0h60v60H0z"/></clipPath><clipPath id="clip1_237_10"><path fill="#fff" d="M0 0h60v60H0z"/></clipPath></defs></svg>