<svg width="60" height="60" fill="none" xmlns="http://www.w3.org/2000/svg"><path fill-rule="evenodd" clip-rule="evenodd" d="M7.67 1C3.442 1 0 4.443 0 8.67v35.09c0 4.227 3.443 7.67 7.67 7.67h31.9c1.854 0 3.673.504 5.263 1.458l9.872 5.922C56.98 60.175 60 58.466 60 55.812V8.67C60 4.442 56.557 1 52.33 1H7.67zm0 2.578h44.66a5.052 5.052 0 015.092 5.091v47.143c0 .779-.724 1.188-1.391.788l-9.871-5.923a12.81 12.81 0 00-6.59-1.825H7.67a5.052 5.052 0 01-5.092-5.092V8.67A5.052 5.052 0 017.67 3.577z" fill="#BF9075"/><path fill-rule="evenodd" clip-rule="evenodd" d="M20.503 29.56a1.29 1.29 0 00-.825 1.627A10.869 10.869 0 0030 38.669a10.87 10.87 0 0010.32-7.476 1.29 1.29 0 00-2.45-.804A8.272 8.272 0 0130 36.091a8.272 8.272 0 01-7.87-5.706 1.289 1.289 0 00-1.626-.824zm-.074-15.8a1.29 1.29 0 00-1.29 1.288v6.38a1.29 1.29 0 102.579 0v-6.38a1.289 1.289 0 00-1.29-1.289zm19.141 0a1.29 1.29 0 00-1.29 1.288v6.38a1.29 1.29 0 102.578 0v-6.38a1.289 1.289 0 00-1.288-1.289z" fill="#BF9075"/></svg>