<svg width="40" height="28" viewBox="0 0 40 28" fill="none" xmlns="http://www.w3.org/2000/svg">
<path fill-rule="evenodd" clip-rule="evenodd" d="M0 1.55556C0 0.696441 0.688788 0 1.53846 0H38.4615C39.3113 0 40 0.696441 40 1.55556C40 2.41472 39.3113 3.11111 38.4615 3.11111H1.53846C0.688788 3.11111 0 2.41472 0 1.55556Z" fill="#40221B"/>
<path fill-rule="evenodd" clip-rule="evenodd" d="M0 26.4442C0 25.5851 0.688788 24.8887 1.53846 24.8887H38.4615C39.3113 24.8887 40 25.5851 40 26.4442C40 27.3034 39.3113 27.9998 38.4615 27.9998H1.53846C0.688788 27.9998 0 27.3034 0 26.4442Z" fill="#40221B"/>
<path fill-rule="evenodd" clip-rule="evenodd" d="M8.20514 13.9999C8.20514 13.1407 8.89388 12.4443 9.7436 12.4443H38.4615C39.3112 12.4443 40 13.1407 40 13.9999C40 14.8591 39.3112 15.5554 38.4615 15.5554H9.7436C8.89388 15.5554 8.20514 14.8591 8.20514 13.9999Z" fill="#40221B"/>
</svg>
