<svg width="29" height="28" viewBox="0 0 29 28" fill="none" xmlns="http://www.w3.org/2000/svg">
<path fill-rule="evenodd" clip-rule="evenodd" d="M2.23316 26.7646C1.55206 26.0823 1.55206 24.9763 2.23316 24.294L25.2521 1.23519C25.9332 0.552909 27.0374 0.552909 27.7185 1.23519C28.3996 1.91747 28.3996 3.0235 27.7185 3.70578L4.69949 26.7646C4.01839 27.4469 2.91426 27.4469 2.23316 26.7646Z" fill="#40221B"/>
<path fill-rule="evenodd" clip-rule="evenodd" d="M27.7668 26.7646C28.4479 26.0823 28.4479 24.9763 27.7668 24.294L4.74785 1.23519C4.06675 0.552909 2.96263 0.552909 2.28153 1.23519C1.60043 1.91747 1.60043 3.0235 2.28153 3.70578L25.3005 26.7646C25.9816 27.4469 27.0857 27.4469 27.7668 26.7646Z" fill="#40221B"/>
</svg>
