<svg width="28" height="28" viewBox="0 0 28 28" fill="none" xmlns="http://www.w3.org/2000/svg">
<path fill-rule="evenodd" clip-rule="evenodd" d="M1.2483 26.7646C0.567199 26.0823 0.567199 24.9763 1.2483 24.294L24.2673 1.23519C24.9484 0.552909 26.0525 0.552909 26.7336 1.23519C27.4147 1.91747 27.4147 3.0235 26.7336 3.70578L3.71462 26.7646C3.03352 27.4469 1.9294 27.4469 1.2483 26.7646Z" fill="#FFF5EF"/>
<path fill-rule="evenodd" clip-rule="evenodd" d="M26.782 26.7646C27.4631 26.0823 27.4631 24.9763 26.782 24.294L3.76299 1.23519C3.08189 0.552909 1.97777 0.552909 1.29667 1.23519C0.615566 1.91747 0.615566 3.0235 1.29667 3.70578L24.3157 26.7646C24.9968 27.4469 26.1009 27.4469 26.782 26.7646Z" fill="#FFF5EF"/>
</svg>
