<svg width="24" height="24" viewBox="0 0 24 24" fill="none" xmlns="http://www.w3.org/2000/svg">
<g clip-path="url(#clip0_189_1561)">
<path fill-rule="evenodd" clip-rule="evenodd" d="M11.9998 20.253C10.5393 20.253 9.10193 19.8642 7.84456 19.1294C7.64212 19.0111 7.39835 18.9795 7.17209 19.0412L4.43809 19.7914L5.39075 17.6935C5.52034 17.4084 5.48672 17.0756 5.30389 16.8214C4.28469 15.4099 3.74671 13.7421 3.74671 12C3.74671 7.44901 7.44878 3.74699 11.9998 3.74699C16.5509 3.74699 20.253 7.44901 20.253 12C20.253 16.551 16.5509 20.253 11.9998 20.253ZM11.9998 2C6.48562 2 2.0004 6.48585 2.0004 12C2.0004 13.9396 2.55028 15.8022 3.59751 17.4189L2.07815 20.7651C1.93805 21.074 1.98919 21.4354 2.20844 21.6932C2.37726 21.89 2.62173 22 2.8732 22C3.4364 22 6.50803 21.0347 7.28977 20.8197C8.73488 21.593 10.3551 22 11.9998 22C17.5134 22 22 17.5134 22 12C22 6.48585 17.5134 2.0007 11.9998 2Z" fill="white"/>
<path fill-rule="evenodd" clip-rule="evenodd" d="M14.6085 12.9938C14.213 13.1557 13.9603 13.7753 13.704 14.0917C13.5721 14.2536 13.4154 14.2792 13.2133 14.1979C11.7279 13.6061 10.589 12.6144 9.76941 11.2477C9.63025 11.036 9.65515 10.8683 9.82288 10.6713C10.0704 10.3798 10.3817 10.0487 10.4484 9.65543C10.597 8.78678 9.46106 6.09073 7.96033 7.31241C3.6427 10.831 15.163 20.1628 17.2423 15.1156C17.8304 13.6845 15.2648 12.725 14.6085 12.9938Z" fill="white"/>
</g>
<defs>
<clipPath id="clip0_189_1561">
<rect width="24" height="24" fill="white"/>
</clipPath>
</defs>
</svg>
