<svg width="24" height="25" viewBox="0 0 24 25" fill="none" xmlns="http://www.w3.org/2000/svg">
<path d="M16.5 2H7.5C6.04131 2 4.64236 2.57946 3.61091 3.61091C2.57946 4.64236 2 6.04131 2 7.5V16.5C2 17.9587 2.57946 19.3576 3.61091 20.3891C4.64236 21.4205 6.04131 22 7.5 22H16.5C17.9587 22 19.3576 21.4205 20.3891 20.3891C21.4205 19.3576 22 17.9587 22 16.5V7.5C22 6.04131 21.4205 4.64236 20.3891 3.61091C19.3576 2.57946 17.9587 2 16.5 2ZM20.25 15.71C20.25 16.9141 19.7717 18.0688 18.9203 18.9203C18.0689 19.7717 16.9141 20.25 15.71 20.25H8.29C7.08592 20.25 5.93115 19.7717 5.07973 18.9203C4.22832 18.0688 3.75 16.9141 3.75 15.71V8.29C3.75 7.08592 4.22832 5.93115 5.07973 5.07973C5.93115 4.22832 7.08592 3.75 8.29 3.75H15.71C16.9141 3.75 18.0689 4.22832 18.9203 5.07973C19.7717 5.93115 20.25 7.08592 20.25 8.29V15.71Z" fill="white"/>
<path d="M15.6475 8.38953L15.6 8.34203L15.56 8.30203C14.6147 7.36005 13.3345 6.8314 12 6.83203C11.3261 6.83661 10.6597 6.97393 10.0389 7.23613C9.41807 7.49833 8.855 7.88029 8.38185 8.36017C7.9087 8.84005 7.53474 9.40846 7.28134 10.0329C7.02793 10.6574 6.90004 11.3256 6.90498 11.9995C6.90396 13.3672 7.44306 14.6799 8.40498 15.652C8.87615 16.1289 9.43761 16.5072 10.0566 16.7647C10.6755 17.0223 11.3396 17.1539 12.01 17.152C13.0156 17.1309 13.9933 16.8177 14.8239 16.2505C15.6545 15.6833 16.3022 14.8866 16.6878 13.9576C17.0734 13.0287 17.1804 12.0076 16.9957 11.0189C16.8109 10.0302 16.3425 9.11658 15.6475 8.38953ZM12 15.3895C11.3276 15.399 10.6675 15.2082 10.1038 14.8414C9.54014 14.4747 9.09825 13.9486 8.83437 13.3301C8.57049 12.7115 8.49654 12.0285 8.62193 11.3678C8.74732 10.7071 9.06639 10.0986 9.53854 9.61974C10.0107 9.14088 10.6146 8.81326 11.2735 8.67856C11.9323 8.54386 12.6164 8.60817 13.2386 8.86329C13.8608 9.11842 14.3931 9.55284 14.7677 10.1113C15.1423 10.6698 15.3424 11.327 15.3425 11.9995C15.3458 12.4416 15.2619 12.8801 15.0957 13.2898C14.9295 13.6994 14.6841 14.0723 14.3737 14.3872C14.0633 14.702 13.6939 14.9526 13.2866 15.1246C12.8793 15.2965 12.4421 15.3866 12 15.3895Z" fill="white"/>
<path d="M18.6076 6.59512C18.6089 6.75554 18.5786 6.91465 18.5184 7.06333C18.4581 7.21202 18.3691 7.34736 18.2565 7.46161C18.1439 7.57586 18.0098 7.66677 17.862 7.72915C17.7142 7.79152 17.5555 7.82414 17.3951 7.82512C17.236 7.82504 17.0786 7.79341 16.9318 7.73204C16.785 7.67067 16.6519 7.5808 16.5401 7.46762C16.3708 7.29578 16.2555 7.078 16.2088 6.8413C16.162 6.6046 16.1858 6.35938 16.2771 6.13605C16.3684 5.91272 16.5232 5.72109 16.7224 5.58494C16.9216 5.44879 17.1564 5.37409 17.3976 5.37012C17.68 5.37006 17.9534 5.46916 18.1701 5.65012L18.1951 5.67512C18.2354 5.70794 18.2723 5.7448 18.3051 5.78512L18.3326 5.81512C18.5116 6.03558 18.6087 6.31117 18.6076 6.59512Z" fill="white"/>
</svg>
