<svg width="60" height="60" viewBox="0 0 60 60" fill="none" xmlns="http://www.w3.org/2000/svg">
<path fill-rule="evenodd" clip-rule="evenodd" d="M7.66937 1C3.44292 1 0 4.44292 0 8.66938V43.7604C0 47.9869 3.44292 51.4298 7.66937 51.4298H39.5695C41.424 51.4298 43.2432 51.9337 44.8334 52.8878L54.7046 58.8104C56.9798 60.1755 60 58.4656 60 55.8122V43.7604V8.66938C60 4.44292 56.5573 1 52.3309 1H7.66937ZM7.66937 3.57813H52.3309C55.1736 3.57813 57.4219 5.82664 57.4219 8.66938V43.7604V55.8122C57.4219 56.5906 56.6984 57.0003 56.031 56.5998L46.16 50.677C44.1693 49.4826 41.8911 48.8517 39.5695 48.8517H7.66937C4.82663 48.8517 2.57812 46.6032 2.57812 43.7604V8.66938C2.57812 5.82664 4.82663 3.57813 7.66937 3.57813Z" fill="#BF9075"/>
<path fill-rule="evenodd" clip-rule="evenodd" d="M20.5027 29.5606C20.1778 29.6669 19.9085 29.898 19.7539 30.2029C19.5993 30.5078 19.5722 30.8617 19.6785 31.1866C21.1374 35.6452 25.308 38.669 29.9993 38.669C34.6883 38.669 38.8578 35.6481 40.3185 31.1925C40.3712 31.0317 40.3917 30.862 40.3789 30.6932C40.366 30.5244 40.32 30.3598 40.2436 30.2088C40.1671 30.0577 40.0616 29.9232 39.9332 29.813C39.8047 29.7027 39.6558 29.6188 39.495 29.5661C39.1701 29.4596 38.8163 29.4865 38.5112 29.6409C38.2062 29.7953 37.975 30.0646 37.8685 30.3894C36.7518 33.7956 33.584 36.0908 29.9993 36.0908C26.4129 36.0909 23.244 33.7934 22.1287 30.3848C22.0224 30.0599 21.7914 29.7906 21.4864 29.636C21.1815 29.4814 20.8277 29.4543 20.5027 29.5606Z" fill="#BF9075"/>
<path fill-rule="evenodd" clip-rule="evenodd" d="M20.4288 13.7594C20.087 13.7594 19.7591 13.8952 19.5173 14.137C19.2756 14.3787 19.1398 14.7066 19.1398 15.0484V21.4286C19.1398 21.7705 19.2756 22.0984 19.5173 22.3401C19.7591 22.5819 20.087 22.7177 20.4288 22.7177C20.7707 22.7177 21.0986 22.5819 21.3403 22.3401C21.5821 22.0984 21.7179 21.7705 21.7179 21.4286V15.0484C21.7179 14.7066 21.5821 14.3787 21.3403 14.137C21.0986 13.8952 20.7707 13.7594 20.4288 13.7594Z" fill="#BF9075"/>
<path fill-rule="evenodd" clip-rule="evenodd" d="M39.5696 13.7594C39.4003 13.7594 39.2326 13.7927 39.0762 13.8575C38.9198 13.9222 38.7776 14.0172 38.6579 14.1369C38.5382 14.2566 38.4432 14.3987 38.3784 14.5551C38.3136 14.7115 38.2803 14.8791 38.2803 15.0484V21.4286C38.2803 21.7705 38.4161 22.0984 38.6578 22.3401C38.8996 22.5819 39.2275 22.7177 39.5693 22.7177C39.9112 22.7177 40.2391 22.5819 40.4808 22.3401C40.7226 22.0984 40.8584 21.7705 40.8584 21.4286V15.0487C40.8585 14.7068 40.7227 14.3789 40.481 14.1371C40.2393 13.8953 39.9114 13.7595 39.5696 13.7594Z" fill="#BF9075"/>
</svg>
