<svg width="60" height="60" viewBox="0 0 60 60" fill="none" xmlns="http://www.w3.org/2000/svg">
<g clip-path="url(#clip0_237_12)">
<g clip-path="url(#clip1_237_12)">
<path fill-rule="evenodd" clip-rule="evenodd" d="M30 0C13.4467 0 0 13.4467 0 30C0 46.5533 13.4467 60 30 60C46.5533 60 60 46.5533 60 30C60 13.4467 46.5533 0 30 0ZM30 2.57812C45.1599 2.57812 57.4219 14.8401 57.4219 30C57.4219 45.1599 45.1599 57.4219 30 57.4219C14.8401 57.4219 2.57812 45.1599 2.57812 30C2.57812 14.8401 14.8401 2.57812 30 2.57812Z" fill="#BF9075"/>
<path fill-rule="evenodd" clip-rule="evenodd" d="M30 25.8398C27.7177 25.8398 25.8398 27.7177 25.8398 30C25.8398 32.2823 27.7177 34.1602 30 34.1602C32.2823 34.1602 34.1602 32.2823 34.1602 30C34.1602 27.7177 32.2823 25.8398 30 25.8398ZM30 28.418C30.889 28.418 31.582 29.111 31.582 30C31.582 30.889 30.889 31.582 30 31.582C29.111 31.582 28.418 30.889 28.418 30C28.418 29.111 29.111 28.418 30 28.418Z" fill="#BF9075"/>
<path fill-rule="evenodd" clip-rule="evenodd" d="M30.0001 8.61328C29.6583 8.61328 29.3304 8.74909 29.0887 8.99084C28.847 9.23258 28.7112 9.56046 28.7112 9.90234L28.7109 27.1289C28.7109 27.4708 28.8467 27.7987 29.0885 28.0404C29.3302 28.2822 29.658 28.418 29.9999 28.418C30.3417 28.418 30.6696 28.2822 30.9113 28.0404C31.153 27.7987 31.2888 27.4708 31.2888 27.1289L31.2891 9.90234C31.2891 9.56046 31.1533 9.23258 30.9115 8.99084C30.6698 8.74909 30.342 8.61328 30.0001 8.61328Z" fill="#BF9075"/>
<path fill-rule="evenodd" clip-rule="evenodd" d="M32.8712 31.582C32.7019 31.582 32.5343 31.6153 32.3779 31.6801C32.2215 31.7448 32.0793 31.8398 31.9596 31.9595C31.8399 32.0792 31.7449 32.2213 31.6802 32.3777C31.6154 32.5341 31.582 32.7017 31.582 32.871C31.582 33.0403 31.6154 33.2079 31.6802 33.3643C31.7449 33.5207 31.8399 33.6628 31.9596 33.7825L40.5728 42.3959C40.6925 42.5156 40.8346 42.6105 40.991 42.6753C41.1474 42.7401 41.3151 42.7734 41.4843 42.7734C41.6536 42.7734 41.8213 42.7401 41.9777 42.6753C42.1341 42.6105 42.2762 42.5156 42.3959 42.3959C42.5156 42.2762 42.6105 42.134 42.6753 41.9776C42.7401 41.8212 42.7734 41.6536 42.7734 41.4843C42.7734 41.315 42.7401 41.1474 42.6753 40.991C42.6105 40.8346 42.5156 40.6925 42.3959 40.5728L33.7826 31.9595C33.5409 31.7178 33.2131 31.582 32.8712 31.582Z" fill="#BF9075"/>
</g>
</g>
<defs>
<clipPath id="clip0_237_12">
<rect width="60" height="60" fill="white"/>
</clipPath>
<clipPath id="clip1_237_12">
<rect width="60" height="60" fill="white"/>
</clipPath>
</defs>
</svg>
