<svg width="60" height="60" viewBox="0 0 60 60" fill="none" xmlns="http://www.w3.org/2000/svg">
<g clip-path="url(#clip0_237_10)">
<g clip-path="url(#clip1_237_10)">
<path fill-rule="evenodd" clip-rule="evenodd" d="M7.03125 14.3555C3.15823 14.3555 0 17.5137 0 21.3867V47.2266C0 51.0996 3.15823 54.2578 7.03125 54.2578H52.9688C56.8418 54.2578 60 51.0996 60 47.2266V21.3867C60 17.5137 56.8418 14.3555 52.9688 14.3555H7.03125ZM7.03125 16.9336H52.9688C55.4581 16.9336 57.4219 18.8974 57.4219 21.3867V47.2266C57.4219 49.7159 55.4581 51.6797 52.9688 51.6797H7.03125C4.54192 51.6797 2.57812 49.7159 2.57812 47.2266V21.3867C2.57812 18.8974 4.54192 16.9336 7.03125 16.9336Z" fill="#BF9075"/>
<path d="M41.4844 22.9774C40.4171 22.9774 39.3499 23.3808 38.543 24.1875C38.543 24.1876 38.543 24.1877 38.543 24.1877L27.1289 35.6016L21.457 29.9299C21.457 29.9299 21.457 29.9298 21.457 29.9297C19.8432 28.3163 17.188 28.3163 15.5743 29.9297C15.5742 29.9298 15.5741 29.9299 15.574 29.9299C13.9606 31.5437 13.9606 34.1989 15.574 35.8127C15.5741 35.8127 15.5742 35.8127 15.5743 35.8127L22.752 42.9904C25.1485 45.3868 29.1095 45.3869 31.506 42.9904L44.426 30.0705C46.0394 28.4567 46.0394 25.8015 44.426 24.1877C44.4259 24.1877 44.4258 24.1876 44.4257 24.1875C43.6188 23.3808 42.5516 22.9774 41.4844 22.9774ZM41.4844 25.5395C41.8865 25.5395 42.2886 25.6966 42.6029 26.0108C43.2311 26.6394 43.2311 27.6191 42.6027 28.2476L29.683 41.1673C28.2997 42.5506 25.9584 42.5505 24.575 41.1673H24.5748L17.3971 33.9896C16.7689 33.361 16.7689 32.3813 17.3973 31.7527C18.0259 31.1245 19.0057 31.1246 19.6342 31.753L26.2175 38.3361C26.4593 38.5778 26.7871 38.7136 27.129 38.7136C27.4709 38.7136 27.7988 38.5778 28.0405 38.3361L40.3658 26.0108C40.6801 25.6966 41.0822 25.5395 41.4844 25.5395Z" fill="#BF9075"/>
<path fill-rule="evenodd" clip-rule="evenodd" d="M7.03023 5.74219C4.78573 5.74218 2.72732 7.01412 1.72359 9.02164L0.136067 12.1969C-0.0168136 12.5027 -0.0419569 12.8567 0.0661679 13.1811C0.174293 13.5054 0.406829 13.7735 0.712621 13.9264C1.01839 14.0793 1.37236 14.1045 1.69669 13.9964C2.02102 13.8883 2.28913 13.6558 2.44205 13.3501L4.02958 10.1748C4.599 9.03589 5.75677 8.32033 7.03023 8.32034H52.9699C54.249 8.32034 55.4138 9.03405 55.9945 10.1736L57.5624 13.2503C57.6393 13.4011 57.7451 13.5353 57.8738 13.6452C58.0026 13.7552 58.1517 13.8387 58.3128 13.891C58.4738 13.9432 58.6435 13.9633 58.8123 13.95C58.9811 13.9367 59.1456 13.8902 59.2964 13.8133C59.601 13.6581 59.8314 13.3882 59.937 13.063C60.0426 12.7379 60.0147 12.3841 59.8594 12.0795L58.2916 9.00287C57.273 7.00422 55.2131 5.74219 52.9699 5.74219H7.03023Z" fill="#BF9075"/>
</g>
</g>
<defs>
<clipPath id="clip0_237_10">
<rect width="60" height="60" fill="white"/>
</clipPath>
<clipPath id="clip1_237_10">
<rect width="60" height="60" fill="white"/>
</clipPath>
</defs>
</svg>
