<svg width="60" height="60" viewBox="0 0 60 60" fill="none" xmlns="http://www.w3.org/2000/svg">
<g clip-path="url(#clip0_237_8)">
<path fill-rule="evenodd" clip-rule="evenodd" d="M24.2587 5.74219C21.9936 5.74219 19.972 7.19981 19.2563 9.34891L18.5452 11.4844H7.03125C3.15825 11.4844 0 14.6426 0 18.5156V47.2266C0 51.0996 3.15825 54.2578 7.03125 54.2578H52.9688C56.8417 54.2578 60 51.0996 60 47.2266V18.5156C60 14.6426 56.8417 11.4844 52.9688 11.4844H52.9392L52.2281 9.34891C51.5124 7.19981 49.4908 5.74219 47.2256 5.74219H24.2587ZM24.2587 8.32031H47.2256C48.3907 8.32032 49.4139 9.05813 49.782 10.1635L50.7868 13.1806C50.8723 13.4374 51.0365 13.6608 51.256 13.819C51.4755 13.9773 51.7393 14.0625 52.01 14.0625H52.9688C55.458 14.0625 57.4219 16.0263 57.4219 18.5156V47.2266C57.4219 49.7158 55.458 51.6797 52.9688 51.6797H7.03125C4.54197 51.6797 2.57812 49.7158 2.57812 47.2266V18.5156C2.57812 16.0263 4.54197 14.0625 7.03125 14.0625H19.4744C19.7451 14.0625 20.0088 13.9773 20.2284 13.819C20.4479 13.6608 20.612 13.4374 20.6976 13.1806L21.7023 10.1635C22.0704 9.05813 23.0937 8.32031 24.2587 8.32031Z" fill="#BF9075"/>
<path fill-rule="evenodd" clip-rule="evenodd" d="M9.90167 28.7102C7.61936 28.7102 5.74152 30.5881 5.74152 32.8704C5.74152 35.1527 7.61936 37.0305 9.90167 37.0305C12.184 37.0305 14.0618 35.1527 14.0618 32.8704C14.0618 30.5881 12.184 28.7102 9.90167 28.7102ZM9.90167 31.2883C10.7907 31.2883 11.4837 31.9814 11.4837 32.8704C11.4837 33.7593 10.7907 34.4524 9.90167 34.4524C9.01269 34.4524 8.31964 33.7593 8.31964 32.8704C8.31964 31.9814 9.01269 31.2883 9.90167 31.2883Z" fill="#BF9075"/>
<path fill-rule="evenodd" clip-rule="evenodd" d="M9.90167 17.2258C7.61936 17.2258 5.74152 19.1037 5.74152 21.386C5.74152 23.6683 7.61936 25.5461 9.90167 25.5461C12.184 25.5461 14.0618 23.6683 14.0618 21.386C14.0618 19.1037 12.184 17.2258 9.90167 17.2258ZM9.90167 19.804C10.7907 19.804 11.4837 20.497 11.4837 21.386C11.4837 22.275 10.7907 22.968 9.90167 22.968C9.01269 22.968 8.31964 22.275 8.31964 21.386C8.31964 20.497 9.01269 19.804 9.90167 19.804Z" fill="#BF9075"/>
<path fill-rule="evenodd" clip-rule="evenodd" d="M35.7417 17.2258C27.1167 17.2258 20.0972 24.2454 20.0972 32.8704C20.0972 41.4953 27.1167 48.5149 35.7417 48.5149C44.3667 48.5149 51.3862 41.4953 51.3862 32.8704C51.3862 24.2454 44.3667 17.2258 35.7417 17.2258ZM35.7417 19.804C42.9733 19.804 48.8081 25.6387 48.8081 32.8704C48.8081 40.102 42.9733 45.9368 35.7417 45.9368C28.5101 45.9368 22.6753 40.102 22.6753 32.8704C22.6753 25.6387 28.5101 19.804 35.7417 19.804Z" fill="#BF9075"/>
<path fill-rule="evenodd" clip-rule="evenodd" d="M24.2571 11.4836C23.9153 11.4836 23.5874 11.6195 23.3456 11.8612C23.1039 12.1029 22.9681 12.4308 22.9681 12.7727C22.9681 13.1146 23.1039 13.4425 23.3456 13.6842C23.5874 13.926 23.9153 14.0618 24.2571 14.0618H47.2259C47.5678 14.0618 47.8956 13.926 48.1374 13.6842C48.3791 13.4425 48.515 13.1146 48.515 12.7727C48.515 12.4308 48.3791 12.1029 48.1374 11.8612C47.8956 11.6195 47.5678 11.4836 47.2259 11.4836H24.2571Z" fill="#BF9075"/>
</g>
<defs>
<clipPath id="clip0_237_8">
<rect width="60" height="60" fill="white"/>
</clipPath>
</defs>
</svg>
