<svg width="60" height="60" viewBox="0 0 60 60" fill="none" xmlns="http://www.w3.org/2000/svg">
<path fill-rule="evenodd" clip-rule="evenodd" d="M12.3368 0C8.30005 -1.64062e-07 5 3.30005 5 7.33683V55.7148C5 59.1872 9.1218 61.248 11.8997 59.1646L28.3488 46.8278C29.6151 45.878 31.341 45.878 32.6074 46.8278L49.0562 59.1646H49.0565C51.8343 61.2479 55.9559 59.1871 55.9559 55.7148V7.33683C55.9559 3.30005 52.6559 -1.64062e-07 48.6191 0H12.3368ZM12.3368 2.57813H48.6191C51.2625 2.57813 53.3778 4.69337 53.3778 7.33683V55.7148C53.3778 57.2249 51.8113 58.0082 50.6033 57.1021L34.1541 44.7653C31.9803 43.1349 28.9758 43.1349 26.802 44.7653L10.3526 57.1021C9.14454 58.0082 7.57813 57.225 7.57813 55.7148V7.33683C7.57813 4.69337 9.69337 2.57813 12.3368 2.57813Z" fill="#BF9075"/>
<path fill-rule="evenodd" clip-rule="evenodd" d="M30.4789 9.073C29.4248 9.07295 28.6752 9.75915 28.1935 10.4076C27.7117 11.0561 27.3671 11.7944 27.036 12.5277C26.7049 13.2611 26.3985 13.9911 26.1088 14.5592C25.8191 15.1273 25.4997 15.5058 25.4533 15.5395C25.4069 15.5732 24.9493 15.7585 24.3194 15.8584C23.6896 15.9584 22.8987 16.0242 22.099 16.1124C21.2992 16.2006 20.4906 16.3035 19.7249 16.5612C18.9593 16.8189 18.0783 17.3126 17.7525 18.3151C17.4267 19.3177 17.8456 20.2432 18.3135 20.9018C18.7814 21.5603 19.3778 22.1201 19.973 22.6616C20.5681 23.2031 21.1699 23.7164 21.6206 24.1675C22.0714 24.6186 22.3352 25.0402 22.3529 25.0947C22.3706 25.1492 22.3993 25.6459 22.2997 26.2758C22.2002 26.9057 22.0201 27.673 21.8568 28.4608C21.6936 29.2487 21.5412 30.0507 21.5497 30.8585C21.5582 31.6663 21.7599 32.6601 22.6127 33.2797C23.4655 33.8994 24.4698 33.7811 25.2407 33.5396C26.0116 33.2981 26.7269 32.9107 27.4257 32.512C28.1246 32.1134 28.8003 31.697 29.3687 31.4077C29.937 31.1184 30.4216 31.0002 30.4789 31.0002C30.5362 31.0002 31.0149 31.1183 31.5832 31.4077C32.1515 31.697 32.8273 32.1133 33.5261 32.512C34.225 32.9108 34.9403 33.2981 35.7112 33.5396C36.4821 33.7811 37.4922 33.8993 38.3451 33.2797C39.1979 32.6602 39.3936 31.6663 39.4021 30.8585C39.4106 30.0507 39.2641 29.2487 39.101 28.4608C38.9378 27.673 38.7517 26.9057 38.6521 26.2758C38.5526 25.6459 38.5872 25.1492 38.6049 25.0947C38.6227 25.0402 38.8864 24.6186 39.3372 24.1675C39.788 23.7165 40.3896 23.203 40.9848 22.6616C41.58 22.1202 42.1704 21.5603 42.6384 20.9018C43.1063 20.2432 43.531 19.3236 43.2053 18.321C42.8796 17.3185 41.9926 16.819 41.227 16.5612C40.4613 16.3034 39.6586 16.2006 38.8588 16.1124C38.0591 16.0241 37.2682 15.9584 36.6384 15.8584C36.0085 15.7584 35.545 15.5733 35.4986 15.5395C35.4522 15.5058 35.1387 15.1273 34.849 14.5592C34.5593 13.9911 34.2528 13.2611 33.9218 12.5277C33.5908 11.7944 33.2401 11.0562 32.7584 10.4076C32.2767 9.75911 31.533 9.07305 30.4789 9.073ZM30.4789 11.6478C30.3678 11.6478 30.4351 11.5979 30.6915 11.9431C30.9479 12.2883 31.2627 12.9009 31.5714 13.5848C31.8801 14.2688 32.1934 15.0258 32.5517 15.7285C32.9101 16.4313 33.2702 17.1035 33.9868 17.6242C34.7033 18.1449 35.4518 18.28 36.2309 18.4037C37.01 18.5274 37.8295 18.5931 38.5754 18.6754C39.3212 18.7577 39.9986 18.8689 40.4061 19.0061C40.8136 19.1433 40.7888 19.2239 40.7545 19.1183C40.7202 19.0127 40.785 19.0572 40.536 19.4077C40.2869 19.7582 39.8037 20.2492 39.2486 20.7541C38.6935 21.2591 38.07 21.7906 37.5124 22.3486C36.9547 22.9066 36.4278 23.455 36.1541 24.2974C35.8803 25.1398 35.9837 25.8982 36.1068 26.6774C36.2299 27.4565 36.4212 28.2516 36.5734 28.9864C36.7256 29.7212 36.8319 30.399 36.8273 30.8289C36.8228 31.2589 36.7375 31.2603 36.8273 31.1951C36.9171 31.1298 36.8951 31.2114 36.4848 31.0829C36.0745 30.9543 35.4594 30.6398 34.8076 30.2679C34.1559 29.896 33.4555 29.4684 32.7525 29.1104C32.0496 28.7525 31.3647 28.4195 30.4789 28.4195C29.5931 28.4195 28.9024 28.7526 28.1994 29.1104C27.4964 29.4683 26.802 29.8961 26.1501 30.2679C25.4983 30.6397 24.8833 30.9544 24.473 31.0829C24.0627 31.2114 24.0347 31.1298 24.1246 31.1951C24.2144 31.2604 24.135 31.2589 24.1304 30.8289C24.1259 30.399 24.2262 29.7212 24.3785 28.9864C24.5308 28.2516 24.7277 27.4565 24.8509 26.6774C24.9741 25.8982 25.0774 25.1399 24.8037 24.2974C24.53 23.455 23.9971 22.9066 23.4395 22.3486C22.8819 21.7906 22.2642 21.2591 21.7092 20.7541C21.1541 20.2491 20.6649 19.7582 20.4159 19.4077C20.1669 19.0571 20.2376 19.0068 20.2033 19.1124C20.169 19.218 20.1442 19.1433 20.5517 19.0061C20.9592 18.8689 21.6365 18.7576 22.3824 18.6754C23.1283 18.5931 23.9419 18.5274 24.721 18.4037C25.5001 18.2801 26.2544 18.1448 26.971 17.6242C27.6876 17.1036 28.0477 16.4313 28.4061 15.7285C28.7645 15.0258 29.0776 14.2688 29.3864 13.5848C29.6951 12.9009 30.0099 12.2882 30.2663 11.9431C30.5227 11.5979 30.5899 11.6478 30.4789 11.6478Z" fill="#BF9075"/>
</svg>
