<svg width="60" height="60" viewBox="0 0 60 60" fill="none" xmlns="http://www.w3.org/2000/svg">
<g clip-path="url(#clip0_237_11)">
<g clip-path="url(#clip1_237_11)">
<path fill-rule="evenodd" clip-rule="evenodd" d="M15.7129 5C11.6868 5 7.66077 6.532 4.59653 9.59641C-1.53225 15.7249 -1.53221 25.7008 4.59653 31.8295L8.67841 35.9114L26.2021 53.4351C28.2888 55.5218 31.7112 55.5218 33.798 53.4351L51.3214 35.9114L55.4035 31.8295C61.5322 25.7008 61.532 15.7249 55.4033 9.59641C49.2748 3.46772 39.2991 3.46768 33.1704 9.59641L30.5323 12.2347C30.2275 12.5395 29.7725 12.5395 29.4677 12.2347L26.8294 9.59641C23.765 6.53202 19.7389 5 15.7129 5ZM15.7129 7.56188C19.0737 7.56188 22.4346 8.84768 25.0064 11.4195L27.6447 14.0578C28.9347 15.3478 31.0653 15.3478 32.3553 14.0578L34.9934 11.4195C40.137 6.27591 48.437 6.27595 53.5802 11.4195C53.5803 11.4195 53.5804 11.4195 53.5804 11.4195C58.7239 16.5627 58.724 24.863 53.5804 30.0065L49.4983 34.0884L31.9749 51.612C30.8734 52.7135 29.1266 52.7135 28.0251 51.612L10.5015 34.0884L6.41957 30.0065C1.27606 24.863 1.27609 16.5627 6.41957 11.4195C8.99119 8.8477 12.352 7.56188 15.7129 7.56188Z" fill="#BF9075"/>
<path fill-rule="evenodd" clip-rule="evenodd" d="M46.8857 11.465C46.5636 11.5797 46.3003 11.8176 46.1537 12.1264C46.0071 12.4352 45.9891 12.7896 46.1037 13.1117C46.2184 13.4337 46.4563 13.697 46.765 13.8437C49.4325 15.1103 51.2865 17.6246 51.708 20.5472C51.7568 20.8856 51.938 21.1907 52.2118 21.3954C52.4855 21.6002 52.8294 21.6878 53.1678 21.639C53.5061 21.5902 53.8112 21.4089 54.016 21.1352C54.2207 20.8614 54.3083 20.5175 54.2595 20.1792C53.7152 16.4051 51.3156 13.1505 47.871 11.5149C47.5622 11.3682 47.2077 11.3503 46.8857 11.465Z" fill="#BF9075"/>
</g>
</g>
<defs>
<clipPath id="clip0_237_11">
<rect width="60" height="60" fill="white"/>
</clipPath>
<clipPath id="clip1_237_11">
<rect width="60" height="60" fill="white"/>
</clipPath>
</defs>
</svg>
