<svg width="81" height="66" fill="none" xmlns="http://www.w3.org/2000/svg"><path d="M.192 63.498v-.202H.47c.31 0 .533-.1.668-.301.08-.117.12-.387.12-.81v-4.798c0-.467-.05-.758-.153-.87-.142-.161-.354-.242-.635-.242H.19v-.202h3.024c1.11 0 1.953.126 2.53.378.58.252 1.046.671 1.396 1.26.354.583.531 1.262.531 2.036 0 .548-.09 1.052-.268 1.512a3.17 3.17 0 01-.789 1.188 3.644 3.644 0 01-1.303.772c-.518.186-1.119.28-1.802.28H.192zm2.119-.536c.456.102.845.153 1.166.153.42 0 .81-.077 1.167-.23.361-.157.673-.378.936-.662a3.13 3.13 0 00.62-1.046c.149-.41.224-.867.224-1.375 0-.511-.075-.971-.225-1.38a2.953 2.953 0 00-.619-1.04 2.632 2.632 0 00-.947-.663 3.067 3.067 0 00-1.2-.23 3.42 3.42 0 00-.525.044 6.092 6.092 0 00-.597.115v6.314zm10.925-1.95h-2.875l-.504 1.172c-.124.285-.186.5-.186.646 0 .059.01.114.027.165a.363.363 0 00.126.137.91.91 0 00.263.104c.114.025.261.045.444.06v.203H8.192v-.203c.307-.055.508-.126.603-.214.095-.087.192-.219.29-.394.102-.179.212-.403.329-.674l2.612-6.111h.191l2.585 6.177c.106.256.203.462.29.619.092.153.185.274.28.361a.815.815 0 00.306.176c.114.033.247.053.4.06v.203h-2.93v-.203c.146-.007.269-.024.367-.05a.678.678 0 00.23-.098.325.325 0 00.12-.137.374.374 0 00.04-.17.906.906 0 00-.055-.306 4.245 4.245 0 00-.165-.455l-.449-1.068zm-.153-.405l-1.26-3-1.292 3h2.552zm8.269-4.704v2.568h-.203c-.065-.492-.184-.885-.356-1.177a1.923 1.923 0 00-.728-.69 1.906 1.906 0 00-.47-.192 1.786 1.786 0 00-.5-.07 1.36 1.36 0 00-.52.098 1.4 1.4 0 00-.421.252 1.164 1.164 0 00-.274.367.952.952 0 00-.099.421c0 .205.048.384.143.537.095.15.224.288.389.416.168.128.363.252.586.372l.733.39c.296.156.577.31.844.46.266.149.5.315.7.498.205.178.368.385.488.618.12.23.18.508.18.833 0 .277-.058.542-.174.794a2.014 2.014 0 01-.482.657 2.309 2.309 0 01-.74.444c-.284.113-.598.17-.942.17a8.29 8.29 0 01-.328-.006 1.993 1.993 0 01-.263-.028 1.497 1.497 0 01-.263-.06 4.298 4.298 0 01-.318-.11 3.246 3.246 0 00-.268-.087 3.46 3.46 0 00-.449-.115.635.635 0 00-.098-.016.296.296 0 00-.22.082c-.05.054-.089.168-.114.34h-.203v-2.547h.203c.047.266.102.5.164.7.066.198.139.364.219.5.08.13.184.253.312.366.128.113.27.212.427.296.16.08.332.144.515.191.186.044.376.066.57.066.23 0 .436-.033.618-.098a1.49 1.49 0 00.466-.263 1.144 1.144 0 00.394-.855c0-.237-.05-.436-.148-.596a1.56 1.56 0 00-.4-.439 3.88 3.88 0 00-.58-.367 16.66 16.66 0 01-.696-.394c-.277-.164-.545-.32-.805-.465a4.252 4.252 0 01-.679-.488 2.235 2.235 0 01-.476-.608 1.747 1.747 0 01-.175-.81c0-.263.054-.513.164-.75.11-.238.261-.446.454-.625a2.14 2.14 0 01.685-.421c.267-.106.557-.159.87-.159.388 0 .806.097 1.255.29.197.092.341.137.433.137a.323.323 0 00.23-.082c.062-.058.11-.173.147-.345h.203zm3.406 3.614h3.45v-2.125c0-.175-.003-.317-.01-.427a1.172 1.172 0 00-.044-.268.356.356 0 00-.088-.17.622.622 0 00-.159-.12 1.028 1.028 0 00-.498-.132h-.263v-.202h3.181l-.005.202h-.263c-.07 0-.142.008-.219.022a.908.908 0 00-.219.071.729.729 0 00-.186.126.446.446 0 00-.115.176c-.04.12-.06.361-.06.722v4.792c0 .175.003.318.01.427.008.11.02.201.039.274.022.07.051.124.088.165.04.04.093.078.158.114.157.088.325.132.504.132h.263v.203h-3.176v-.203h.263c.3 0 .52-.09.662-.268.092-.114.137-.395.137-.844v-2.261h-3.45v2.261c0 .175.004.318.011.427.007.11.02.2.039.269.021.07.052.126.093.17a1.008 1.008 0 00.657.246h.268v.203h-3.182v-.203h.263c.31 0 .533-.09.668-.268.088-.114.132-.395.132-.844v-4.791c0-.176-.004-.318-.011-.428a1.172 1.172 0 00-.044-.268.357.357 0 00-.088-.17.535.535 0 00-.153-.12 1.038 1.038 0 00-.504-.132h-.263v-.202h3.182v.202h-.268a1.26 1.26 0 00-.225.022.768.768 0 00-.394.197.446.446 0 00-.115.176c-.044.116-.066.357-.066.722v2.125zm10.93 1.495h-2.874l-.504 1.172c-.124.285-.186.5-.186.646 0 .059.009.114.027.165a.362.362 0 00.126.137c.062.04.15.075.263.104.113.025.261.045.444.06v.203h-2.339v-.203c.307-.055.508-.126.603-.214a1.62 1.62 0 00.29-.394 6.93 6.93 0 00.328-.674l2.612-6.111h.192l2.585 6.177c.106.256.203.462.29.619.091.153.185.274.28.361a.816.816 0 00.306.176c.113.033.247.053.4.06v.203h-2.93v-.203c.146-.007.269-.024.367-.05a.68.68 0 00.23-.098.325.325 0 00.12-.137.375.375 0 00.039-.17.904.904 0 00-.055-.306 4.242 4.242 0 00-.164-.455l-.45-1.068zm-.153-.405l-1.26-3-1.291 3h2.551zm9.283-1.227l2.738 2.722c.449.45.832.756 1.15.92.321.16.639.252.953.274v.203h-3.532v-.203c.211 0 .363-.035.454-.104.095-.073.142-.154.142-.241a.983.983 0 00-.005-.115.267.267 0 00-.044-.115.913.913 0 00-.115-.153 3.085 3.085 0 00-.23-.241l-2.563-2.536v2.393c0 .175.004.318.011.427.008.11.02.2.039.269.021.07.052.126.093.17a1.008 1.008 0 00.657.246h.252v.203h-3.166v-.203h.263c.31 0 .533-.09.668-.268.088-.114.132-.395.132-.844v-4.797c0-.168-.004-.307-.011-.416a1.027 1.027 0 00-.038-.268.444.444 0 00-.093-.176.534.534 0 00-.154-.12 1.038 1.038 0 00-.504-.132h-.263v-.202h3.166v.202h-.252c-.07 0-.143.008-.22.022a.921.921 0 00-.213.071.651.651 0 00-.18.12.42.42 0 00-.121.176c-.044.117-.066.358-.066.723v2.273c.143-.117.305-.26.488-.427.182-.168.368-.345.558-.532.194-.186.384-.372.57-.558.19-.186.361-.358.515-.515a13.49 13.49 0 00.586-.652c.098-.146.147-.273.147-.383a.276.276 0 00-.115-.22c-.073-.065-.202-.098-.388-.098h-.17v-.202h2.727v.202c-.16.008-.307.03-.438.066a2.274 2.274 0 00-.488.236 5.932 5.932 0 00-.695.553l-2.245 2.25zm8.855-3.477c.96 0 1.794.367 2.502 1.1.709.73 1.063 1.644 1.063 2.739 0 1.128-.356 2.064-1.068 2.81-.712.744-1.574 1.116-2.585 1.116-1.026 0-1.885-.363-2.58-1.09-.693-.726-1.04-1.666-1.04-2.82 0-1.179.402-2.141 1.205-2.886.697-.646 1.532-.969 2.503-.969zm-.104.4c-.376 0-.71.08-1.002.24a2.123 2.123 0 00-.74.69 3.433 3.433 0 00-.454 1.08 6.08 6.08 0 00-.154 1.423c0 .522.052 1 .154 1.435.102.435.252.809.449 1.123.2.31.447.553.74.728.291.172.629.258 1.012.258.343 0 .661-.066.953-.198.296-.131.551-.334.767-.608.215-.277.383-.63.504-1.056.124-.428.186-.937.186-1.528 0-.566-.051-1.07-.154-1.512a3.306 3.306 0 00-.454-1.128c-.2-.307-.453-.54-.756-.7-.3-.165-.65-.247-1.051-.247zm11.686 7.196h-1.982l-2.514-3.472-.257.01h-.351a41.834 41.834 0 00-.17-.01v2.157c0 .468.052.758.154.871.139.16.347.24.624.24h.29v.203h-3.181v-.202h.279c.31 0 .535-.102.674-.307.076-.113.114-.381.114-.805v-4.797c0-.467-.05-.758-.153-.87-.142-.161-.354-.242-.635-.242h-.28v-.202h2.706c.781 0 1.362.058 1.741.175.187.055.36.137.52.246a1.89 1.89 0 01.718.893c.073.186.11.385.11.597 0 .23-.037.445-.11.646a1.61 1.61 0 01-.34.542 2.04 2.04 0 01-.569.427c-.23.12-.5.216-.81.285l1.533 2.13c.354.493.655.818.903.975.256.16.584.263.986.307v.203zm-5.273-3.817c.069 0 .13.001.18.005h.126c.354 0 .665-.04.931-.12.27-.084.495-.2.674-.345.179-.147.312-.318.4-.515.09-.201.136-.418.136-.652 0-.23-.038-.44-.115-.63a1.441 1.441 0 00-.832-.822 1.726 1.726 0 00-.64-.114 5.25 5.25 0 00-.86.104v3.089zm11.626-3.61l-4.88 6.977h3.045c.467 0 .825-.102 1.073-.306.252-.205.475-.619.668-1.243l.181.033-.35 1.965h-6.046v-.202l4.764-6.78h-2.376c-.197 0-.365.011-.504.033a1.428 1.428 0 00-.35.099.786.786 0 00-.247.153 1.005 1.005 0 00-.164.22c-.092.152-.176.456-.252.908h-.208l.153-1.856h5.493zm2.71 3.445h3.45v-2.125c0-.175-.003-.317-.01-.427a1.172 1.172 0 00-.044-.268.356.356 0 00-.088-.17.622.622 0 00-.159-.12 1.028 1.028 0 00-.498-.132h-.263v-.202h3.182l-.006.202h-.263c-.069 0-.142.008-.219.022a.907.907 0 00-.219.071.727.727 0 00-.186.126.445.445 0 00-.115.176c-.04.12-.06.361-.06.722v4.792c0 .175.004.318.01.427.008.11.02.201.04.274.021.07.05.124.087.165a1.017 1.017 0 00.663.246h.262v.203h-3.176v-.203h.263c.3 0 .52-.09.663-.268.09-.114.136-.395.136-.844v-2.261h-3.45v2.261c0 .175.004.318.011.427.008.11.02.2.039.269.022.07.053.126.093.17a1.008 1.008 0 00.657.246h.268v.203h-3.181v-.203h.262c.31 0 .533-.09.668-.268.088-.114.132-.395.132-.844v-4.791c0-.176-.004-.318-.011-.428a1.166 1.166 0 00-.044-.268.356.356 0 00-.088-.17.533.533 0 00-.153-.12 1.038 1.038 0 00-.504-.132h-.263v-.202h3.182v.202h-.268a1.19 1.19 0 00-.225.022.766.766 0 00-.394.197.445.445 0 00-.115.176c-.044.116-.066.357-.066.722v2.125zM38.72 38.102a11.957 11.957 0 01-.656 2.91 11.209 11.209 0 01-2.183 3.672 9.521 9.521 0 01-3.28 2.337c-1.3.554-2.7.834-4.112.821a19.225 19.225 0 01-4.101-.54V25.04l.117-.026a4.484 4.484 0 01-.492-2.002h-7.08v.712h.982c.988 0 1.733.283 2.234.85.36.399.539 1.422.539 3.07v16.919c0 1.493-.141 2.446-.423 2.858-.475.707-1.258 1.06-2.35 1.062h-.981v.714h11.665c2.4 0 4.515-.328 6.345-.984 1.7-.58 3.26-1.511 4.58-2.734a11.218 11.218 0 002.772-4.181 22.23 22.23 0 001.338-6.053c.059-.693.268-3.24-.114-5.514-.138-.824-.69-4.088-3.198-6.854-2.555-2.812-5.752-3.575-8.383-4.204a22.891 22.891 0 00-7.36-.54l.034.519c.67-.057 1.345-.06 2.016-.009 2.142.172 4.21.868 6.023 2.025 2.901 1.906 4.155 4.515 4.72 5.732 1.308 2.817 1.405 5.379 1.491 7.693a27.022 27.022 0 01-.143 4.009z" fill="#734230"/><path d="M22.35 26.636c.67-.125 1.348-.198 2.03-.218.072-.938.236-1.56.495-1.843.504-.567 1.25-.851 2.24-.851h.982v-.714h-5.933c.122 1.205.185 2.415.186 3.626z" fill="#734230"/><path d="M24.631 18.649a14.473 14.473 0 00-6.043 2.02c-4.681 2.965-7.252 8.6-4.44 13.774 2.054 4.005 5.652 6.647 10.274 6.148a13.995 13.995 0 005.98-2.17c2.024-1.346 3.592-3.267 4.956-5.265.78-1.117 1.45-2.33 2.36-3.369 1.1-1.25 2.23-2.472 3.663-3.359 1.899-1.164 4.127-1.858 6.368-1.696 3.407.196 6.604 2.185 7.856 5.441.422 1.04.617 2.138.79 3.236.676 4.128-1.417 7.847-5.065 9.754-1.456.738-3.143 1.686-4.835 1.196-1.134-.399-2.118-1.81-1.483-2.988.426-.683 1.357-.693 2.072-.666.463.043.899.242 1.236.563.75.667.905 2.079 2.178 1.78l.102.483a1.75 1.75 0 01-.938-.035c-.6-.192-.948-.785-1.22-1.277-.274-.492-.735-.944-1.324-1.008-.492-.057-1.079-.036-1.507.222-.444.346-.345 1.07-.057 1.531 1.276 2.037 3.921.598 5.541-.239a9.72 9.72 0 003.545-3.15 8.546 8.546 0 001.257-6.098c-.281-2.131-.912-4.244-2.48-5.769-1.488-1.53-3.598-2.34-5.698-2.482-2.1-.142-4.263.52-6.069 1.623a12.44 12.44 0 00-2.457 2.072 20.214 20.214 0 00-2.958 3.85c-1.516 2.294-3.236 4.54-5.55 6.08a14.476 14.476 0 01-6.216 2.253c-3.362.41-6.791-1.04-8.937-3.638-1.399-1.72-2.56-3.717-2.936-5.933-.804-4.514 1.977-8.971 5.72-11.294a14.958 14.958 0 016.262-2.095l.048.52.005-.015z" fill="#734230"/><path d="M45.744 41.163c-.234.064-.437.21-.573.41-.03.056-.157.305.022.866a2.62 2.62 0 001.102 1.48c.996.608 2.062.25 2.675.045.409-.137.898-.375.873-.567-.024-.192-.57-.142-.924-.592-.143-.182-.082-.225-.288-.607a2.396 2.396 0 00-.558-.77c-.345-.284-.727-.328-1.141-.375a2.335 2.335 0 00-1.188.11zm14.663-3.894c.891-.421 3.635-1.883 4.906-4.906.47-1.155.709-2.39.703-3.638.01-.97.008-2.771-1.078-4.694a8.514 8.514 0 00-3.564-3.36c-1.697-.867-3.28-.931-4.76-.997a15.876 15.876 0 00-2.32.066l6.908-6.938c.426-.392.815-.727 1.169-1.004.354-.276.678-.51.977-.693a6.31 6.31 0 01.815-.456 7.48 7.48 0 01.673-.272c.44-.117.892-.184 1.347-.2V9.55h-8.397v.625h.518c.573 0 .974.097 1.209.295a.883.883 0 01.345.693c0 .337-.151.73-.454 1.181-.09.125-.295.365-.615.726-.319.36-.715.784-1.186 1.275-.471.49-.996 1.022-1.573 1.595a239.05 239.05 0 01-1.75 1.722 84.037 84.037 0 01-1.727 1.637c-.563.518-1.06.956-1.498 1.316v-7.02c0-1.125.068-1.868.203-2.228.075-.21.202-.4.369-.55a2.26 2.26 0 01.565-.37c.209-.097.43-.168.656-.211a3.46 3.46 0 01.665-.068h.782v-.625h-9.736v.625h.809a3.2 3.2 0 011.554.404c.18.095.341.221.478.372.13.156.224.337.278.532.076.272.119.553.126.835.017.337.026.765.026 1.284v14.788c0 1.386-.135 2.252-.404 2.598-.415.551-1.099.827-2.053.828h-.808v.624h9.73v-.624h-.774a3.088 3.088 0 01-1.531-.405 2.054 2.054 0 01-.49-.364 1.202 1.202 0 01-.275-.52 3.867 3.867 0 01-.126-.826 11.552 11.552 0 01-.035-1.318c.038-.773.033-3.452 0-7.378 1.05-.028 2.098.058 3.129.257a12.8 12.8 0 014.999 1.994c1.19.812 2.807 1.905 3.664 4.018a7.955 7.955 0 01-.815 7.32 7.395 7.395 0 01-2.072 1.944" fill="#734230"/><path d="M60.827 36.728c.102.2.086.23.057.237l-.071.049-.143.093a14.28 14.28 0 01-2.109 1.137c-4.154 1.789-8.889 2.326-13.257 1.029-8.748-2.495-15.139-11.381-14.57-20.516.183-3.608 1.34-7.181 3.453-10.125A20.784 20.784 0 0144.893.77C46.619.235 48.425.06 50.22.004c.902-.022 1.805.048 2.693.21.897.142 1.85.478 2.473 1.176.357.346.6.913.395 1.405-.476 1.257-2.301 1.334-3.127.405a1.897 1.897 0 01-.437-1.365c-.013-.402.104-.89-.026-1.238-.044-.127-.27-.19-.48-.27l.037-.174c.116.005.231.02.345.043.442.078.528.595.51.969-.058.849-.106 1.732.8 2.129.707.327 1.727.157 2.03-.633.302-.79-.74-1.465-1.342-1.732-1.209-.462-2.576-.556-3.868-.542-1.765.059-3.536.23-5.227.755a18.61 18.61 0 00-2.46.969c-12.224 5.697-15.23 21.355-5.963 31.18 2.418 2.569 5.474 4.56 8.872 5.519 2.974.85 6.116.916 9.123.189 1.907-.508 3.691-1.395 5.36-2.425.136-.078.346-.229.48-.31.017-.025.05-.025.196.143l.228.338-.005-.017z" fill="#734230"/><path d="M52.173.36c.143-.068.464-.15 1.441.254a7.8 7.8 0 011.116.573c.435.257.57.374.69.537.154.216.238.474.24.74.006.24-.065.474-.201.67-.21.252-.507.414-.831.452a1.563 1.563 0 01-1.209-.164c-.345-.222-.713-.439-.758-.55-.145-.346-.072-.519-.203-.99-.064-.232.209-.553-.042-.866-.173-.21-.059-.452-.017-.601.005-.02-.349.006-.226-.054z" fill="#734230"/></svg>