<svg width="73" height="69" fill="none" xmlns="http://www.w3.org/2000/svg"><g clip-path="url(#clip0_282_101)"><path d="M55.655 8.742c8.535 4.934 14.877 14.324 16.78 24.811.783 4.337.836 8.909-.406 13.118-1.41 4.758-4.395 8.78-7.883 11.95-9.09 8.25-21.403 10.987-33.109 10.271-9.301-.569-19.016-3.492-25.393-11.066-6.377-7.574-7.971-20.672-1.533-28.177 2.563-2.993 6.051-4.798 8.79-7.594C19.508 15.345 22.01 3.002 30.659.451 33.31-.333 36.12.03 38.814.58c7.302 1.481 13.098 6.004 16.841 8.163z" fill="#F2CAB3" fill-opacity=".6"/><path d="M36 24.664l5.75 10.949L59 21.145" stroke="#BF9075" stroke-width="3"/></g><defs><clipPath id="clip0_282_101"><path fill="#fff" d="M0 0h73v69H0z"/></clipPath></defs></svg>