<svg width="133" height="295" viewBox="0 0 133 295" fill="none" xmlns="http://www.w3.org/2000/svg">
<path fill-rule="evenodd" clip-rule="evenodd" d="M133 46.1822C132.906 46.2479 132.813 46.3134 132.719 46.3788C131.211 47.4297 129.666 48.4107 128.095 49.334C126.513 50.2451 124.897 51.0649 123.204 51.6792C121.522 52.2949 119.774 52.6957 118.041 52.685L117.975 52.6766C116.455 52.7688 114.933 52.6866 113.421 52.4208C111.909 52.155 110.441 51.7098 109.037 51.0985C107.633 50.4873 106.305 49.7115 105.083 48.7967C103.861 47.8819 102.759 46.8082 101.805 45.6224C101.322 45.0289 100.888 44.4087 100.489 43.7713L100.337 43.5346L100.27 43.4284L100.195 43.2993C100.16 43.2319 100.122 43.1658 100.085 43.1002L100.085 43.0997L100.085 43.0996C100.026 42.9954 99.967 42.8921 99.9173 42.7858L99.6702 42.298L99.4478 41.7914C98.8765 40.4144 98.5632 38.9501 98.5213 37.4763C98.4793 36.0025 98.6964 34.5286 99.1749 33.131C99.6534 31.7334 100.391 30.4335 101.345 29.3023C101.828 28.732 102.351 28.2101 102.924 27.7381C103.508 27.2675 104.13 26.8561 104.781 26.4917L105.033 26.3601L105.142 26.2976L105.272 26.2379C105.451 26.1516 105.63 26.0653 105.785 25.9976C106.104 25.8637 106.467 25.746 106.818 25.6377C107.527 25.4439 108.25 25.3279 108.984 25.3112C110.453 25.2671 111.937 25.5837 113.248 26.2159C114.573 26.8282 115.723 27.7775 116.592 28.9199C116.808 29.1971 117.017 29.5279 117.177 29.7981L117.316 30.0549L117.425 30.2753C117.445 30.3234 117.467 30.3728 117.489 30.4231C117.536 30.5288 117.585 30.6381 117.618 30.7455C117.859 31.3848 117.982 32.0639 117.971 32.7369C117.949 34.083 117.453 35.435 116.523 36.4604C116.068 36.9799 115.511 37.4104 114.886 37.7454C114.311 38.0431 113.626 38.2182 112.931 38.1962C112.256 38.1877 111.566 38.025 110.951 37.6976C111.802 37.5434 112.489 36.8681 112.593 35.9782C112.722 34.874 111.904 33.8686 110.761 33.7252C109.618 33.5818 108.593 34.356 108.464 35.4603C108.426 35.7819 108.469 36.0918 108.582 36.378C108.572 36.4637 108.561 36.5602 108.606 36.653C109.372 38.1958 111.069 39.2898 112.876 39.4403C113.791 39.5116 114.698 39.3643 115.554 38.9714C116.339 38.613 117.064 38.0947 117.666 37.474C118.881 36.234 119.607 34.5413 119.642 32.7943C119.665 31.9269 119.52 31.0493 119.233 30.2193C119.156 30.0138 119.079 29.8083 118.979 29.6L118.824 29.2869L118.685 29.0301C118.45 28.6308 118.23 28.2986 117.956 27.9487C116.922 26.5789 115.509 25.4662 113.925 24.7562C112.341 24.0463 110.576 23.7377 108.863 23.8384C108.001 23.8934 107.16 24.0598 106.343 24.3054C105.933 24.4389 105.544 24.5859 105.152 24.7651C104.949 24.8594 104.77 24.9457 104.601 25.0441L104.469 25.1146L104.323 25.2051L104.056 25.3674C102.64 26.2123 101.377 27.2938 100.352 28.5468C99.3273 29.7997 98.5083 31.2199 97.9803 32.7527C97.4424 34.2734 97.1869 35.8839 97.2113 37.5078C97.2468 39.133 97.5882 40.7423 98.1765 42.2629L98.4136 42.8365L98.6853 43.4036C98.7459 43.5272 98.8077 43.6414 98.8694 43.7555C98.9003 43.8125 98.9312 43.8696 98.9619 43.9278L99.0369 44.0569C99.0615 44.1035 99.0785 44.1298 99.0955 44.1562C99.1039 44.1693 99.1124 44.1824 99.1218 44.1981L99.2719 44.4562C99.6864 45.15 100.148 45.8279 100.646 46.4779C101.656 47.7684 102.813 48.9471 104.113 49.9694C105.412 50.9918 106.829 51.8767 108.335 52.5769C110.599 53.6333 113.069 54.2803 115.568 54.485C115.152 54.5742 114.701 54.67 114.231 54.7416C113.441 54.8599 112.566 54.9242 111.654 54.9187C109.816 54.9383 107.773 54.497 105.768 53.5384C103.776 52.5597 101.862 51.0142 100.139 49.0902C100.058 48.9956 99.9762 48.9008 99.8942 48.8057L99.8942 48.8056C99.5538 48.4106 99.2068 48.008 98.8855 47.5732C98.8348 47.5078 98.784 47.443 98.7333 47.3785L98.7326 47.3775L98.7323 47.3771C98.578 47.1805 98.4252 46.9856 98.28 46.7793C98.0868 46.5049 97.8936 46.2304 97.7016 45.9453L97.4125 45.5283L97.1369 45.0913C97.1099 45.0494 97.0831 45.0078 97.0565 44.9663C96.9891 44.8614 96.9225 44.7576 96.8559 44.6538C96.763 44.5088 96.6701 44.3638 96.5747 44.2157C96.3055 43.7866 96.0331 43.3341 95.7594 42.8794L95.7591 42.8789L95.758 42.877C95.6556 42.7069 95.553 42.5365 95.4504 42.3669C93.9411 39.8605 92.3617 37.2801 90.7058 34.6792L90.7054 34.6786L90.705 34.678C89.8662 33.3766 89.0274 32.0751 88.1554 30.7696C87.2707 29.4729 86.3749 28.1748 85.4433 26.894C84.46 25.5741 83.4532 24.2621 82.3834 23.0074C82.3331 22.8597 82.284 22.7013 82.2349 22.5428C82.1875 22.3871 82.1369 22.2309 82.0853 22.0713L82.0853 22.0712L82.0851 22.0708C82.0393 21.9293 81.9927 21.7852 81.9466 21.6364C81.6219 20.3665 81.385 18.9226 81.379 17.3337C81.4051 15.7597 81.6596 14.062 82.2286 12.3712C82.8074 10.6924 83.702 9.00978 84.9454 7.5232C85.0793 7.37902 85.2097 7.23441 85.3401 7.08979L85.3401 7.08974C85.5357 6.8728 85.7313 6.65585 85.9389 6.4404C86.0328 6.35972 86.1242 6.27601 86.2156 6.1923C86.307 6.10859 86.3985 6.02488 86.4923 5.94419L86.7703 5.68534L86.9087 5.56128L86.9729 5.49322L87.01 5.46523L87.6509 4.99086C87.6982 4.95933 87.7463 4.92183 87.7933 4.88511C87.8555 4.83654 87.916 4.78932 87.9708 4.75904L88.272 4.59015C88.3483 4.54711 88.4216 4.50221 88.4947 4.45745C88.6181 4.38187 88.7409 4.30669 88.8758 4.24163L88.876 4.24155C89.1018 4.13938 89.3276 4.03721 89.5436 3.92294C91.3606 3.11748 93.4581 2.80408 95.5212 3.07379C96.5521 3.214 97.5693 3.47217 98.5344 3.88695C98.6793 3.9433 98.8149 4.01336 98.9497 4.08296C99.0453 4.13236 99.1404 4.18153 99.2382 4.22541L99.5894 4.4L99.9258 4.6054L99.9262 4.60565C100.147 4.74201 100.367 4.87838 100.586 5.02546L101.206 5.50568C101.358 5.60796 101.486 5.73344 101.615 5.85974C101.672 5.91517 101.728 5.97075 101.787 6.0246L102.072 6.28872L102.143 6.35206L102.173 6.3884L102.184 6.38979L102.323 6.54866L102.59 6.86501L102.729 7.02388L102.825 7.16645C102.873 7.24463 102.927 7.31692 102.981 7.38974C103.066 7.50354 103.152 7.61865 103.218 7.75959C103.716 8.60529 104.024 9.53592 104.138 10.4858C104.346 12.372 103.775 14.2693 102.638 15.6169L102.534 15.7294C102.418 15.854 102.307 15.9742 102.188 16.0935L102.188 16.0936C102.025 16.2363 101.862 16.379 101.701 16.5109L101.638 16.5683L101.636 16.579L101.603 16.5748L101.455 16.6868L101.161 16.8892C101.092 16.9226 101.029 16.9568 100.968 16.9904L100.967 16.9905C100.87 17.0439 100.774 17.0961 100.658 17.1416C99.9339 17.4641 99.1763 17.5866 98.4461 17.5712C96.987 17.5295 95.7521 16.9177 94.8974 16.1361L94.7459 15.9866L94.6646 15.9111L94.6424 15.9083L94.6141 15.8612C94.5862 15.8269 94.5576 15.7925 94.5298 15.7591C94.4498 15.6629 94.3769 15.5753 94.3495 15.5235L94.2621 15.4037C94.7007 15.698 95.2074 15.8921 95.7734 15.9632C97.638 16.1971 99.3177 14.9284 99.5279 13.1273C99.7382 11.3261 98.3989 9.67876 96.5343 9.44484C94.9694 9.24851 93.5408 10.1027 93.0007 11.4491C92.6324 11.9033 92.2365 12.5933 92.0919 13.5433C92.0243 14.1222 92.0355 14.798 92.2699 15.491L92.2908 15.5517C92.3429 15.7042 92.3974 15.8634 92.4787 16.0176C92.5144 16.0982 92.5599 16.1909 92.6053 16.2837C92.6357 16.3455 92.6758 16.4085 92.716 16.4715C92.7361 16.5031 92.7562 16.5346 92.7751 16.566C92.8658 16.7233 92.9443 16.8247 93.0187 16.9208C93.0441 16.9536 93.069 16.9858 93.0938 17.0194L93.1332 17.0678L93.1824 17.1284L93.2132 17.154L93.3129 17.2644L93.5235 17.4866C94.0973 18.0699 94.8267 18.5747 95.6858 18.9327C96.5462 19.28 97.5141 19.4775 98.5219 19.4299C99.5298 19.3823 100.544 19.0853 101.47 18.5815C101.647 18.4857 101.834 18.3586 102.012 18.2381L102.012 18.2381C102.036 18.2216 102.06 18.2054 102.084 18.1893C102.111 18.171 102.138 18.1531 102.164 18.1355L102.438 17.9088L102.575 17.7955L102.637 17.7489L102.675 17.7101L102.74 17.642C102.829 17.5499 102.922 17.4582 103.014 17.3664C103.106 17.2747 103.199 17.183 103.288 17.0909C103.458 16.8945 103.627 16.6982 103.797 16.4912C104.446 15.6588 104.951 14.7105 105.298 13.6663C105.633 12.6314 105.777 11.4963 105.684 10.3642C105.603 9.22278 105.287 8.07357 104.725 7.00231C104.644 6.81703 104.525 6.62697 104.406 6.43691C104.355 6.35546 104.304 6.27402 104.256 6.19294L104.133 5.99257L104.007 5.8244L103.753 5.48801L103.626 5.3198L103.577 5.25925L103.557 5.235L103.518 5.18657L103.438 5.10038L103.128 4.76776C103.071 4.70807 103.016 4.64781 102.962 4.58785L102.961 4.58756L102.961 4.58752C102.813 4.42437 102.666 4.26347 102.493 4.12253L101.81 3.51465C101.652 3.38609 101.484 3.26581 101.315 3.14554L101.315 3.14549C101.231 3.08538 101.146 3.02526 101.063 2.96411L101.063 2.9638C100.939 2.87215 100.814 2.78049 100.689 2.69955L100.288 2.4644C100.191 2.40962 100.095 2.3523 99.9991 2.29522C99.8258 2.19168 99.6538 2.08891 99.475 2.00338C98.3597 1.42834 97.1429 1.04727 95.9 0.793446C94.6447 0.548946 93.3632 0.529573 92.0999 0.643042C90.8354 0.767231 89.6112 1.12492 88.4535 1.58884C88.1683 1.71624 87.8943 1.84502 87.6079 1.98314C87.4178 2.06806 87.2342 2.18282 87.0507 2.29758C86.9589 2.35496 86.8671 2.41235 86.7745 2.466L86.3621 2.71885C86.2859 2.76523 86.2242 2.81343 86.1625 2.86163L86.1623 2.86175C86.1161 2.89786 86.0698 2.93397 86.0175 2.96931L85.3629 3.46372L85.2888 3.51969L85.2641 3.53837L85.2258 3.57709L85.1492 3.65448L84.9849 3.80792L84.6687 4.10546C84.5613 4.20604 84.4571 4.30429 84.3529 4.40254C84.2483 4.50109 84.1438 4.59964 84.0361 4.70053C83.7123 5.05155 83.4022 5.41956 83.0952 5.78403L83.0935 5.786C83.0344 5.85617 82.9754 5.9262 82.9164 5.99596C82.6899 6.27901 82.4894 6.57412 82.2903 6.86702L82.29 6.86741C82.1763 7.0347 82.0631 7.20128 81.9459 7.36447C81.8333 7.5071 81.7477 7.66712 81.6628 7.82593L81.6628 7.82599C81.6181 7.90963 81.5735 7.99293 81.5253 8.07318C81.3954 8.31795 81.2667 8.55198 81.1269 8.78464C80.643 9.74646 80.2578 10.7315 79.9958 11.7212C79.8469 12.1447 79.7663 12.5851 79.6869 13.0193L79.6864 13.0221C79.6761 13.0784 79.6658 13.1345 79.6554 13.1905C79.6307 13.3085 79.6087 13.4269 79.5868 13.544L79.5867 13.5444C79.5635 13.6691 79.5405 13.7925 79.5148 13.9126C79.486 14.1591 79.4696 14.3963 79.4532 14.6335V14.6336V14.6337C79.3432 15.5758 79.3896 16.4951 79.4333 17.3611L79.435 17.3944C79.4848 17.8358 79.5359 18.2664 79.5882 18.6863C79.625 18.9816 79.6966 19.2651 79.7669 19.5437L79.767 19.5438C79.7967 19.6614 79.8261 19.778 79.8526 19.8943C79.8689 19.978 79.8892 20.0586 79.9092 20.1377C79.9238 20.1955 79.9382 20.2524 79.9506 20.3091L79.8613 20.219C79.6673 20.0229 79.4677 19.8213 79.2746 19.6369C78.1194 18.5347 76.8889 17.4992 75.5496 16.6241C74.2115 15.7383 72.7622 15.0343 71.2384 14.5821C69.7282 14.1098 68.1348 13.9643 66.6656 14.0084C66.383 14.0042 66.1143 14.0299 65.8463 14.0554L65.8462 14.0554C65.7412 14.0654 65.6363 14.0754 65.5307 14.0836C65.3899 14.1076 65.2481 14.1267 65.1058 14.1458L65.1057 14.1458C64.8765 14.1767 64.6462 14.2076 64.4178 14.2595C63.6812 14.3955 62.9777 14.6336 62.3013 14.9295C60.9484 15.5212 59.78 16.4624 58.9911 17.6253C58.1924 18.776 57.7991 20.1191 57.7266 21.4153C57.6529 22.7223 57.9542 24.0002 58.5358 25.0957C58.8321 25.6441 59.2013 26.1473 59.636 26.5717L59.716 26.6579L59.7567 26.6956L59.7764 26.7198C59.7764 26.7198 59.7554 26.7063 59.8269 26.7697L59.9697 26.8964C59.9815 26.9061 59.9934 26.9159 60.0055 26.9258C60.0201 26.9377 60.035 26.9498 60.05 26.9619C60.1195 27.0181 60.1913 27.0762 60.2567 27.1391C60.3029 27.1775 60.3519 27.2162 60.4008 27.255C60.4498 27.2938 60.4988 27.3326 60.545 27.371C60.6595 27.4507 60.7741 27.5303 60.8776 27.6086C62.6085 28.8917 64.4837 29.4207 66.044 29.4641C66.8309 29.4758 67.5317 29.3571 68.1154 29.1801C68.4092 29.0755 68.6684 28.9775 68.898 28.8432C69.1362 28.7316 69.3326 28.5931 69.4944 28.4611C69.613 28.3907 69.7053 28.2984 69.7898 28.2139C69.8347 28.169 69.8773 28.1264 69.9206 28.0903C70.017 28.0009 70.0903 27.9008 70.1511 27.8179L70.1826 27.7751C70.305 27.5947 70.3718 27.5051 70.3718 27.5051C70.3903 27.4842 70.3975 27.4619 70.4059 27.4358C70.4093 27.4252 70.4129 27.4141 70.4176 27.4021C70.6648 27.1177 70.8294 26.7685 70.8757 26.3718C71.0046 25.2675 70.1872 24.2622 69.0441 24.1187C67.9009 23.9753 66.8758 24.7496 66.7469 25.8538C66.6518 26.6686 67.0712 27.4174 67.7563 27.8188C67.7452 27.8174 67.7341 27.816 67.7106 27.824C67.2517 27.8969 66.7188 27.928 66.1083 27.8514C65.4979 27.7748 64.8432 27.5948 64.1542 27.3234C63.4651 27.052 62.7406 26.6022 62.0778 26.1057C61.9953 26.0409 61.9128 25.9762 61.829 25.9222C61.7828 25.8837 61.7369 25.8426 61.691 25.8015C61.6451 25.7604 61.5993 25.7193 61.5531 25.6809C61.4834 25.6139 61.413 25.5532 61.338 25.4886L61.2673 25.4275L61.1464 25.3203C61.143 25.3145 61.1353 25.3021 61.1467 25.3035L61.1479 25.2928L61.106 25.2658L61.0555 25.216C60.7624 24.929 60.4978 24.5912 60.2962 24.1961C59.8682 23.4244 59.6182 22.4793 59.6001 21.4763C59.5932 20.4747 59.8293 19.4165 60.3884 18.4859C60.9475 17.5552 61.8 16.7158 62.9184 16.2034C63.4677 15.9351 64.065 15.7381 64.7104 15.6124C64.9327 15.5554 65.1631 15.5268 65.3928 15.4983C65.4868 15.4866 65.5808 15.4749 65.674 15.4614C65.7947 15.4565 65.9175 15.4474 66.0407 15.4384L66.0408 15.4384C66.2523 15.4228 66.4649 15.4072 66.6707 15.4123C68.0448 15.4107 69.4124 15.5605 70.7463 15.9998C72.0789 16.4498 73.3532 17.11 74.5384 17.9549C75.7223 18.8105 76.8209 19.8186 77.854 20.9054C79.9176 23.1006 81.7315 25.6016 83.459 28.168C84.3227 29.4511 85.1618 30.753 85.9885 32.0641C86.8164 33.3646 87.632 34.6743 88.4365 35.9827C88.9627 36.8248 89.4843 37.6651 90.0029 38.5007C91.0836 40.2416 92.1512 41.9614 93.2194 43.6317C93.3913 43.8956 93.557 44.1588 93.7228 44.422C93.9438 44.773 94.1649 45.124 94.4004 45.4768C94.5007 45.6307 94.6037 45.7851 94.7067 45.9394C94.8098 46.0937 94.9129 46.2481 95.0131 46.4021L95.3207 46.8541L95.6518 47.2981C95.7919 47.4947 95.9374 47.6872 96.0816 47.878L96.082 47.8785C96.1567 47.9774 96.231 48.0758 96.3041 48.174C96.4381 48.3542 96.5861 48.5276 96.7336 48.7005C96.8219 48.8038 96.9099 48.907 96.9946 49.0112C97.3604 49.4712 97.7676 49.9067 98.1693 50.3363C98.2529 50.4257 98.3363 50.5149 98.4191 50.604C99.4165 51.6103 100.421 52.5522 101.535 53.3337C102.638 54.1138 103.786 54.791 104.959 55.2643C107.308 56.2661 109.697 56.5441 111.718 56.3952C113.751 56.2478 115.431 55.7514 116.738 55.2627C117.41 55.0098 118.001 54.7685 118.499 54.5482C119.074 54.5442 119.642 54.5066 120.202 54.4354C120.036 54.5139 119.869 54.5956 119.698 54.6789L119.697 54.679C119.437 54.8056 119.17 54.936 118.89 55.0649C116.734 56.0672 114.078 57.2134 110.928 58.2433C107.789 59.2853 104.132 60.219 100.079 60.6024C96.0507 60.9564 91.5046 60.7342 87.3303 58.6767C87.2027 58.6118 87.0779 58.5472 86.9531 58.4826L86.9518 58.4819C86.8275 58.4175 86.7031 58.3531 86.576 58.2884C86.3209 58.1585 86.0769 58.03 85.8255 57.8679C85.6992 57.7922 85.576 57.7142 85.4528 57.6362C85.3296 57.5582 85.2064 57.4802 85.0801 57.4045C85.0025 57.3545 84.9247 57.3065 84.8472 57.2588L84.847 57.2586C84.6734 57.1516 84.5014 57.0456 84.3371 56.9197C84.1782 56.8019 84.0177 56.6862 83.8573 56.5706C83.5364 56.3394 83.2156 56.1082 82.9068 55.8592C82.7787 55.7526 82.6496 55.6467 82.5204 55.5407L82.5203 55.5406C82.1837 55.2646 81.8463 54.9877 81.5224 54.6956C79.6933 53.0955 78.0029 51.2735 76.3236 49.355C75.9264 48.9033 75.5368 48.4402 75.1445 47.9737L75.1438 47.973C75.016 47.821 74.8878 47.6686 74.759 47.5162C74.6854 47.2785 74.6228 47.0422 74.5727 46.7966C74.4269 46.2127 74.4119 45.569 74.4118 44.8945C74.4339 44.2229 74.5708 43.533 74.7964 42.8542C75.0122 42.1633 75.3808 41.5134 75.8123 40.904C75.8717 40.8298 75.9282 40.7554 75.9848 40.6809C76.0413 40.6064 76.0979 40.5319 76.1572 40.4577L76.544 40.0385L76.5947 39.9905L76.6206 39.9611L76.7454 39.8571L76.9838 39.6477C77.0422 39.6074 77.0952 39.5682 77.1469 39.5299C77.2254 39.4718 77.3011 39.4158 77.3888 39.3613C77.9963 38.9806 78.701 38.7318 79.4216 38.6373C80.1322 38.5306 80.866 38.6118 81.5318 38.7932C82.1963 38.9854 82.8125 39.302 83.3188 39.6919L83.4838 39.8213L83.6871 40.01C83.7353 40.0548 83.7614 40.0853 83.7852 40.1131C83.8015 40.1322 83.8167 40.15 83.8373 40.1703C83.8527 40.1893 83.8701 40.2069 83.8878 40.2248C83.9152 40.2525 83.9434 40.2811 83.9665 40.317C84.1314 40.5444 84.2852 40.7704 84.4033 41.0136C84.5397 41.2918 84.607 41.5831 84.6535 41.8608C84.3308 41.5375 83.8958 41.3089 83.4074 41.2476C82.2643 41.1042 81.2392 41.8785 81.1103 42.9828C80.9814 44.087 81.7987 45.0924 82.9419 45.2358C83.397 45.2929 83.8239 45.2051 84.1955 45.0124C84.2732 45.0221 84.3546 44.9997 84.4176 44.9423C84.4176 44.9423 84.5053 44.8663 84.6684 44.7236C84.8315 44.5809 85.0514 44.3365 85.2826 43.9957C85.504 43.6428 85.7268 43.1812 85.829 42.5957C85.9422 42.0116 85.9446 41.3157 85.725 40.592C85.6208 40.2308 85.461 39.8627 85.2322 39.5077C85.1165 39.3409 84.9516 39.1135 84.8322 38.9788L84.6537 38.7715L84.634 38.7473L84.5934 38.7096L84.5207 38.6569L84.3988 38.5438C83.7805 37.9549 82.9821 37.4631 82.0723 37.1532C81.1736 36.8447 80.1636 36.718 79.1581 36.842C78.1638 36.9675 77.1776 37.3115 76.3466 37.8708C76.1391 38.0079 75.9156 38.1866 75.7167 38.3465L75.4881 38.5681L75.3745 38.6735L75.2855 38.7602L75.2213 38.8283L74.7652 39.3585C74.6688 39.4769 74.5812 39.6062 74.4935 39.7354L74.4933 39.7356C74.4496 39.8001 74.4058 39.8646 74.3609 39.9278C73.8638 40.7139 73.4738 41.5461 73.2726 42.402C73.0713 43.2578 73.007 44.0983 73.0501 44.8869C73.0707 45.0961 73.0926 45.2947 73.1144 45.4932C72.9243 45.2594 72.733 45.0253 72.5413 44.7909L72.5408 44.7903C72.1567 44.3206 71.7712 43.8491 71.3911 43.3734C71.213 43.1543 71.0349 42.9348 70.8567 42.7151L70.8564 42.7147C69.369 40.8816 67.8674 39.0309 66.2073 37.2297L65.5166 36.4904L64.7457 35.7627C64.6543 35.6769 64.5632 35.5896 64.4715 35.5019L64.4711 35.5015C64.3083 35.3457 64.144 35.1885 63.9747 35.0351L63.163 34.3676C63.0635 34.2891 62.9672 34.2081 62.8712 34.1274C62.6984 33.9823 62.5266 33.8379 62.3389 33.7095L61.4642 33.0993C61.0576 32.7919 60.6164 32.5357 60.1751 32.2794C59.9987 32.1769 59.8222 32.0744 59.6479 31.9686C57.1686 30.5372 54.3233 29.6363 51.4089 29.423C48.4873 29.1761 45.5469 29.7645 42.935 30.9162C42.834 30.9617 42.731 31.0059 42.6275 31.0502C42.4019 31.147 42.1739 31.2447 41.9598 31.3595L41.0326 31.8741L40.5745 32.1321L40.4548 32.1932C40.4548 32.1932 40.3449 32.2665 40.3572 32.2572L40.3078 32.2945L40.1004 32.4316L39.2681 33.0016C39.0782 33.1385 38.8905 33.3002 38.7046 33.4603L38.7045 33.4603C38.6136 33.5386 38.5231 33.6165 38.4331 33.691L38.0193 34.0524C37.9557 34.1151 37.8948 34.1782 37.8339 34.2413L37.8337 34.2415C37.7729 34.3045 37.7122 34.3675 37.6486 34.4302L37.648 34.4308C37.4048 34.6828 37.1616 34.9349 36.9171 35.1977L36.2681 36.0301C35.4484 37.1673 34.7433 38.3842 34.2872 39.6867L34.1063 40.1753C34.053 40.3427 34.012 40.5007 33.9698 40.6694C33.9356 40.8064 33.8978 40.9411 33.8602 41.0755L33.8602 41.0755C33.8051 41.2723 33.7502 41.4685 33.7066 41.6698C33.6837 41.8078 33.6595 41.9451 33.6353 42.0821L33.6353 42.0822C33.5398 42.6228 33.4451 43.1593 33.4343 43.7133C33.2052 46.4476 33.8766 49.186 35.0949 51.5797C35.2523 51.8714 35.4319 52.1659 35.6128 52.4497L35.8661 52.8839L35.8932 52.9417L35.9498 53.0359L36.0174 53.1314L36.1639 53.3238C36.2291 53.4081 36.2907 53.492 36.3522 53.5759C36.4753 53.7436 36.5983 53.9113 36.751 54.0827L37.4602 54.857C38.4293 55.8162 39.5307 56.607 40.72 57.224C41.908 57.8517 43.1914 58.2411 44.4726 58.4562C45.7538 58.6714 47.0674 58.7056 48.3159 58.525C49.5645 58.3445 50.7837 58.0296 51.8811 57.5038C52.1638 57.3978 52.4292 57.2462 52.6836 57.0932L53.07 56.8697L53.2626 56.7633C53.2626 56.7633 53.3355 56.7181 53.3466 56.7195L53.3947 56.6929L53.4799 56.6383C53.5595 56.5815 53.6375 56.5271 53.7151 56.4729C53.865 56.3683 54.0132 56.2649 54.1678 56.1481C54.2864 56.0487 54.4022 55.949 54.518 55.8493C54.6338 55.7497 54.7496 55.65 54.8682 55.5506C56.5904 53.9174 57.5622 51.7659 57.7891 49.6296C57.9031 48.5561 57.8124 47.5005 57.5809 46.4924C57.502 46.0784 57.361 45.6922 57.2204 45.307C57.1869 45.2152 57.1535 45.1235 57.1208 45.0315C57.0847 44.9541 57.0491 44.8769 57.0137 44.7999C56.8372 44.4167 56.6639 44.0402 56.4324 43.6941L56.2442 43.3768L56.1974 43.2948C56.1974 43.2948 56.1494 43.2235 56.1482 43.2342L56.1186 43.1979L56.0116 43.0539L55.8073 42.7781L55.699 42.6449L55.5697 42.4981C55.535 42.4604 55.5004 42.4224 55.4657 42.3842L55.4656 42.384L55.4655 42.3839C55.3302 42.2351 55.1936 42.0848 55.0476 41.954C54.9775 41.8956 54.9093 41.8344 54.8409 41.7729L54.8408 41.7728L54.8408 41.7728C54.7291 41.6725 54.6168 41.5716 54.4946 41.4821C53.7419 40.8873 52.8928 40.4436 52.0373 40.1513C51.1817 39.859 50.3087 39.7169 49.4675 39.6875C48.6238 39.6796 47.8219 39.7965 47.0778 39.9969C46.3324 40.2079 45.6646 40.5266 45.0719 40.8765L45.0114 40.9125L44.9633 40.9391L44.9386 40.9577L44.8398 41.0323L44.6434 41.1709C44.5156 41.2487 44.3946 41.3572 44.263 41.4753L44.2629 41.4753L44.2457 41.4908C44.0237 41.6665 43.844 41.8619 43.667 42.0544C43.6396 42.0842 43.6123 42.1139 43.5849 42.1435C43.5716 42.1578 43.5584 42.172 43.5451 42.1862C43.1385 42.679 42.8429 43.1858 42.6151 43.6903C42.4193 44.2096 42.2606 44.701 42.2043 45.1834C42.0707 46.1348 42.1877 46.9653 42.3717 47.6084C42.5556 48.2516 42.7843 48.7045 42.9626 49.0097C43.1422 49.3042 43.2369 49.4575 43.2369 49.4575C43.2935 49.5516 43.4007 49.5977 43.5031 49.5888C43.8367 50.0113 44.3308 50.3126 44.919 50.3864C46.0622 50.5299 47.0873 49.7556 47.2162 48.6513C47.3451 47.5471 46.5278 46.5417 45.3846 46.3982C44.3302 46.266 43.3756 46.9185 43.1397 47.8788C43.0992 47.7432 43.0587 47.6076 43.0207 47.4505C42.8848 46.8787 42.8145 46.1302 42.9676 45.3009C43.0177 44.8721 43.191 44.4479 43.378 44.0036C43.5872 43.5621 43.863 43.1289 44.2264 42.7176C44.2608 42.6828 44.2953 42.6473 44.3301 42.6115L44.3306 42.6111C44.4889 42.4483 44.6518 42.2807 44.8329 42.1519C44.933 42.0666 45.0454 41.9719 45.1911 41.8814L45.3875 41.7429L45.485 41.6789L45.5097 41.6603L45.5579 41.6337C46.0999 41.3318 46.6936 41.0691 47.355 40.9019C48.0152 40.7454 48.7122 40.6588 49.4523 40.6864C50.1787 40.734 50.9284 40.8716 51.6619 41.1485C52.3953 41.4254 53.1039 41.8189 53.7296 42.3434C53.8823 42.4822 54.0351 42.621 54.1767 42.7585C54.2856 42.8575 54.3764 42.9653 54.4664 43.0723L54.4664 43.0724C54.5025 43.1153 54.5386 43.1581 54.5756 43.2001L54.6753 43.3105L54.7713 43.4531L54.9756 43.7289L55.0715 43.8715L55.1011 43.9078L55.138 43.9777L55.2966 44.2587C55.4771 44.5364 55.6104 44.8331 55.7465 45.1362L55.7465 45.1362C55.7903 45.2338 55.8344 45.3321 55.8805 45.4306C55.9029 45.4967 55.9256 45.5625 55.9482 45.6282C56.0698 45.981 56.1907 46.332 56.2608 46.7075C56.4517 47.58 56.5131 48.5014 56.3944 49.422C56.168 51.2646 55.2793 53.0894 53.8031 54.4489C53.7098 54.5242 53.6162 54.6022 53.5226 54.6802C53.4291 54.7582 53.3355 54.8362 53.2423 54.9115C53.0848 55.0305 52.9086 55.1471 52.7324 55.2637C52.6737 55.3025 52.615 55.3414 52.5569 55.3803L52.4717 55.4349L52.4236 55.4615L52.2433 55.5585L51.8952 55.7433C51.8636 55.7604 51.832 55.7777 51.8003 55.795C51.6028 55.9032 51.4015 56.0134 51.1792 56.0886C50.2151 56.5333 49.1379 56.7898 48.0522 56.9255C46.9542 57.0706 45.8232 57.0157 44.7097 56.8108C43.5975 56.5951 42.4892 56.2494 41.4712 55.7083C40.4533 55.1672 39.5096 54.4723 38.6932 53.652L38.1355 53.0272C38.0194 52.892 37.9056 52.7363 37.7896 52.5776L37.7896 52.5775C37.7174 52.4787 37.6444 52.3788 37.5693 52.2818L37.434 52.0907L37.3749 52.0181L37.3564 51.9831L37.3282 51.936L37.1031 51.5489C37.0531 51.4629 37.0018 51.378 36.9505 51.2931L36.9503 51.2928L36.9502 51.2927C36.8475 51.1227 36.7447 50.9527 36.6529 50.7744C35.5945 48.651 35.0324 46.2308 35.2461 43.821C35.2568 43.3756 35.3331 42.9385 35.4095 42.5013C35.4373 42.3424 35.465 42.1834 35.4896 42.024C35.5352 41.8268 35.5906 41.6307 35.646 41.4347L35.646 41.4345C35.6738 41.3364 35.7015 41.2384 35.7279 41.1402C35.7677 40.9929 35.8074 40.8456 35.8582 40.6997L36.0205 40.274C36.4147 39.116 37.0468 38.0423 37.77 37.0561L38.3399 36.3226C38.443 36.2105 38.5517 36.0991 38.6603 35.9877L38.6605 35.9875L38.6607 35.9874C38.7694 35.876 38.878 35.7646 38.9812 35.6525C39.0474 35.5776 39.1176 35.5075 39.1863 35.4389L39.1864 35.4389C39.2255 35.3999 39.2641 35.3614 39.3012 35.3228L39.6508 35.0294C39.7536 34.9475 39.8504 34.8627 39.9483 34.7769L39.9484 34.7768C40.075 34.6658 40.2036 34.5532 40.3499 34.4427L41.1822 33.8727L41.3896 33.7355L41.439 33.6982L41.5588 33.6371L41.9798 33.4071L42.823 32.9363C42.9853 32.8482 43.1616 32.773 43.3375 32.698L43.3375 32.698C43.4613 32.6452 43.5849 32.5926 43.7032 32.5355C46.0645 31.5046 48.673 30.9616 51.2728 31.1681C53.8751 31.3532 56.4406 32.1428 58.7327 33.442C58.912 33.552 59.0953 33.6581 59.2791 33.7644C59.6661 33.9883 60.0551 34.2133 60.4134 34.4796L61.2253 35.0492C61.4169 35.1727 61.5944 35.3214 61.7725 35.4706L61.7725 35.4706C61.8475 35.5334 61.9226 35.5963 61.9989 35.6575L62.7601 36.2751C62.9163 36.4125 63.0674 36.5537 63.217 36.6935L63.2174 36.6938C63.3025 36.7733 63.3872 36.8524 63.472 36.9301L64.1838 37.585L64.8758 38.3136C66.4663 40.0105 67.9731 41.8239 69.459 43.6122L69.4591 43.6123C69.6042 43.7869 69.7491 43.9613 69.8939 44.1353C69.9468 44.1989 69.9996 44.2624 70.0525 44.3259L70.4019 44.7482C71.9608 46.6324 73.5068 48.501 75.1095 50.3014C76.8208 52.2348 78.6236 54.06 80.5376 55.7034C82.4739 57.3495 84.5042 58.7682 86.7807 59.8152L86.7808 59.8153C86.9188 59.887 87.0568 59.9586 87.1973 60.0089L87.6065 60.169C87.7409 60.2239 87.8783 60.2765 88.0158 60.3291C88.1532 60.3817 88.2907 60.4343 88.425 60.4893L88.8675 60.6536L89.3027 60.7843C89.4445 60.8238 89.5887 60.8664 89.7329 60.909L89.7337 60.9092C89.8777 60.9517 90.0217 60.9942 90.1633 61.0337C90.5082 61.1289 90.8519 61.2007 91.1941 61.2721L91.1942 61.2722C91.4255 61.3205 91.656 61.3687 91.8858 61.4238C92.1339 61.4549 92.3814 61.492 92.628 61.529L92.6282 61.529L92.6285 61.5291C92.9552 61.578 93.2804 61.6267 93.6036 61.6611C95.8839 61.9036 98.0882 61.8321 100.176 61.6044C104.35 61.1492 108.027 60.044 111.176 58.9162C114.327 57.7777 116.981 56.5551 119.111 55.4843C120.116 54.9794 120.992 54.5129 121.764 54.0766C122.481 53.9164 123.181 53.7105 123.861 53.4803C124.647 53.2091 125.404 52.9015 126.152 52.5711C125.82 53.0952 125.489 53.6193 125.136 54.1298C124.29 55.3943 123.411 56.6547 122.522 57.9029C121.633 59.1511 120.735 60.3872 119.825 61.6219C119.518 62.0294 119.213 62.4382 118.907 62.847C118.296 63.6648 117.685 64.4827 117.065 65.2897C116.135 66.5109 115.194 67.72 114.243 68.917C113.293 70.114 112.331 71.3096 111.36 72.4931L109.893 74.2562L108.396 75.9829C108.224 76.1681 108.053 76.3558 107.883 76.5434L107.882 76.5438C107.541 76.919 107.199 77.2942 106.85 77.6491L106.059 78.4419C105.891 78.6017 105.701 78.7779 105.51 78.9542L105.509 78.9553L105.505 78.9592C105.411 79.0463 105.317 79.1334 105.225 79.2184C102.987 81.222 100.504 83.0098 97.8296 84.404C95.1543 85.8088 92.2638 86.8386 89.2941 87.2927C86.3231 87.7576 83.2643 87.6241 80.3583 86.857C77.4733 86.1035 74.7755 84.7099 72.3844 82.9088C71.2427 81.8844 70.2554 80.6945 69.5089 79.3717C68.7514 78.0474 68.2333 76.6009 67.9668 75.1207C67.7004 73.6405 67.6968 72.1281 67.9583 70.6597C68.2185 69.2021 68.7451 67.7779 69.5219 66.5265C69.5627 66.4629 69.6024 66.3963 69.6415 66.3305L69.6416 66.3303C69.708 66.2189 69.7729 66.1098 69.8397 66.0224L70.1574 65.6163C70.3144 65.3922 70.5258 65.1675 70.733 64.9471L70.7331 64.9471C70.7755 64.902 70.8178 64.857 70.8593 64.8123L71.0521 64.6081L71.2535 64.4267L71.6673 64.0652C71.8363 63.9196 72.0201 63.7922 72.2053 63.6638L72.2055 63.6637C72.3222 63.5828 72.4395 63.5015 72.554 63.415C73.7962 62.6136 75.2193 62.0959 76.6961 61.8896C78.1741 61.6725 79.6936 61.7761 81.1336 62.1744C81.3649 62.2455 81.5906 62.3249 81.8176 62.4048C81.9426 62.4488 82.068 62.493 82.195 62.5359L82.7077 62.7743L82.9641 62.8935L83.0923 62.9531L83.1256 62.9573L83.1243 62.968L83.1662 62.995C83.2635 63.0529 83.3669 63.1116 83.4703 63.1702C83.7362 63.321 84.002 63.4719 84.1643 63.6097C84.2146 63.6486 84.2655 63.683 84.3163 63.7174L84.3164 63.7175L84.3165 63.7176C84.4013 63.7749 84.486 63.8323 84.5684 63.9106L84.9773 64.2665C85.4933 64.7663 85.971 65.3049 86.3264 65.926C86.4562 66.1093 86.5558 66.3154 86.6544 66.5197L86.6544 66.5198C86.71 66.6349 86.7653 66.7494 86.8256 66.8589C86.8634 66.9638 86.9048 67.0681 86.9462 67.1727C87.0352 67.3974 87.1248 67.6236 87.1816 67.8608C87.5975 69.2183 87.5741 70.673 87.203 72.0189C87.1577 72.1358 87.1192 72.2536 87.0808 72.3709C87.0103 72.5866 86.9403 72.8009 86.8289 73.0053L86.632 73.4375L86.3228 73.9644C85.9704 74.4749 85.5045 74.993 84.9598 75.4142C83.8705 76.2565 82.455 76.7099 81.039 76.6845C80.331 76.6719 79.6133 76.5492 78.944 76.302C78.8356 76.2681 78.7329 76.2222 78.6319 76.177L78.6317 76.1769L78.6315 76.1768C78.5706 76.1495 78.5103 76.1226 78.4497 76.0986L78.2463 76.0078L77.9715 75.8537C77.804 75.7729 77.7118 75.7015 77.6196 75.6301C77.5945 75.6106 77.5694 75.5911 77.5427 75.5715C77.4617 75.5266 77.3792 75.4549 77.2951 75.3819C77.2476 75.3406 77.1995 75.2988 77.151 75.2613C76.1176 74.3702 75.5217 73.0118 75.5215 71.6629C75.5214 70.9885 75.6791 70.3121 75.9664 69.6846L75.9961 69.623L75.9948 69.6337C76.0258 69.5615 75.9973 69.6123 75.9973 69.6123L75.9986 69.6016L76.0925 69.472C76.117 69.4359 76.1398 69.3951 76.1622 69.3549L76.1623 69.3548C76.1897 69.3057 76.2167 69.2574 76.2459 69.2192C76.2768 69.1796 76.3039 69.1407 76.3309 69.1018C76.3851 69.024 76.4392 68.9462 76.524 68.8625C76.6291 68.7343 76.744 68.6182 76.87 68.5035C76.8638 68.5571 76.8519 68.61 76.8401 68.6629C76.8283 68.7158 76.8165 68.7687 76.8103 68.8223C76.6 70.6234 77.9393 72.2708 79.8039 72.5047C81.6685 72.7387 83.3481 71.47 83.5584 69.6689C83.7686 67.8677 82.4294 66.2203 80.5648 65.9864C80.2318 65.9446 79.916 65.9485 79.5952 65.9953C79.4386 65.9757 79.2896 65.9762 79.1318 65.9768L79.1019 65.9769C78.1102 65.9831 77.1414 66.2749 76.2957 66.7671C75.882 67.0306 75.488 67.3184 75.1532 67.6789C75.0191 67.8025 74.8934 67.9647 74.7715 68.1222C74.7478 68.1527 74.7243 68.183 74.701 68.2128C74.686 68.2319 74.6712 68.2507 74.6563 68.2692C74.5982 68.355 74.559 68.4192 74.5141 68.4928C74.5065 68.5053 74.4987 68.5181 74.4906 68.5313L74.4077 68.6623L74.404 68.6945L74.3521 68.7532L74.3496 68.7747L74.3063 68.8563C73.8608 69.6815 73.5941 70.6162 73.5394 71.5666C73.4191 73.466 74.2027 75.4353 75.6658 76.7937C76.4269 77.5092 77.2612 77.9837 78.1647 78.3472C79.0669 78.7215 80.0472 78.9097 81.0229 78.9451C82.9728 79.0266 84.9424 78.4578 86.4948 77.3146C87.2703 76.7483 87.9474 76.0609 88.5187 75.2188L88.8391 74.6934L88.8428 74.6612C88.8801 74.6105 88.891 74.5984 88.8935 74.5971C88.8912 74.6024 88.8932 74.5999 88.8939 74.5982C88.8943 74.5973 88.8943 74.5966 88.8935 74.5971L88.896 74.5918L88.8985 74.5703L88.9418 74.4887L89.0161 74.3349L89.1646 74.0272C89.3152 73.7434 89.4193 73.4379 89.5238 73.1314L89.5238 73.1313C89.5695 72.9972 89.6153 72.863 89.6651 72.7302C90.1873 70.9574 90.2325 69.0268 89.7113 67.2209C89.637 66.8932 89.5149 66.5816 89.3921 66.2684C89.343 66.1429 89.2937 66.0172 89.2473 65.89C89.1763 65.7555 89.1102 65.6194 89.0442 65.4835L89.0441 65.4834C88.9043 65.1957 88.7651 64.9094 88.5821 64.6426C88.1036 63.8211 87.4672 63.0995 86.7899 62.438L86.2479 61.9675C86.0948 61.8401 85.9181 61.7173 85.7435 61.596C85.7074 61.5709 85.6713 61.5458 85.6356 61.5208C85.3104 61.2817 85.0466 61.1312 84.7848 60.9819C84.6876 60.9265 84.5906 60.8712 84.4909 60.8116L84.4281 60.771L84.3542 60.7291L84.332 60.7263L84.2901 60.6993L84.1298 60.6249L83.8094 60.4759L83.1672 60.1886C83.0563 60.1502 82.9455 60.1112 82.8346 60.0721C82.502 59.9549 82.1693 59.8377 81.8346 59.7386C80.0247 59.2287 78.0995 59.1286 76.2537 59.4083C74.408 59.688 72.6294 60.3569 71.0933 61.3608C70.9878 61.4376 70.8807 61.5126 70.7737 61.5875C70.5059 61.7748 70.2381 61.9621 69.9954 62.1803L69.4803 62.6378C69.3926 62.7138 69.3049 62.7898 69.2283 62.8673L68.9959 63.1209C68.9257 63.1983 68.8551 63.274 68.7847 63.3495C68.5443 63.6071 68.3066 63.8618 68.0962 64.172L67.6685 64.7493C67.5737 64.8827 67.5027 65.003 67.4303 65.1259L67.43 65.1263C67.3995 65.178 67.3687 65.2302 67.3358 65.2841C65.4915 68.3487 64.8908 72.048 65.5658 75.5266C65.8923 77.2645 66.5284 78.9542 67.4287 80.5031C68.329 82.0519 69.4947 83.4491 70.8434 84.6299C70.8434 84.6299 70.8951 84.6691 70.9161 84.6826C71.5899 85.1805 72.2885 85.6597 73.0143 86.0989C72.9078 86.1679 72.8009 86.2405 72.6868 86.3181C72.605 86.3737 72.5195 86.4319 72.4277 86.493C72.1548 86.709 71.867 86.9557 71.5532 87.2318C71.5173 87.2689 71.4806 87.3065 71.4433 87.3448L71.4406 87.3476C71.3323 87.4588 71.2188 87.5753 71.1047 87.6977C71.0701 87.7347 71.035 87.7717 70.9997 87.8089L70.999 87.8096L70.9988 87.8097C70.8766 87.9385 70.7518 88.0698 70.6388 88.2158C70.4929 88.4041 70.3347 88.6018 70.1765 88.7995C70.1126 88.8979 70.0484 88.9986 69.9828 89.1014C69.9075 89.2195 69.8305 89.3404 69.7498 89.464C69.6298 89.6409 69.5288 89.8413 69.4258 90.0455C69.4004 90.0958 69.3749 90.1464 69.349 90.1969C69.3371 90.2215 69.3247 90.2466 69.312 90.2719C69.2998 90.2962 69.2873 90.3207 69.2748 90.3455L69.2746 90.3459C69.2348 90.4243 69.1939 90.505 69.1571 90.5862C69.0964 90.72 69.0469 90.8552 68.9961 91.0011C68.5526 92.0985 68.268 93.3791 68.2521 94.7694C68.2375 96.1491 68.5039 97.6293 69.1047 99.0426C69.1913 99.2166 69.2752 99.3902 69.3591 99.5639C69.443 99.7376 69.5269 99.9114 69.6136 100.085L69.926 100.592L70.0675 100.828C70.0956 100.877 70.1356 100.928 70.1756 100.978C70.2023 101.012 70.229 101.046 70.2521 101.079L70.6533 101.597C70.7529 101.72 70.8543 101.826 70.9596 101.935C71.0002 101.977 71.0413 102.02 71.083 102.065C71.2959 102.308 71.5391 102.516 71.7834 102.726L71.7835 102.726C71.8585 102.79 71.9336 102.855 72.0079 102.92C73.3507 103.959 74.9875 104.697 76.7275 104.938C78.4625 105.22 80.2601 104.967 81.8437 104.328L82.4264 104.064L82.5695 103.995L82.6412 103.961L82.6417 103.956C82.6472 103.957 82.6683 103.949 82.7374 103.908L82.7733 103.89L83.0153 103.747C83.3029 103.598 83.7327 103.293 84.081 103.01C84.7418 102.462 85.2918 101.802 85.7235 101.095C85.9448 100.742 86.112 100.371 86.2791 100.001L86.2791 100.001L86.2952 99.9546C86.4248 99.5852 86.5512 99.2247 86.6277 98.8478C86.7967 98.0749 86.8437 97.2867 86.7524 96.5247C86.66 95.7734 86.486 95.0445 86.1911 94.3875C86.0997 94.1546 85.9791 93.9341 85.8614 93.7187L85.8611 93.7182C85.8112 93.627 85.7618 93.5366 85.7153 93.4467L85.6969 93.4117L85.6501 93.3297L85.6218 93.2826L85.5653 93.1885L85.4398 93.0096C85.39 92.9301 85.2996 92.8211 85.2076 92.7103C85.1768 92.6731 85.1457 92.6357 85.116 92.5992C84.8997 92.333 84.6842 92.1342 84.4696 91.9363L84.4695 91.9361L84.3809 91.8542C84.1235 91.6479 83.866 91.4416 83.5925 91.2767C83.0577 90.9377 82.4993 90.7045 81.9531 90.5598C80.8756 90.2397 79.8814 90.2673 79.1115 90.3991C78.3815 90.5241 77.8498 90.7718 77.482 90.9431L77.4232 90.9705L77.2182 91.0862C76.2405 91.551 75.5125 92.4822 75.3798 93.6186C75.1696 95.4197 76.5088 97.0671 78.3734 97.301C80.238 97.5349 81.9177 96.2663 82.1279 94.4651C82.1942 93.8969 82.1113 93.3535 81.8987 92.8591C82.0244 92.9401 82.1501 93.0212 82.2745 93.1129C82.4408 93.2317 82.5935 93.3705 82.745 93.52L82.7896 93.5669C82.92 93.7039 83.0653 93.8566 83.1414 93.9831C83.1587 94.0081 83.1755 94.0291 83.1925 94.0503L83.1926 94.0505C83.2322 94.1001 83.2728 94.1509 83.3235 94.2562L83.4367 94.4444L83.4932 94.5385L83.4948 94.5411C83.491 94.5376 83.4959 94.546 83.5024 94.5564L83.5006 94.5721C83.5243 94.6199 83.5487 94.6674 83.573 94.7147L83.573 94.7148C83.6606 94.8855 83.7477 95.0552 83.8054 95.2412C83.9884 95.6993 84.0887 96.1905 84.131 96.6962C84.1955 97.2047 84.1342 97.73 84.0273 98.2605C83.9203 98.791 83.7258 99.2996 83.4326 99.785C83.1518 100.261 82.7946 100.717 82.3561 101.097C82.2968 101.141 82.2433 101.185 82.1898 101.228L82.1897 101.228C82.0428 101.346 81.8964 101.465 81.6312 101.615L81.4003 101.76L81.341 101.785L81.2336 101.837L80.804 102.044C80.214 102.275 79.6044 102.481 78.9653 102.553L78.7247 102.588L78.4866 102.602L77.9981 102.639C77.8911 102.632 77.7835 102.631 77.6755 102.629H77.6753C77.4561 102.626 77.2353 102.623 77.0139 102.58C75.7005 102.448 74.4432 101.931 73.3948 101.169C73.3204 101.107 73.2436 101.047 73.1667 100.986L73.1667 100.986C72.9892 100.847 72.8108 100.707 72.657 100.543C72.6127 100.499 72.5648 100.454 72.5169 100.408L72.5167 100.408C72.445 100.34 72.3732 100.273 72.3135 100.207L72.0266 99.8661C72.0102 99.8459 71.9935 99.8281 71.9768 99.8103C71.9435 99.7747 71.9101 99.7391 71.8789 99.6844L71.7251 99.4584L71.4458 99.0535C71.3665 98.913 71.2899 98.7728 71.2133 98.6327C71.1368 98.4925 71.0603 98.3524 70.981 98.212C70.4278 97.0657 70.1289 95.8642 70.0617 94.7028C69.9946 93.5413 70.1692 92.4319 70.4644 91.4464C70.4762 91.4063 70.487 91.3661 70.4976 91.3262L70.4976 91.3261C70.5204 91.2408 70.5427 91.157 70.5748 91.0795L70.716 90.7382C70.7366 90.6884 70.7566 90.6386 70.7766 90.5889L70.7772 90.5876C70.8483 90.4108 70.9183 90.2369 71.0069 90.0786C71.1208 89.8753 71.2235 89.6706 71.3262 89.4659C71.3863 89.373 71.4461 89.2826 71.5044 89.1946C71.5659 89.1015 71.6258 89.0111 71.6823 88.9232C71.7937 88.7414 71.9136 88.5824 72.0446 88.4247C72.1756 88.2671 72.2943 88.1188 72.4018 87.9692C72.5293 87.8388 72.6534 87.7133 72.7728 87.5927L72.7739 87.5916C72.8507 87.514 72.9255 87.4384 72.998 87.3647C73.0385 87.3236 73.0782 87.283 73.1172 87.2431C73.1814 87.1893 73.2429 87.1376 73.3021 87.0878C73.4617 86.9535 73.6049 86.8329 73.741 86.723C73.7916 86.675 73.8534 86.6284 73.9139 86.5924C75.7636 87.6295 77.7407 88.4432 79.8071 88.9743C81.426 89.3841 83.087 89.6251 84.7484 89.6704C86.4086 89.7264 88.0678 89.5973 89.6878 89.3219C92.9291 88.7604 96.0036 87.6014 98.8074 86.0604C101.622 84.5208 104.175 82.6219 106.499 80.4659C106.616 80.353 106.732 80.2438 106.85 80.1337L106.85 80.1332L106.851 80.1327C107.013 79.9805 107.178 79.8265 107.348 79.6587L108.168 78.8043C108.546 78.4028 108.902 77.9932 109.26 77.5823L109.26 77.5821L109.261 77.5812C109.415 77.4051 109.568 77.2286 109.724 77.0524L111.216 75.2706L112.666 73.4619C113.619 72.2434 114.549 71.0222 115.47 69.7889C116.391 68.5556 117.301 67.3209 118.201 66.0741C118.87 65.1476 119.534 64.2144 120.195 63.2839L120.196 63.2826L120.198 63.2801C120.426 62.9597 120.653 62.6395 120.881 62.3201C121.76 61.0597 122.628 59.798 123.487 58.5134C124.345 57.2396 125.183 55.9523 125.989 54.6393C126.281 54.1768 126.558 53.7069 126.833 53.2391L126.833 53.2387L126.834 53.2386C126.948 53.0439 127.062 52.8496 127.178 52.6563L127.593 51.8927C128.119 51.6323 128.634 51.3705 129.14 51.0859C130.47 50.3534 131.75 49.5596 133 48.7343V46.1822ZM133 52.7232C132.521 53.424 132.04 54.1399 131.559 54.8703C128.81 59.0289 126.102 63.7039 123.422 68.7196C120.763 73.7488 118.149 79.1645 115.641 84.8219C115.532 85.0667 115.423 85.3118 115.313 85.5573L115.068 86.1068C112.733 91.3407 110.331 96.7263 107.629 102.037C105.981 105.257 104.22 108.474 102.25 111.555C101.219 112.187 99.9416 112.908 98.4269 113.632C96.9011 114.354 95.1077 115.054 93.105 115.52C91.1023 115.987 88.8287 116.17 86.6268 115.545C84.5394 114.921 82.3764 113.95 80.1372 112.945L80.1371 112.945L79.6045 112.706L79.4185 112.623L79.4184 112.623C78.258 112.105 77.0764 111.577 75.8291 111.09C74.5138 110.588 73.1406 110.101 71.5719 109.936C70.7924 109.86 69.9425 109.906 69.1094 110.193C68.2764 110.48 67.5563 111.053 67.0618 111.72C66.5673 112.387 66.2701 113.1 66.0382 113.833L65.9637 114.084L65.8941 114.391C65.8631 114.53 65.8427 114.662 65.8228 114.79C65.8125 114.856 65.8023 114.922 65.7908 114.987C65.7445 115.384 65.7413 115.797 65.7727 116.203C65.8577 117.019 66.1227 117.835 66.5582 118.543C66.9937 119.25 67.5662 119.844 68.1957 120.336C69.467 121.312 70.9079 121.895 72.3369 122.292C73.7769 122.69 75.2197 122.871 76.6406 122.951C78.0626 123.021 79.4639 122.979 80.8308 122.846C83.5535 122.579 86.1251 121.966 88.4675 121.193C90.8112 120.411 92.9368 119.47 94.8134 118.443C96.69 117.417 98.3138 116.337 99.6958 115.303C98.9058 116.379 98.085 117.429 97.2223 118.452C95.1201 120.929 92.7813 123.214 90.1521 125.092C87.5327 126.983 84.6242 128.456 81.5402 129.407C80.7701 129.637 79.9902 129.855 79.2054 130.017C78.9237 130.083 78.6489 130.139 78.3715 130.195L78.3702 130.195C78.2973 130.21 78.2241 130.225 78.1506 130.24C78.1136 130.247 78.0766 130.255 78.0394 130.263L77.4299 130.371L77.1424 130.422L76.8438 130.472C75.2276 130.715 73.6077 130.892 72.0065 131.007C68.7818 131.233 65.5748 131.212 62.4609 130.876C59.347 130.539 56.3026 129.896 53.4809 128.89C50.6592 127.883 48.0527 126.479 45.8972 124.686C43.7416 122.892 42.0851 120.683 41.09 118.306C40.0837 115.929 39.7142 113.402 39.7898 111.018C39.8374 109.839 40.0169 108.686 40.3764 107.633C40.7346 106.59 41.295 105.649 42.024 104.902C42.753 104.156 43.6506 103.605 44.6133 103.269C45.5648 102.932 46.5839 102.788 47.5633 102.791C48.5427 102.794 49.4922 102.957 50.3601 103.24C50.577 103.31 50.7816 103.39 50.9838 103.492C51.0799 103.537 51.176 103.581 51.2611 103.625L51.4089 103.708L51.5346 103.789C51.9031 104.01 52.2208 104.278 52.525 104.566C53.7072 105.726 54.2869 107.224 54.424 108.557C54.5587 109.912 54.215 111.12 53.6339 111.95C53.457 112.211 53.2507 112.435 53.037 112.626C53.0792 112.457 53.1214 112.288 53.1414 112.117C53.3517 110.316 52.0124 108.668 50.1478 108.434C48.2832 108.2 46.6036 109.469 46.3933 111.27C46.1831 113.071 47.5223 114.719 49.3869 114.953C50.4302 115.084 51.4275 114.741 52.1217 114.099C52.8537 113.81 53.6797 113.294 54.3115 112.416C55.0347 111.43 55.4564 110.036 55.332 108.497C55.2174 106.971 54.5825 105.27 53.2342 103.894C52.8906 103.557 52.5112 103.238 52.0812 102.966C52.0474 102.94 52.0131 102.919 51.9758 102.897C51.956 102.885 51.9354 102.872 51.9136 102.858L51.7547 102.773C51.6388 102.704 51.5217 102.646 51.4047 102.587C51.1705 102.471 50.9338 102.376 50.6848 102.29C49.7011 101.939 48.6517 101.763 47.5515 101.734C46.4611 101.717 45.32 101.846 44.2055 102.228C43.0923 102.6 42.028 103.228 41.1508 104.086C40.2736 104.944 39.6168 106.036 39.1757 107.21C38.7457 108.385 38.5302 109.653 38.4602 110.928C38.3425 113.48 38.692 116.178 39.7496 118.791C40.6315 120.979 42.0466 123.039 43.8346 124.797C42.9991 124.333 42.1144 123.809 41.2026 123.227C39.2644 121.983 37.1689 120.447 35.1307 118.516C33.0802 116.595 31.1217 114.271 29.4795 111.552C27.8251 108.843 26.5314 105.744 25.7377 102.413C24.1392 95.7512 24.649 88.2006 27.1027 81.3616C27.7186 79.6549 28.4639 77.9971 29.3337 76.431C29.7741 75.6486 30.2453 74.8919 30.7572 74.1729L31.1454 73.6451L31.218 73.5522C31.3233 73.4172 31.4264 73.2851 31.5533 73.1415L31.7757 72.8757L31.8796 72.7582L31.9945 72.6421C32.059 72.5768 32.1198 72.5092 32.1809 72.4413C32.2648 72.348 32.3492 72.2542 32.4442 72.1655C34.8771 69.6533 38.0131 67.8711 41.2791 67.291C44.5365 66.688 47.9125 67.3835 50.3386 68.9823C51.504 69.8029 52.41 70.9173 52.9322 72.1359C53.4655 73.3559 53.6409 74.6506 53.4995 75.8621C53.4294 76.4624 53.2816 77.0531 53.0846 77.5831C53.0701 77.6206 53.0566 77.6581 53.0427 77.6965C53.0106 77.7858 52.9768 77.8797 52.9248 77.9873L52.8332 78.1934L52.7441 78.378C52.6154 78.6121 52.4757 78.8447 52.3162 79.0532C51.6672 79.8855 50.7868 80.4821 49.8611 80.7902C48.9257 81.0862 47.9622 81.1394 47.1028 80.9772C46.9175 80.9539 46.7434 80.9018 46.5769 80.8519C46.5439 80.842 46.5113 80.8322 46.4789 80.8228C46.4589 80.8158 46.4398 80.8094 46.421 80.8032C46.4093 80.7993 46.3977 80.7955 46.3861 80.7918C46.3259 80.7721 46.2656 80.7525 46.1868 80.7208L46.0142 80.6557L45.9698 80.6501L45.9476 80.6473L45.8847 80.6068C45.7985 80.5742 45.7023 80.5295 45.6173 80.4862C45.6715 80.493 45.7253 80.5024 45.7805 80.512L45.7809 80.512C45.8386 80.522 45.8978 80.5323 45.9601 80.5401C47.8247 80.774 49.5044 79.5054 49.7146 77.7042C49.9248 75.9031 48.5856 74.2557 46.721 74.0218C45.3669 73.8519 44.1114 74.4776 43.4485 75.5258C43.4004 75.5524 43.3621 75.5911 43.3349 75.6312L43.1642 75.9361C43.0614 76.1408 42.8943 76.5114 42.7961 76.9668C42.6966 77.433 42.6351 78.0562 42.7894 78.7608C42.9436 79.4655 43.2765 80.2796 43.9476 80.9947C44.2775 81.3516 44.6877 81.6967 45.1634 81.9631L45.2471 82.0171L45.2693 82.0199L45.3112 82.0469L45.3556 82.0525L45.5134 82.1484C45.6193 82.2052 45.7697 82.2676 45.8991 82.3165C46.1568 82.4249 46.428 82.5133 46.7115 82.5924C47.8335 82.9181 49.1556 82.9752 50.4686 82.6286C51.7804 82.2928 53.0854 81.5319 54.0569 80.3484C54.293 80.0626 54.5106 79.7418 54.7073 79.4075L54.8496 79.1534L54.9684 78.9072C55.0299 78.7938 55.0969 78.633 55.164 78.4722L55.1974 78.3921C55.4947 77.6788 55.6834 76.9301 55.7859 76.1489C55.992 74.5757 55.7839 72.8853 55.1144 71.2893C54.4448 69.6932 53.2891 68.2102 51.7614 67.1157C48.6973 65.0017 44.6491 64.2763 40.8167 64.9812C38.8956 65.3276 37.0455 66.031 35.3343 66.9912C33.6342 67.9527 32.0816 69.1938 30.7348 70.6022C30.6199 70.7142 30.5184 70.8325 30.4156 70.9522C30.3592 71.0178 30.3025 71.0839 30.243 71.1496L30.1256 71.2872L29.9958 71.4341L29.7733 71.6999C29.711 71.7765 29.6456 71.8608 29.5789 71.9469C29.4908 72.0605 29.4003 72.1773 29.311 72.2837L28.8808 72.8824C28.3256 73.683 27.8123 74.5106 27.3533 75.3558C26.434 77.0571 25.6539 78.8194 25.0366 80.6347C23.7811 84.2518 23.0457 88.043 22.8211 91.8003C22.6187 95.5605 22.9356 99.3096 23.8202 102.825C24.2564 104.588 24.8234 106.291 25.5028 107.899C26.1921 109.519 26.9937 111.045 27.8745 112.471C29.6471 115.326 31.7375 117.775 33.9038 119.765C34.9925 120.761 36.0678 121.68 37.1457 122.478C37.4908 122.75 37.8482 123 38.1968 123.244C38.3796 123.371 38.56 123.497 38.735 123.624C38.8915 123.727 39.0461 123.829 39.1992 123.93C39.5679 124.175 39.9276 124.413 40.2838 124.634C42.3218 125.891 44.1803 126.853 45.7283 127.58C47.2886 128.298 48.5348 128.813 49.3977 129.139C50.2606 129.465 50.713 129.641 50.713 129.641C50.8966 129.708 51.0878 129.71 51.2631 129.656C51.8202 129.9 52.3785 130.133 52.9518 130.335C55.9103 131.424 59.0717 132.126 62.304 132.509C65.5362 132.893 68.8517 132.95 72.175 132.747C73.8416 132.651 75.5058 132.479 77.1652 132.253L77.4749 132.204L77.7957 132.158L78.415 132.061L78.5953 132.029C78.963 131.962 79.3345 131.896 79.6822 131.818C80.5237 131.651 81.3505 131.418 82.1774 131.184C84.3247 130.54 86.3885 129.646 88.3405 128.553C87.7336 129.314 86.9994 130.201 86.0973 131.176C85.1557 132.2 84.0351 133.31 82.7528 134.455C81.4607 135.587 79.9971 136.741 78.3585 137.852C76.7198 138.963 74.9282 140.032 72.9901 141.008C71.0531 141.972 68.9893 142.866 66.8196 143.606C64.6598 144.357 62.404 144.966 60.1102 145.418C57.8164 145.87 55.4945 146.177 53.1939 146.302C50.8933 146.427 48.6139 146.369 46.4657 146.056C45.3929 145.889 44.3831 145.664 43.445 145.307C42.5069 144.95 41.6419 144.45 40.8867 143.877C39.3666 142.718 38.259 141.208 37.6152 139.681C36.9714 138.153 36.7668 136.626 36.9318 135.309C37.0857 133.991 37.6043 132.924 38.1779 132.159C38.5921 131.601 39.022 131.198 39.395 130.897C39.3737 131.079 39.3525 131.262 39.3756 131.45C39.4946 132.552 40.5257 133.367 41.6631 133.27C42.8005 133.174 43.6249 132.189 43.5059 131.087C43.3868 129.984 42.3558 129.169 41.2184 129.266C40.831 129.304 40.4891 129.435 40.1952 129.638C40.1952 129.638 40.1236 129.672 40.0038 129.733C39.8841 129.795 39.6804 129.9 39.4371 130.054C38.9519 130.352 38.2431 130.829 37.5485 131.666C36.8564 132.482 36.2117 133.663 35.949 135.142C35.6875 136.611 35.8104 138.356 36.4871 140.083C37.1417 141.808 38.3241 143.544 40.0104 144.92C40.853 145.613 41.8203 146.202 42.8815 146.662C43.9538 147.122 45.1042 147.397 46.2411 147.594C48.5397 147.97 50.9177 148.05 53.3058 147.948C55.7039 147.857 58.1145 147.561 60.4984 147.109C65.2549 146.205 69.8731 144.652 73.8952 142.611C75.905 141.602 77.7706 140.476 79.4526 139.284C81.1444 138.104 82.6304 136.854 83.9325 135.636C84.5527 135.05 85.1272 134.47 85.666 133.906C85.1227 134.991 84.6261 136.158 84.2009 137.388C83.4349 139.609 82.8992 142.077 82.9083 144.699C82.8953 147.319 83.5173 150.095 84.9057 152.575C85.2045 153.102 85.5392 153.612 85.8862 154.113C85.8984 154.201 85.9217 154.291 85.9449 154.381C85.9848 154.542 85.9996 154.713 86.0148 154.89L86.0148 154.89C86.023 154.984 86.0312 155.08 86.0435 155.177L86.0579 155.341C86.0772 155.565 86.0972 155.796 86.1235 156.035C86.1437 157.212 86.0773 158.553 85.7222 159.955C85.356 161.356 84.7578 162.815 83.8525 164.202C82.9473 165.59 81.7376 166.885 80.252 167.939C80.107 168.03 79.965 168.123 79.8233 168.216L79.823 168.216C79.5843 168.373 79.3463 168.529 79.0962 168.675C78.8925 168.78 78.6891 168.882 78.4857 168.984C78.2823 169.087 78.079 169.189 77.8753 169.294C77.7641 169.339 77.6502 169.384 77.5363 169.429L77.5327 169.43C77.4176 169.476 77.3026 169.521 77.1902 169.567C77.1371 169.585 77.0834 169.607 77.0308 169.629C76.9674 169.656 76.9057 169.682 76.8483 169.698L76.5226 169.788C76.4489 169.808 76.3764 169.829 76.3038 169.85L76.3033 169.85C76.1584 169.892 76.0135 169.934 75.8599 169.966L75.1578 170.095C74.2202 170.217 73.258 170.259 72.306 170.118C71.354 169.977 70.4133 169.739 69.5357 169.346C68.6594 168.943 67.8264 168.458 67.0984 167.844C66.3828 167.221 65.7302 166.541 65.2258 165.749C65.1365 165.639 65.0693 165.516 65.0026 165.394L65.0024 165.394C64.9589 165.314 64.9157 165.235 64.8666 165.16L64.6994 164.856L64.6514 164.785L64.633 164.75L64.6342 164.739L64.5519 164.577L64.3995 164.242L64.3294 164.07L64.2791 163.922C64.2576 163.843 64.2322 163.769 64.2067 163.694C64.1668 163.577 64.1266 163.46 64.1013 163.324C63.8955 162.482 63.8846 161.61 64.0253 160.79C64.3192 159.141 65.2652 157.693 66.5311 156.786C66.6904 156.676 66.8497 156.565 67.0077 156.465C67.0917 156.421 67.1761 156.375 67.2604 156.328C67.3446 156.282 67.4288 156.235 67.5127 156.191L67.5732 156.155L67.5979 156.137L67.7509 156.08L68.0459 155.965C68.105 155.948 68.1614 155.93 68.2175 155.912C68.3159 155.881 68.4135 155.85 68.5235 155.829C69.2169 155.676 69.9249 155.689 70.5748 155.814C71.5735 156.037 72.4126 156.567 73.0122 157.219C72.396 156.902 71.6796 156.769 70.9356 156.871C69.0813 157.128 67.8278 158.798 68.1245 160.598C68.4212 162.397 70.1682 163.639 72.0225 163.382C73.3624 163.191 74.3939 162.265 74.7462 161.08C74.8031 160.979 74.8501 160.865 74.8972 160.751C75.0756 160.284 75.1962 159.733 75.154 159.13C75.1501 159.091 75.1468 159.053 75.1436 159.014C75.1338 158.899 75.1241 158.783 75.0956 158.666C75.0687 158.51 75.0307 158.353 74.9718 158.182C74.9183 158 74.8669 157.887 74.8083 157.758L74.7986 157.736C74.7477 157.61 74.6973 157.521 74.6457 157.429C74.6176 157.379 74.5892 157.329 74.5601 157.271C74.2133 156.673 73.7406 156.092 73.1099 155.61C72.4903 155.13 71.7249 154.74 70.8828 154.526C70.0296 154.31 69.0984 154.28 68.1742 154.48C67.9435 154.527 67.6868 154.603 67.4523 154.683L67.1573 154.798L67.0154 154.856L66.945 154.88L66.9092 154.897L66.8364 154.943C66.7617 154.981 66.6869 155.021 66.6114 155.061C66.4811 155.131 66.349 155.201 66.2129 155.267C66.0178 155.395 65.8227 155.522 65.6152 155.66C64.0777 156.772 62.8808 158.536 62.5529 160.573C62.3897 161.586 62.4126 162.644 62.676 163.667C62.707 163.829 62.7648 163.995 62.8235 164.164C62.8574 164.261 62.8917 164.36 62.9214 164.459L62.9889 164.653L63.0589 164.824L63.2113 165.159L63.2924 165.332L63.3195 165.39L63.317 165.412L63.3564 165.46L63.4031 165.542L63.5999 165.882C63.6513 165.963 63.6981 166.046 63.7448 166.129C63.8276 166.277 63.9099 166.423 64.0169 166.555C64.6001 167.444 65.3648 168.225 66.1838 168.926C67.0264 169.619 67.9765 170.162 68.9724 170.603C69.9794 171.045 71.0533 171.299 72.1286 171.445C73.2052 171.58 74.3031 171.533 75.3555 171.393L76.139 171.241C76.3224 171.204 76.503 171.145 76.6818 171.088C76.7616 171.062 76.841 171.036 76.9201 171.012L77.3064 170.887C77.4348 170.849 77.5422 170.797 77.6496 170.745C77.7619 170.699 77.8745 170.651 77.9871 170.602C78.0998 170.554 78.2124 170.506 78.3248 170.46L78.3729 170.433L78.3951 170.436L78.4334 170.397L78.5173 170.354L78.6852 170.266L79.0223 170.08C79.131 170.017 79.2421 169.958 79.3532 169.898C79.4643 169.839 79.5754 169.779 79.684 169.717C80.0207 169.509 80.345 169.286 80.6661 169.065C80.7501 169.007 80.8339 168.95 80.9177 168.892C82.496 167.72 83.7553 166.29 84.6841 164.796C85.6142 163.292 86.2139 161.725 86.5359 160.22C86.8578 158.716 86.8762 157.304 86.8068 156.066C86.7951 155.975 86.7832 155.886 86.7714 155.799C86.7477 155.622 86.7248 155.451 86.7069 155.282C86.9445 155.562 87.1834 155.831 87.4346 156.091C88.4418 157.109 89.5664 158.088 90.9355 158.804C92.2936 159.518 93.8212 159.938 95.3431 160.02C96.8749 160.114 98.3765 159.889 99.7809 159.435C102.579 158.524 104.946 156.765 106.566 154.564C107.38 153.47 108.007 152.254 108.391 150.986C108.785 149.73 108.911 148.364 108.785 147.13C108.665 145.842 108.331 144.647 107.807 143.548C107.292 142.461 106.605 141.494 105.811 140.676C104.233 139.042 102.22 138.061 100.293 137.873C99.3362 137.775 98.4096 137.898 97.6124 138.168C96.8163 138.427 96.1607 138.834 95.6592 139.272C94.8587 139.955 94.3938 140.658 94.0919 141.218C93.8112 141.596 93.6033 142.027 93.5124 142.516C93.5045 142.54 93.4974 142.557 93.492 142.569C93.4855 142.582 93.4815 142.588 93.4815 142.588C93.4467 142.693 93.4342 142.8 93.4563 142.901C93.3312 144.647 94.6459 146.215 96.4551 146.442C98.2642 146.669 99.9993 145.408 100.21 143.607C100.42 141.805 99.179 140.279 97.4145 139.96C98.1526 139.617 99.0633 139.438 100.092 139.6C101.51 139.799 103.079 140.638 104.306 141.988C105.546 143.33 106.419 145.212 106.577 147.234C106.658 148.277 106.539 149.296 106.215 150.332C105.904 151.359 105.382 152.359 104.7 153.275C103.338 155.105 101.336 156.627 99.0159 157.402C97.8669 157.791 96.6294 157.973 95.4207 157.909C94.1997 157.853 92.9988 157.529 91.9155 156.968C90.831 156.419 89.8468 155.588 88.9257 154.701C88.028 153.805 87.2329 152.802 86.6142 151.735C85.356 149.586 84.7618 147.151 84.6893 144.781C84.607 142.4 85.0241 140.081 85.6777 137.954C86.3313 135.828 87.2325 133.896 88.1753 132.187C89.6896 129.44 91.3523 127.255 92.7489 125.614C94.9572 123.868 96.9563 121.889 98.757 119.776C100.948 117.211 102.88 114.462 104.651 111.639C106.411 108.814 108.009 105.925 109.506 103.034C112.255 97.7123 114.676 92.3583 117.025 87.1639L117.025 87.1638C117.237 86.6947 117.449 86.2269 117.66 85.7605C120.197 80.1394 122.737 74.7798 125.38 69.792C127.893 64.9766 130.469 60.5218 133 56.482V52.7232ZM133 68.2592C132.743 69.0392 132.498 69.8274 132.265 70.6231C130.711 75.9324 129.713 81.5834 129.189 87.4244C128.676 93.2667 128.614 99.2962 128.978 105.444C129.342 111.582 130.088 117.832 131.143 124.132C131.442 125.91 131.762 127.702 132.105 129.496L131.971 129.969C131.912 130.138 131.857 130.309 131.801 130.481C131.661 130.91 131.519 131.343 131.333 131.771C131.291 131.871 131.252 131.971 131.212 132.071C131.134 132.272 131.055 132.472 130.957 132.67C130.889 132.819 130.818 132.968 130.747 133.117C130.677 133.266 130.606 133.414 130.538 133.564C130.5 133.639 130.462 133.716 130.425 133.793C130.314 134.017 130.201 134.246 130.082 134.475C130.032 134.568 129.985 134.665 129.938 134.763C129.835 134.974 129.732 135.187 129.595 135.371C129.505 135.512 129.416 135.65 129.326 135.789C129.275 135.868 129.223 135.948 129.171 136.029C129.134 136.088 129.096 136.147 129.058 136.206C128.974 136.348 128.868 136.487 128.762 136.615L128.446 137.011C128.155 137.414 127.805 137.77 127.453 138.128C127.318 138.265 127.183 138.403 127.051 138.543C126.893 138.693 126.723 138.833 126.554 138.972L126.554 138.972C126.451 139.057 126.349 139.14 126.25 139.226L125.839 139.566L125.398 139.87C125.277 139.946 125.158 140.026 125.04 140.106C124.863 140.226 124.685 140.346 124.497 140.453C124.342 140.536 124.184 140.622 124.025 140.707L124.023 140.709C123.863 140.795 123.704 140.881 123.547 140.965C123.391 141.054 123.224 141.131 123.059 141.197L122.55 141.405L122.042 141.614C121.931 141.658 121.812 141.691 121.693 141.725L121.693 141.725C121.634 141.741 121.574 141.758 121.516 141.776C121.437 141.8 121.359 141.825 121.281 141.85L121.28 141.85C121.008 141.936 120.733 142.023 120.455 142.089C120.097 142.164 119.728 142.237 119.359 142.31C119.174 142.352 118.99 142.384 118.809 142.394L118.25 142.454L117.691 142.514C117.579 142.527 117.465 142.527 117.35 142.527C117.312 142.527 117.274 142.527 117.236 142.528C117.2 142.528 117.163 142.529 117.126 142.531C116.97 142.529 116.814 142.534 116.657 142.538C116.439 142.544 116.22 142.55 115.998 142.541L114.871 142.454L114.305 142.383L113.742 142.291L113.741 142.291C113.365 142.233 112.989 142.175 112.631 142.065L111.527 141.774L110.458 141.379L110.189 141.28L110.059 141.231L110.037 141.228L109.962 141.197L109.429 140.934L108.897 140.672C108.789 140.617 108.695 140.555 108.601 140.492L108.601 140.492C108.573 140.474 108.546 140.456 108.518 140.438C108.491 140.42 108.463 140.402 108.435 140.385C108.363 140.34 108.29 140.296 108.217 140.252L108.217 140.252C107.981 140.11 107.744 139.967 107.525 139.782L107.08 139.454L106.863 139.285L106.66 139.096C105.556 138.131 104.619 136.991 103.956 135.722C102.606 133.203 102.234 130.317 102.796 127.723C102.835 127.569 102.871 127.418 102.907 127.268C102.948 127.098 102.988 126.93 103.032 126.763C103.089 126.607 103.144 126.454 103.198 126.3L103.198 126.3L103.199 126.298C103.253 126.145 103.308 125.992 103.365 125.836L103.432 125.649L103.549 125.413L103.774 124.941C103.793 124.909 103.81 124.872 103.827 124.835C103.848 124.792 103.868 124.749 103.89 124.716L104.002 124.524L104.239 124.14C104.911 123.104 105.816 122.206 106.82 121.516C108.85 120.139 111.315 119.665 113.492 119.927C114.591 120.065 115.618 120.335 116.557 120.78C117.432 121.194 118.209 121.77 118.833 122.403C119.458 123.036 119.95 123.74 120.286 124.435C120.621 125.129 120.868 125.813 120.974 126.446C121.145 127.295 121.148 128.045 121.077 128.657C120.802 127.828 120.045 127.167 119.091 127.048C117.792 126.885 116.619 127.771 116.473 129.025C116.326 130.28 117.262 131.43 118.56 131.593C119.481 131.709 120.328 131.304 120.803 130.613C120.827 130.605 120.84 130.585 120.854 130.565C120.854 130.565 120.859 130.552 120.869 130.527C120.877 130.508 120.887 130.483 120.901 130.451C120.973 130.319 121.033 130.185 121.084 130.039L121.087 130.032C121.147 129.899 121.221 129.737 121.267 129.529C121.505 128.841 121.755 127.763 121.626 126.365C121.572 125.662 121.391 124.9 121.09 124.1C120.767 123.298 120.289 122.477 119.636 121.699C118.984 120.921 118.133 120.205 117.085 119.627C116.101 119.091 114.91 118.68 113.661 118.48C112.402 118.268 111.051 118.261 109.694 118.504C108.335 118.758 106.993 119.264 105.754 120.033C104.516 120.803 103.415 121.839 102.569 123.104L102.251 123.608C102.141 123.779 102.042 123.952 101.969 124.095L101.734 124.566L101.616 124.801L101.585 124.873L101.582 124.905L101.552 124.967L101.502 125.102L101.502 125.103C101.371 125.456 101.24 125.809 101.118 126.174C101.077 126.348 101.033 126.522 100.989 126.696C100.939 126.893 100.889 127.091 100.841 127.293C100.24 130.318 100.728 133.664 102.38 136.493C103.194 137.911 104.296 139.181 105.58 140.245L105.815 140.448L106.064 140.632L106.572 141C106.824 141.197 107.105 141.36 107.387 141.524L107.388 141.524C107.477 141.576 107.565 141.627 107.653 141.679C107.736 141.723 107.819 141.771 107.901 141.818L107.903 141.819C108.008 141.88 108.112 141.94 108.214 141.989L108.76 142.232L109.306 142.474L109.37 142.504L109.445 142.535L109.478 142.539L109.618 142.6L109.91 142.702L111.08 143.099L112.284 143.392C112.687 143.508 113.098 143.559 113.498 143.609L114.108 143.686L114.416 143.746L114.719 143.762L115.949 143.83C116.219 143.835 116.491 143.82 116.763 143.806C116.899 143.799 117.035 143.792 117.171 143.787C117.205 143.786 117.238 143.785 117.272 143.784C117.289 143.784 117.306 143.784 117.323 143.783H117.323C117.476 143.78 117.628 143.777 117.783 143.755L118.388 143.679L118.994 143.603C119.051 143.599 119.109 143.584 119.166 143.581C118.977 143.753 118.774 143.945 118.545 144.166C118.439 144.271 118.327 144.38 118.211 144.493C117.758 144.934 117.236 145.442 116.685 146.021C115.979 146.76 115.196 147.586 114.365 148.526C113.546 149.468 112.66 150.499 111.783 151.64C110.907 152.781 110.02 154.007 109.168 155.326C108.327 156.645 107.529 158.079 106.856 159.604L106.608 160.182L106.546 160.327L106.483 160.482L106.381 160.774L106.168 161.345L105.974 161.952C105.721 162.769 105.512 163.591 105.358 164.431C105.049 166.111 104.982 167.843 105.234 169.539C105.476 171.234 106.06 172.884 107.025 174.267C107.967 175.647 109.312 176.762 110.826 177.3C111.583 177.569 112.37 177.679 113.117 177.642C113.843 177.603 114.571 177.444 115.189 177.162C115.808 176.881 116.357 176.515 116.78 176.078C117.202 175.642 117.528 175.171 117.742 174.687C118.191 173.732 118.278 172.796 118.162 172.053C118.094 171.576 117.938 171.176 117.769 170.883C117.439 170.145 116.738 169.59 115.861 169.48C114.562 169.317 113.389 170.203 113.243 171.457C113.096 172.712 114.032 173.863 115.33 174.025C116.529 174.176 117.618 173.431 117.904 172.336C117.874 172.974 117.698 173.713 117.276 174.433C116.797 175.254 115.985 176.033 114.882 176.417C114.329 176.619 113.733 176.708 113.092 176.703C112.473 176.702 111.823 176.577 111.212 176.315C109.988 175.803 108.886 174.816 108.107 173.587C107.327 172.358 106.857 170.885 106.663 169.359C106.469 167.834 106.576 166.248 106.869 164.697C107.016 163.921 107.219 163.152 107.453 162.399L107.63 161.844L107.843 161.273L107.944 160.992L107.992 160.867L108.053 160.733L108.275 160.185C108.905 158.741 109.651 157.366 110.454 156.085C111.257 154.794 112.087 153.571 112.918 152.435C113.748 151.31 114.558 150.247 115.346 149.291C116.121 148.344 116.843 147.466 117.505 146.712L117.827 146.344C118.355 145.743 118.821 145.211 119.23 144.764C119.953 143.973 120.442 143.447 120.66 143.224C120.681 143.227 120.698 143.221 120.717 143.214C120.728 143.21 120.739 143.206 120.752 143.203C121.051 143.122 121.345 143.021 121.638 142.92L121.638 142.92C121.721 142.891 121.805 142.862 121.888 142.834C121.917 142.825 121.945 142.815 121.975 142.806C121.997 142.799 122.02 142.791 122.042 142.784L122.043 142.784C122.182 142.74 122.322 142.696 122.452 142.633L122.997 142.397L123.532 142.159C123.71 142.084 123.889 141.998 124.058 141.899C124.227 141.801 124.396 141.705 124.565 141.609C124.734 141.513 124.902 141.418 125.071 141.319C125.306 141.177 125.53 141.018 125.756 140.857C125.846 140.793 125.935 140.73 126.026 140.667L126.493 140.334L126.919 139.963C126.983 139.908 127.047 139.854 127.111 139.801C127.336 139.611 127.561 139.421 127.761 139.209C127.851 139.114 127.941 139.02 128.031 138.926C128.458 138.481 128.88 138.039 129.217 137.543L129.55 137.106C129.667 136.968 129.775 136.818 129.861 136.655C129.959 136.499 130.053 136.342 130.147 136.185C130.241 136.028 130.336 135.872 130.433 135.715C130.58 135.491 130.682 135.267 130.782 135.044L130.782 135.044C130.821 134.957 130.86 134.871 130.902 134.784C130.976 134.631 131.047 134.477 131.119 134.323L131.119 134.322C131.191 134.168 131.262 134.014 131.336 133.86C131.405 133.705 131.474 133.548 131.543 133.391C131.612 133.233 131.681 133.076 131.75 132.922C131.85 132.698 131.932 132.466 132.014 132.237L132.014 132.236C132.037 132.172 132.06 132.109 132.083 132.045C132.091 132.022 132.1 132 132.108 131.977C132.209 131.73 132.293 131.471 132.374 131.22L132.374 131.22L132.396 131.153C132.59 132.13 132.791 133.106 133 134.083V112.965C132.708 110.415 132.476 107.883 132.308 105.373C132.106 102.182 131.989 99.0343 132.004 95.9143C132.342 96.1766 132.673 96.4425 133 96.7123V96.0856C132.675 95.8318 132.347 95.5828 132.015 95.3391L132.033 95.189L132.077 95.1946L132.088 95.196C132.359 95.2672 132.664 95.3503 133 95.4473V94.6146C132.719 94.5445 132.46 94.4833 132.223 94.4296C132.145 94.4199 132.069 94.3994 131.992 94.3789C132.029 92.1319 132.13 89.9146 132.296 87.7271C132.458 85.5639 132.693 83.4298 133 81.3321V68.2592ZM133 222.299V221.469C132.603 222.052 132.19 222.633 131.763 223.21C131.462 223.636 131.137 224.041 130.81 224.448L130.81 224.449C130.623 224.681 130.435 224.915 130.252 225.153C129.771 225.74 129.262 226.316 128.761 226.883L128.76 226.883L128.624 227.037C127.478 228.275 126.32 229.511 125.047 230.668C123.786 231.826 122.472 232.955 121.048 233.962C119.634 234.981 118.152 235.905 116.587 236.677C115.022 237.449 113.363 238.056 111.665 238.42C110.82 238.618 109.954 238.706 109.09 238.771C108.219 238.803 107.353 238.793 106.511 238.676C105.068 238.495 103.678 238.06 102.424 237.413C103.151 237.265 103.869 237.094 104.58 236.889C107.93 235.972 111.161 234.636 114.194 232.961L114.208 232.941C120.283 229.613 125.624 225.051 130.077 219.801C131.1 218.591 132.074 217.343 133 216.06V210.389C132.065 211.963 131.06 213.496 129.987 214.981L129.986 214.981C129.905 215.004 129.824 215.026 129.731 215.047C129.614 215.076 129.494 215.109 129.371 215.142L129.37 215.142C129.007 215.241 128.619 215.346 128.192 215.398C128.123 215.408 128.054 215.419 127.985 215.431C127.954 215.437 127.923 215.442 127.893 215.448C127.703 215.482 127.51 215.516 127.31 215.527C127.187 215.537 127.062 215.546 126.935 215.555C126.746 215.568 126.553 215.582 126.356 215.603C125.033 215.643 123.529 215.509 121.98 215.075C120.432 214.642 118.831 213.886 117.383 212.78C117.321 212.73 117.256 212.682 117.19 212.634L117.19 212.633C117.071 212.546 116.951 212.458 116.847 212.354C116.726 212.248 116.612 212.137 116.495 212.025L116.495 212.025C116.444 211.976 116.392 211.926 116.34 211.877C116.099 211.679 115.893 211.447 115.683 211.211C115.58 211.094 115.475 210.977 115.366 210.863L115.126 210.604L114.912 210.316C114.838 210.22 114.768 210.124 114.697 210.028C114.627 209.932 114.557 209.836 114.483 209.74L114.376 209.596L114.348 209.549L114.301 209.467L114.103 209.138C114.074 209.085 114.043 209.032 114.011 208.979C113.995 208.952 113.98 208.926 113.964 208.9L113.964 208.9C113.876 208.757 113.79 208.615 113.74 208.483C113.691 208.379 113.644 208.275 113.597 208.171L113.596 208.171C113.549 208.067 113.503 207.963 113.453 207.86C113.394 207.712 113.341 207.556 113.29 207.403C113.265 207.33 113.241 207.258 113.216 207.188C113.15 207.012 113.104 206.832 113.058 206.65C113.044 206.597 113.03 206.543 113.016 206.489C112.999 206.41 112.978 206.333 112.957 206.255C112.915 206.1 112.873 205.945 112.862 205.784C112.68 204.836 112.694 203.848 112.819 202.874C112.932 201.898 113.225 200.934 113.657 200.031C114.078 199.127 114.63 198.261 115.334 197.533C115.492 197.335 115.681 197.163 115.88 197.003C115.948 196.945 116.012 196.886 116.076 196.827C116.2 196.711 116.323 196.597 116.468 196.501L117.084 196.045L117.762 195.64C118.614 195.192 119.621 194.862 120.636 194.75C121.653 194.627 122.691 194.703 123.675 194.957C124.659 195.211 125.588 195.643 126.4 196.213C127.201 196.781 127.904 197.511 128.415 198.25C128.443 198.299 128.473 198.348 128.504 198.397C128.523 198.428 128.542 198.458 128.561 198.488C128.645 198.621 128.729 198.754 128.791 198.884C128.824 198.962 128.861 199.035 128.897 199.107C128.958 199.229 129.018 199.349 129.059 199.483C129.213 199.905 129.343 200.335 129.394 200.765C129.641 202.504 129.043 204.159 128.098 205.302C127.626 205.874 127.086 206.35 126.504 206.712L126.479 206.731L126.42 206.756L126.299 206.828L126.058 206.961C125.982 206.999 125.913 207.027 125.847 207.055C125.777 207.084 125.71 207.112 125.642 207.148C125.535 207.192 125.423 207.229 125.314 207.265C125.278 207.277 125.242 207.288 125.208 207.3C125.121 207.329 125.028 207.349 124.936 207.369C124.878 207.381 124.821 207.394 124.767 207.408C124.283 207.5 123.807 207.527 123.359 207.503C124.327 207.026 125.031 206.114 125.162 204.988C125.372 203.187 124.033 201.54 122.168 201.306C120.304 201.072 118.624 202.341 118.414 204.142C118.269 205.385 118.875 206.56 119.877 207.24C120.212 207.554 120.635 207.88 121.189 208.156C121.678 208.402 122.249 208.626 122.911 208.742C123.562 208.856 124.302 208.883 125.061 208.75C125.44 208.689 125.823 208.585 126.223 208.439C126.277 208.415 126.335 208.39 126.392 208.365L126.394 208.364L126.394 208.364C126.538 208.302 126.686 208.237 126.806 208.175L127.047 208.042L127.168 207.97L127.228 207.934L127.276 207.908L127.277 207.897L127.324 207.881C128.031 207.426 128.687 206.823 129.212 206.084C129.738 205.345 130.141 204.492 130.364 203.552C130.585 202.623 130.612 201.615 130.447 200.615C130.359 200.114 130.226 199.619 130.035 199.127C129.981 198.964 129.902 198.803 129.825 198.644C129.783 198.558 129.742 198.474 129.705 198.39C129.625 198.225 129.537 198.084 129.448 197.941C129.405 197.873 129.362 197.804 129.32 197.732L129.292 197.685L129.263 197.638L129.244 197.614L129.186 197.53L129.069 197.374L128.825 197.05C128.723 196.899 128.598 196.765 128.474 196.631C128.411 196.564 128.349 196.497 128.29 196.428C128.122 196.233 127.932 196.065 127.732 195.888L127.692 195.853L127.376 195.574L127.033 195.324C125.243 193.968 122.865 193.213 120.47 193.38C119.266 193.468 118.106 193.758 116.961 194.3L116.59 194.493L116.41 194.59L116.313 194.643L116.265 194.669L116.243 194.667L116.181 194.713L115.437 195.207C115.261 195.313 115.103 195.447 114.945 195.582C114.917 195.605 114.889 195.629 114.861 195.653C114.818 195.689 114.774 195.725 114.73 195.76C114.697 195.788 114.664 195.816 114.631 195.844C114.437 196.005 114.241 196.169 114.075 196.353C112.362 198.009 111.236 200.228 110.92 202.549C110.875 202.778 110.858 203.011 110.842 203.244C110.839 203.283 110.837 203.322 110.834 203.36C110.832 203.38 110.831 203.399 110.829 203.419C110.826 203.501 110.821 203.584 110.816 203.666C110.803 203.875 110.79 204.081 110.807 204.286C110.819 204.57 110.829 204.865 110.841 205.15C110.861 205.278 110.879 205.406 110.897 205.532L110.897 205.533C110.919 205.691 110.941 205.849 110.967 206.003C110.988 206.184 111.033 206.359 111.077 206.534C111.103 206.636 111.129 206.739 111.15 206.842C111.219 207.122 111.288 207.403 111.403 207.668C111.438 207.76 111.47 207.851 111.502 207.94C111.565 208.118 111.627 208.291 111.704 208.467C111.788 208.631 111.869 208.794 111.948 208.955L111.949 208.957C111.998 209.058 112.047 209.158 112.096 209.256C113.132 211.191 114.676 212.821 116.34 213.998C118.014 215.187 119.852 215.94 121.598 216.322C123.343 216.715 124.986 216.725 126.411 216.578C126.766 216.524 127.099 216.468 127.432 216.412C127.668 216.38 127.89 216.318 128.103 216.26C128.189 216.236 128.275 216.212 128.359 216.191C128.648 216.129 128.917 216.044 129.164 215.955C128.684 216.591 128.182 217.224 127.67 217.845C123.484 222.933 118.439 227.369 112.712 230.61C109.852 232.242 106.817 233.547 103.682 234.449C102.355 234.826 101.001 235.135 99.6462 235.357C99.6154 235.331 99.5748 235.293 99.544 235.268C98.9566 234.704 98.421 234.082 97.967 233.438L97.6422 232.94L97.3433 232.413C97.2718 232.302 97.222 232.194 97.1721 232.086C97.1422 232.021 97.1123 231.956 97.0778 231.891C96.9966 231.717 96.9155 231.544 96.8468 231.361C96.5593 230.64 96.3534 229.896 96.2596 229.155C96.0623 227.662 96.2363 226.172 96.7183 224.84C97.2115 223.51 97.9819 222.312 98.9468 221.378C99.9117 220.444 101.053 219.738 102.257 219.356C103.443 218.939 104.704 218.847 105.819 218.944C106.977 219.056 107.963 219.485 108.748 220.094C109.521 220.703 110.06 221.488 110.375 222.267C110.689 223.047 110.778 223.83 110.721 224.508L110.667 224.969C110.292 223.747 109.188 222.782 107.801 222.608C105.936 222.374 104.257 223.643 104.047 225.444C103.836 227.245 105.176 228.893 107.04 229.126C107.64 229.202 108.223 229.123 108.743 228.916C108.822 228.915 108.903 228.892 108.987 228.849C108.987 228.849 109.023 228.828 109.091 228.789C109.143 228.76 109.213 228.72 109.301 228.67C109.408 228.619 109.53 228.536 109.666 228.433C109.802 228.349 109.942 228.227 110.103 228.088L110.138 228.057C110.478 227.752 110.864 227.333 111.191 226.754C111.507 226.173 111.771 225.456 111.824 224.614C111.887 223.784 111.771 222.845 111.384 221.915C111.008 220.987 110.364 220.047 109.413 219.318C108.948 218.956 108.411 218.638 107.818 218.411C107.527 218.299 107.223 218.206 106.895 218.121L106.399 218.027L105.944 217.97C105.263 217.917 104.623 217.902 103.937 217.99C103.263 218.068 102.582 218.211 101.913 218.443C100.577 218.895 99.3135 219.683 98.2572 220.725C97.2008 221.768 96.3611 223.077 95.8406 224.545C95.3312 226.015 95.152 227.646 95.3787 229.273C95.4859 230.092 95.7189 230.893 96.0334 231.673C96.3577 232.464 96.7561 233.199 97.2594 233.904C97.6655 234.477 98.121 235.013 98.6246 235.522C97.1034 235.723 95.5725 235.814 94.0579 235.765L92.8492 235.7L91.6468 235.582L90.4148 235.428L89.21 235.233C87.5971 234.965 86.004 234.624 84.4321 234.198C81.3104 233.35 78.3076 232.157 75.6029 230.534C72.8982 228.912 70.5136 226.861 68.5946 224.488C66.6756 222.115 65.2222 219.42 64.208 216.628C63.1951 213.825 62.6005 210.911 62.3094 208.003C62.2366 207.276 62.1761 206.539 62.1341 205.838C62.1168 205.547 62.1151 205.289 62.1134 205.029C62.1128 204.946 62.1123 204.864 62.1112 204.78C62.1176 204.452 62.135 204.115 62.152 203.787L62.1549 203.73C62.251 202.328 62.5025 200.946 62.8637 199.588C63.5849 196.882 64.7055 194.325 66.1574 192.016C67.6094 189.708 69.3706 187.644 71.3926 185.951C73.4134 184.268 75.7049 182.967 78.1164 182.182C80.5279 181.397 83.0619 181.105 85.5199 181.272C87.9792 181.429 90.4008 182.004 92.6147 182.815C93.7254 183.237 94.7718 183.727 95.7526 184.297C96.7323 184.876 97.6477 185.524 98.4766 186.237C100.133 187.674 101.407 189.401 102.285 191.24C103.151 193.079 103.633 195.032 103.759 196.94C103.989 200.755 102.889 204.391 100.857 206.943C100.354 207.587 99.793 208.147 99.1951 208.638C99.1509 208.671 99.107 208.705 99.0631 208.738L99.0627 208.739C98.8003 208.938 98.5417 209.134 98.2615 209.304L98.1405 209.376L98.0195 209.448C97.9232 209.501 97.838 209.556 97.7664 209.59C97.6096 209.679 97.4417 209.767 97.2751 209.844C95.9023 210.509 94.4487 210.904 93.0397 211.108C90.2205 211.526 87.5938 211.164 85.6353 210.287C84.0601 209.6 82.953 208.569 82.2183 207.531C82.8136 207.834 83.4632 208.057 84.1625 208.145C87.2036 208.526 89.9453 206.455 90.2882 203.518C90.6311 200.58 88.4437 197.902 85.4026 197.52C82.3616 197.139 79.6309 199.211 79.2892 202.138C79.2292 202.652 79.248 203.166 79.3373 203.656C79.4185 204.504 79.5828 205.797 80.324 207.358C80.694 208.145 81.2266 208.984 81.979 209.774C82.7313 210.565 83.6922 211.305 84.8519 211.886C87.1713 213.047 90.1666 213.532 93.3742 213.162C94.9731 212.971 96.6414 212.571 98.2943 211.821C98.4968 211.727 98.6992 211.633 98.9152 211.518L99.2152 211.36L99.372 211.271L99.5177 211.18C99.9276 210.949 100.309 210.671 100.691 210.392C101.434 209.811 102.132 209.137 102.75 208.377C105.219 205.369 106.547 201.228 106.305 196.835C106.178 194.644 105.666 192.372 104.645 190.22C103.634 188.07 102.126 186.042 100.203 184.376C98.2815 182.699 95.9659 181.408 93.4931 180.499C91.0067 179.611 88.3718 179.03 85.6164 178.902C82.8623 178.763 80.0149 179.135 77.3268 180.07C74.6387 181.006 72.1224 182.496 69.9558 184.367C67.7768 186.248 65.9364 188.508 64.4298 190.995C62.9332 193.494 61.7593 196.218 61.0279 199.107C60.6678 200.552 60.4038 202.042 60.305 203.563L60.3033 203.594C60.2822 203.962 60.2606 204.34 60.2612 204.711C60.2605 205.102 60.2684 205.517 60.2839 205.867C60.3282 206.645 60.3887 207.381 60.459 208.13C60.7709 211.149 61.3714 214.205 62.4321 217.178C63.4929 220.15 65.0262 223.029 67.0682 225.602C68.2769 227.113 69.6684 228.506 71.1896 229.752L71.1452 229.747C69.9542 229.434 68.7421 229.206 67.5237 229.031C65.0956 228.705 62.6301 228.602 60.1925 228.743C57.7463 228.86 55.3281 229.22 52.9492 229.727C50.5702 230.233 48.2476 230.932 45.9643 231.777C44.8572 232.192 43.6908 232.634 42.6118 233.194C41.523 233.743 40.4796 234.384 39.504 235.121C37.5526 236.595 35.957 238.495 34.7879 240.6C33.6187 242.705 32.8452 244.99 32.2838 247.291C31.7224 249.592 31.3596 251.929 31.0436 254.25C30.7963 256.134 30.5802 258.019 30.3645 259.901C30.0475 262.668 29.7311 265.429 29.3168 268.174C28.959 270.468 28.5752 272.791 28.0558 275.021C27.5156 277.238 26.6473 279.37 25.4415 281.307C24.2467 283.246 22.7057 284.967 20.9147 286.418C19.1237 287.868 17.1063 289.04 14.9486 289.966C12.7922 290.881 10.5277 291.565 8.21904 292.048C6.16411 292.769 3.77311 293.089 1.43184 293.176C1.15062 293.173 0.912208 293.383 0.90312 293.654C0.881681 293.934 1.10208 294.168 1.3919 294.194C3.72658 294.356 6.06894 294.356 8.39802 294.181L8.40912 294.182C10.7382 294.006 13.0639 293.667 15.3159 293.09C17.5778 292.526 19.7833 291.769 21.8707 290.769C23.9681 289.781 25.9461 288.561 27.7568 287.135C29.5576 285.696 31.1786 284.061 32.5521 282.232C32.8317 281.882 33.0863 281.51 33.3403 281.138C33.4096 281.036 33.4789 280.935 33.5486 280.834C33.6567 280.655 33.7692 280.478 33.8818 280.301C34.0745 279.998 34.2673 279.694 34.4391 279.379C35.0156 278.396 35.4971 277.358 35.9343 276.314C36.7753 274.223 37.4006 272.049 37.9261 269.863C38.4515 267.678 38.8659 265.478 39.2582 263.275C39.3693 262.651 39.4787 262.026 39.5881 261.402C39.8645 259.824 40.1407 258.247 40.4447 256.68C40.869 254.492 41.3599 252.313 42.0011 250.196C42.6535 248.081 43.471 245.997 44.5942 244.093C45.146 243.128 45.7913 242.23 46.4983 241.383C46.7489 241.073 47.0339 240.778 47.3199 240.482C47.3676 240.432 47.4154 240.383 47.4631 240.333C47.5199 240.274 47.5765 240.215 47.6327 240.155L48.2504 239.591L48.5641 239.315L48.8877 239.051C49.7376 238.331 50.6785 237.698 51.6269 237.099C52.585 236.512 53.5911 235.997 54.6268 235.518C56.6957 234.58 58.8641 233.852 61.0804 233.292C62.2761 232.985 63.4878 232.735 64.7167 232.53C63.6874 232.858 62.6592 233.273 61.6271 233.818C59.2408 235.063 56.9064 236.924 55.0767 239.381C55.0281 239.453 54.9734 239.519 54.919 239.585L54.9188 239.586C54.8514 239.668 54.7846 239.749 54.7306 239.838L54.4251 240.333C54.3212 240.499 54.2176 240.663 54.1141 240.827C54.0105 240.991 53.9069 241.154 53.803 241.321C53.6896 241.514 53.5896 241.719 53.4895 241.925L53.4894 241.925C53.416 242.076 53.3425 242.227 53.2635 242.374L52.9986 242.906L52.8662 243.172L52.8624 243.204C52.8624 243.204 52.8184 243.283 52.8179 243.281L52.7894 243.348L52.7398 243.483L52.3421 244.575C52.253 244.848 52.1782 245.151 52.1045 245.45C52.0766 245.563 52.0489 245.676 52.0206 245.786C52.0045 245.858 51.986 245.928 51.9676 245.998C51.9319 246.134 51.8966 246.268 51.8801 246.41L51.8076 247.032L51.7836 247.17C51.7194 247.539 51.6552 247.908 51.6611 248.286C51.5436 249.968 51.7343 251.711 52.2249 253.393C52.7155 255.076 53.4812 256.716 54.5136 258.195C55.5682 259.676 56.8907 260.984 58.3987 262.054L58.9605 262.451C59.0754 262.532 59.2 262.602 59.3253 262.673C59.4042 262.717 59.4834 262.762 59.5606 262.809L60.1619 263.157L60.4688 263.326L60.7892 263.475L61.4203 263.76L61.742 263.899L61.9022 263.973L61.9774 264.004C61.9774 264.004 61.9663 264.003 62.0637 264.037L62.1081 264.042C62.249 264.089 62.3874 264.137 62.5257 264.184C62.8024 264.279 63.0791 264.375 63.3766 264.463C63.5327 264.497 63.6896 264.534 63.8465 264.572L63.8505 264.573C64.167 264.649 64.4834 264.725 64.7934 264.771L65.4926 264.859L65.4936 264.859C65.7263 264.888 65.9591 264.917 66.1943 264.925C67.123 264.976 68.0716 264.954 68.9797 264.796C70.8131 264.525 72.5682 263.864 74.087 262.913C75.6057 261.961 76.9017 260.699 77.8576 259.263C77.9695 259.076 78.0782 258.891 78.187 258.707C78.296 258.522 78.4049 258.337 78.5169 258.149C78.6072 257.954 78.6978 257.756 78.7884 257.559C78.8792 257.36 78.9699 257.162 79.0604 256.966L79.2513 256.392C79.3182 256.205 79.3851 256.017 79.4336 255.795C79.5392 255.373 79.6336 254.95 79.6713 254.53C79.8023 253.698 79.7543 252.855 79.6817 252.03C79.5523 251.208 79.3761 250.403 79.0591 249.645C78.7767 248.881 78.3523 248.175 77.9242 247.502C77.4479 246.854 76.9346 246.235 76.3434 245.704C75.1845 244.634 73.7921 243.829 72.3941 243.359C71.631 243.144 70.885 242.974 70.1437 242.957C69.9052 242.928 69.662 242.939 69.4219 242.949C69.2932 242.955 69.1654 242.961 69.0397 242.96C69.0064 242.964 68.9731 242.968 68.9399 242.972L68.8755 242.979L68.8751 242.979C68.5681 243.012 68.2694 243.045 67.975 243.11C66.5795 243.391 65.3154 243.994 64.3297 244.817C63.3329 245.638 62.5974 246.634 62.1294 247.652C61.6516 248.658 61.4301 249.783 61.4964 250.76C61.549 251.756 61.8398 252.641 62.2049 253.372C62.5811 254.105 63.0415 254.696 63.5082 255.135C63.651 255.287 63.8067 255.408 63.9543 255.523C64.0345 255.586 64.1124 255.647 64.1844 255.709C64.4136 255.869 64.6119 256.002 64.8017 256.113C64.8851 256.154 64.9615 256.194 65.0331 256.232C65.0897 256.261 65.1432 256.289 65.1948 256.315C65.6052 256.562 66.0699 256.729 66.5694 256.792C68.434 257.026 70.1136 255.757 70.3239 253.956C70.5341 252.155 69.1948 250.507 67.3302 250.273C65.4656 250.04 63.786 251.308 63.5757 253.109C63.562 253.227 63.547 253.356 63.5554 253.477C63.4533 253.29 63.3624 253.104 63.2739 252.897C62.9987 252.265 62.826 251.525 62.8187 250.719C62.8016 249.901 62.988 249.076 63.415 248.216C63.8296 247.365 64.444 246.539 65.2666 245.859C66.0794 245.167 67.13 244.657 68.2912 244.357C68.4977 244.298 68.7122 244.267 68.9259 244.237C69.0137 244.224 69.1013 244.212 69.1882 244.197C69.278 244.193 69.3681 244.185 69.4586 244.178C69.6762 244.16 69.8954 244.141 70.1158 244.161C70.1941 244.166 70.2727 244.168 70.3514 244.169C70.43 244.171 70.5086 244.173 70.5869 244.177L71.0642 244.237C71.2307 244.258 71.3861 244.277 71.5389 244.318C71.616 244.333 71.6928 244.351 71.7695 244.369C71.8463 244.387 71.923 244.404 72.0001 244.42C73.3168 244.813 74.559 245.459 75.6306 246.409C76.1737 246.869 76.6366 247.438 77.0648 248.014C77.4561 248.618 77.8312 249.263 78.0767 249.957C78.3581 250.634 78.4974 251.37 78.6146 252.102C78.6751 252.839 78.7108 253.594 78.5788 254.339C78.5415 254.658 78.4689 254.951 78.3957 255.245C78.3804 255.307 78.3651 255.368 78.35 255.431C78.3248 255.569 78.2678 255.724 78.2115 255.878C78.1984 255.914 78.1853 255.95 78.1727 255.985L77.9596 256.556C77.8779 256.726 77.7935 256.894 77.7091 257.063C77.6246 257.232 77.5401 257.401 77.4583 257.57C77.406 257.654 77.3538 257.737 77.3016 257.82C77.2501 257.902 77.1987 257.983 77.1473 258.064C77.0437 258.228 76.9401 258.392 76.8363 258.558C75.9324 259.837 74.723 260.937 73.334 261.741C71.9438 262.557 70.3616 263.087 68.7405 263.275C67.9287 263.38 67.0949 263.384 66.2809 263.315C66.1456 263.313 66.0077 263.29 65.8713 263.268C65.8038 263.258 65.7366 263.247 65.6704 263.238L65.0625 263.14C64.8393 263.1 64.6215 263.043 64.4053 262.987C64.2369 262.943 64.0695 262.9 63.9011 262.864C63.6137 262.774 63.3168 262.665 63.0169 262.556L63.0157 262.555C62.8966 262.512 62.7769 262.468 62.6572 262.425L61.5689 261.908L61.2916 261.775L61.0292 261.612L60.4919 261.294C60.4402 261.263 60.3883 261.232 60.3367 261.201C60.2101 261.126 60.0851 261.052 59.967 260.967L59.4693 260.6C58.1524 259.63 56.9825 258.461 56.067 257.139C55.1627 255.818 54.4756 254.372 54.0414 252.881C53.6073 251.391 53.4039 249.853 53.489 248.352C53.479 248.063 53.5166 247.774 53.5544 247.483C53.5653 247.4 53.5761 247.316 53.5859 247.233L53.651 246.675C53.6631 246.572 53.6891 246.473 53.7153 246.375C53.7351 246.3 53.7551 246.224 53.769 246.146C53.7976 246.03 53.8223 245.915 53.847 245.8L53.847 245.8C53.8965 245.569 53.9459 245.338 54.0261 245.102C54.0868 244.919 54.1502 244.737 54.2136 244.555L54.2139 244.554C54.2774 244.372 54.3409 244.189 54.4017 244.007L54.4512 243.871L54.4587 243.807L54.4847 243.778L54.6035 243.532L54.8301 243.038C54.8651 242.962 54.8996 242.885 54.9339 242.809L54.9341 242.809C55.0479 242.556 55.161 242.305 55.293 242.063C55.384 241.911 55.4753 241.756 55.5665 241.602C55.6577 241.447 55.7489 241.293 55.8398 241.141L56.107 240.685C56.1737 240.566 56.26 240.456 56.3452 240.347L56.3453 240.347C56.3691 240.317 56.3928 240.287 56.416 240.256C58.0456 237.97 60.1245 236.175 62.2963 234.935C64.4791 233.697 66.7252 232.978 68.7783 232.659C70.8313 232.34 72.6815 232.311 74.1774 232.52C74.2533 232.53 74.3285 232.538 74.4028 232.545C74.4541 232.551 74.505 232.555 74.5555 232.56C74.7954 232.583 75.0256 232.605 75.2429 232.654L75.3761 232.671C78.0944 234.274 81.0527 235.461 84.0943 236.321C85.729 236.787 87.3973 237.159 89.0743 237.457L90.3457 237.66L91.5974 237.839L92.8984 237.98L94.207 238.057C96.1693 238.129 98.1209 238.004 100.055 237.736C99.9283 237.763 99.8012 237.791 99.6618 237.828C99.5461 237.864 99.4266 237.9 99.3037 237.938L99.3033 237.938C99.004 238.03 98.6847 238.128 98.3524 238.24C98.2772 238.269 98.2018 238.299 98.1257 238.329C97.9633 238.393 97.7973 238.459 97.6217 238.518C97.5687 238.539 97.5146 238.561 97.46 238.582C97.2589 238.661 97.0495 238.742 96.8515 238.846C96.6562 238.935 96.4603 239.03 96.2544 239.13C96.1844 239.164 96.1132 239.198 96.0404 239.234C95.8259 239.342 95.6166 239.465 95.4031 239.59C95.3427 239.625 95.2819 239.661 95.2206 239.696L95.2203 239.697C95.0759 239.776 94.9316 239.856 94.7971 239.948C94.7672 239.968 94.7367 239.989 94.7059 240.009L94.6654 240.036L94.6648 240.036C94.57 240.099 94.4732 240.163 94.381 240.233C94.2849 240.302 94.1847 240.369 94.0832 240.437C93.8991 240.561 93.7106 240.688 93.5338 240.834L93.4988 240.861C93.2365 241.069 92.9633 241.285 92.689 241.511C92.5082 241.671 92.3528 241.822 92.1973 241.974L92.1971 241.974C92.0934 242.075 91.9897 242.176 91.8785 242.279C91.3534 242.823 90.8281 243.464 90.4002 244.139C89.5098 245.496 88.8583 247.122 88.5865 248.872C88.3035 250.62 88.4324 252.507 88.9881 254.307C89.5438 256.106 90.5364 257.83 91.8575 259.246L91.887 259.283L91.8845 259.304L91.9363 259.343L91.9966 259.405L92.1284 259.531L92.3808 259.78C92.4916 259.891 92.624 259.999 92.7591 260.11L92.7602 260.111C92.8214 260.161 92.8831 260.212 92.9437 260.264L92.993 260.303C93.174 260.446 93.3629 260.596 93.556 260.71C93.6402 260.76 93.7238 260.815 93.8081 260.87C93.9347 260.953 94.0628 261.037 94.1967 261.106C95.063 261.596 96.016 261.922 96.9839 262.119C98.9296 262.527 100.942 262.268 102.66 261.537C103.504 261.153 104.292 260.676 104.958 260.085L105.021 260.027L105.058 260L105.095 259.972L105.096 259.961L105.221 259.857L105.439 259.634C105.542 259.543 105.644 259.416 105.744 259.291L105.744 259.291C105.759 259.272 105.774 259.254 105.789 259.235C105.82 259.197 105.85 259.159 105.881 259.124C106.159 258.767 106.383 258.393 106.562 258.013C107.306 256.463 107.329 254.726 106.829 253.314C106.585 252.609 106.221 251.965 105.789 251.422C105.356 250.889 104.869 250.425 104.3 250.093C103.721 249.748 103.123 249.564 102.558 249.482C102.331 249.4 102.091 249.337 101.836 249.305C99.971 249.071 98.2914 250.339 98.0811 252.141C97.8709 253.942 99.2102 255.589 101.075 255.823C102.939 256.057 104.619 254.788 104.829 252.987C104.887 252.494 104.831 252.008 104.669 251.564C104.778 251.686 104.898 251.821 105.005 251.965C105.354 252.444 105.64 252.991 105.829 253.591C106.206 254.792 106.195 256.237 105.56 257.528C105.4 257.845 105.205 258.158 104.992 258.447C104.952 258.492 104.917 258.537 104.882 258.583C104.811 258.673 104.741 258.763 104.639 258.859L104.423 259.071L104.309 259.177L104.211 259.251C103.621 259.765 102.931 260.179 102.181 260.531C100.685 261.191 98.8994 261.435 97.183 261.089C96.3235 260.927 95.4778 260.647 94.6953 260.212L94.6367 260.177C94.2758 259.967 93.9083 259.752 93.5975 259.486C93.558 259.455 93.5178 259.425 93.4771 259.394L93.4756 259.393C93.3468 259.296 93.2135 259.195 93.0839 259.063L92.8302 258.824L92.6972 258.71L92.6368 258.648L92.6381 258.637L92.5974 258.599C91.3538 257.29 90.4338 255.717 89.8964 254.051C89.3576 252.395 89.1904 250.645 89.4262 249.01C89.6522 247.363 90.2247 245.836 91.0397 244.546C91.4429 243.889 91.8916 243.325 92.3834 242.778C92.6392 242.516 92.9197 242.236 93.1482 242.014C93.4224 241.788 93.6855 241.56 93.9363 241.341C94.0902 241.208 94.2495 241.094 94.4073 240.98C94.5195 240.9 94.6309 240.82 94.7391 240.735C94.8064 240.689 94.8712 240.64 94.9361 240.591C95.0009 240.542 95.0657 240.493 95.133 240.447C95.1997 240.406 95.2667 240.363 95.3336 240.32C95.4006 240.276 95.4676 240.233 95.5343 240.193C95.5861 240.161 95.6375 240.13 95.6886 240.098L95.7816 240.04C95.9617 239.929 96.1395 239.819 96.3221 239.715C96.5863 239.574 96.8381 239.442 97.0887 239.322C97.3295 239.189 97.5788 239.078 97.8269 238.979C98.0639 238.878 98.3009 238.777 98.5256 238.686C98.8131 238.579 99.0857 238.487 99.3445 238.4L99.3467 238.399C99.5003 238.347 99.649 238.297 99.7931 238.247C100.072 238.174 100.327 238.104 100.56 238.041C100.657 238.014 100.75 237.989 100.84 237.965C101.03 237.91 101.208 237.878 101.37 237.848C101.456 237.832 101.537 237.817 101.613 237.801C103.073 238.604 104.712 239.136 106.389 239.335C107.288 239.448 108.211 239.455 109.115 239.427C110.024 239.356 110.927 239.241 111.807 239.036C113.576 238.638 115.272 238.002 116.886 237.204C118.488 236.404 119.997 235.44 121.425 234.401C122.852 233.362 124.19 232.224 125.455 231.034C126.73 229.856 127.903 228.589 129.038 227.35C129.23 227.124 129.422 226.9 129.613 226.678L129.615 226.676C129.973 226.26 130.328 225.847 130.671 225.423C130.855 225.181 131.042 224.944 131.229 224.708L131.229 224.708C131.557 224.293 131.884 223.881 132.185 223.448C132.463 223.067 132.735 222.684 133 222.299ZM133 187.04V185.082C131.717 183.679 130.672 182.073 129.919 180.348C129.075 178.415 128.596 176.342 128.49 174.262C128.419 172.741 128.564 171.215 128.904 169.745L128.965 169.747C129.149 169.75 129.341 169.754 129.535 169.748C130.054 169.752 130.526 169.731 131.004 169.709H131.005L131.094 169.705C131.458 169.7 131.813 169.656 132.169 169.613C132.353 169.59 132.536 169.567 132.722 169.55C132.815 169.538 132.907 169.526 133 169.513V167.288C132.8 167.321 132.601 167.351 132.401 167.378C132.209 167.392 132.02 167.415 131.831 167.438C131.539 167.474 131.25 167.509 130.956 167.512C130.491 167.54 130.016 167.557 129.588 167.558C130.266 165.794 131.246 164.154 132.475 162.698C132.476 162.688 132.501 162.669 132.502 162.658L132.513 162.66C132.675 162.438 132.837 162.217 133 161.997V159.376C132.389 160.14 131.801 160.923 131.227 161.715C129.804 163.386 128.69 165.313 127.955 167.364C127.439 167.343 126.926 167.3 126.437 167.249C125.515 167.134 124.598 166.986 123.747 166.749C122.897 166.512 122.077 166.202 121.334 165.815C119.847 165.041 118.682 163.927 117.999 162.645C117.315 161.362 117.135 159.915 117.367 158.606C117.487 157.957 117.696 157.331 117.985 156.78C118.13 156.504 118.297 156.231 118.472 155.982L118.501 155.931L118.505 155.899C118.505 155.899 118.529 155.88 118.528 155.891L118.592 155.823L118.762 155.626C118.805 155.589 118.84 155.553 118.874 155.517C118.92 155.471 118.964 155.424 119.027 155.377C119.877 154.657 121.035 154.291 122.097 154.163C123.17 154.036 124.18 154.163 124.991 154.45C125.803 154.736 126.4 155.214 126.724 155.722C126.604 155.685 126.472 155.658 126.339 155.641C125.04 155.478 123.867 156.365 123.721 157.619C123.574 158.873 124.51 160.024 125.808 160.187C126.707 160.3 127.541 159.915 128.024 159.247C128.134 159.173 128.214 159.064 128.242 158.926C128.242 158.926 128.25 158.851 128.286 158.736C128.351 158.57 128.394 158.39 128.417 158.197L128.42 158.165C128.473 157.911 128.51 157.589 128.534 157.189C128.524 156.601 128.448 155.808 127.956 155.007C127.487 154.197 126.626 153.469 125.561 153.042C124.497 152.604 123.247 152.414 121.907 152.507C120.577 152.612 119.115 152.984 117.815 153.995C117.654 154.117 117.476 154.29 117.323 154.445L117.154 154.641L117.063 154.739L117.01 154.808L116.984 154.838L116.944 154.898C116.704 155.216 116.485 155.547 116.287 155.892C115.889 156.604 115.584 157.381 115.418 158.22C115.065 159.894 115.259 161.801 116.129 163.52C116.985 165.248 118.515 166.712 120.319 167.657C121.22 168.14 122.179 168.51 123.17 168.798C124.161 169.085 125.187 169.268 126.22 169.398C126.598 169.434 126.977 169.471 127.358 169.486C127.024 171 126.888 172.549 126.954 174.102C127.042 176.343 127.557 178.583 128.463 180.666C129.367 182.759 130.663 184.684 132.283 186.334C132.473 186.543 132.686 186.743 132.899 186.944L132.899 186.944C132.929 186.972 132.958 187 132.988 187.028L133 187.04ZM83.5027 94.5542L83.4948 94.5411C83.4957 94.5419 83.497 94.5433 83.4988 94.5455C83.5 94.5469 83.5014 94.5486 83.5031 94.5506L83.5027 94.5542ZM83.5027 94.5542L83.5024 94.5564C83.5106 94.5694 83.5215 94.5856 83.5215 94.5856L83.5027 94.5542ZM94.3376 117.503C92.4846 118.423 90.3912 119.281 88.1057 119.951C85.8202 120.622 83.3525 121.117 80.7631 121.304C78.1959 121.493 75.4726 121.38 72.9316 120.669C71.6667 120.315 70.444 119.792 69.4733 119.039C68.9892 118.652 68.5767 118.23 68.2728 117.746C67.969 117.262 67.7947 116.729 67.7241 116.176C67.6999 115.901 67.6991 115.618 67.7329 115.329C67.7492 115.189 67.7667 115.039 67.7928 114.912L67.8166 114.708L67.9009 114.469C68.0807 113.893 68.316 113.324 68.6374 112.886C68.9712 112.438 69.3677 112.129 69.8614 111.952C70.3439 111.773 70.9349 111.727 71.5379 111.771C72.7663 111.859 74.0694 112.273 75.3218 112.735C76.5854 113.198 77.8192 113.722 79.053 114.247C81.5108 115.284 83.9156 116.293 86.3716 116.96C87.6403 117.282 88.9168 117.345 90.1196 117.267C91.3223 117.19 92.4513 116.972 93.499 116.679C95.6043 116.106 97.4016 115.276 98.9164 114.455C99.9127 113.927 100.786 113.395 101.555 112.882C101.551 112.888 101.547 112.895 101.542 112.903C101.54 112.908 101.537 112.912 101.534 112.917C101.527 112.93 101.52 112.943 101.513 112.953C99.7381 114.362 97.3485 116.02 94.3154 117.5L94.3376 117.503ZM15.7812 291.419C18.0241 290.439 20.1515 289.194 22.0437 287.647C23.9347 286.111 25.5586 284.259 26.8239 282.199C28.0892 280.138 28.9947 277.88 29.5585 275.558C30.0891 273.231 30.4593 270.928 30.8098 268.601C31.2364 265.723 31.5523 262.831 31.8671 259.95C32.0604 258.18 32.2533 256.414 32.4713 254.657C32.7638 252.344 33.1216 250.05 33.6546 247.8C34.1862 245.561 34.9152 243.368 36.0163 241.363C37.1064 239.357 38.5969 237.586 40.4285 236.173C41.3437 235.472 42.3278 234.856 43.3697 234.323C44.4129 233.779 45.4868 233.359 46.6186 232.925C48.8328 232.093 51.1221 231.39 53.4468 230.866C55.7703 230.353 58.1441 229.987 60.536 229.852C62.9181 229.705 65.3306 229.779 67.7045 230.087C68.8921 230.236 70.0709 230.461 71.2311 230.747C71.8981 230.918 72.5614 231.121 73.2123 231.333C71.409 231.346 69.608 231.436 67.8179 231.625C65.5133 231.879 63.2283 232.256 60.9788 232.812C58.7305 233.356 56.5275 234.092 54.4254 235.024C53.3786 235.502 52.349 236.026 51.3674 236.621C50.3956 237.228 49.4325 237.857 48.5579 238.596L48.222 238.869L47.907 239.156L47.2646 239.739C47.1907 239.815 47.1169 239.89 47.0433 239.965L47.0424 239.966L47.0419 239.966C46.7207 240.293 46.4027 240.617 46.0944 240.985C45.3504 241.86 44.6791 242.787 44.1026 243.77C42.9399 245.723 42.0963 247.837 41.418 249.982C40.7508 252.128 40.2353 254.326 39.7986 256.523C39.4629 258.169 39.1646 259.82 38.8664 261.471L38.8661 261.472C38.7667 262.023 38.6673 262.573 38.5664 263.123C38.152 265.323 37.7277 267.511 37.195 269.663C36.6609 271.826 36.0295 273.955 35.1935 276.004C34.3489 278.03 33.2441 279.969 31.8918 281.714C30.5592 283.483 28.9567 285.055 27.2189 286.436C25.4602 287.804 23.5315 288.987 21.4848 289.927C19.4468 290.889 17.2907 291.609 15.0868 292.159C14.0774 292.413 13.041 292.609 12.0083 292.773C13.3028 292.392 14.5716 291.942 15.817 291.402L15.7812 291.419Z" fill="#F2CAB3"/>
</svg>
