<svg width="24" height="24" fill="none" xmlns="http://www.w3.org/2000/svg"><g clip-path="url(#clip0_189_1561)" fill-rule="evenodd" clip-rule="evenodd" fill="#fff"><path d="M12 20.253a8.244 8.244 0 01-4.155-1.124.879.879 0 00-.673-.088l-2.734.75.953-2.098a.874.874 0 00-.087-.872A8.187 8.187 0 013.747 12c0-4.551 3.702-8.253 8.253-8.253 4.55 0 8.253 3.702 8.253 8.253S16.551 20.253 12 20.253zM12 2C6.486 2 2 6.486 2 12c0 1.94.55 3.802 1.598 5.419l-1.52 3.346A.875.875 0 002.873 22c.563 0 3.635-.965 4.417-1.18A9.99 9.99 0 0012 22c5.513 0 10-4.487 10-10 0-5.514-4.487-10-10-10z"/><path d="M14.608 12.994c-.395.162-.648.781-.904 1.098-.132.162-.289.187-.49.106-1.486-.592-2.625-1.584-3.445-2.95-.139-.212-.114-.38.054-.577.247-.291.559-.622.625-1.016.149-.868-.987-3.564-2.488-2.343-4.317 3.519 7.203 12.85 9.282 7.804.588-1.431-1.977-2.391-2.634-2.122z"/></g><defs><clipPath id="clip0_189_1561"><path fill="#fff" d="M0 0h24v24H0z"/></clipPath></defs></svg>