<svg width="81" height="66" viewBox="0 0 81 66" fill="none" xmlns="http://www.w3.org/2000/svg">
<path d="M0.191669 63.4985L0.191669 63.2959L0.470959 63.2959C0.78128 63.2959 1.00398 63.1955 1.13906 62.9947C1.21938 62.8779 1.25954 62.6077 1.25954 62.1842L1.25954 57.387C1.25954 56.9197 1.20843 56.6295 1.1062 56.5163C0.963822 56.3557 0.752073 56.2753 0.470959 56.2753L0.191669 56.2753L0.191669 56.0727L3.21457 56.0727C4.32442 56.0727 5.16777 56.1987 5.7446 56.4506C6.32508 56.7025 6.79057 57.1223 7.14105 57.7101C7.49518 58.2943 7.67224 58.9733 7.67224 59.7473C7.67224 60.2949 7.5828 60.7987 7.40391 61.2587C7.22867 61.7187 6.96581 62.1149 6.61532 62.4471C6.2685 62.7757 5.83404 63.0331 5.31197 63.2192C4.79355 63.4054 4.19299 63.4985 3.51028 63.4985L0.191669 63.4985ZM2.31098 62.9619C2.76734 63.0641 3.15615 63.1152 3.47743 63.1152C3.89727 63.1152 4.28609 63.0385 4.64387 62.8852C5.0053 62.7282 5.31745 62.5073 5.58031 62.2226C5.84317 61.9341 6.04944 61.5855 6.19913 61.1766C6.34881 60.7677 6.42366 60.3095 6.42366 59.8021C6.42366 59.2909 6.34881 58.8309 6.19913 58.422C6.0531 58.0131 5.84682 57.6663 5.58031 57.3816C5.31745 57.0931 5.00165 56.8723 4.63292 56.7189C4.26783 56.5656 3.86807 56.4889 3.43362 56.4889C3.26933 56.4889 3.09409 56.5035 2.9079 56.5327C2.7217 56.5583 2.52273 56.5966 2.31098 56.6477L2.31098 62.9619ZM13.2361 61.0123L10.3611 61.0123L9.85727 62.1842C9.73314 62.469 9.67108 62.6844 9.67108 62.8304C9.67108 62.8888 9.68021 62.9436 9.69846 62.9947C9.72037 63.0422 9.76235 63.0878 9.82441 63.1316C9.88648 63.1718 9.9741 63.2065 10.0873 63.2357C10.2005 63.2612 10.3483 63.2813 10.5309 63.2959L10.5309 63.4985L8.19249 63.4985L8.19249 63.2959C8.49916 63.2412 8.69996 63.17 8.79488 63.0823C8.8898 62.9947 8.98655 62.8633 9.08512 62.688C9.18734 62.5092 9.29687 62.2846 9.41369 62.0145L12.0259 55.903L12.2175 55.903L14.8023 62.0802C14.9082 62.3357 15.005 62.542 15.0926 62.699C15.1838 62.8523 15.2769 62.9728 15.3719 63.0604C15.4668 63.1444 15.569 63.2028 15.6785 63.2357C15.7917 63.2685 15.925 63.2886 16.0783 63.2959L16.0783 63.4985L13.1485 63.4985L13.1485 63.2959C13.2945 63.2886 13.4168 63.2722 13.5154 63.2466C13.614 63.2211 13.6907 63.1882 13.7454 63.1481C13.8038 63.1079 13.844 63.0623 13.8659 63.0111C13.8915 62.96 13.9042 62.9034 13.9042 62.8414C13.9079 62.7611 13.8896 62.6588 13.8495 62.5347C13.813 62.4069 13.7582 62.2554 13.6852 62.0802L13.2361 61.0123ZM13.0828 60.6071L11.8233 57.6061L10.5309 60.6071L13.0828 60.6071ZM21.3519 55.903L21.3519 58.4713L21.1493 58.4713C21.0836 57.9785 20.965 57.586 20.7934 57.2939C20.7094 57.1479 20.6035 57.0165 20.4757 56.8996C20.3516 56.7828 20.2147 56.6842 20.065 56.6039C19.919 56.52 19.762 56.4561 19.5941 56.4123C19.4298 56.3648 19.2637 56.3411 19.0957 56.3411C18.9095 56.3411 18.7361 56.3739 18.5755 56.4396C18.4148 56.5017 18.2743 56.5857 18.1538 56.6915C18.037 56.7974 17.9457 56.9197 17.88 57.0585C17.8143 57.1935 17.7814 57.3341 17.7814 57.4801C17.7814 57.6846 17.8289 57.8635 17.9238 58.0168C18.0187 58.1665 18.1483 58.3052 18.3126 58.433C18.4806 58.5608 18.6759 58.6849 18.8986 58.8054C19.1249 58.9259 19.3695 59.0555 19.6324 59.1942C19.9281 59.3512 20.2092 59.5045 20.4757 59.6542C20.7423 59.8039 20.9759 59.97 21.1767 60.1525C21.3812 60.3314 21.5436 60.5377 21.6641 60.7714C21.7846 61.0014 21.8448 61.2788 21.8448 61.6037C21.8448 61.8812 21.7864 62.1459 21.6696 62.3978C21.5564 62.6461 21.3958 62.8651 21.1877 63.055C20.9832 63.2412 20.7368 63.389 20.4484 63.4985C20.1636 63.6117 19.8496 63.6683 19.5064 63.6683C19.3787 63.6683 19.2691 63.6665 19.1779 63.6628C19.0866 63.6592 18.999 63.65 18.915 63.6354C18.831 63.6245 18.7434 63.6044 18.6521 63.5752C18.5645 63.5496 18.4587 63.5131 18.3345 63.4657C18.2469 63.4328 18.1575 63.4036 18.0662 63.3781C17.9749 63.3489 17.8909 63.3251 17.8143 63.3069C17.7376 63.2886 17.6719 63.274 17.6171 63.2631C17.566 63.2521 17.5332 63.2466 17.5186 63.2466C17.4273 63.2466 17.3543 63.274 17.2995 63.3288C17.2484 63.3835 17.2101 63.4967 17.1845 63.6683L16.9819 63.6683L16.9819 61.1218L17.1845 61.1218C17.232 61.3883 17.2867 61.622 17.3488 61.8228C17.4145 62.0199 17.4875 62.1861 17.5678 62.3211C17.6482 62.4526 17.7522 62.5749 17.88 62.688C18.0078 62.8012 18.1502 62.8998 18.3071 62.9838C18.4678 63.0641 18.6394 63.128 18.8219 63.1754C19.0081 63.2192 19.1979 63.2412 19.3914 63.2412C19.6214 63.2412 19.8277 63.2083 20.0103 63.1426C20.1928 63.0769 20.348 62.9892 20.4757 62.8797C20.6035 62.7665 20.7003 62.6369 20.766 62.4909C20.8354 62.3412 20.87 62.1861 20.87 62.0254C20.87 61.7881 20.8207 61.5891 20.7222 61.4285C20.6236 61.2642 20.4903 61.1182 20.3224 60.9904C20.1581 60.8626 19.9646 60.7403 19.7419 60.6235C19.5229 60.5067 19.291 60.3752 19.0464 60.2292C18.769 60.0649 18.5006 59.9098 18.2414 59.7637C17.9859 59.614 17.7595 59.4516 17.5624 59.2763C17.3652 59.0974 17.2064 58.8948 17.0859 58.6685C16.9691 58.4421 16.9107 58.172 16.9107 57.858C16.9107 57.5951 16.9655 57.345 17.075 57.1077C17.1845 56.8704 17.336 56.6623 17.5295 56.4834C17.723 56.3046 17.9512 56.164 18.214 56.0618C18.4806 55.9559 18.7708 55.903 19.0848 55.903C19.4718 55.903 19.8898 55.9997 20.3388 56.1932C20.536 56.2845 20.6802 56.3301 20.7715 56.3301C20.8664 56.3301 20.9431 56.3027 21.0015 56.248C21.0635 56.1896 21.1128 56.0745 21.1493 55.903L21.3519 55.903ZM24.7582 59.5173L28.2082 59.5173L28.2082 57.3925C28.2082 57.2173 28.2046 57.0749 28.1973 56.9654C28.19 56.8558 28.1754 56.7664 28.1535 56.697C28.1352 56.624 28.106 56.5674 28.0658 56.5273C28.0257 56.4834 27.9727 56.4433 27.907 56.4068C27.7464 56.3192 27.5803 56.2753 27.4087 56.2753L27.1458 56.2753L27.1458 56.0727L30.3275 56.0727L30.3221 56.2753L30.0592 56.2753C29.9898 56.2753 29.9168 56.2826 29.8402 56.2973C29.7635 56.3119 29.6905 56.3356 29.6211 56.3684C29.5517 56.4013 29.4897 56.4433 29.4349 56.4944C29.3838 56.5419 29.3455 56.6003 29.3199 56.6696C29.2797 56.7901 29.2597 57.0311 29.2597 57.3925L29.2597 62.1842C29.2597 62.3595 29.2633 62.5019 29.2706 62.6114C29.2779 62.7209 29.2907 62.8122 29.309 62.8852C29.3309 62.9546 29.3601 63.0093 29.3966 63.0495C29.4367 63.0896 29.4897 63.128 29.5554 63.1645C29.7124 63.2521 29.8803 63.2959 30.0592 63.2959L30.3221 63.2959L30.3221 63.4985L27.1458 63.4985L27.1458 63.2959L27.4087 63.2959C27.7081 63.2959 27.9289 63.2065 28.0713 63.0276C28.1626 62.9144 28.2082 62.6333 28.2082 62.1842L28.2082 59.9225L24.7582 59.9225L24.7582 62.1842C24.7582 62.3595 24.7618 62.5019 24.7691 62.6114C24.7764 62.7209 24.7892 62.8104 24.8075 62.8797C24.8294 62.9491 24.8604 63.0057 24.9006 63.0495C24.9407 63.0896 24.9937 63.128 25.0594 63.1645C25.2164 63.2521 25.3825 63.2959 25.5577 63.2959L25.8261 63.2959L25.8261 63.4985L22.6443 63.4985L22.6443 63.2959L22.9072 63.2959C23.2175 63.2959 23.4402 63.2065 23.5753 63.0276C23.6629 62.9144 23.7067 62.6333 23.7067 62.1842L23.7067 57.3925C23.7067 57.2173 23.7031 57.0749 23.6958 56.9654C23.6885 56.8558 23.6739 56.7664 23.652 56.697C23.6337 56.624 23.6045 56.5674 23.5644 56.5273C23.5278 56.4834 23.4767 56.4433 23.411 56.4068C23.2504 56.3192 23.0824 56.2753 22.9072 56.2753L22.6443 56.2753L22.6443 56.0727L25.8261 56.0727L25.8261 56.2753L25.5577 56.2753C25.4847 56.2753 25.4099 56.2826 25.3332 56.2973C25.2602 56.3119 25.189 56.3356 25.1196 56.3684C25.0539 56.4013 24.9937 56.4433 24.9389 56.4944C24.8878 56.5419 24.8495 56.6003 24.8239 56.6696C24.7801 56.7865 24.7582 57.0274 24.7582 57.3925L24.7582 59.5173ZM35.6888 61.0123L32.8138 61.0123L32.3099 62.1842C32.1858 62.469 32.1238 62.6844 32.1238 62.8304C32.1238 62.8888 32.1329 62.9436 32.1511 62.9947C32.173 63.0422 32.215 63.0878 32.2771 63.1316C32.3392 63.1718 32.4268 63.2065 32.5399 63.2357C32.6531 63.2612 32.801 63.2813 32.9835 63.2959L32.9835 63.4985L30.6452 63.4985L30.6452 63.2959C30.9518 63.2412 31.1526 63.17 31.2476 63.0823C31.3425 62.9947 31.4392 62.8633 31.5378 62.688C31.64 62.5092 31.7495 62.2846 31.8664 62.0145L34.4785 55.903L34.6702 55.903L37.255 62.0802C37.3609 62.3357 37.4576 62.542 37.5453 62.699C37.6365 62.8523 37.7296 62.9728 37.8245 63.0604C37.9195 63.1444 38.0217 63.2028 38.1312 63.2357C38.2444 63.2685 38.3776 63.2886 38.531 63.2959L38.531 63.4985L35.6012 63.4985L35.6012 63.2959C35.7472 63.2886 35.8695 63.2722 35.9681 63.2466C36.0667 63.2211 36.1433 63.1882 36.1981 63.1481C36.2565 63.1079 36.2967 63.0623 36.3186 63.0111C36.3441 62.96 36.3569 62.9034 36.3569 62.8414C36.3606 62.7611 36.3423 62.6588 36.3021 62.5347C36.2656 62.4069 36.2109 62.2554 36.1379 62.0802L35.6888 61.0123ZM35.5355 60.6071L34.2759 57.6061L32.9835 60.6071L35.5355 60.6071ZM44.8177 59.3804L47.5559 62.1021C48.0049 62.5511 48.3883 62.8578 48.7059 63.0221C49.0271 63.1827 49.3448 63.274 49.6587 63.2959L49.6587 63.4985L46.1266 63.4985L46.1266 63.2959C46.3383 63.2959 46.4898 63.2612 46.5811 63.1919C46.676 63.1188 46.7235 63.0385 46.7235 62.9509C46.7235 62.9071 46.7216 62.8688 46.718 62.8359C46.7143 62.7994 46.6997 62.7611 46.6742 62.7209C46.6523 62.6807 46.6139 62.6296 46.5592 62.5676C46.5081 62.5055 46.4314 62.4252 46.3292 62.3266L43.7663 59.7911L43.7663 62.1842C43.7663 62.3595 43.7699 62.5019 43.7772 62.6114C43.7845 62.7209 43.7973 62.8104 43.8156 62.8797C43.8375 62.9491 43.8685 63.0057 43.9087 63.0495C43.9488 63.0896 44.0018 63.128 44.0675 63.1645C44.2245 63.2521 44.3906 63.2959 44.5658 63.2959L44.8177 63.2959L44.8177 63.4985L41.6524 63.4985L41.6524 63.2959L41.9153 63.2959C42.2256 63.2959 42.4483 63.2065 42.5834 63.0276C42.671 62.9144 42.7148 62.6333 42.7148 62.1842L42.7148 57.387C42.7148 57.2191 42.7112 57.0804 42.7039 56.9708C42.7002 56.8613 42.6875 56.7719 42.6656 56.7025C42.6437 56.6295 42.6126 56.5711 42.5725 56.5273C42.536 56.4834 42.4848 56.4433 42.4191 56.4068C42.2585 56.3192 42.0905 56.2753 41.9153 56.2753L41.6524 56.2753L41.6524 56.0727L44.8177 56.0727L44.8177 56.2753L44.5658 56.2753C44.4965 56.2753 44.4234 56.2826 44.3468 56.2973C44.2738 56.3119 44.2026 56.3356 44.1332 56.3684C44.0675 56.3976 44.0072 56.4378 43.9525 56.4889C43.8977 56.5364 43.8576 56.5948 43.832 56.6642C43.7882 56.781 43.7663 57.0219 43.7663 57.387L43.7663 59.6597C43.9087 59.5428 44.0711 59.4005 44.2537 59.2325C44.4362 59.0646 44.6224 58.8875 44.8123 58.7013C45.0057 58.5151 45.1956 58.3289 45.3818 58.1428C45.5716 57.9566 45.7432 57.785 45.8966 57.628C46.0499 57.4673 46.1777 57.3286 46.2799 57.2118C46.3858 57.095 46.4533 57.0165 46.4825 56.9763C46.5811 56.8303 46.6304 56.7025 46.6304 56.593C46.6304 56.509 46.592 56.436 46.5154 56.3739C46.4424 56.3082 46.3127 56.2753 46.1266 56.2753L45.9568 56.2753L45.9568 56.0727L48.684 56.0727L48.684 56.2753C48.5233 56.2826 48.3773 56.3046 48.2459 56.3411C48.1802 56.363 48.1071 56.3922 48.0268 56.4287C47.9465 56.4652 47.8571 56.5145 47.7585 56.5765C47.6636 56.6386 47.5577 56.7153 47.4409 56.8065C47.3277 56.8942 47.2017 57.0019 47.063 57.1296L44.8177 59.3804ZM53.6728 55.903C54.633 55.903 55.4672 56.2699 56.1755 57.0037C56.8838 57.7339 57.2379 58.6466 57.2379 59.7418C57.2379 60.8699 56.8819 61.8064 56.17 62.5511C55.4581 63.2959 54.5965 63.6683 53.5852 63.6683C52.5593 63.6683 51.6996 63.305 51.0059 62.5785C50.3122 61.852 49.9654 60.9119 49.9654 59.7582C49.9654 58.579 50.367 57.617 51.1702 56.8723C51.8675 56.2261 52.7017 55.903 53.6728 55.903ZM53.5688 56.3027C53.1928 56.3027 52.8587 56.383 52.5666 56.5437C52.2746 56.7043 52.0281 56.9343 51.8273 57.2337C51.6302 57.5294 51.4787 57.889 51.3728 58.3125C51.2706 58.736 51.2195 59.2106 51.2195 59.7363C51.2195 60.2584 51.2706 60.7367 51.3728 61.1711C51.475 61.6056 51.6247 61.9798 51.8219 62.2938C52.0227 62.6041 52.2691 62.8469 52.5612 63.0221C52.8532 63.1937 53.1909 63.2795 53.5743 63.2795C53.9175 63.2795 54.2351 63.2138 54.5271 63.0823C54.8229 62.9509 55.0784 62.7483 55.2938 62.4745C55.5092 62.197 55.6772 61.8447 55.7976 61.4176C55.9218 60.9904 55.9838 60.4811 55.9838 59.8897C55.9838 59.3238 55.9327 58.82 55.8305 58.3782C55.7319 57.9328 55.5804 57.5568 55.376 57.2501C55.1752 56.9434 54.9233 56.7098 54.6202 56.5492C54.3209 56.3849 53.9704 56.3027 53.5688 56.3027ZM65.2551 63.4985L63.2727 63.4985L60.7591 60.0266C60.6642 60.0302 60.5784 60.0339 60.5017 60.0375C60.4287 60.0375 60.363 60.0375 60.3046 60.0375C60.2571 60.0375 60.206 60.0375 60.1513 60.0375C60.0965 60.0339 60.0399 60.0302 59.9815 60.0266L59.9815 62.1842C59.9815 62.6515 60.0326 62.9418 60.1348 63.055C60.2736 63.2156 60.4817 63.2959 60.7591 63.2959L61.0494 63.2959L61.0494 63.4985L57.8677 63.4985L57.8677 63.2959L58.147 63.2959C58.4573 63.2959 58.6818 63.1937 58.8205 62.9892C58.8972 62.8761 58.9355 62.6077 58.9355 62.1842L58.9355 57.387C58.9355 56.9197 58.8844 56.6295 58.7822 56.5163C58.6398 56.3557 58.4281 56.2753 58.147 56.2753L57.8677 56.2753L57.8677 56.0727L60.5729 56.0727C61.3542 56.0727 61.9347 56.1311 62.3144 56.248C62.5006 56.3027 62.674 56.3849 62.8346 56.4944C62.9989 56.6039 63.1413 56.7335 63.2618 56.8832C63.3859 57.0329 63.4827 57.2008 63.552 57.387C63.625 57.5732 63.6615 57.7722 63.6615 57.9839C63.6615 58.2139 63.625 58.4293 63.552 58.6301C63.479 58.8273 63.3658 59.008 63.2125 59.1723C63.0628 59.3366 62.873 59.479 62.643 59.5994C62.413 59.7199 62.1428 59.8148 61.8325 59.8842L63.3658 62.0145C63.72 62.5073 64.0212 62.8323 64.2694 62.9892C64.525 63.1499 64.8535 63.2521 65.2551 63.2959L65.2551 63.4985ZM59.9815 59.6816C60.0509 59.6816 60.1111 59.6834 60.1622 59.6871C60.2133 59.6871 60.2553 59.6871 60.2882 59.6871C60.6423 59.6871 60.9526 59.6469 61.2191 59.5666C61.4893 59.4826 61.7138 59.3676 61.8927 59.2216C62.0716 59.0755 62.2049 58.904 62.2925 58.7068C62.3838 58.506 62.4294 58.2888 62.4294 58.0551C62.4294 57.8251 62.3911 57.6152 62.3144 57.4254C62.2377 57.2319 62.1282 57.0658 61.9858 56.927C61.8471 56.7883 61.6791 56.6806 61.482 56.6039C61.2885 56.5273 61.0749 56.4889 60.8413 56.4889C60.7354 56.4889 60.6113 56.498 60.4689 56.5163C60.3265 56.5309 60.164 56.5565 59.9815 56.593L59.9815 59.6816ZM71.6076 56.0727L66.7283 63.0495L69.7731 63.0495C70.2404 63.0495 70.5981 62.9473 70.8464 62.7428C71.0983 62.5384 71.321 62.124 71.5145 61.4997L71.6952 61.5326L71.3447 63.4985L65.299 63.4985L65.299 63.2959L70.0633 56.5163L67.6866 56.5163C67.4895 56.5163 67.3215 56.5273 67.1828 56.5492C67.0477 56.5711 66.9309 56.6039 66.8323 56.6477C66.7337 56.6879 66.6516 56.739 66.5859 56.8011C66.5238 56.8631 66.469 56.9361 66.4216 57.0201C66.3303 57.1735 66.2463 57.4765 66.1697 57.9292L65.9616 57.9292L66.1149 56.0727L71.6076 56.0727ZM74.3184 59.5173L77.7684 59.5173L77.7684 57.3925C77.7684 57.2173 77.7647 57.0749 77.7574 56.9654C77.7501 56.8558 77.7355 56.7664 77.7136 56.697C77.6954 56.624 77.6662 56.5674 77.626 56.5273C77.5859 56.4834 77.5329 56.4433 77.4672 56.4068C77.3066 56.3192 77.1405 56.2753 76.9689 56.2753L76.706 56.2753L76.706 56.0727L79.8877 56.0727L79.8822 56.2753L79.6194 56.2753C79.55 56.2753 79.477 56.2826 79.4003 56.2973C79.3237 56.3119 79.2506 56.3356 79.1813 56.3684C79.1119 56.4013 79.0498 56.4433 78.9951 56.4944C78.944 56.5419 78.9056 56.6003 78.8801 56.6696C78.8399 56.7901 78.8198 57.0311 78.8198 57.3925L78.8198 62.1842C78.8198 62.3595 78.8235 62.5019 78.8308 62.6114C78.8381 62.7209 78.8509 62.8122 78.8691 62.8852C78.891 62.9546 78.9202 63.0093 78.9567 63.0495C78.9969 63.0896 79.0498 63.128 79.1156 63.1645C79.2725 63.2521 79.4405 63.2959 79.6194 63.2959L79.8822 63.2959L79.8822 63.4985L76.706 63.4985L76.706 63.2959L76.9689 63.2959C77.2682 63.2959 77.4891 63.2065 77.6315 63.0276C77.7228 62.9144 77.7684 62.6333 77.7684 62.1842L77.7684 59.9225L74.3184 59.9225L74.3184 62.1842C74.3184 62.3595 74.322 62.5019 74.3293 62.6114C74.3366 62.7209 74.3494 62.8104 74.3676 62.8797C74.3895 62.9491 74.4206 63.0057 74.4607 63.0495C74.5009 63.0896 74.5538 63.128 74.6195 63.1645C74.7765 63.2521 74.9426 63.2959 75.1179 63.2959L75.3862 63.2959L75.3862 63.4985L72.2045 63.4985L72.2045 63.2959L72.4674 63.2959C72.7777 63.2959 73.0004 63.2065 73.1355 63.0276C73.2231 62.9144 73.2669 62.6333 73.2669 62.1842L73.2669 57.3925C73.2669 57.2173 73.2633 57.0749 73.256 56.9654C73.2487 56.8558 73.2341 56.7664 73.2121 56.697C73.1939 56.624 73.1647 56.5674 73.1245 56.5273C73.088 56.4834 73.0369 56.4433 72.9712 56.4068C72.8106 56.3192 72.6426 56.2753 72.4674 56.2753L72.2045 56.2753L72.2045 56.0727L75.3862 56.0727L75.3862 56.2753L75.1179 56.2753C75.0449 56.2753 74.97 56.2826 74.8934 56.2973C74.8203 56.3119 74.7492 56.3356 74.6798 56.3684C74.6141 56.4013 74.5538 56.4433 74.4991 56.4944C74.448 56.5419 74.4096 56.6003 74.3841 56.6696C74.3403 56.7865 74.3184 57.0274 74.3184 57.3925L74.3184 59.5173Z" fill="#734230"/>
<path d="M38.7198 38.1016C38.6234 39.0954 38.4029 40.0731 38.0636 41.0118C37.5779 42.3651 36.8369 43.6119 35.8811 44.6841C34.9659 45.6886 33.8473 46.4854 32.6003 47.0209C31.3007 47.5753 29.9011 47.8549 28.489 47.842C27.1066 47.8099 25.7317 47.6287 24.388 47.3016L24.388 25.0404L24.5054 25.0144C24.1881 24.3945 24.0196 23.7088 24.0133 23.0119L16.9338 23.0119L16.9338 23.7239L17.9146 23.7239C18.9034 23.7239 19.6482 24.0074 20.1489 24.5744C20.5081 24.9729 20.6877 25.996 20.6877 27.644L20.6877 44.5629C20.6877 46.0561 20.5466 47.0088 20.2646 47.4211C19.7903 48.1279 19.007 48.4818 17.9146 48.483L16.9338 48.483L16.9338 49.1967L28.5995 49.1967C30.9996 49.1967 33.1143 48.8687 34.9435 48.2127C36.6442 47.6329 38.2048 46.7017 39.5244 45.4792C40.7514 44.3134 41.6989 42.8837 42.2958 41.2976C42.8079 39.9264 43.1832 38.5077 43.4165 37.0622C43.4562 36.8215 43.5598 36.1511 43.634 35.2451C43.6927 34.5522 43.9017 32.0041 43.5201 29.7313C43.3819 28.9068 42.8294 25.6432 40.3222 22.8768C37.7666 20.0654 34.5705 19.3015 31.939 18.6727C29.5309 18.0957 27.0458 17.9132 24.5797 18.1322C24.59 18.3054 24.6021 18.4786 24.6125 18.6519C25.2834 18.5947 25.9579 18.5918 26.6293 18.6432C28.7714 18.8155 30.8391 19.5107 32.6521 20.6682C35.553 22.5737 36.8066 25.1825 37.3729 26.4002C38.6801 29.2169 38.7768 31.7789 38.8631 34.0932C38.9147 35.431 38.8668 36.7709 38.7198 38.1016Z" fill="#734230"/>
<path d="M22.3504 26.6359C23.0201 26.5109 23.6984 26.438 24.3793 26.4176C24.4518 25.4804 24.6159 24.8586 24.8749 24.5745C25.3791 24.0075 26.1256 23.7239 27.1144 23.7239L28.0969 23.7239L28.0969 23.0103L22.1639 23.0103C22.2864 24.2149 22.3486 25.425 22.3504 26.6359Z" fill="#734230"/>
<path d="M24.6314 18.6486C22.4926 18.8643 20.4283 19.5542 18.5879 20.6684C13.9068 23.634 11.3357 29.269 14.1485 34.4433C16.2016 38.4482 19.8001 41.0899 24.4225 40.591C26.5551 40.3364 28.6009 39.5938 30.4021 38.4205C32.4258 37.0746 33.9937 35.1535 35.3578 33.1562C36.1383 32.0389 36.8083 30.8263 37.7182 29.787C38.8182 28.5363 39.9474 27.3151 41.3806 26.4282C43.28 25.2641 45.5075 24.5695 47.7488 24.7323C51.1556 24.928 54.3535 26.9167 55.6053 30.1733C56.0266 31.2126 56.2218 32.3109 56.3944 33.4091C57.0713 37.5371 54.9785 41.2562 51.33 43.1634C49.8743 43.9014 48.1873 44.8489 46.4952 44.3587C45.3607 43.9603 44.3765 42.5485 45.0119 41.3706C45.4384 40.688 46.3691 40.6777 47.084 40.7054C47.5474 40.7484 47.9829 40.9467 48.3203 41.2683C49.0697 41.9353 49.2251 43.347 50.4977 43.0474L50.5996 43.5307C50.2897 43.6046 49.9656 43.5927 49.662 43.496C49.0611 43.3037 48.714 42.7113 48.4412 42.2194C48.1683 41.7274 47.7073 41.2753 47.1185 41.2112C46.6264 41.154 46.0393 41.1748 45.6111 41.4329C45.1673 41.7794 45.2657 42.5034 45.5541 42.9642C46.8301 45.0014 49.4755 43.5619 51.0951 42.7252C52.5177 41.985 53.7356 40.9031 54.6401 39.5759C55.811 37.7747 56.26 35.5961 55.8971 33.4767C55.6157 31.346 54.9854 29.2327 53.4176 27.7083C51.9291 26.1787 49.8191 25.368 47.7194 25.226C45.6197 25.0839 43.4561 25.7457 41.65 26.8491C40.7451 27.4303 39.9192 28.1267 39.1929 28.9209C38.0562 30.0805 37.063 31.3734 36.235 32.7717C34.7189 35.0652 32.9991 37.3102 30.6853 38.8519C28.8136 40.0724 26.6863 40.843 24.4691 41.1038C21.1072 41.5143 17.6779 40.0644 15.5316 37.4661C14.133 35.7459 12.9726 33.7486 12.5962 31.5331C11.7916 27.0189 14.5733 22.5618 18.3151 20.2388C20.2216 19.0825 22.3611 18.3671 24.5779 18.1445L24.6263 18.6642L24.6314 18.6486Z" fill="#734230"/>
<path d="M45.7441 41.1625C45.5103 41.2265 45.307 41.3721 45.1708 41.5731C45.1414 41.6285 45.0137 41.8779 45.1932 42.4392C45.3694 43.0501 45.7609 43.5758 46.2949 43.9185C47.2912 44.5266 48.3566 44.1697 48.9696 43.9636C49.3788 43.8267 49.8675 43.5894 49.8433 43.3971C49.8191 43.2048 49.2735 43.2551 48.9195 42.8047C48.7762 42.6228 48.8366 42.5795 48.6311 42.1984C48.4985 41.9066 48.3088 41.6445 48.0734 41.4276C47.7281 41.1435 47.3465 41.1002 46.932 41.0534C46.5333 40.9863 46.124 41.0239 45.7441 41.1625Z" fill="#734230"/>
<path d="M60.4073 37.2686C61.2983 36.8477 64.0421 35.3857 65.3129 32.3629C65.7829 31.2083 66.0217 29.9722 66.0157 28.7252C66.0261 27.7551 66.0244 25.9536 64.9383 24.0308C64.104 22.5846 62.8647 21.416 61.3743 20.6702C59.6769 19.8041 58.0935 19.74 56.6137 19.6741C55.8402 19.6395 55.0651 19.6615 54.2948 19.74L61.2016 12.8023C61.6276 12.4097 62.0172 12.0748 62.3706 11.7976C62.7246 11.5222 63.0492 11.2883 63.3479 11.1047C63.608 10.9329 63.8804 10.7806 64.1629 10.6491C64.4099 10.5365 64.6343 10.4464 64.8364 10.3772C65.2766 10.2605 65.7283 10.1931 66.1832 10.1762L66.1832 9.55087L57.7862 9.55087L57.7862 10.1762L58.3042 10.1762C58.8775 10.1762 59.2781 10.2732 59.5129 10.4707C59.6191 10.5523 59.7055 10.6571 59.7653 10.7772C59.8252 10.8972 59.8569 11.0294 59.8582 11.1636C59.8582 11.5008 59.7069 11.8946 59.4041 12.345C59.3143 12.4697 59.1088 12.7105 58.7894 13.0708C58.47 13.4311 58.0745 13.8555 57.6031 14.3457C57.1318 14.836 56.6068 15.3678 56.0301 15.9411C55.4534 16.5145 54.8697 17.0879 54.2792 17.663C53.6887 18.2381 53.1154 18.782 52.5525 19.3C51.9896 19.8179 51.4923 20.2562 51.0554 20.6165L51.0554 13.5957C51.0554 12.4709 51.1228 11.7283 51.2575 11.368C51.3335 11.1571 51.4604 10.9685 51.627 10.8189C51.7953 10.6673 51.9857 10.5423 52.1916 10.4482C52.4009 10.3512 52.6213 10.2802 52.8478 10.2368C53.0667 10.1929 53.2893 10.1703 53.5125 10.1693L54.2948 10.1693L54.2948 9.54395L44.5595 9.54395L44.5595 10.1693L45.3676 10.1693C45.9114 10.1695 46.4461 10.3084 46.9217 10.5729C47.1013 10.6684 47.2632 10.7944 47.4 10.9453C47.5294 11.1006 47.6242 11.282 47.678 11.4771C47.7542 11.7492 47.7965 12.0296 47.804 12.3121C47.8213 12.6493 47.8299 13.0772 47.8299 13.5957L47.8299 28.3839C47.8299 29.7697 47.6952 30.6358 47.4259 30.9823C47.0115 31.5331 46.3271 31.8091 45.3728 31.8103L44.5647 31.8103L44.5647 32.4339L54.2948 32.4339L54.2948 31.8103L53.5212 31.8103C52.9842 31.8109 52.4564 31.6712 51.9896 31.4049C51.8096 31.3087 51.6449 31.1861 51.5009 31.0412C51.3672 30.8937 51.2723 30.7151 51.2246 30.5215C51.1529 30.2515 51.1106 29.9744 51.0986 29.6952C51.062 29.2568 51.0505 28.8167 51.0641 28.377C51.102 27.6044 51.0969 24.9246 51.0641 20.9993C52.1132 20.9709 53.1623 21.0568 54.1929 21.2557C55.9809 21.5583 57.6847 22.2378 59.1917 23.2495C60.3814 24.0619 61.9994 25.155 62.8558 27.2683C63.3202 28.4637 63.4887 29.7542 63.3467 31.0292C63.2048 32.3043 62.7567 33.5257 62.0408 34.5888C61.4818 35.3649 60.7781 36.0249 59.9687 36.5324" fill="#734230"/>
<path d="M60.8268 36.7278C60.9287 36.9288 60.9132 36.9582 60.8838 36.9652L60.813 37.0137L60.6697 37.1072C59.9998 37.5444 59.2946 37.9245 58.5614 38.2436C54.4069 40.033 49.6722 40.57 45.3036 39.2725C36.5561 36.7781 30.1655 27.8916 30.7336 18.7575C30.9166 15.1492 32.0735 11.5756 34.187 8.63246C36.8032 4.90834 40.5635 2.1466 44.8927 0.769773C46.6194 0.234507 48.4255 0.0612825 50.2196 0.00411818C51.1223 -0.0184497 52.0249 0.051784 52.9133 0.21372C53.8095 0.355765 54.7626 0.691822 55.386 1.38992C55.7434 1.73637 55.9851 2.30282 55.7814 2.79477C55.3048 4.05239 53.4797 4.12861 52.6543 3.20012C52.3359 2.82015 52.1791 2.32997 52.2174 1.83511C52.2036 1.43323 52.321 0.94473 52.1915 0.596548C52.1466 0.470093 51.9204 0.407733 51.7115 0.326317L51.7478 0.153092C51.8639 0.157786 51.9794 0.172273 52.0931 0.196398C52.5351 0.274349 52.6215 0.79056 52.6025 1.16473C52.5455 2.01353 52.4972 2.89698 53.4037 3.29366C54.1099 3.62106 55.1304 3.4513 55.4326 2.66139C55.7347 1.87149 54.6935 1.19591 54.0909 0.929141C52.8822 0.46663 51.5147 0.373087 50.2231 0.386945C48.4584 0.445842 46.6867 0.617335 44.9963 1.14221C44.1543 1.40619 43.332 1.72978 42.5357 2.11054C30.3123 7.80791 27.3061 23.4657 36.5734 33.291C38.9908 35.86 42.047 37.8503 45.4452 38.81C48.4189 39.6609 51.5614 39.726 54.5675 38.9988C56.4755 38.4913 58.2592 37.6044 59.9289 36.5737C60.0636 36.4957 60.2743 36.345 60.4072 36.2636C60.4245 36.2393 60.4573 36.2393 60.6041 36.4074L60.832 36.7452L60.8268 36.7278Z" fill="#734230"/>
<path d="M52.1726 0.360863C52.3159 0.291573 52.6371 0.210157 53.6144 0.613771C54.001 0.774622 54.374 0.966364 54.7299 1.18715C55.165 1.44352 55.2997 1.56131 55.4206 1.72414C55.5745 1.94007 55.6583 2.19836 55.6606 2.46381C55.6661 2.70315 55.5953 2.93802 55.4586 3.1342C55.2495 3.38584 54.9523 3.54762 54.628 3.58631C54.4258 3.64129 54.2147 3.65505 54.0071 3.62679C53.7995 3.59852 53.5996 3.5288 53.4193 3.42175C53.074 3.20002 52.7062 2.98349 52.6613 2.87263C52.5162 2.52618 52.5888 2.35295 52.4575 1.88178C52.3936 1.64966 52.6665 1.32919 52.4161 1.01565C52.2434 0.806052 52.3574 0.563537 52.3988 0.414563C52.404 0.395509 52.05 0.421491 52.1726 0.360863Z" fill="#734230"/>
</svg>
