<svg width="80" height="84" viewBox="0 0 80 84" fill="none" xmlns="http://www.w3.org/2000/svg">
<path d="M60.9941 10.6432C70.3479 16.6507 77.298 28.0803 79.3831 40.8476C80.2422 46.1265 80.3001 51.6921 78.9391 56.8157C77.3946 62.6081 74.1222 67.5049 70.2996 71.3625C60.3377 81.4068 46.8428 84.7389 34.014 83.8671C23.8204 83.1744 13.1731 79.6153 6.18433 70.3951C-0.80445 61.175 -2.55164 45.2308 4.50471 36.0942C7.31373 32.4515 11.1363 30.254 14.1384 26.8502C21.3782 18.681 24.1196 3.65646 33.5989 0.551226C36.5044 -0.404231 39.5837 0.0376682 42.5376 0.706488C50.5399 2.50991 56.8916 8.01573 60.9941 10.6432Z" fill="#F2CAB3"/>
</svg>
