<svg width="73" height="69" viewBox="0 0 73 69" fill="none" xmlns="http://www.w3.org/2000/svg">
<g clip-path="url(#clip0_282_101)">
<path d="M55.6551 8.74167C64.19 13.6765 70.5317 23.0656 72.4342 33.5534C73.2181 37.8898 73.2709 42.4617 72.029 46.6706C70.6197 51.4289 67.6339 55.4513 64.1459 58.6202C55.0562 66.8712 42.7427 69.6084 31.037 68.8922C21.7358 68.3232 12.0207 65.3996 5.64375 57.8256C-0.733178 50.2516 -2.32741 37.154 4.11118 29.6487C6.67428 26.6564 10.1622 24.8512 12.9015 22.0551C19.5074 15.3444 22.0089 3.0023 30.6582 0.451469C33.3094 -0.333403 36.1191 0.0296002 38.8144 0.57901C46.1161 2.06045 51.9117 6.58328 55.6551 8.74167Z" fill="#F2CAB3" fill-opacity="0.6"/>
<path d="M36 24.6643L41.75 35.6129L59 21.1451" stroke="#BF9075" stroke-width="3"/>
</g>
<defs>
<clipPath id="clip0_282_101">
<rect width="73" height="69" fill="white"/>
</clipPath>
</defs>
</svg>
