<svg width="40" height="28" fill="none" xmlns="http://www.w3.org/2000/svg"><path fill-rule="evenodd" clip-rule="evenodd" d="M0 1.556C0 .696.689 0 1.538 0h36.923C39.312 0 40 .696 40 1.556c0 .859-.689 1.555-1.538 1.555H1.538C.688 3.111 0 2.415 0 1.556zm0 24.888c0-.859.689-1.555 1.538-1.555h36.923c.85 0 1.539.696 1.539 1.555 0 .86-.689 1.556-1.538 1.556H1.538C.688 28 0 27.303 0 26.444zM8.205 14c0-.86.689-1.556 1.539-1.556h28.718c.85 0 1.538.697 1.538 1.556 0 .86-.689 1.555-1.538 1.555H9.744c-.85 0-1.539-.696-1.539-1.555z" fill="#40221B"/></svg>