<svg width="48" height="33" fill="none" xmlns="http://www.w3.org/2000/svg"><path fill-rule="evenodd" clip-rule="evenodd" d="M0 1.833A1.84 1.84 0 011.846 0h44.308C47.174 0 48 .82 48 1.833a1.84 1.84 0 01-1.846 1.834H1.846A1.84 1.84 0 010 1.833zm0 29.334a1.84 1.84 0 011.846-1.834h44.308A1.84 1.84 0 0148 31.167 1.84 1.84 0 0146.154 33H1.846A1.84 1.84 0 010 31.167zM9.846 16.5a1.84 1.84 0 011.846-1.834h34.462A1.84 1.84 0 0148 16.5a1.84 1.84 0 01-1.846 1.833H11.692A1.84 1.84 0 019.846 16.5z" fill="#734230"/></svg>