<svg width="24" height="25" fill="none" xmlns="http://www.w3.org/2000/svg"><path d="M16.5 2h-9A5.5 5.5 0 002 7.5v9A5.5 5.5 0 007.5 22h9a5.5 5.5 0 005.5-5.5v-9A5.5 5.5 0 0016.5 2zm3.75 13.71a4.54 4.54 0 01-4.54 4.54H8.29a4.54 4.54 0 01-4.54-4.54V8.29a4.54 4.54 0 014.54-4.54h7.42a4.54 4.54 0 014.54 4.54v7.42z" fill="#fff"/><path d="M15.648 8.39l-.048-.048-.04-.04A5.04 5.04 0 0012 6.832a5.13 5.13 0 00-5.095 5.167 5.187 5.187 0 001.5 3.653 5.047 5.047 0 003.605 1.5 5.182 5.182 0 003.638-8.762zm-3.648 7A3.389 3.389 0 1115.342 12 3.366 3.366 0 0112 15.39zm6.608-8.795a1.221 1.221 0 01-1.213 1.23 1.202 1.202 0 01-.855-.357 1.233 1.233 0 01.858-2.098c.282 0 .555.1.772.28l.025.025c.04.033.077.07.11.11l.028.03c.179.22.276.496.275.78z" fill="#fff"/></svg>