<svg width="219" height="290" fill="none" xmlns="http://www.w3.org/2000/svg"><path fill-rule="evenodd" clip-rule="evenodd" d="M219 53.478l-1.713.768h-.001a409.251 409.251 0 01-6.722 2.968 157.396 157.396 0 01-5.577 2.267 77.078 77.078 0 01-5.674 1.902c-1.914.545-3.84.984-5.794 1.186-1.943.206-3.897.167-5.727-.303l-.068-.026a21.113 21.113 0 01-9.036-4.035 21.568 21.568 0 01-3.574-3.482 19.946 19.946 0 01-2.627-4.226 20.064 20.064 0 01-.901-2.306l-.099-.29-.042-.13-.045-.157c-.02-.081-.042-.16-.064-.24-.035-.127-.07-.251-.094-.377l-.133-.581-.101-.595a13.284 13.284 0 01.163-4.81c.345-1.57.965-3.071 1.841-4.423a13.05 13.05 0 013.309-3.475 13.485 13.485 0 012.085-1.237 14.515 14.515 0 012.294-.827l.301-.072.132-.037.154-.029c.212-.044.424-.088.605-.118a12.45 12.45 0 011.188-.108 9.796 9.796 0 012.378.229 10.088 10.088 0 014.271 2.085 9.769 9.769 0 012.822 3.746c.154.35.288.755.385 1.084l.079.308.058.262c.008.056.018.113.028.172v.001c.022.124.044.253.051.375.086.74.036 1.491-.153 2.2-.38 1.418-1.262 2.717-2.518 3.556a6.35 6.35 0 01-2.071.925 4.391 4.391 0 01-2.188-.04 4.745 4.745 0 01-1.963-1.052c.942.062 1.847-.47 2.192-1.384.429-1.134-.169-2.414-1.341-2.868-1.171-.454-2.46.093-2.889 1.227-.125.33-.161.67-.118 1.002a.525.525 0 00-.047.297c.402 1.835 1.907 3.441 3.778 4.079a5.848 5.848 0 002.958.213 7.68 7.68 0 002.63-1.025 7.565 7.565 0 003.329-4.427 8 8 0 00.249-2.83 8.272 8.272 0 00-.105-.723l-.081-.372-.079-.308a10.09 10.09 0 00-.485-1.337 11.368 11.368 0 00-3.418-4.444 11.895 11.895 0 00-5.112-2.311c-.926-.17-1.86-.217-2.789-.174-.469.033-.919.086-1.382.171-.239.046-.451.09-.656.15l-.159.04-.178.056-.325.101a15.469 15.469 0 00-4.76 2.383 14.97 14.97 0 00-5.694 8.647 15.312 15.312 0 00-.238 5.285l.099.67.137.671c.031.147.066.284.102.421l.032.129.02.078.045.157c.014.055.025.088.036.12l.016.051.091.313c.255.844.563 1.683.918 2.502a22.364 22.364 0 002.743 4.611 23.462 23.462 0 003.776 3.876 23.196 23.196 0 007.145 3.933 24.376 24.376 0 01-1.482-.082 18.391 18.391 0 01-2.772-.495c-1.95-.466-3.994-1.474-5.861-3.018-1.848-1.563-3.463-3.704-4.777-6.196l-.183-.366h-.001a23.642 23.642 0 01-.74-1.57l-.11-.247a15.87 15.87 0 01-.32-.753c-.132-.342-.264-.683-.391-1.035l-.196-.518-.176-.535-.181-.538-.102-.302-.08-.235c-.171-.526-.339-1.077-.508-1.63l-.191-.624a395.137 395.137 0 00-2.984-9.387c-.543-1.6-1.085-3.199-1.662-4.811a173.641 173.641 0 00-1.843-4.817c-.691-1.657-1.408-3.311-2.208-4.922-.014-.169-.024-.35-.034-.53-.009-.177-.021-.356-.033-.538-.011-.162-.023-.327-.032-.497a19.15 19.15 0 01.539-4.702 17.967 17.967 0 012.212-5.024 16.81 16.81 0 014.157-4.409c.18-.117.356-.235.533-.354.264-.177.528-.355.805-.528.121-.06.239-.125.358-.19h.001c.119-.064.237-.128.358-.188l.362-.2.179-.095.086-.055.047-.02.804-.332c.058-.02.119-.048.178-.074.079-.035.155-.07.221-.087l.364-.099c.092-.025.181-.053.27-.08.151-.048.301-.095.461-.128.266-.049.532-.097.79-.16a12.28 12.28 0 016.548.684c1.053.42 2.061.963 2.972 1.658.138.097.263.207.387.317.088.077.176.155.268.227l.325.277.301.307h.001c.197.203.394.405.587.619l.528.672c.134.149.236.315.339.483a8.9 8.9 0 00.139.22l.231.354.058.086.022.047.011.004.106.205.198.405.105.205.064.176c.03.096.068.186.106.278.06.143.12.287.152.454a7.654 7.654 0 01.252 3.127c-.279 2.05-1.385 3.906-2.945 5.03l-.14.092a15.85 15.85 0 01-.462.293c-.21.108-.42.216-.626.313l-.082.044-.004.01-.034-.012-.187.079-.364.136a4.366 4.366 0 00-.231.056c-.118.03-.233.06-.367.078a5.612 5.612 0 01-2.454-.131 6.003 6.003 0 01-3.374-2.458l-.121-.198-.066-.101-.022-.01-.018-.057-.03-.062a1.652 1.652 0 00-.032-.068c-.059-.123-.113-.235-.128-.297l-.061-.15c.386.428.87.767 1.45.992 1.911.741 4.023-.156 4.723-2.005.699-1.85-.282-3.947-2.192-4.688-1.603-.622-3.341-.097-4.268 1.184a4.717 4.717 0 00-1.516 1.975c-.225.594-.392 1.312-.327 2.107l.006.07c.014.175.03.358.075.543.016.094.04.204.064.315.015.073.041.15.067.228.013.038.026.077.037.115.055.19.111.318.164.44l.053.124.029.062.036.077.026.035.076.143.164.291a7.183 7.183 0 001.905 2.102 7.35 7.35 0 002.868 1.277c1.079.216 2.23.17 3.343-.117.212-.055.444-.14.664-.22h.001l.187-.068.35-.167.175-.084.078-.033.051-.03.086-.056c.119-.073.241-.146.363-.219.122-.072.244-.145.363-.218.231-.163.462-.326.697-.5a10.24 10.24 0 002.336-2.59 9.292 9.292 0 001.281-3.391 9.306 9.306 0 00-.124-3.81c-.036-.218-.112-.45-.187-.683a9.263 9.263 0 01-.094-.298l-.077-.244-.09-.211-.179-.423-.09-.212-.036-.077-.014-.03-.029-.063-.062-.112-.24-.434c-.044-.078-.086-.157-.128-.235a4.766 4.766 0 00-.372-.615l-.562-.824c-.133-.178-.279-.35-.425-.521h-.001c-.073-.087-.146-.172-.218-.26a8.156 8.156 0 00-.326-.378l-.361-.355c-.089-.084-.175-.17-.261-.255a7.02 7.02 0 00-.478-.448c-1.027-.903-2.213-1.629-3.461-2.226-1.263-.591-2.613-.95-3.979-1.165-1.371-.204-2.76-.15-4.108.035-.335.06-.659.123-.999.193-.223.04-.448.112-.672.185a9.279 9.279 0 01-.337.105l-.503.158c-.093.03-.171.064-.249.099-.059.026-.117.052-.182.075l-.823.35-.093.04-.032.013-.05.03-.102.062-.214.119-.414.23-.413.232-.413.23c-.436.286-.861.594-1.282.898h-.001c-.081.06-.163.118-.244.177-.315.24-.605.498-.893.755h-.001a24.26 24.26 0 01-.495.435c-.157.121-.29.268-.422.414a6.024 6.024 0 01-.211.225c-.202.224-.4.438-.61.647a16.64 16.64 0 00-1.973 2.806c-.27.409-.472.854-.671 1.292l-.004.008-.074.165c-.058.118-.113.237-.167.355-.057.126-.114.25-.173.371-.096.253-.176.5-.256.746-.366.968-.561 1.953-.744 2.88l-.007.036c-.064.48-.124.949-.179 1.407-.04.322-.039.64-.038.954 0 .132 0 .264-.003.394-.005.092-.004.183-.004.272 0 .065 0 .13-.002.192l-.071-.12a33.03 33.03 0 00-.466-.77c-.93-1.471-1.957-2.892-3.142-4.173-1.181-1.29-2.528-2.42-4.02-3.3-1.472-.9-3.119-1.476-4.685-1.818a7.66 7.66 0 00-.879-.167c-.114-.018-.228-.035-.341-.054-.156-.012-.311-.03-.466-.047a8.668 8.668 0 00-.758-.062 10.538 10.538 0 00-2.416.149c-1.588.267-3.073.954-4.215 1.975-1.15 1.006-1.921 2.322-2.341 3.674a7.67 7.67 0 00-.119 4.107 6.73 6.73 0 00.773 1.853l.062.112.033.05.015.031s-.019-.02.04.066l.117.172.068.091c.059.078.119.158.172.242.038.053.08.107.122.16.041.055.083.109.121.162.1.114.2.229.289.339 1.491 1.816 3.335 2.872 4.974 3.33a7.4 7.4 0 002.266.248c.338-.032.639-.067.917-.149.282-.055.526-.15.732-.246.144-.043.266-.116.378-.183.059-.036.116-.07.171-.096.126-.07.23-.156.316-.227l.035-.03.01-.007c.177-.159.271-.236.271-.236a.198.198 0 00.055-.064l.013-.022.008-.01c.337-.236.603-.562.757-.97.429-1.133-.17-2.413-1.341-2.867-1.171-.455-2.46.093-2.889 1.227-.316.836-.071 1.74.548 2.345-.012-.004-.023-.008-.05-.006a6.135 6.135 0 01-1.702-.395c-.626-.243-1.27-.607-1.927-1.076-.657-.47-1.305-1.137-1.874-1.838-.071-.09-.141-.18-.215-.26-.039-.053-.076-.108-.114-.164-.038-.056-.075-.111-.114-.164a5.163 5.163 0 00-.177-.26l-.002-.004-.056-.08-.1-.145c-.002-.008-.006-.022.005-.018l.004-.01-.037-.04-.04-.067a4.27 4.27 0 01-.533-1.28c-.249-.929-.263-1.995-.017-3.06.258-1.062.788-2.119 1.626-2.955a6.296 6.296 0 013.28-1.745 7.852 7.852 0 012.052-.15c.25-.002.502.029.752.06.103.012.205.025.307.035.129.027.262.05.394.073h.001c.227.04.456.08.673.14 1.454.361 2.861.882 4.155 1.7a15.881 15.881 0 013.494 3.071c1.025 1.219 1.921 2.576 2.726 3.999 1.601 2.868 2.858 5.994 4.006 9.166a171.258 171.258 0 011.644 4.79 332.922 332.922 0 011.552 4.794c.332 1.026.66 2.049.986 3.066l.004.011.001.003a501.947 501.947 0 002.366 7.246c.141.43.282.86.438 1.295.065.19.133.38.201.57.068.19.137.381.202.57l.206.56.232.558c.097.245.2.487.302.728l.099.234.057.137c.094.226.205.448.315.67.066.133.132.266.194.398.265.583.58 1.151.891 1.712h.001l.11.2.083.15c.789 1.329 1.602 2.591 2.574 3.713.959 1.117 1.995 2.137 3.11 2.948a15.965 15.965 0 006.851 2.986c2.189.382 4.097.302 5.609.13a37.73 37.73 0 002.052-.289 15.56 15.56 0 001.831.332 56.5 56.5 0 00-.598.124h-.001a44.52 44.52 0 01-.956.194c-2.545.49-5.658.999-9.262 1.254-3.597.271-7.712.291-12.101-.377-4.355-.692-9.104-2.13-12.975-5.412-.118-.102-.233-.204-.348-.305h-.001a35.746 35.746 0 00-.346-.305 8.898 8.898 0 01-.683-.643c-.113-.114-.223-.229-.333-.344a17.82 17.82 0 00-.333-.344 9.447 9.447 0 00-.208-.216 6.58 6.58 0 01-.449-.493c-.137-.167-.276-.332-.415-.497-.278-.33-.557-.659-.817-1.004a55.401 55.401 0 00-.324-.438h-.001v-.001a31.09 31.09 0 01-.832-1.158c-1.511-2.177-2.816-4.552-4.085-7.025-.3-.584-.59-1.177-.881-1.774l-.006-.012-.281-.574a8.109 8.109 0 01-.006-.81c0-.656.154-1.341.333-2.055a7.898 7.898 0 01.947-2.056c.411-.674.973-1.263 1.591-1.794.082-.063.162-.126.241-.19.08-.064.159-.128.242-.19l.52-.342.066-.037.035-.024.16-.077.307-.159c.073-.027.139-.054.204-.081.099-.04.193-.08.301-.114a5.564 5.564 0 012.341-.228c.78.075 1.535.355 2.191.724.652.379 1.22.877 1.653 1.423l.14.18.165.254c.039.06.059.1.076.135.013.025.024.048.04.075a.959.959 0 00.039.07.607.607 0 01.059.119c.115.284.217.564.278.852.07.33.065.657.04.963a2.333 2.333 0 00-1.155-.979c-1.172-.454-2.461.094-2.89 1.227-.428 1.134.17 2.414 1.341 2.869.467.18.941.2 1.385.095.08.031.172.029.254-.015l.323-.165c.21-.108.508-.308.843-.607.327-.315.685-.744.948-1.337a4.565 4.565 0 00.421-2.147 4.483 4.483 0 00-.235-1.277 7 7 0 00-.283-.665l-.134-.267-.014-.03-.033-.051-.063-.075-.099-.152a6.94 6.94 0 00-2.093-2.087 7.157 7.157 0 00-3-1.1c-1.085-.131-2.219-.028-3.246.343-.256.09-.54.22-.792.337l-.301.173-.148.082-.117.068-.086.055-.623.44c-.133.1-.26.213-.387.327a9.976 9.976 0 01-.191.168c-.734.7-1.367 1.477-1.806 2.33a9.545 9.545 0 00-.893 2.569c-.034.227-.063.442-.093.658l-.417-.887-.003-.007c-.282-.6-.565-1.2-.842-1.804l-.391-.838c-1.088-2.333-2.186-4.688-3.465-7.033l-.535-.965-.623-.974-.221-.349h-.001c-.131-.208-.263-.418-.401-.625l-.682-.92a13.97 13.97 0 01-.245-.332 7.481 7.481 0 00-.452-.583l-.764-.877c-.349-.433-.747-.82-1.146-1.208-.16-.155-.319-.31-.476-.469a21.167 21.167 0 00-8.041-4.873c-3.025-1.035-6.291-1.191-9.358-.664-.119.021-.24.04-.361.06a9.283 9.283 0 00-.788.15l-1.117.3-.553.15-.143.034-.12.042-.062.026-.256.09-1.031.383a9.342 9.342 0 00-.718.336c-.117.059-.233.117-.348.172l-.533.273c-.084.05-.165.1-.246.15a8.483 8.483 0 01-.246.151h-.001c-.324.203-.648.405-.976.618l-.907.709c-1.168.986-2.236 2.086-3.063 3.343l-.321.47a8.056 8.056 0 00-.275.486c-.073.136-.148.268-.224.4-.11.194-.22.387-.32.588-.06.14-.122.278-.184.416v.002c-.244.546-.487 1.089-.645 1.672-.966 2.831-.98 5.906-.326 8.76.09.35.202.71.318 1.057l.153.527.013.068.035.115.046.118.104.243c.047.106.09.211.133.316.086.21.171.42.288.642l.545 1.007a14.585 14.585 0 002.821 3.366c1.091.979 2.345 1.73 3.643 2.297 1.298.567 2.679.951 4.047 1.09 1.369.14 2.742.13 4.042-.136.327-.037.648-.127.957-.222l.468-.134.232-.061s.089-.029.101-.024l.058-.016.104-.035a28.796 28.796 0 01.292-.113c.187-.07.371-.14.565-.223.152-.074.301-.149.45-.224.149-.075.298-.15.449-.223a10.45 10.45 0 004.658-5.49c.404-1.105.588-2.246.61-3.373.026-.459-.021-.905-.068-1.35l-.032-.317-.039-.203-.013-.07c-.085-.453-.169-.897-.322-1.324l-.115-.386-.028-.099s-.032-.088-.036-.077l-.022-.046-.075-.18-.143-.347-.079-.17-.098-.189-.08-.148c-.104-.193-.208-.388-.328-.565a7.485 7.485 0 01-.171-.247c-.092-.136-.184-.272-.289-.399a9.087 9.087 0 00-2.247-2.058 9.73 9.73 0 00-2.596-1.171 9.655 9.655 0 00-2.609-.306 9.287 9.287 0 00-2.355.4l-.073.022-.058.015-.031.014-.125.052-.244.095a2.942 2.942 0 00-.483.221l-.022.012a5.426 5.426 0 00-.762.443h-.001a25.01 25.01 0 01-.162.107 7.185 7.185 0 00-1.382 1.345c-.345.497-.643.975-.83 1.47a6.366 6.366 0 00-.465 2.61c.024.729.146 1.268.254 1.639l.172.546a.306.306 0 00.246.21c.241.534.684.984 1.287 1.218 1.171.454 2.46-.094 2.889-1.227.429-1.134-.17-2.414-1.341-2.869-1.08-.419-2.263.019-2.766.972a5.724 5.724 0 01.5-2.772c.166-.44.462-.843.778-1.264a5.957 5.957 0 011.237-1.135l.138-.085h.001c.21-.13.427-.265.653-.353a3.1 3.1 0 01.45-.192l.245-.094.12-.042.031-.013.058-.015a8.093 8.093 0 012.094-.299c.74.01 1.5.102 2.276.328a8.35 8.35 0 012.215 1.073 7.79 7.79 0 011.871 1.812c.125.187.249.374.363.557.089.134.156.272.223.409l.082.164.076.143.064.176.143.346.063.176.022.046.021.084.093.34c.117.34.18.69.244 1.047l.063.346.02.226v.001c.035.406.07.81.045 1.225a8.661 8.661 0 01-.578 2.907 8.994 8.994 0 01-4.071 4.63c-.119.056-.239.113-.358.171a19 19 0 01-.358.17c-.198.085-.415.161-.633.238l-.216.077-.105.035-.058.016-.216.054-.417.104-.114.03c-.238.061-.48.125-.735.145-1.137.216-2.345.202-3.529.058-1.2-.137-2.382-.495-3.505-1.006-1.12-.523-2.201-1.182-3.134-2.024a12.68 12.68 0 01-2.394-2.91l-.425-.809a7.82 7.82 0 01-.246-.567h-.001c-.05-.124-.1-.249-.154-.371l-.093-.238-.043-.093-.01-.041-.018-.058-.135-.469c-.03-.104-.062-.208-.094-.311-.064-.207-.128-.414-.177-.627-.558-2.527-.512-5.235.352-7.728.13-.468.326-.91.523-1.352.071-.161.142-.322.211-.484.1-.197.211-.39.321-.582.055-.097.111-.193.165-.29.081-.145.162-.29.254-.431l.284-.408c.724-1.12 1.677-2.088 2.703-2.94l.797-.625c.139-.092.283-.18.428-.27.145-.089.289-.178.428-.27.089-.06.182-.116.273-.17l.152-.093.448-.218c.13-.06.255-.123.381-.188.164-.084.33-.17.514-.247l1.031-.383.256-.09.062-.027.143-.033.506-.132 1.016-.274c.195-.05.402-.083.608-.116.145-.023.289-.046.43-.075 2.77-.465 5.673-.35 8.368.558a19.35 19.35 0 017.289 4.38c.161.163.327.324.493.485.35.34.702.68 1.01 1.057l.708.817c.17.182.319.386.467.591.063.086.126.173.19.258l.642.854c.129.187.251.376.373.564.069.107.137.213.207.318l.579.881.539.954c1.233 2.216 2.347 4.533 3.446 6.818l.001.003.437.909.258.54h.001c1.15 2.406 2.29 4.791 3.509 7.12 1.298 2.497 2.721 4.905 4.311 7.15 1.612 2.254 3.384 4.292 5.515 6.002.127.113.254.225.389.316l.391.277c.128.094.259.186.39.278h.002c.131.093.262.184.389.278l.425.29.425.254a15.103 15.103 0 01.422.246l.422.246c.34.191.684.358 1.027.525h.001c.232.112.463.224.691.343.255.099.507.204.758.308.332.138.664.276.996.398 2.348.86 4.699 1.368 6.967 1.68 4.536.624 8.718.428 12.348.069 3.634-.37 6.765-.96 9.301-1.53a67.011 67.011 0 003.179-.786 22.54 22.54 0 002.376-.076 31.974 31.974 0 002.664-.355c-.49.466-.979.933-1.487 1.38a169.244 169.244 0 01-3.764 3.299 297.715 297.715 0 01-3.838 3.22c-.432.35-.864.701-1.295 1.053h-.001c-.862.703-1.725 1.406-2.593 2.096a249.35 249.35 0 01-3.946 3.09 306.026 306.026 0 01-3.997 3.018l-2.018 1.477-2.04 1.43c-.231.15-.461.304-.692.457-.46.307-.921.613-1.385.896l-1.046.63c-.221.124-.47.26-.718.397l-.37.203c-2.898 1.527-5.998 2.76-9.195 3.527-3.202.778-6.532 1.102-9.794.796-3.265-.295-6.465-1.246-9.336-2.826-2.852-1.561-5.337-3.75-7.389-6.288-.937-1.385-1.666-2.905-2.105-4.502a14.535 14.535 0 01-.506-4.905c.11-1.636.506-3.237 1.172-4.72a12.874 12.874 0 012.748-3.959c.06-.056.119-.116.178-.176.1-.1.198-.198.291-.273l.444-.345c.225-.196.508-.378.786-.556l.169-.109.258-.165.261-.139.534-.272c.217-.11.445-.196.675-.282.145-.055.291-.11.435-.171a11.202 11.202 0 014.785-.517c1.621.161 3.201.673 4.618 1.476.226.136.443.28.662.424h.001l.364.24.48.387.239.194.12.097.034.013-.004.011.037.04c.088.087.181.176.275.266.242.23.483.46.618.648.043.055.088.105.132.155.075.083.149.166.216.27l.338.485c.414.666.776 1.362.988 2.113.089.228.139.472.19.715.028.136.056.272.091.404.012.12.028.242.044.363.035.262.07.525.067.79.081 1.547-.329 3.08-1.078 4.405a6.904 6.904 0 00-.222.34c-.132.21-.263.417-.435.604l-.322.405-.467.475a7.182 7.182 0 01-1.826 1.173c-1.375.603-2.992.707-4.483.306a6.99 6.99 0 01-2.115-.96c-.106-.064-.202-.14-.297-.214a4.6 4.6 0 00-.172-.131l-.191-.15-.25-.236c-.156-.13-.234-.23-.313-.33a3.133 3.133 0 00-.066-.082 1.677 1.677 0 01-.211-.266c-.04-.056-.079-.113-.121-.166-.857-1.216-1.128-2.81-.771-4.237a5.208 5.208 0 01.994-1.975l.048-.057-.004.01c.052-.068.008-.022.008-.022l.004-.01.134-.113c.036-.032.07-.069.105-.105.042-.045.083-.089.124-.121a2.97 2.97 0 00.121-.102 1.7 1.7 0 01.268-.202c.145-.108.297-.2.461-.288a1.628 1.628 0 01-.074.16c-.026.053-.053.106-.074.161-.699 1.85.282 3.947 2.192 4.688 1.91.74 4.023-.157 4.722-2.006.699-1.85-.281-3.947-2.192-4.688a3.87 3.87 0 00-1.027-.247 3.9 3.9 0 00-.486-.142l-.031-.008c-1.051-.256-2.153-.204-3.178.093-.507.17-1 .37-1.45.662-.174.095-.35.233-.521.368l-.161.125a5.345 5.345 0 00-.209.198l-.035.035-.123.117-.012.033-.071.048-.008.022-.067.075a7.105 7.105 0 00-1.529 2.664c-.63 1.977-.323 4.268.865 6.092.616.958 1.373 1.68 2.232 2.305.856.634 1.843 1.093 2.865 1.389 2.041.602 4.275.522 6.22-.276a9.194 9.194 0 002.696-1.681l.478-.471.012-.033c.114-.095.051-.031.075-.06l.008-.022.067-.075.12-.143.238-.286c.235-.26.426-.556.617-.852h.001c.083-.13.167-.26.255-.387 1.022-1.737 1.581-3.767 1.507-5.816.009-.366-.038-.728-.085-1.092a15.904 15.904 0 01-.053-.438c-.04-.161-.073-.323-.107-.484-.072-.341-.143-.68-.266-1.012-.289-.995-.771-1.927-1.313-2.806l-.448-.641c-.128-.175-.283-.352-.435-.527l-.095-.108a8.583 8.583 0 00-.757-.795 20.836 20.836 0 01-.266-.258l-.055-.06-.068-.063-.022-.01-.037-.039-.15-.121-.3-.242-.603-.474-.321-.211a21.35 21.35 0 00-.969-.618 14.541 14.541 0 00-5.816-1.827 14.219 14.219 0 00-5.975.7c-.132.053-.266.103-.399.154-.332.128-.665.255-.98.421l-.666.348a4.721 4.721 0 00-.327.176l-.313.207-.284.186c-.322.208-.641.415-.946.687l-.605.498a5.324 5.324 0 00-.352.335c-.046.047-.092.094-.142.142-2.762 2.754-4.377 6.508-4.583 10.366a17.1 17.1 0 00.653 5.757 18.088 18.088 0 002.519 5.269s.044.055.063.075a30.07 30.07 0 001.844 2.053c-.13.045-.263.094-.404.146h-.003c-.1.038-.205.076-.317.116-.346.156-.716.341-1.121.55l-.145.09-.005.003c-.144.089-.295.182-.448.281l-.141.09c-.164.104-.331.21-.489.335a60.9 60.9 0 01-.643.495c-.093.086-.187.175-.283.266l-.002.002-.342.322c-.174.155-.334.34-.497.529l-.102.117-.02.023c-.037.045-.077.09-.117.137-.063.073-.128.148-.189.224a5.694 5.694 0 00-.28.396 11.354 11.354 0 00-1.784 3.79 11.676 11.676 0 00-.23 4.745c.046.207.089.413.131.619.043.206.086.412.132.619l.196.619.087.286c.017.059.046.124.075.188.019.043.038.086.054.127l.287.654c.073.156.152.295.235.438l.043.077.053.093c.161.314.363.599.566.885l.186.265c1.145 1.454 2.681 2.669 4.458 3.383 1.76.759 3.729.967 5.573.71l.686-.125.17-.035.085-.017.001-.005a.372.372 0 00.115-.026l.042-.009.294-.088c.344-.081.879-.29 1.322-.497a8.4 8.4 0 002.245-1.591c.327-.315.602-.662.877-1.01l.029-.044c.235-.357.464-.705.645-1.083a7.643 7.643 0 00.747-2.425c.101-.819.11-1.636-.028-2.409a6.355 6.355 0 00-.172-.794c-.028-.11-.057-.22-.082-.327l-.011-.042-.027-.099-.018-.057-.035-.115-.085-.222a3.706 3.706 0 00-.166-.378h-.001l-.067-.142c-.158-.339-.334-.606-.508-.872l-.072-.11a8.183 8.183 0 00-.681-.82 6.411 6.411 0 00-1.544-1.192 6.824 6.824 0 00-2.964-.923c-.805-.06-1.433.06-1.867.144l-.07.014-.247.068c-1.157.233-2.174 1.025-2.615 2.192-.699 1.85.281 3.946 2.191 4.687 1.911.741 4.023-.156 4.723-2.005.22-.584.276-1.18.182-1.76.112.12.223.238.331.368.144.17.269.357.389.555l.035.062c.102.18.215.38.262.533l.018.044.018.041c.029.063.059.127.084.252l.07.23.035.114.001.003c-.003-.005 0 .005.004.018l-.006.016.039.17c.047.204.095.407.106.619a5.48 5.48 0 01-.04 1.625c-.067.555-.271 1.094-.524 1.627a5.165 5.165 0 01-1.033 1.455 5.76 5.76 0 01-1.486 1.103c-.074.031-.142.063-.21.094a3.978 3.978 0 01-.694.262l-.282.092-.07.011-.127.027-.509.105c-.685.088-1.385.144-2.08.052l-.264-.027-.255-.049-.527-.09c-.111-.035-.225-.065-.339-.096a4.11 4.11 0 01-.686-.226c-1.355-.488-2.548-1.367-3.455-2.451a8.951 8.951 0 00-.193-.254 4.982 4.982 0 01-.465-.675l-.069-.108a4.547 4.547 0 01-.162-.267l-.213-.437a1.083 1.083 0 00-.038-.072.662.662 0 01-.07-.159l-.103-.28-.188-.502c-.047-.17-.091-.338-.135-.506-.044-.169-.087-.338-.134-.507a10.165 10.165 0 01-.043-3.955 10.303 10.303 0 011.288-3.338l.066-.119h.001a2.13 2.13 0 01.146-.24l.24-.324.104-.142h.001c.122-.169.242-.334.378-.478.174-.185.337-.375.499-.564l.26-.24h.001c.09-.082.177-.162.26-.24.166-.162.335-.299.515-.431s.345-.258.498-.387l.492-.3.002-.001.006-.004c.156-.095.307-.186.449-.274l.237-.115c.204-.1.388-.19.561-.27a1.1 1.1 0 01.217-.092 26.81 26.81 0 005.603 4.08 24.737 24.737 0 005.043 2.044c1.741.499 3.53.801 5.317.939 3.577.264 7.136-.148 10.509-1.036 3.385-.883 6.588-2.216 9.617-3.881.154-.089.306-.174.46-.26.213-.117.427-.237.652-.37l1.094-.686a47.23 47.23 0 001.478-1.003h.001c.209-.147.418-.293.63-.438l2.05-1.49 2.012-1.53a220.831 220.831 0 003.939-3.142 314.362 314.362 0 006.72-5.63l.98-.838c1.264-1.1 2.516-2.205 3.765-3.336a117.69 117.69 0 003.672-3.436 55.15 55.15 0 001.264-1.258l.518-.525.642-.697a35.97 35.97 0 001.85-.444c2.014-.532 3.969-1.187 5.892-1.893a113.486 113.486 0 006.273-2.521c.191-.084.383-.167.577-.25-3.509 2.59-7.271 5.713-11.185 9.307-4.009 3.671-8.111 7.9-12.274 12.495-4.144 4.616-8.343 9.652-12.493 14.973l-.946 1.207c-3.855 4.918-7.822 9.979-12.086 14.881-2.596 2.97-5.309 5.906-8.209 8.644-1.258.396-2.8.82-4.594 1.184-1.805.36-3.888.626-6.129.589-2.242-.036-4.696-.445-6.859-1.689-2.043-1.213-4.074-2.812-6.176-4.468l-.007-.005-.494-.389-.174-.136c-1.09-.856-2.201-1.727-3.391-2.572-1.259-.88-2.582-1.759-4.198-2.348-.804-.287-1.715-.464-2.673-.38-.957.083-1.87.498-2.57 1.073-.699.574-1.203 1.25-1.642 1.963l-.145.247-.155.306c-.07.139-.126.272-.181.402v.001l-.086.2a6.874 6.874 0 00-.341 1.282 6.114 6.114 0 00.211 2.682c.274.863.722 1.643 1.258 2.331 1.086 1.368 2.456 2.366 3.862 3.164 1.418.803 2.896 1.376 4.378 1.837 1.486.451 2.979.777 4.46.998 2.951.438 5.833.471 8.515.274a42.541 42.541 0 007.441-1.229 44.698 44.698 0 005.996-2.029 65.352 65.352 0 01-3.45 2.676c-2.88 2.064-5.959 3.861-9.237 5.152a32.413 32.413 0 01-10.252 2.285c-.875.039-1.758.062-2.631.027-.316-.005-.622-.019-.931-.033l-.006-.001-.361-.016-.673-.046-.318-.022-.329-.027a68.764 68.764 0 01-5.258-.714c-3.471-.615-6.858-1.486-10.063-2.667-3.204-1.18-6.254-2.666-8.972-4.478-2.719-1.811-5.104-3.986-6.91-6.454-1.804-2.467-2.972-5.243-3.395-8.02-.435-2.782-.157-5.552.554-8.054.363-1.235.858-2.406 1.517-3.425.655-1.009 1.497-1.856 2.465-2.452a7.32 7.32 0 013.171-1.042c1.096-.105 2.212.012 3.248.275a9.976 9.976 0 012.839 1.215c.211.132.406.27.593.432.09.073.18.145.258.214l.134.127.112.12c.331.33.596.698.842 1.083.943 1.54 1.16 3.278.952 4.725-.216 1.468-.9 2.655-1.734 3.379a4.012 4.012 0 01-.81.557c.089-.167.178-.335.245-.511.699-1.849-.281-3.947-2.192-4.688-1.91-.741-4.023.157-4.722 2.006-.699 1.85.281 3.947 2.192 4.688 1.069.414 2.214.316 3.118-.179a5.324 5.324 0 002.762-1.201c1.026-.852 1.842-2.214 2.117-3.875a8.068 8.068 0 00-1-5.424 7.582 7.582 0 00-.974-1.287c-.029-.036-.06-.067-.093-.101l-.056-.058-.145-.132a6.458 6.458 0 00-1.004-.793c-.948-.633-2.011-1.096-3.167-1.418-1.149-.307-2.39-.473-3.67-.363a8.74 8.74 0 00-3.723 1.156c-1.155.675-2.14 1.657-2.916 2.782-.766 1.129-1.33 2.413-1.741 3.743-.8 2.668-1.145 5.615-.718 8.658.353 2.549 1.305 5.102 2.73 7.435a54.792 54.792 0 01-2.368-2.358c-1.72-1.829-3.53-4.008-5.175-6.59a35.812 35.812 0 01-4.134-8.862c-1.033-3.304-1.58-6.925-1.539-10.658.073-7.47 2.611-15.321 7.017-21.906a36.864 36.864 0 013.665-4.625 27.527 27.527 0 012.104-2.011l.55-.456.102-.079c.147-.115.29-.227.463-.346l.306-.222.14-.096.153-.093c.085-.052.168-.107.25-.163.114-.076.228-.153.352-.222 3.238-2.013 7.027-3.068 10.635-2.817 3.606.224 6.993 1.854 9.135 4.187 1.016 1.177 1.679 2.596 1.909 4.023a7.893 7.893 0 01-.386 4.091 8.202 8.202 0 01-.895 1.71l-.074.11a3.284 3.284 0 01-.202.276l-.151.194-.144.171a5.826 5.826 0 01-.631.601 5.712 5.712 0 01-3.057 1.188 6.235 6.235 0 01-2.967-.533c-.19-.073-.36-.175-.523-.271a8.032 8.032 0 00-.129-.078 2.994 2.994 0 00-.057-.037 3.117 3.117 0 01-.192-.127l-.165-.115-.046-.018-.022-.008-.056-.06a2.892 2.892 0 01-.251-.198 4.4 4.4 0 01.166.07c.058.026.118.053.182.078 1.911.74 4.023-.157 4.722-2.006.7-1.85-.281-3.947-2.191-4.688-1.388-.538-2.881-.208-3.86.725a.363.363 0 00-.148.081l-.261.277a4.82 4.82 0 00-.663.993 4.622 4.622 0 00-.482 1.896 5.145 5.145 0 00.634 2.67c.255.464.597.938 1.03 1.346l.074.079.023.009.037.04.046.017.141.143c.097.088.24.194.364.28.243.183.507.349.786.507a7.738 7.738 0 003.964 1.033 7.49 7.49 0 004.399-1.462c.326-.24.641-.521.937-.823l.218-.231.191-.229c.095-.104.209-.256.322-.408l.057-.076a9.549 9.549 0 001.216-2.217c.635-1.61.862-3.453.576-5.318-.285-1.866-1.115-3.74-2.441-5.302-2.682-3.048-6.772-4.887-11.012-5.156-2.124-.142-4.267.112-6.331.675-2.053.567-4.024 1.469-5.821 2.602-.152.088-.29.186-.43.286-.078.054-.155.109-.236.163l-.16.114-.176.121-.306.222a14.5 14.5 0 00-.27.21h-.001a11.6 11.6 0 01-.373.286l-.613.519c-.8.7-1.561 1.44-2.27 2.212a37.544 37.544 0 00-3.849 4.97 45.565 45.565 0 00-5.3 11.224c-1.209 3.924-1.866 7.974-1.861 11.927a37.24 37.24 0 00.437 5.812 37.25 37.25 0 001.298 5.464 38.245 38.245 0 004.446 9.312c.888 1.341 1.782 2.597 2.711 3.727.293.379.605.738.91 1.088.159.184.317.365.468.545l.41.447c.325.356.643.703.96 1.032a59.679 59.679 0 004.98 4.557 64.227 64.227 0 003.469 2.62c.826.573 1.258.88 1.258.88a.937.937 0 00.578.161c.525.405 1.053.8 1.606 1.166 2.841 1.935 6 3.513 9.317 4.775 3.317 1.262 6.809 2.2 10.378 2.865 1.788.34 3.594.598 5.41.798l.34.031.352.035.68.062.198.013c.407.028.818.055 1.207.065.934.047 1.871.019 2.807-.009a33.476 33.476 0 007.216-1.152 50.7 50.7 0 01-3.067 2.18 52.322 52.322 0 01-4.406 2.583 48.864 48.864 0 01-5.548 2.431 52.386 52.386 0 01-6.514 1.916 54.694 54.694 0 01-7.214 1.115c-2.484.223-5.031.27-7.577.141a54.503 54.503 0 01-7.55-.897c-2.466-.477-4.862-1.141-7.051-2.041-1.09-.461-2.1-.966-2.997-1.592a11.383 11.383 0 01-4.677-7.494c-.277-1.786-.09-3.456.434-4.805a7.107 7.107 0 012.152-3.003 7.502 7.502 0 011.622-1.012c-.071.187-.142.374-.167.579-.166 1.198.709 2.333 1.938 2.532 1.228.198 2.36-.625 2.527-1.822.166-1.198-.71-2.333-1.938-2.532a2.343 2.343 0 00-1.18.123s-.085.017-.228.05c-.143.033-.386.09-.684.189a8.043 8.043 0 00-2.425 1.206c-.948.68-1.943 1.758-2.612 3.253-.666 1.484-.998 3.362-.739 5.369.236 1.997 1.027 4.147 2.446 6.048a13.133 13.133 0 002.576 2.603c1.012.771 2.156 1.366 3.307 1.876 2.332 1.005 4.826 1.72 7.38 2.244 2.56.539 5.188.864 7.829 1.017 5.271.303 10.567-.117 15.361-1.211a47.1 47.1 0 006.76-2.048 44.078 44.078 0 005.704-2.673 52.184 52.184 0 002.291-1.37 31.368 31.368 0 00-2.471 3.295c-1.398 2.146-2.618 4.614-3.303 7.391-.707 2.768-.784 5.868.028 8.86.176.636.395 1.264.63 1.885-.011.097-.01.198-.009.3 0 .18-.03.365-.061.556l-.024.153a4.006 4.006 0 00-.021.158l-.029.178c-.038.242-.079.492-.114.751-.29 1.251-.715 2.651-1.462 4.041a15.782 15.782 0 01-3.102 3.997 15.182 15.182 0 01-4.798 2.999c-.177.058-.353.119-.527.18h-.001a16.81 16.81 0 01-.889.293c-.243.057-.485.111-.727.165l-.001.001c-.242.054-.485.108-.728.165-.13.019-.264.037-.398.054-.134.018-.268.035-.399.054-.06.005-.123.014-.185.024-.074.011-.146.022-.211.024l-.368.009a10.12 10.12 0 00-.248.007 5.533 5.533 0 01-.5.005l-.777-.048c-1.024-.12-2.053-.33-3.023-.731-.969-.401-1.901-.902-2.726-1.55-.82-.659-1.572-1.393-2.18-2.234-.592-.848-1.102-1.741-1.426-2.712-.066-.14-.104-.288-.142-.435-.025-.095-.05-.191-.082-.283l-.097-.366-.032-.088-.01-.042.004-.011-.044-.193-.072-.395-.029-.2-.014-.17c-.002-.089-.009-.174-.016-.26-.011-.135-.023-.27-.014-.42.006-.945.225-1.87.591-2.7a6.906 6.906 0 013.71-3.572c.198-.075.396-.149.589-.213.101-.024.202-.051.304-.078.101-.027.203-.054.303-.078l.074-.022.031-.013.177-.02.342-.044c.067-.002.131-.006.195-.01.113-.007.224-.014.346-.007.774.022 1.52.223 2.174.527a5.152 5.152 0 012.206 2.131 3.79 3.79 0 00-2.104-.917c-2.03-.219-3.798 1.215-3.96 3.197-.163 1.982 1.356 3.758 3.386 3.977 1.468.153 2.804-.553 3.49-1.713.087-.093.167-.2.247-.308a4.142 4.142 0 00.711-1.714l.009-.058c.021-.125.041-.25.042-.382a3.305 3.305 0 00-.003-.544c-.008-.206-.033-.34-.061-.492l-.004-.025a2.662 2.662 0 00-.081-.366c-.016-.06-.033-.121-.048-.189a6.134 6.134 0 00-1.095-2.141 6.693 6.693 0 00-2.068-1.737 6.5 6.5 0 00-3.67-.742l-.343.044-.166.024-.08.006-.043.009-.089.029-.267.065-.002.001c-.156.039-.315.078-.476.112l-.736.257c-1.921.77-3.654 2.319-4.54 4.386a8.27 8.27 0 00-.689 3.306c-.01.18.007.37.024.564.01.112.02.226.026.339l.02.222.029.2.072.395.04.205.013.068-.008.022.029.061.028.1.118.411c.033.1.06.2.088.3.048.178.096.355.175.522.381 1.095.983 2.124 1.664 3.082.708.956 1.569 1.783 2.506 2.512.948.734 2.017 1.287 3.115 1.726 1.103.428 2.277.669 3.427.799l.869.047c.204.009.411-.005.615-.018.091-.006.182-.013.272-.017l.442-.03c.146-.007.273-.033.4-.059.131-.019.263-.04.395-.062.132-.021.264-.043.395-.061l.058-.016.023.009.051-.031.1-.024.201-.048.406-.108a10.818 10.818 0 01.398-.104c.133-.034.266-.067.398-.105.411-.13.813-.281 1.212-.429l.311-.116a16.305 16.305 0 005.068-3.336 15.794 15.794 0 003.17-4.349c.739-1.506 1.132-2.995 1.387-4.323l.033-.289v-.003c.022-.193.043-.38.069-.564.177.359.358.707.555 1.048.796 1.344 1.726 2.677 2.985 3.797a11.778 11.778 0 004.34 2.453c1.596.505 3.243.665 4.849.556 3.201-.223 6.171-1.457 8.466-3.356a12.784 12.784 0 002.879-3.302 10.695 10.695 0 001.437-3.974 11.475 11.475 0 00-.087-4.048 11.674 11.674 0 00-1.351-3.566c-1.235-2.146-3.106-3.717-5.094-4.425a6.976 6.976 0 00-2.913-.398 6.136 6.136 0 00-2.359.651 7.243 7.243 0 00-2.173 1.643 3.403 3.403 0 00-.956 1.22l-.025.036a.361.361 0 01-.027.032.634.634 0 00-.109.324c-.595 1.814.38 3.821 2.234 4.54 1.853.719 4.023-.156 4.722-2.006.699-1.849-.209-3.792-1.991-4.597a5.012 5.012 0 012.927.328c1.447.586 2.885 1.889 3.826 3.642.956 1.747 1.381 3.969 1.013 6.149a8.866 8.866 0 01-1.203 3.182c-.601 1.004-1.418 1.924-2.381 2.712-1.926 1.575-4.447 2.655-7.106 2.861a10.56 10.56 0 01-3.937-.417 9.24 9.24 0 01-3.458-1.922c-1.002-.868-1.823-2.007-2.563-3.19-.712-1.186-1.288-2.457-1.659-3.75-.762-2.605-.746-5.338-.196-7.864.544-2.541 1.599-4.884 2.853-6.96 1.254-2.076 2.719-3.881 4.169-5.439 2.329-2.505 4.666-4.375 6.578-5.742 2.798-1.262 5.436-2.826 7.9-4.585 2.997-2.132 5.768-4.529 8.389-7.046 2.609-2.523 5.065-5.155 7.414-7.816 4.316-4.902 8.295-9.924 12.154-14.797l.031-.039 1.012-1.277c4.172-5.274 8.278-10.27 12.394-14.847 4.086-4.6 8.14-8.771 12.019-12.48 3.891-3.704 7.622-6.915 11.097-9.555A112.18 112.18 0 01219 56.75v-3.273zm0 8.686a66.353 66.353 0 00-10.443 8.877c-3.893 4.056-7.419 8.76-10.469 13.965-3.049 5.204-5.601 10.918-7.701 16.957-2.09 6.044-3.751 12.405-4.995 19.005-1.239 6.588-2.105 13.397-2.656 20.34-.155 1.96-.29 3.94-.403 5.929l-.267.464c-.107.164-.211.33-.315.497h-.001c-.261.417-.526.837-.836 1.24-.071.095-.139.19-.207.286-.136.191-.272.382-.428.566-.112.14-.226.278-.34.417-.115.139-.229.277-.341.417l-.18.212c-.176.209-.356.421-.543.631l-.125.143-.103.123h-.001c-.164.197-.33.395-.523.553l-.395.371c-.131.123-.262.245-.394.371a3.865 3.865 0 01-.421.354l-.44.335c-.414.349-.879.633-1.345.918-.18.11-.359.22-.536.333-.207.117-.424.22-.64.323-.13.062-.26.123-.388.188l-.525.251-.546.204c-.149.048-.295.102-.442.155-.219.08-.439.16-.666.223l-.57.145-.57.145a4.45 4.45 0 01-.578.117l-.593.085-.593.086c-.129.017-.264.021-.398.025a13.17 13.17 0 00-.202.007l-.264.016h-.004c-.311.019-.625.038-.937.034-.397-.015-.805-.035-1.213-.055h-.005a3.616 3.616 0 01-.604-.058l-.607-.084-.607-.084a3.192 3.192 0 01-.364-.077 6.328 6.328 0 00-.238-.056c-.164-.042-.33-.079-.498-.116a10.254 10.254 0 01-.697-.171l-1.17-.39-.579-.225-.572-.247c-.383-.161-.765-.322-1.115-.534l-1.091-.599-1.025-.701-.26-.176-.124-.086-.022-.009-.072-.053-.493-.419-.494-.419c-.1-.086-.182-.177-.266-.268a4.225 4.225 0 00-.147-.157c-.064-.067-.13-.133-.195-.199a5.592 5.592 0 01-.607-.68l-.385-.465-.185-.236-.165-.253c-.911-1.313-1.6-2.767-1.965-4.284-.762-3.022-.392-6.174.889-8.769.082-.152.16-.302.238-.451v-.001c.089-.168.176-.336.266-.502.102-.149.201-.297.299-.445.098-.148.197-.296.299-.446l.12-.181.187-.218.362-.44c.029-.029.057-.063.085-.097a.999.999 0 01.098-.11l.17-.174.351-.343a10.385 10.385 0 013.425-2.092c2.512-.919 5.245-.768 7.478.086 1.126.436 2.141.994 3.016 1.712a8.852 8.852 0 011.979 2.321c.493.834.827 1.709.998 2.533.171.823.251 1.612.196 2.31a7.715 7.715 0 01-.477 2.365 2.627 2.627 0 00-1.674-2.228c-1.331-.516-2.807.111-3.294 1.399-.486 1.288.198 2.753 1.529 3.269.944.366 1.947.162 2.632-.443.027-.002.046-.02.066-.038l.08-.107c.111-.121.211-.247.303-.388l.005-.007c.099-.124.22-.276.324-.484.434-.665.983-1.739 1.216-3.252.13-.757.14-1.612.034-2.537a9.804 9.804 0 00-.902-2.925 9.774 9.774 0 00-2.15-2.866c-.9-.829-2.051-1.578-3.319-2.121a12.663 12.663 0 00-4.203-1.024 12.516 12.516 0 00-4.572.574 11.444 11.444 0 00-4.182 2.405l-.469.449a6.312 6.312 0 00-.427.44l-.374.436-.186.218-.052.068-.013.033-.048.057-.088.13-.001.002c-.232.338-.464.677-.689 1.031-.09.173-.182.344-.275.517l-.001.002c-.104.194-.21.39-.313.59-1.436 3.041-1.806 6.71-.808 10.139.486 1.716 1.315 3.35 2.391 4.816l.195.277.215.26.44.525c.214.274.468.521.723.769h.001l.001.002.239.233c.077.069.152.142.226.214.096.092.19.183.285.262l.513.401.513.401.06.049.072.053.034.013.131.101.282.186 1.132.729 1.197.629c.396.229.817.392 1.226.551l.625.242.31.146.316.097 1.284.397c.284.077.575.134.867.191.145.028.291.057.436.087l.118.026.044.011c.162.036.324.073.494.092l.66.079.661.08c.031.005.063.008.094.011l.008.001a.808.808 0 01.086.01c-.246.132-.511.282-.811.455l-.43.251-.011.006c-.596.347-1.282.746-2.019 1.213a93.98 93.98 0 00-3.116 2.035c-1.116.779-2.326 1.635-3.556 2.61a60.566 60.566 0 00-3.741 3.207 35.072 35.072 0 00-3.579 3.913l-.415.546-.104.137-.108.147-.185.282-.376.548-.367.59a23.428 23.428 0 00-1.308 2.459c-.771 1.695-1.3 3.51-1.482 5.371-.194 1.856-.012 3.757.642 5.475.632 1.709 1.759 3.245 3.218 4.214.729.485 1.532.81 2.333.969.778.15 1.59.175 2.318.041.729-.134 1.407-.376 1.97-.726a5.279 5.279 0 001.386-1.217c.728-.892 1.067-1.858 1.141-2.675a3.624 3.624 0 00-.105-1.341 2.63 2.63 0 00-1.647-1.99c-1.331-.516-2.806.111-3.293 1.399-.487 1.288.198 2.753 1.528 3.269 1.228.476 2.577-.023 3.169-1.106a4.991 4.991 0 01-1.219 2.052 4.922 4.922 0 01-3.057 1.465c-.639.068-1.292.003-1.97-.171a5.303 5.303 0 01-1.886-.908c-1.159-.867-2.062-2.202-2.562-3.708-.499-1.507-.607-3.19-.407-4.854.199-1.665.731-3.314 1.452-4.877.361-.782.778-1.542 1.226-2.277l.334-.539.377-.548.181-.271.084-.119.099-.126.38-.521a34.324 34.324 0 013.39-3.76 64.423 64.423 0 013.573-3.208 82.075 82.075 0 013.401-2.683 109.8 109.8 0 012.966-2.157l.437-.302.002-.001a94.78 94.78 0 013.822-2.55c.034.013.065 0 .103.002.337-.007.676-.036 1.012-.065l.167-.015.12-.01.176-.012c.159-.009.319-.019.474-.051l.639-.106.628-.109c.208-.033.421-.077.626-.136l.314-.09.298-.083c.204-.057.408-.113.613-.172.286-.089.565-.198.847-.308.111-.044.223-.088.336-.13l.582-.229.549-.279c.081-.041.164-.081.246-.121a8.31 8.31 0 00.844-.453c.12-.077.241-.153.361-.228.569-.359 1.133-.714 1.62-1.15l.468-.374a2.74 2.74 0 00.449-.394l.265-.26.161-.161c.142-.141.283-.282.427-.422.216-.198.382-.408.547-.617l.001-.001c.064-.081.128-.162.195-.242.118-.143.234-.287.35-.43l.002-.002.001-.001c.116-.144.232-.288.351-.43l.343-.441.171-.221.172-.221c.164-.211.313-.434.461-.655.056-.084.111-.167.168-.25.172-.235.329-.486.482-.731l.04-.063a265.205 265.205 0 00-.297 13.303c.001 3.585.07 7.197.188 10.816.012.383.023.766.046 1.154-.115.081-.23.16-.344.238l-.195.135-.15.104-.901.61c-1.161.784-2.329 1.572-3.471 2.402a59.567 59.567 0 00-4.203 3.255 19.894 19.894 0 00-4.957 5.109 27.158 27.158 0 01-1.575-.523c-.944-.366-1.875-.766-2.712-1.242a13.604 13.604 0 01-2.306-1.626c-1.368-1.212-2.305-2.699-2.688-4.237a6.87 6.87 0 01.4-4.439 7.097 7.097 0 011.138-1.768c.226-.253.475-.497.727-.715l.043-.047.013-.033.016-.005c.006-.002.013-.002.011.003l.086-.055.231-.163c.028-.014.054-.028.079-.043l.069-.042c.06-.037.119-.075.199-.108 1.089-.537 2.411-.618 3.568-.472 1.169.151 2.204.552 2.986 1.07s1.287 1.181 1.495 1.805a2.468 2.468 0 00-.386-.188c-1.33-.516-2.806.111-3.293 1.399-.487 1.288.198 2.753 1.529 3.269a2.567 2.567 0 002.592-.408.539.539 0 00.315-.282s.03-.077.098-.189a2.4 2.4 0 00.281-.535l.012-.033c.123-.256.248-.586.379-1.002.145-.625.274-1.484-.034-2.462-.282-.98-1-1.978-2.013-2.712-1.009-.745-2.282-1.277-3.723-1.533-1.435-.241-3.08-.235-4.723.491a5.337 5.337 0 00-.639.345l-.232.163-.121.079-.074.06-.036.024-.059.053c-.338.272-.657.565-.958.878a8.637 8.637 0 00-1.535 2.232 8.86 8.86 0 00-.651 5.794c.449 2.055 1.679 4.009 3.337 5.485a16.006 16.006 0 002.714 1.962c.972.566 2.009 1.032 3.066 1.442.391.139.782.278 1.181.395a19.473 19.473 0 00-1.649 4.775 19.977 19.977 0 00-.142 7.343 20.346 20.346 0 002.541 7.006c.145.271.317.54.489.809l.089.138.003.005c.139.22.276.435.433.641l.273.384c.021.029.037.054.054.08.024.036.048.074.089.127l.14.18c.185.236.37.472.6.725a18.21 18.21 0 002.821 2.609 18.53 18.53 0 002.414 1.479 68.478 68.478 0 01-5.632 9.619 67.454 67.454 0 01-11.787 12.898c-.092.002-.184.004-.287.002-.132 0-.268.003-.408.005-.409.008-.848.017-1.313-.041-.108-.012-.219-.019-.33-.027a5.025 5.025 0 01-.637-.071c-.133-.021-.268-.045-.404-.069-.203-.036-.411-.073-.626-.103a15.964 15.964 0 01-4.489-1.716 14.944 14.944 0 01-4.254-3.645 7.788 7.788 0 00-.165-.205l-.001-.001c-.102-.124-.206-.249-.288-.387-.1-.143-.192-.291-.286-.44a10.807 10.807 0 00-.125-.198c-.202-.273-.359-.574-.518-.879-.079-.15-.158-.302-.243-.452l-.186-.337-.15-.361a21.344 21.344 0 01-.15-.361c-.05-.12-.099-.241-.151-.362l-.075-.18-.017-.058-.028-.099-.122-.401a6.661 6.661 0 00-.085-.288c-.054-.175-.108-.347-.126-.5a16.737 16.737 0 01-.069-.366v-.002l-.001-.002a16.737 16.737 0 00-.069-.366 9.858 9.858 0 01-.052-.526c-.007-.084-.013-.166-.021-.247a5.656 5.656 0 01-.025-.61l-.001-.183a4.577 4.577 0 00-.001-.262c-.003-.176-.006-.351.024-.524.059-1.05.335-2.092.725-3.089a9.879 9.879 0 011.64-2.785c.684-.845 1.497-1.616 2.435-2.199a3.84 3.84 0 01.717-.416c.087-.043.171-.089.254-.135.162-.089.322-.177.502-.241l.772-.319.824-.248a9 9 0 016.436.843 9.207 9.207 0 012.55 2.049 9.214 9.214 0 011.591 2.688c.028.096.06.194.092.291.054.163.107.326.138.48.015.09.034.178.054.264.032.145.064.288.071.441.051.486.075.975.015 1.444-.199 1.905-1.27 3.497-2.571 4.456a7.168 7.168 0 01-2.061 1.069l-.031.014-.069.011-.147.043-.29.077a2.77 2.77 0 01-.247.044h-.001c-.082.012-.16.024-.241.044-.166.024-.339.033-.5.046a2.584 2.584 0 01-.305.001c-.065-.002-.129-.004-.19-.003a6.461 6.461 0 01-1.514-.272c1.15-.248 2.136-1.027 2.573-2.183.699-1.85-.282-3.947-2.192-4.688-1.91-.741-4.023.156-4.722 2.006-.483 1.277-.153 2.68.727 3.665a5.94 5.94 0 001.145 1.315c.453.39.997.778 1.667 1.076a6.904 6.904 0 003.584.557 3.21 3.21 0 01.118-.02l.082-.014a7.62 7.62 0 00.486-.091l.29-.077.147-.044.073-.022.058-.015.004-.011.054-.005a7.546 7.546 0 002.473-1.401 7.916 7.916 0 001.888-2.373c.48-.925.776-1.984.866-3.085a8.569 8.569 0 00-.042-1.683c-.014-.186-.055-.378-.095-.567-.021-.101-.042-.201-.059-.3-.041-.196-.097-.368-.153-.543-.027-.083-.055-.167-.08-.255l-.018-.057-.017-.057-.015-.031-.039-.104-.082-.196-.172-.407c-.069-.187-.165-.361-.261-.536-.048-.088-.096-.175-.141-.264-.126-.25-.283-.479-.447-.72l-.032-.046-.261-.379-.296-.355a10.766 10.766 0 00-6.429-3.794 10.635 10.635 0 00-3.954.044l-.444.105-.216.055-.116.031-.058.016-.023-.009-.078.033-.918.325a4.05 4.05 0 00-.619.266c-.091.045-.182.09-.275.132l-.127.062h-.001c-.247.12-.498.241-.721.391-2.251 1.298-4.03 3.348-4.979 5.719a6.26 6.26 0 00-.266.715l-.059.181a16.38 16.38 0 01-.064.207l-.016.052a4.77 4.77 0 00-.174.653l-.096.461-.096.461c-.013.141-.028.281-.042.42-.019.174-.037.346-.051.516a4.494 4.494 0 00-.024.591c.001.115.001.23-.004.345-.002.315-.003.63.049.941.012.106.022.21.032.313v.002c.02.204.04.404.074.61.046.196.088.391.129.582l.077.356c.583 2.321 1.785 4.454 3.234 6.139a15.813 15.813 0 004.946 3.851c1.742.877 3.477 1.323 5.023 1.544.39.038.757.067 1.124.095h.001c.257.029.508.023.749.017.098-.003.195-.005.289-.005.322.011.629-.008.914-.037a60.34 60.34 0 01-2.08 1.604c-5.775 4.274-12.286 7.631-19.202 9.543-3.457.969-7.013 1.546-10.567 1.669a39.396 39.396 0 01-4.509-.108 1.21 1.21 0 01-.042-.06l-.001-.001a1.21 1.21 0 00-.042-.06 13.827 13.827 0 01-1.184-2.353l-.212-.612-.176-.637c-.046-.136-.07-.264-.095-.391a7.65 7.65 0 00-.025-.133 8.375 8.375 0 01-.127-.72 9.897 9.897 0 01-.037-2.489 10.023 10.023 0 011.628-4.443c.874-1.277 2.006-2.34 3.274-3.072 1.267-.733 2.661-1.177 4.036-1.262 1.365-.127 2.723.109 3.877.506a6.117 6.117 0 012.793 1.993 5.797 5.797 0 011.146 2.729c.126.908.013 1.76-.227 2.462l-.179.473c-.073-1.391-.985-2.704-2.407-3.256-1.91-.741-4.023.156-4.722 2.006-.699 1.849.282 3.946 2.192 4.688a3.744 3.744 0 001.857.227.59.59 0 00.276-.006l.379-.105a2.64 2.64 0 00.449-.154c.166-.054.347-.145.554-.25l.045-.023c.44-.233.96-.574 1.459-1.1a5.615 5.615 0 001.235-2.096 6.415 6.415 0 00.25-2.971 6.784 6.784 0 00-1.398-3.269 6.764 6.764 0 00-1.447-1.382 9.114 9.114 0 00-.9-.551l-.499-.231-.466-.181c-.706-.236-1.379-.421-2.128-.51a10.438 10.438 0 00-2.261-.056c-1.533.124-3.078.623-4.471 1.446a11.046 11.046 0 00-3.568 3.401 11.115 11.115 0 00-1.74 4.879c-.103.894-.069 1.803.057 2.711.134.923.361 1.806.706 2.685.278.713.618 1.401 1.016 2.073a30.757 30.757 0 01-4.895-.952l-1.261-.389-1.241-.443-1.262-.49-1.223-.525a53.12 53.12 0 01-4.78-2.359c-3.077-1.724-5.938-3.78-8.369-6.213-2.431-2.432-4.41-5.233-5.812-8.25-1.402-3.018-2.226-6.254-2.56-9.476-.329-3.233-.186-6.473.276-9.626.115-.788.246-1.583.388-2.336.058-.313.125-.586.192-.862l.03-.127.034-.136c.093-.346.2-.697.305-1.04l.019-.059a23.906 23.906 0 011.846-4.194 30.08 30.08 0 015.488-7.137c2.147-2.058 4.557-3.774 7.144-5.03 2.583-1.245 5.351-2.014 8.11-2.206 2.758-.193 5.516.17 8.071.997 2.56.817 4.969 2.067 7.097 3.511 1.063.74 2.04 1.536 2.927 2.397.882.873 1.679 1.8 2.367 2.774a16.803 16.803 0 012.703 6.3 17.3 17.3 0 01.051 6.42c-.766 4.096-2.893 7.651-5.718 9.812-.702.548-1.444.992-2.206 1.353l-.167.071a9.91 9.91 0 01-.997.386l-.147.044-.147.044-.131.037-.001.001c-.064.018-.122.035-.173.046-.19.053-.391.101-.587.138-1.629.341-3.271.373-4.815.216-3.093-.304-5.775-1.382-7.615-2.828a8.862 8.862 0 01-2.884-3.821 6.403 6.403 0 001.894 1.164c3.115 1.209 6.564-.256 7.704-3.272 1.14-3.017-.464-6.429-3.58-7.637-3.116-1.209-6.553.26-7.689 3.265a5.608 5.608 0 00-.351 1.619c-.139.918-.307 2.33.064 4.178a9.994 9.994 0 001.11 2.993 11.319 11.319 0 002.48 2.994c2.146 1.843 5.186 3.148 8.677 3.606 1.742.221 3.612.24 5.559-.116h.001c.239-.046.478-.092.736-.156l.359-.087.19-.053.178-.057c.495-.136.972-.33 1.449-.523v-.001h.001a14.02 14.02 0 002.712-1.586c3.407-2.528 5.908-6.557 6.815-11.267.446-2.352.506-4.891-.005-7.437a19.43 19.43 0 00-3.151-7.357c-1.589-2.283-3.696-4.262-6.071-5.877-2.395-1.598-5.028-2.91-7.909-3.775a23.955 23.955 0 00-9.078-.959c-3.091.278-6.147 1.188-8.934 2.594-2.803 1.412-5.348 3.315-7.6 5.547-2.244 2.247-4.207 4.818-5.746 7.68-.763 1.434-1.437 2.94-1.944 4.523l-.01.031a20.883 20.883 0 00-.622 2.4c-.16.834-.29 1.629-.414 2.439-.47 3.277-.643 6.668-.308 10.093s1.195 6.876 2.673 10.139a30.544 30.544 0 003.261 5.481l-.045-.018a35.17 35.17 0 00-3.642-1.715 42.033 42.033 0 00-7.678-2.247c-2.618-.523-5.272-.782-7.922-.876-2.65-.094-5.292.03-7.931.319-1.281.147-2.632.304-3.921.612-1.297.292-2.57.694-3.798 1.216-2.454 1.042-4.645 2.629-6.439 4.546-1.794 1.917-3.217 4.129-4.42 6.414-1.203 2.286-2.205 4.661-3.154 7.033a378.605 378.605 0 00-2.214 5.797v.001c-1.068 2.843-2.134 5.68-3.299 8.473-.986 2.332-2.007 4.688-3.146 6.909-1.159 2.202-2.641 4.227-4.43 5.957-1.777 1.734-3.862 3.147-6.14 4.207-2.28 1.06-4.723 1.766-7.25 2.174-2.524.397-5.1.521-7.67.42-2.365.219-4.979-.075-7.478-.603-.297-.077-.604.081-.686.365-.097.291.074.597.374.701 2.427.79 4.904 1.41 7.414 1.841l.012.004c2.51.431 5.06.688 7.595.674 2.542.002 5.075-.215 7.548-.72a33.359 33.359 0 007.188-2.286c2.285-1.045 4.433-2.345 6.37-3.917.388-.295.756-.622 1.123-.948l.301-.266c.162-.161.327-.319.493-.476.285-.27.57-.54.834-.827.87-.887 1.654-1.858 2.393-2.846 1.443-1.99 2.68-4.124 3.815-6.297 1.134-2.173 2.155-4.39 3.153-6.616l.844-1.892v-.002c.71-1.596 1.42-3.19 2.157-4.768 1.028-2.202 2.124-4.377 3.363-6.446 1.25-2.065 2.666-4.053 4.358-5.77a20.547 20.547 0 012.732-2.361c.347-.263.727-.499 1.107-.737.14-.087.28-.174.418-.262l.802-.433.405-.209.412-.194c1.09-.537 2.253-.957 3.415-1.339a31.93 31.93 0 013.591-.879c2.437-.443 4.924-.64 7.416-.645a46.938 46.938 0 014.048.156 20.454 20.454 0 00-3.609.544c-2.854.686-5.816 2.036-8.401 4.151-.071.063-.147.119-.222.175a2.219 2.219 0 00-.266.217l-.454.442c-.154.149-.306.294-.46.44l-.46.44a9.233 9.233 0 00-.49.557c-.118.14-.236.28-.359.414l-.42.493-.211.247-.013.033s-.067.071-.067.069l-.048.063-.088.13-.71 1.05a13.68 13.68 0 00-.483.863l-.109.204-.069.128a6.17 6.17 0 01-.112.211 3.231 3.231 0 00-.201.412l-.242.639-.062.14c-.165.373-.331.747-.425 1.148a15.998 15.998 0 00-.755 5.551c.073 1.91.449 3.848 1.15 5.685a17.957 17.957 0 003.087 5.111l.49.568c.1.117.213.224.326.331.072.068.144.136.213.207l.544.527.28.26.3.242.591.47.304.231.15.121.071.053s-.011-.004.083.057l.045.018c.137.087.27.174.404.261.268.174.535.347.827.519.156.078.312.159.468.24l.004.002c.314.164.629.329.945.459l.716.278c.239.093.478.186.725.256.969.3 1.978.528 2.98.601a14.547 14.547 0 005.901-.64 13.673 13.673 0 004.955-2.862l.488-.494.008-.008.211-.214.285-.288.445-.555.003-.004.44-.548.354-.557c.12-.18.24-.361.35-.583a9.01 9.01 0 00.587-1.275c.359-.845.532-1.75.673-2.642.08-.903.107-1.802-.027-2.687-.097-.883-.359-1.742-.633-2.568-.333-.811-.712-1.602-1.196-2.32a12.133 12.133 0 00-3.557-3.525c-.75-.43-1.495-.807-2.274-1.021a4.62 4.62 0 00-.761-.2 8.405 8.405 0 01-.408-.09 9.42 9.42 0 01-.172-.023l-.006-.001a9.3 9.3 0 00-.987-.1c-1.551-.071-3.048.232-4.308.841a8.797 8.797 0 00-3.078 2.417c-.772.937-1.304 2.069-1.493 3.119a7.237 7.237 0 00.058 2.951c.204.875.535 1.622.912 2.21.111.198.244.368.37.529.068.087.134.172.194.257.2.23.374.423.546.591l.212.185.001.001c.052.047.101.09.15.131.368.37.815.67 1.327.869 1.91.741 4.023-.157 4.722-2.006.699-1.85-.281-3.947-2.192-4.688-1.91-.741-4.023.157-4.722 2.006a2.181 2.181 0 00-.119.383 7.216 7.216 0 01-.144-.687 6.1 6.1 0 01.095-2.425c.198-.869.614-1.693 1.293-2.49a7.732 7.732 0 012.583-2.002c1.043-.517 2.29-.778 3.597-.789.234-.007.469.017.703.041.096.01.192.02.288.028.059.012.118.022.178.032l.113.019c.235.038.472.077.7.157.081.025.164.048.247.07.082.023.165.046.247.071l.489.19c.17.066.33.128.48.211a9.705 9.705 0 01.318.159l.143.071c1.289.765 2.432 1.776 3.314 3.065.453.63.792 1.355 1.092 2.077.254.742.48 1.524.556 2.324.118.791.071 1.605.001 2.411-.131.795-.293 1.603-.63 2.356a7.718 7.718 0 01-.433.91l-.072.135-.026.05c-.063.139-.165.288-.265.436v.001l-.07.102-.376.548c-.131.157-.265.313-.399.47a111.888 111.888 0 00-.4.47c-.153.149-.306.294-.46.44l-.46.44a12.159 12.159 0 01-4.546 2.44 12.89 12.89 0 01-5.265.407 12.651 12.651 0 01-2.612-.61c-.143-.038-.283-.098-.421-.157a3.51 3.51 0 00-.205-.085l-.617-.265a9.682 9.682 0 01-.654-.336l-.002-.001a11.366 11.366 0 00-.5-.263c-.28-.172-.566-.365-.854-.561l-.005-.003a42.011 42.011 0 00-.34-.229l-1.014-.835-.258-.214-.234-.243-.485-.478-.138-.138-.001-.002a5.517 5.517 0 01-.33-.344l-.429-.52c-1.136-1.375-2.064-2.922-2.682-4.563a16.34 16.34 0 01-1.016-5.039c-.064-1.692.128-3.372.615-4.937.066-.308.182-.605.3-.902l.099-.256.216-.573c.04-.106.094-.203.148-.301.04-.074.082-.148.117-.227.061-.115.118-.231.175-.346.113-.231.226-.462.374-.691.112-.177.228-.354.343-.53a45.763 45.763 0 00.344-.529l.088-.13.025-.066.035-.024.191-.229.37-.462.1-.126.071-.09c.188-.237.374-.472.577-.694.137-.136.274-.275.411-.414l.22-.223.192-.192.403-.412c.102-.108.223-.202.342-.294v-.001l.099-.077a20.268 20.268 0 017.628-4.072 20.932 20.932 0 017.459-.691c2.256.206 4.22.665 5.748 1.283.131.051.261.097.389.142.248.088.485.172.702.281l.137.053c2.45 2.415 5.266 4.454 8.255 6.169a54.69 54.69 0 004.967 2.52l1.291.551 1.277.521 1.339.494 1.363.428c2.057.595 4.154.98 6.272 1.208a8.955 8.955 0 00-.441-.007l-.409.022c-.341.018-.704.037-1.085.068-.041.004-.082.01-.122.015l-.142.018c-.189.025-.382.051-.583.067a9.554 9.554 0 01-.188.025c-.233.03-.476.061-.713.118-.229.042-.461.091-.704.142l-.003.001-.102.021-.152.031c-.255.059-.509.133-.768.208l-.221.065h-.001a5.54 5.54 0 00-.514.154l-.162.058h-.001a6.337 6.337 0 00-.353.133c-.12.048-.243.092-.369.138-.227.082-.46.166-.686.273l-.046.021c-.331.15-.677.306-1.027.472-.233.121-.438.24-.643.36-.136.079-.272.158-.417.238-.7.436-1.425.975-2.056 1.576a13.14 13.14 0 00-3.172 4.526c-.762 1.775-1.125 3.805-1.014 5.855.112 2.05.705 4.136 1.728 5.985l.021.046-.008.022.044.055.048.082.106.167.201.33c.088.147.199.297.312.45h.001c.051.07.104.14.154.211l.042.055c.154.2.314.408.488.58.075.075.149.155.224.235.112.122.225.245.349.353.786.747 1.708 1.345 2.679 1.81 1.951.946 4.148 1.205 6.159.886.994-.182 1.954-.478 2.815-.927l.081-.044.047-.02.047-.02.004-.011.159-.077.289-.178c.134-.069.275-.177.414-.282a6.382 6.382 0 001.204-1.135 6.775 6.775 0 001.527-4.899 7.057 7.057 0 00-.6-2.278c-.317-.678-.709-1.297-1.223-1.8a5.12 5.12 0 00-1.681-1.106 3.622 3.622 0 00-.717-.38c-1.91-.741-4.023.157-4.722 2.006-.699 1.85.281 3.947 2.191 4.688 1.911.741 4.023-.156 4.723-2.006.191-.506.26-1.035.207-1.548.083.159.174.333.249.513.243.599.4 1.254.441 1.939.082 1.369-.313 2.895-1.326 4.093a7.132 7.132 0 01-.845.821 4.95 4.95 0 00-.151.114l-.001.001c-.099.076-.197.153-.33.228l-.285.167-.148.082-.124.052c-.759.387-1.599.642-2.486.816-1.757.303-3.71.088-5.434-.732a8.974 8.974 0 01-2.399-1.587l-.053-.052c-.326-.318-.658-.642-.916-1.006l-.105-.131a3.807 3.807 0 01-.327-.453l-.205-.319-.11-.157-.048-.081.004-.011-.033-.051a13.047 13.047 0 01-1.652-5.526c-.132-1.894.155-3.79.837-5.457a12.272 12.272 0 012.888-4.295 13.204 13.204 0 011.89-1.514c.339-.209.71-.431 1.011-.605.35-.167.688-.339 1.012-.504.198-.1.396-.178.593-.256.14-.055.279-.11.416-.172a3.436 3.436 0 00.247-.1c.081-.035.163-.07.246-.1l.088-.029.158-.053c.082-.028.165-.056.246-.081l.301-.095c.22-.071.438-.14.659-.202.316-.079.618-.152.915-.213.29-.077.582-.127.871-.167.278-.044.555-.088.817-.125.332-.037.645-.062.941-.086.178-.014.349-.027.516-.043a173.64 173.64 0 001.181-.021c.216-.007.413.005.592.017.095.006.185.012.27.014a14.395 14.395 0 004.646 2.888c.921.357 1.895.609 2.859.818.98.166 1.966.283 2.951.299 1.977.048 3.939-.176 5.857-.593 1.906-.422 3.758-1.042 5.543-1.763a45.534 45.534 0 005.154-2.494c1.661-.909 3.237-1.939 4.766-2.949.262-.188.524-.373.786-.558.489-.346.976-.69 1.451-1.048.258-.207.519-.408.78-.609.457-.351.911-.701 1.345-1.079 2.744-2.293 5.198-4.749 7.252-7.285 2.066-2.532 3.802-5.09 5.187-7.582a53.5 53.5 0 003.315-7.008l.195-.517a71.658 71.658 0 004.739-8.223c.449.124.901.237 1.347.334 2.512.494 5.113.443 7.571-.194a16.475 16.475 0 003.521-1.348c.554-.29 1.092-.612 1.605-.968l.104-.07.053-.035.118-.079.128-.089.361-.264c.235-.174.502-.398.727-.614a12.71 12.71 0 003.843-6.336c.632-2.431.526-5.047-.28-7.468a13.849 13.849 0 00-1.719-3.419c-.725-1.051-1.642-2.038-2.708-2.805-2.094-1.532-4.728-2.326-7.297-2.186.068-.583.124-1.171.179-1.754l.061-.64a47.536 47.536 0 007.514-3.182 47.564 47.564 0 006.253-3.987c1.985-1.49 3.878-3.116 5.599-4.91a46.848 46.848 0 004.703-5.75c1.399-2.045 2.572-4.216 3.563-6.457 1.002-2.237 1.704-4.577 2.211-6.918.042-.234.092-.468.141-.701.076-.353.151-.706.199-1.061l.12-.887.121-.888c.051-.381.078-.771.105-1.158v-.001c.015-.21.029-.418.047-.624l.061-.886c.014-.196.013-.387.013-.578l.001-.287c.003-.239.003-.479.003-.72 0-.329.001-.66.006-.993l.001-.139-.013-.106-.008-.218-.034-.429-.051-.866-.055-.854c-.016-.215-.042-.425-.067-.639a14.456 14.456 0 01-.026-.218c-.03-.283-.064-.564-.098-.846-.033-.281-.067-.563-.097-.845-.359-2.223-.801-4.401-1.468-6.465-1.284-4.121-3.152-7.837-5.31-10.959a16.665 16.665 0 00-.404-.585v-.001l-.118-.163a9.081 9.081 0 01-.088-.119l-.108-.146-.099-.136-.181-.245-.002-.002a25.826 25.826 0 00-.65-.859l-.462-.566c-.414-.511-.819-1.011-1.245-1.472-.429-.506-.88-.975-1.323-1.436l-.001-.001c-.134-.14-.268-.279-.4-.419-.213-.205-.42-.411-.625-.614l-.001-.001c-.366-.363-.724-.719-1.092-1.048a49.913 49.913 0 00-6.287-4.926 44.649 44.649 0 00-4.455-2.599c-.08-.031-.155-.073-.23-.115a123.074 123.074 0 012.082-6.955c3.917-11.81 9.737-22.24 17.116-30.17a65.416 65.416 0 018.291-7.55v-3.222zM140.174 97.41l-.005-.016a.163.163 0 01.006.012l-.001.004zm0 0l-.001.002.007.02a.214.214 0 00.006.016l-.012-.038zm5.386 27.142a41.824 41.824 0 01-7.241.941c-2.595.104-5.336-.026-8.124-.514-2.766-.479-5.616-1.32-8.116-2.744-1.244-.71-2.399-1.587-3.227-2.64-.409-.538-.734-1.093-.927-1.686a4.187 4.187 0 01-.165-1.806 4.46 4.46 0 01.234-.893c.054-.144.112-.298.173-.425l.08-.21.152-.231c.343-.561.742-1.1 1.198-1.479.472-.385.973-.607 1.542-.664.558-.061 1.195.047 1.822.252 1.275.419 2.544 1.202 3.747 2.022 1.214.824 2.38 1.706 3.546 2.587 2.325 1.748 4.602 3.451 7.023 4.807 1.257.677 2.59 1.081 3.883 1.317 1.293.237 2.545.306 3.73.273 2.379-.049 4.5-.451 6.32-.919a32.91 32.91 0 003.207-.965c-.02.018-.044.046-.063.064a42.723 42.723 0 01-8.817 2.904l.023.009zm40.12 67.394c2.257-.108 4.552.617 6.359 1.975 1.812 1.347 3.118 3.343 3.836 5.477a11.6 11.6 0 01.229 6.602 11.205 11.205 0 01-3.413 5.581 14.369 14.369 0 01-5.966 3.089 15.978 15.978 0 01-3.389.478 16.006 16.006 0 01-4.386-.503 76.023 76.023 0 002.985-7.413 7.058 7.058 0 002.629.288 6.925 6.925 0 002.805-.831 2.077 2.077 0 001.275-1.235c.42-1.111-.171-2.376-1.319-2.821-1.149-.446-2.423.095-2.843 1.207-.362.958.028 2.03.885 2.59a6.459 6.459 0 01-.904.117 6.283 6.283 0 01-2.212-.29c1.516-4.664 2.559-9.46 3.191-14.302.065 0 .134-.011.203-.022l.035.013zm-6.494 12.175l-.026-.035-.063-.075-.058-.086-.033-.047c-.072-.103-.138-.197-.198-.308a7.497 7.497 0 01-1.131-3.114c-.28-2.192.459-4.455 2.004-5.989a9.49 9.49 0 01.595-.54c.056-.046.13-.099.203-.153l.142-.104c.054-.04.125-.086.196-.133l.095-.063.041-.028c.223-.141.457-.278.703-.41a77.307 77.307 0 01-2.443 11.083l-.027.002zm12.21-93.17c1.015.558 2.5 1.424 4.28 2.683a49 49 0 016.036 4.967c.369.347.728.718 1.095 1.098l.001.001c.179.185.36.373.546.56.162.183.329.365.496.549h.001c.379.415.766.838 1.127 1.293.508.577.985 1.205 1.468 1.841l.14.184c.17.226.329.452.491.681v.001c.094.133.188.267.286.402.129.176.265.368.389.555.063.094.124.19.186.287.061.096.122.192.185.286 2.005 3.075 3.755 6.657 4.913 10.629.604 1.989.987 4.081 1.299 6.222.056.539.113 1.079.155 1.625l.019.201v.001c.021.204.041.404.052.609l.041.823c.009.269.02.541.031.814l.001.007c.011.271.022.541.031.807-.003.281-.01.565-.016.848v.004a60.81 60.81 0 00-.016.852l-.001.131-.001.107v.001a7.569 7.569 0 01-.019.611l-.079.828c-.015.167-.029.335-.042.503v.001c-.031.385-.062.773-.119 1.163-.093.557-.174 1.118-.256 1.678l-.001.002c-.055.377-.142.747-.23 1.119-.043.182-.086.365-.126.548-.511 2.213-1.228 4.422-2.196 6.533-.956 2.116-2.087 4.177-3.429 6.105a42.516 42.516 0 01-4.522 5.441c-1.649 1.708-3.478 3.233-5.383 4.653a46.805 46.805 0 01-5.998 3.758 44.488 44.488 0 01-6.19 2.648l.058-1.19a64.364 64.364 0 01.029-.923c.021-.614.042-1.229.042-1.851l-.004-1.403.001-.694-.018-.676-.036-1.352-.051-1.383v-.002c-.026-.793-.053-1.585-.094-2.37.282-.194.563-.387.838-.596l1.066-.786.271-.198.274-.209.534-.412a31.51 31.51 0 002.02-1.791 31.183 31.183 0 003.496-4.072 34.923 34.923 0 002.792-4.559c1.628-3.169 2.803-6.55 3.554-10.021a46.558 46.558 0 001.075-10.603 47.804 47.804 0 00-1.313-10.633 47.75 47.75 0 00-3.663-10.144 43.46 43.46 0 00-2.704-4.71 45.784 45.784 0 00-2.927-3.95l.058-.154.046.018.011.004zm-5.632 51.767c-.004-7.095.189-14.09.692-20.938.503-6.849 1.312-13.541 2.478-20.006.631-3.429 1.341-6.789 2.183-10.085a48.804 48.804 0 012.58 3.626 45.14 45.14 0 012.598 4.681 46.44 46.44 0 013.448 10.022c.378 1.725.66 3.463.849 5.203.202 1.744.268 3.499.274 5.243a46.319 46.319 0 01-1.164 10.355 40.21 40.21 0 01-3.556 9.716c-.808 1.517-1.707 2.999-2.737 4.379a30.663 30.663 0 01-3.394 3.872 27.285 27.285 0 01-1.944 1.694l-.514.394-.255.192-.271.198-1.073.77-.035.024c-.091-3.14-.151-6.257-.151-9.362l-.008.022zm-11.779 19.706c1.333-1.112 2.684-2.203 4.121-3.211a194.032 194.032 0 013.128-2.177l.003-.002 1.129-.776.044 1.229.036 1.352.019.676-.001.656-.005 1.324c.004.649-.016 1.303-.036 1.956l-.01.36-.01.351a93.235 93.235 0 01-.124 2.501 37.55 37.55 0 01-3.131.591c-2.214.303-4.428.365-6.53.131a12.272 12.272 0 00-.619-.087c-.318-.04-.634-.079-.946-.154a25.394 25.394 0 01-1.459-.314 18.568 18.568 0 014.36-4.393l.012-.009c.004-.003.007-.006.008-.009l.011.005zm-.45 29.679a16.538 16.538 0 01-2.561-2.331c-.163-.175-.331-.39-.495-.599l-.068-.087-.14-.18s-.077-.106-.122-.161l-.258-.353a9.898 9.898 0 01-.496-.722 10.598 10.598 0 01-.461-.747 18.862 18.862 0 01-2.376-6.476 19.054 19.054 0 01.1-6.816 18.154 18.154 0 011.634-4.668l.065.018c.193.052.396.107.601.152.548.142 1.054.244 1.566.348l.095.019c.387.092.774.139 1.162.187.2.025.4.049.601.08 2.369.288 4.776.199 7.163-.15a40.695 40.695 0 002.51-.465 71.621 71.621 0 01-.251 2.25l-.031.014a10.646 10.646 0 00-1.825 1.005c-.081.053-.16.105-.25.172l-.056.04c-.102.073-.195.14-.309.235a9.669 9.669 0 00-.717.655c-1.792 1.843-2.63 4.509-2.234 7.049a8.665 8.665 0 001.472 3.693l.064.09c.047.065.094.131.14.199l.077.106.081.095.145.169c.126.15.256.289.39.417a70.641 70.641 0 01-3.1 8.063 16.36 16.36 0 01-2.15-1.314l.034.013zm-37.518 39.815c7.307-1.912 14.164-5.324 20.264-9.698 6.109-4.397 11.454-9.809 15.826-15.889.079-.107.156-.216.233-.324l.001-.002c.077-.109.154-.218.234-.326a52.542 52.542 0 01-2.958 5.96c-1.395 2.45-3.146 4.978-5.21 7.472-2.065 2.493-4.502 4.906-7.246 7.161-.43.372-.882.714-1.335 1.058a48.6 48.6 0 00-.777.597c-.665.495-1.355.969-2.036 1.436l-.184.127c-1.541 1.005-3.093 2.006-4.745 2.893-1.64.891-3.33 1.738-5.102 2.426-1.766.704-3.578 1.288-5.438 1.69-1.86.402-3.775.606-5.668.541-.946-.014-1.885-.151-2.816-.31-.93-.196-1.843-.437-2.703-.783a13.403 13.403 0 01-3.988-2.418c.808.035 1.613.045 2.419.016a47.871 47.871 0 0011.209-1.61l.02-.017zM16.424 287.717c2.632-.444 5.212-1.198 7.623-2.333a23.567 23.567 0 006.499-4.497c1.883-1.845 3.439-3.993 4.65-6.3 1.177-2.321 2.179-4.659 3.166-7.028 1.213-2.931 2.312-5.906 3.408-8.871a401.962 401.962 0 012.04-5.438c.922-2.369 1.908-4.701 3.067-6.94 1.155-2.228 2.507-4.355 4.203-6.184a17.959 17.959 0 016.04-4.321c1.154-.5 2.358-.891 3.602-1.179 1.247-.299 2.494-.459 3.806-.619 2.562-.293 5.17-.43 7.768-.37 2.593.072 5.201.314 7.767.804a41.112 41.112 0 017.52 2.148 33.433 33.433 0 013.556 1.631c.66.357 1.308.748 1.94 1.144a60.671 60.671 0 00-5.783-1.12c-2.505-.34-5.022-.546-7.548-.554a41.968 41.968 0 00-7.518.605c-1.234.229-2.462.51-3.657.879-1.189.385-2.374.796-3.495 1.346l-.428.2-.409.22-.834.446a7.211 7.211 0 01-.16.099l-.135.083c-.426.26-.849.519-1.272.826a21.485 21.485 0 00-2.844 2.419c-1.747 1.758-3.199 3.77-4.484 5.86-1.274 2.093-2.401 4.282-3.445 6.49a244.342 244.342 0 00-2.297 4.989c-.25.555-.502 1.111-.754 1.666-1.02 2.218-2.048 4.419-3.182 6.555-1.137 2.146-2.369 4.231-3.795 6.177a27.365 27.365 0 01-5.005 5.166c-1.877 1.518-3.989 2.757-6.192 3.758a31.938 31.938 0 01-6.99 2.174c-2.41.478-4.881.668-7.358.667a38.368 38.368 0 01-3.42-.165 36.094 36.094 0 004.393-.442l-.043.009z" fill="#F2CAB3"/></svg>