<svg width="342" height="365" fill="none" xmlns="http://www.w3.org/2000/svg"><path d="M338.891 305.157c-.832-2.077-1.817-4.106-2.996-6.016-1.179-1.91-2.525-3.727-4.074-5.358a29.264 29.264 0 00-5.128-4.371c-1.869-1.243-3.897-2.287-6.022-3.025-.528-.198-1.07-.351-1.603-.516-.551-.141-1.084-.306-1.64-.414-1.096-.25-2.217-.399-3.343-.515-2.235-.193-4.473-.159-6.698-.043-2.224.117-4.437.361-6.65.605-2.211.254-4.408.527-6.605.736-2.196.219-4.403.376-6.605.371-2.202-.005-4.402-.182-6.54-.681a17.937 17.937 0 01-3.114-.996c-.496-.193-.991-.451-1.495-.696l-.704-.404-.358-.206-.339-.221c-.927-.58-1.787-1.268-2.628-1.97a28.444 28.444 0 01-2.354-2.307 37.043 37.043 0 01-3.944-5.284 47.428 47.428 0 01-1.753-3.12 17.877 17.877 0 002.102 2.469 19.108 19.108 0 007.15 4.45c.183.065.347.144.537.186l.552.151c.371.097.742.193 1.126.299.379.084.764.136 1.151.198l.585.091.298.045.031-.005s.111.024.078.019l.066.01.141.007c.38.021.759.041 1.149.059.388.008.833-.026 1.249-.044.212-.016.427-.01.626-.044l.615-.107c.41-.05.832-.091 1.23-.213a14.853 14.853 0 004.7-1.941 15.895 15.895 0 003.917-3.425 15.805 15.805 0 002.572-4.621l.214-.627c.07-.216.109-.426.166-.651l.156-.649.073-.324.05-.331.09-.659.04-.329.025-.166.006-.087s.002.011.007-.086l-.008-.042c.014-.421.049-.835.038-1.273-.038-.466-.044-.937-.111-1.387l-.116-.666c-.038-.219-.076-.438-.136-.664a12.315 12.315 0 00-.908-2.515 12.74 12.74 0 00-3.242-4.149 12.604 12.604 0 00-4.547-2.443l-1.244-.3c-.428-.055-.858-.12-1.287-.174l-.605-.024a4.975 4.975 0 00-.623 0 8.88 8.88 0 00-1.276.135c-.829.112-1.619.388-2.374.68-.733.352-1.462.736-2.085 1.23-.649.467-1.192 1.054-1.715 1.628-.484.62-.921 1.254-1.253 1.945a10.3 10.3 0 00-1.109 4.259c.013.76.065 1.491.258 2.177.062.354.213.671.325 1.006.141.319.272.64.453.941.668 1.194 1.604 2.191 2.665 2.865a8.09 8.09 0 003.317 1.229c1.091.165 2.22.045 3.139-.286a6.57 6.57 0 002.286-1.373 6.164 6.164 0 001.309-1.686c.158-.263.248-.547.358-.781.086-.251.154-.477.215-.681.027-.155.058-.289.078-.421.117-.439.152-.917.069-1.397a3.26 3.26 0 00-6.422 1.113 3.259 3.259 0 003.767 2.653c.125-.022.24-.042.361-.084-.147.143-.294.287-.464.423a5.816 5.816 0 01-1.938 1.023 5.66 5.66 0 01-2.551.152 7.374 7.374 0 01-2.769-1.045c-.891-.554-1.677-1.373-2.286-2.351-.16-.241-.271-.511-.414-.776-.101-.272-.235-.55-.306-.838-.036-.144-.084-.297-.119-.441l-.08-.458a3.286 3.286 0 01-.057-.452l-.035-.455a8.819 8.819 0 01.864-3.874c.278-.627.684-1.202 1.113-1.759.467-.532.968-1.048 1.562-1.462.568-.442 1.218-.78 1.884-1.088.686-.258 1.396-.499 2.133-.584.375-.065.738-.074 1.1-.094.179-.02.376-.001.581.007l.597.036c.364.055.74.118 1.106.184.371.097.742.193 1.126.299a11.19 11.19 0 014.02 2.319 11.149 11.149 0 012.76 3.783c.338.714.566 1.468.741 2.232.055.195.067.386.101.584l.08.587c.046.389.034.756.068 1.136-.004.409-.049.835-.062 1.256l-.189 1.138-.045.298-.078.292-.159.575c-.052.192-.095.381-.158.575l-.216.552a14.067 14.067 0 01-2.323 4.073 14.825 14.825 0 01-3.479 3.038c-1.3.805-2.696 1.422-4.152 1.76-.356.116-.726.148-1.089.221l-.542.094c-.178.031-.362.02-.531.038-.361.02-.697.067-1.064.056-.388-.008-.767-.028-1.145-.038l-.141-.008-.062.011-.035-.015-.275-.039-.54-.078c-.352-.046-.712-.081-1.057-.15a27.22 27.22 0 01-1.031-.25l-.516-.126c-.167-.035-.331-.114-.5-.16a18.35 18.35 0 01-6.734-3.91 18.095 18.095 0 01-4.001-5.306c-.889-1.788-1.439-3.475-1.666-4.906-.061-.354-.152-.692-.175-1.01l-.021-.126c.74-2.918 1.029-5.962.988-8.992a46.539 46.539 0 00-.34-4.878l-.159-1.228-.187-1.202-.236-1.236-.296-1.215a30.729 30.729 0 00-1.965-5.273c.061.108.123.215.197.331.228.326.475.701.768 1.091.151.188.314.385.477.582.165.208.33.416.536.616.196.202.394.415.592.627.208.211.446.406.677.623.116.109.242.216.357.325l.385.298c.26.202.514.426.804.612.29.186.581.382.885.587.335.2.641.351.962.531.668.325 1.42.634 2.187.845 1.545.43 3.268.582 5.01.345 1.743-.227 3.5-.874 5.056-1.873a12.643 12.643 0 003.882-3.999l.026-.037-.004-.021.036-.039.042-.071.081-.154.163-.296c.107-.19.206-.422.295-.652.089-.23.19-.452.246-.687.069-.226.147-.454.193-.688.225-.93.261-1.902.173-2.842-.166-1.892-.988-3.66-2.169-5.022a8.82 8.82 0 00-2.033-1.698l-.072-.041-.037-.026-.036-.026-.021.004-.133-.084-.27-.136c-.178-.098-.417-.175-.614-.258a6.559 6.559 0 00-1.258-.319c-1.686-.245-3.337.202-4.541 1.065a6.62 6.62 0 00-1.506 1.474c-.377.548-.687 1.117-.838 1.733a4.367 4.367 0 00-.081 1.763c-.013.239-.004.473.037.713a3.26 3.26 0 006.423-1.112 3.25 3.25 0 00-3.765-2.643 3.29 3.29 0 00-1.304.537c.083-.143.178-.278.283-.414a5.466 5.466 0 011.316-1.204c1.031-.683 2.414-1.073 3.827-.846.344.059.702.147 1.035.272.164.079.309.108.499.214l.273.146.131.074.097.069c.66.401 1.255.92 1.794 1.492 1.045 1.193 1.797 2.748 1.947 4.417.08.834.055 1.686-.134 2.513-.102.404-.211.831-.372 1.202-.074.195-.139.378-.254.581l-.162.307-.08.153-.042.072-.01.002-.024.047a11.653 11.653 0 01-3.554 3.727c-1.425.945-3.032 1.588-4.666 1.828-1.621.249-3.24.142-4.702-.238-.74-.183-1.398-.444-2.06-.737-.32-.17-.67-.335-.945-.492-.3-.184-.588-.359-.866-.536-.288-.176-.538-.379-.796-.571a11.695 11.695 0 00-.381-.277l-.354-.304c-.227-.197-.465-.392-.67-.581-.206-.201-.402-.403-.596-.595-.205-.19-.368-.387-.542-.582-.163-.197-.322-.373-.481-.55-.29-.368-.544-.721-.781-1.034-.207-.329-.397-.618-.56-.88-.16-.241-.266-.48-.373-.665a12.28 12.28 0 00.114-4.796c-.148-.854-.402-1.701-.694-2.519-.323-.814-.686-1.609-1.138-2.357-.874-1.513-1.972-2.889-3.187-4.138-1.215-1.25-2.556-2.359-3.955-3.372-1.391-1.025-2.857-1.92-4.342-2.747-1.477-.839-3.019-1.559-4.514-2.255-.776-.327-1.532-.658-2.302-.954-.769-.285-1.531-.593-2.304-.835-3.066-1.025-6.125-1.762-9.064-2.176-2.939-.414-5.748-.571-8.342-.487-2.587.072-4.951.31-7.026.669l-.5.087a70.807 70.807 0 00-8.643.134 14.999 14.999 0 00-4.029-6.772 14.515 14.515 0 00-2.683-2.036c-.489-.28-.987-.548-1.499-.781-.14-.062-.245-.108-.396-.178l-.381-.149a9.741 9.741 0 00-.821-.276c-2.187-.663-4.56-.66-6.749-.034a12.036 12.036 0 00-5.706 3.575 12.354 12.354 0 00-1.882 2.837c-.49 1.018-.839 2.163-.944 3.297a9.77 9.77 0 001.669 6.472c-.67.288-1.326.595-1.992.903a43.332 43.332 0 00-5.972-4.224 43.349 43.349 0 00-6.023-2.907c-2.085-.819-4.236-1.52-6.445-1.996a42.954 42.954 0 00-6.682-.946c-2.247-.137-4.495-.037-6.705.227-2.211.254-4.365.778-6.438 1.459-.515.185-1.038.33-1.539.534-.502.205-1.003.41-1.494.613-.502.205-.982.471-1.469.695l-.723.35c-.238.117-.451.25-.687.377-.449.26-.9.51-1.338.768l-.108.062-.076.056-.164.103-.328.218-.646.423-.646.423c-.212.144-.419.309-.62.451-.409.307-.819.603-1.228.91-1.573 1.271-3.075 2.583-4.374 4.01-2.636 2.828-4.671 5.895-6.11 8.935-.096.188-.182.375-.278.563-.086.186-.16.382-.245.568-.16.382-.333.745-.482 1.125-.29.747-.582 1.474-.809 2.211-.252.72-.449 1.441-.652 2.13-.18.697-.363 1.373-.495 2.039a43.248 43.248 0 00-.933 6.955 41.496 41.496 0 00.03 4.513c.015.083.015.148.019.233a117.286 117.286 0 01-6.418 1.573c-11.06 2.366-21.924 2.691-31.556.71a59.744 59.744 0 01-6.968-1.852 63.971 63.971 0 01-3.276-1.182c-.532-.219-1.05-.419-1.573-.65a41.29 41.29 0 01-.79-.347l-.384-.169-.386-.18c-4.082-1.869-7.785-4.029-10.971-6.428-3.186-2.4-5.874-5.025-7.979-7.751a33.759 33.759 0 01-4.683-8.193 33.459 33.459 0 01-1.966-7.387 36.185 36.185 0 01-.38-5.665c.021-1.549.129-2.726.206-3.523.087-.799.145-1.206.145-1.206a.331.331 0 00-.653-.112l-.055.364a33.682 33.682 0 00-1.827 4.705 39.403 39.403 0 00-1.254 5.347 34.235 34.235 0 00-.442 5.507c.01 1.855.19 3.702.572 5.535a24.64 24.64 0 001.717 5.326c.384.857.817 1.683 1.3 2.49.122.205.231.4.375.611.13.193.237.378.378.568l.414.594.42.561c1.148 1.485 2.433 2.83 3.78 4.099a61.93 61.93 0 004.197 3.587c2.876 2.282 5.886 4.347 8.884 6.403 2.998 2.057 6.027 4.044 8.974 6.12 1.47 1.044 2.94 2.088 4.362 3.172a66.574 66.574 0 014.123 3.407c1.312 1.19 2.55 2.445 3.614 3.817 1.054 1.374 1.945 2.861 2.425 4.453l.01.062a18.072 18.072 0 011.042 8.62 18.151 18.151 0 01-1.066 4.262 17.26 17.26 0 01-2.087 3.882 18.181 18.181 0 01-1.388 1.721l-.19.205-.081.089-.1.103c-.139.132-.276.273-.404.403l-.389.357-.424.342a12.407 12.407 0 01-3.833 2.048 12.85 12.85 0 01-4.32.608 12.233 12.233 0 01-6.199-1.942 13.338 13.338 0 01-1.716-1.355l-.195-.192-.089-.081-.103-.1a8.447 8.447 0 01-.372-.408 7.966 7.966 0 01-.64-.844 8.963 8.963 0 01-.93-1.9 8.462 8.462 0 01-.342-4.147c.212-1.379.79-2.691 1.618-3.801.2-.27.452-.55.66-.779l.202-.196.176-.16c.122-.106.253-.215.388-.303a5.813 5.813 0 011.792-.879 5.775 5.775 0 013.949.293 5.623 5.623 0 011.68 1.147c.441.439.812 1.029.986 1.664a3.93 3.93 0 01.08 1.95 1.999 1.999 0 00-2.1-1.031 1.986 1.986 0 00-1.621 2.298 1.986 1.986 0 003.139 1.26c.083-.015.177-.031.251-.098 1.244-1.127 1.815-2.975 1.434-4.68a5.014 5.014 0 00-1.195-2.315 7.17 7.17 0 00-2.024-1.517 7.207 7.207 0 00-5.008-.517 7.315 7.315 0 00-2.335 1.091 5.935 5.935 0 00-.51.4l-.251.226-.203.196c-.318.334-.568.624-.822.958-1.016 1.324-1.662 2.927-1.892 4.577a9.898 9.898 0 00.567 4.881c.295.776.689 1.502 1.161 2.182.25.332.49.656.779.96.147.167.287.293.418.432l.103.1.128.117.227.197a14.205 14.205 0 004.074 2.503c1.488.59 3.073.938 4.663 1.006a13.911 13.911 0 004.737-.616 13.908 13.908 0 004.246-2.206l.473-.371.467-.403c.149-.133.277-.263.425-.396l.1-.103c.056-.052.073-.077.12-.117l.199-.217a20.806 20.806 0 001.531-1.821 20.18 20.18 0 002.344-4.141 19.553 19.553 0 001.278-4.589 19.86 19.86 0 00-.23-7.151c.203.362.42.744.619 1.149.334.693.65 1.465.905 2.312.537 1.677.7 3.667.354 5.766-.366 2.102-1.289 4.279-2.632 6.38-.35.522-.688 1.052-1.094 1.562-.191.259-.38.528-.584.778-.204.25-.417.512-.63.764l-.32.388-.334.369c-.224.253-.449.507-.675.75-.46.509-.96 1.025-1.44 1.548a354.18 354.18 0 00-5.968 6.463c-.996 1.128-2.004 2.258-2.995 3.417a153.758 153.758 0 00-2.905 3.561 78.801 78.801 0 00-2.831 3.871c-.125.086-.26.174-.395.262a26.09 26.09 0 00-.78.521 18.05 18.05 0 01-3.924 1.71 17.114 17.114 0 01-4.954.6 15.693 15.693 0 01-5.384-1.139c-.433-.204-.874-.396-1.308-.61-.205-.126-.42-.25-.634-.374l-.321-.18-.156-.091-.083-.05-.037-.026-.638-.458c-.1-.08-.23-.153-.32-.235l-.253-.224c-.167-.154-.34-.285-.5-.461a18.655 18.655 0 00-.498-.525 10.568 10.568 0 01-2.506-5.233 10.746 10.746 0 01-.087-2.979c.021-.25.086-.498.12-.739l.065-.366.098-.36c.077-.239.131-.485.208-.723l.278-.692c.077-.239.213-.445.323-.679l.168-.329.04-.082.025-.037-.003-.021s-.023.058.002.011l.11-.17.22-.338.11-.17.108-.126c.154-.166.26-.356.447-.517a7.09 7.09 0 012.333-1.595c1.734-.719 3.698-.726 5.297-.048l.584.274c.19.107.362.227.542.336l.071.041.01-.002.006.031.147.104.273.21c.131.138.257.245.378.385a4.75 4.75 0 011.038 1.903 5.057 5.057 0 01-.358 3.635l-.097.189-.048.094.004.021-.037.038c-.094.135-.187.28-.24.342l-.089.112c.154-.477.2-1.011.109-1.542a3.259 3.259 0 00-6.423 1.112 3.26 3.26 0 002.913 2.683c.53.208 1.302.386 2.246.255.573-.1 1.205-.295 1.801-.699.142-.11.298-.201.437-.333.074-.066.14-.121.214-.187.075-.067.145-.154.218-.231.164-.168.24-.288.335-.423l.034-.049.043-.061.016-.035.076-.12.15-.251c.397-.681.663-1.5.759-2.375a6.141 6.141 0 00-.334-2.732 6.462 6.462 0 00-1.64-2.464c-.182-.183-.414-.347-.626-.514l-.29-.186-.145-.093-.071-.041-.047-.024-.083-.039c-.223-.112-.448-.234-.673-.356-.232-.099-.475-.197-.706-.296a9.694 9.694 0 00-3.11-.589 8.894 8.894 0 00-3.252.564 8.664 8.664 0 00-2.93 1.806c-.227.178-.43.439-.638.657l-.152.177-.123.161-.245.321-.122.161-.044.061-.017.024-.024.048-.058.096-.226.371c-.15.252-.322.496-.437.763l-.378.795c-.115.267-.205.551-.306.836a13.09 13.09 0 00-.152.424l-.107.437c-.068.291-.158.575-.203.872-.226 1.177-.25 2.404-.138 3.608.124 1.213.467 2.388.932 3.52.473 1.12 1.164 2.138 1.929 3.079.2.223.41.444.62.665.21.221.46.425.7.63l.353.304c.113.098.222.165.332.243l.65.467.073.051.025.018.047.024.096.058.19.107.37.215c.25.139.5.278.747.407.515.244 1.035.454 1.544.666.518.2 1.058.343 1.57.512.264.094.528.134.795.184.266.051.524.113.79.164a16.76 16.76 0 003.121.221c.508.02 1.002-.044 1.497-.098.243-.021.485-.052.729-.072.24-.042.477-.094.705-.144.938-.163 1.81-.464 2.63-.745.401-.166.802-.332 1.182-.495.38-.162.727-.394 1.082-.573.128-.066.245-.139.373-.205a18.7 18.7 0 00-.45.808c-.721 1.359-1.356 2.778-1.811 4.242-.456 1.463-.718 2.989-.713 4.502-.019 1.505.295 3.007.752 4.345.105.357.267.672.39 1.016.164.326.297.657.49.967.335.629.768 1.208 1.237 1.749.948 1.07 2.173 1.878 3.499 2.281 1.328.414 2.711.4 3.96.109a6.98 6.98 0 003.27-1.768c.442-.42.81-.903 1.096-1.424l.058-.096.024-.047.017-.025s-.007.023.033-.059l.079-.164c.044-.115.101-.221.148-.326.046-.105.09-.22.147-.326.043-.126.086-.251.139-.378.727-1.94.695-3.802.305-5.247a6.427 6.427 0 00-.862-1.815c-.181-.237-.348-.455-.538-.626-.172-.185-.368-.322-.528-.445-.163-.133-.337-.21-.468-.284a1.854 1.854 0 00-.37-.15l-.309-.108c-.034-.015-.066-.01-.11-.013a1.954 1.954 0 00-1.117-.128 1.986 1.986 0 00-1.62 2.298 1.986 1.986 0 003.881.154l.007.042c.208.393.399.875.488 1.45.099.573.115 1.225.047 1.945-.062.697-.28 1.486-.57 2.234a2.103 2.103 0 00-.1.286c-.046.104-.103.211-.15.315-.056.107-.103.211-.157.328l-.08.164c.033-.059 0 0-.003-.021l-.01.002-.014.045-.043.062a4.087 4.087 0 01-.754.978c-.616.6-1.443 1.098-2.39 1.39a5.804 5.804 0 01-3.076.104 5.733 5.733 0 01-2.889-1.679 7.059 7.059 0 01-1.07-1.467c-.163-.261-.29-.561-.425-.839-.104-.293-.243-.601-.327-.898-.401-1.261-.645-2.55-.6-3.899.047-1.339.317-2.695.787-4.011.47-1.315 1.119-2.597 1.87-3.843 1.5-2.492 3.358-4.853 5.314-7.134a151.829 151.829 0 012.978-3.392 401.716 401.716 0 013.033-3.326c2.012-2.205 4.012-4.365 5.908-6.497.477-.533.947-1.044 1.422-1.587.232-.277.465-.542.707-.82l.349-.404.324-.421c.22-.285.43-.558.65-.832.21-.283.406-.574.602-.866.407-.564.755-1.161 1.115-1.749.674-1.19 1.285-2.38 1.705-3.612.42-1.231.745-2.457.868-3.67.279-2.42-.127-4.7-.846-6.496-.723-1.818-1.672-3.209-2.502-4.278a27.842 27.842 0 00-1.178-1.406 12.028 12.028 0 00-.597-1.528c.313.321.63.664.972 1.023a71.6 71.6 0 015.286 6.404c1.876 2.583 3.805 5.662 5.322 9.273 1.48 3.586 2.553 7.8 1.79 12.203-.05.267-.1.533-.163.791-.05.266-.101.532-.183.804-.072.27-.153.542-.225.812-.082.271-.142.54-.257.806-.199.528-.373 1.074-.603 1.607-.231.523-.449 1.065-.712 1.594-1.008 2.117-2.261 4.18-3.602 6.236-.424.653-.86 1.297-1.306 1.943a10.48 10.48 0 01-.633.378c-.508.292-1.117.494-1.763.67a7.516 7.516 0 01-2.046.215c-.71-.006-1.445-.157-2.14-.391-.173-.067-.355-.121-.519-.2l-.502-.235-.06-.033-.034-.015-.133-.084-.265-.169c-.137-.105-.26-.191-.385-.298a4.92 4.92 0 01-1.265-1.66c-.3-.623-.43-1.309-.449-1.972a5.099 5.099 0 01.35-1.885l.076-.184.12-.236c.038-.092.076-.12.109-.18.034-.048.057-.106.101-.157.166-.222.346-.424.543-.587.223-.2.476-.351.726-.459a2.003 2.003 0 00-.223 1.316 1.986 1.986 0 002.3 1.619 1.985 1.985 0 001.046-3.379.3.3 0 00-.13-.192l-.276-.167a4.547 4.547 0 00-.868-.365 4.215 4.215 0 00-1.492-.117 4.32 4.32 0 00-1.874.647 4.2 4.2 0 00-.89.755 6.359 6.359 0 00-.395.508l-.143.229-.017.024-.024.047-.01.002-.03.08-.072.141a5.866 5.866 0 00-.66 2.519 6.14 6.14 0 00.531 2.752 6.306 6.306 0 001.771 2.29c.2.159.43.312.636.448l.274.156.142.073.106.056.082.04.638.275c.22.091.435.151.661.219a8.55 8.55 0 002.653.313 8.739 8.739 0 002.43-.485c.19-.076.38-.152.56-.237l-1.527 2.164c-1.474 2.091-2.98 4.187-4.371 6.445l-.51.84-.476.908c-.151.306-.325.604-.466.907l-.408.93c-.129.312-.28.617-.385.936l-.337.97c-.245.633-.385 1.312-.56 1.975a17.976 17.976 0 00-.076 8.245c.593 2.741 1.986 5.268 3.826 7.332.226.251.447.535.691.771l.746.708.373.354.09.092.088.07.05.035.197.148.78.605c.272.2.605.389.895.575l.458.286c.153.081.307.161.469.23.316.149.623.311.939.46l.976.367c1.311.439 2.675.75 4.048.802l.51.03c.172.002.342-.006.515-.004.34-.016.685-.011 1.024-.038.673-.084 1.361-.139 2.018-.317 2.665-.547 5.08-1.92 7.005-3.703.238-.234.454-.475.682-.708l.335-.359.037-.038.072-.077.071-.087.14-.186c.183-.246.38-.473.557-.751l.537-.866a12.22 12.22 0 001.324-3.641c.266-1.259.27-2.537.109-3.775a11.45 11.45 0 00-1.031-3.535c-.532-1.088-1.173-2.126-1.986-2.972-.189-.225-.406-.424-.613-.624l-.32-.299-.154-.145-.075-.062-.037-.026-.085-.06c-.222-.165-.423-.334-.654-.488-.253-.16-.517-.318-.77-.478a9.857 9.857 0 00-6.462-1.038 9.748 9.748 0 00-2.92 1.063c-.452.24-.85.545-1.252.829-.373.322-.75.634-1.072 1.001l-.244.268-.064.065s-.053.063-.043.061l-.026.036-.105.137-.2.27-.095.135-.102.157c-.123.215-.27.422-.373.633-.103.212-.206.423-.299.632a7.534 7.534 0 00-.568 2.609c-.033.865.07 1.705.29 2.483.231.775.568 1.479.975 2.095a8.138 8.138 0 001.414 1.591l.05.045.04.036.024.017.097.069.186.14c.113.098.267.179.412.272.29.186.58.307.86.441.578.233 1.149.37 1.696.425.544.046 1.07.04 1.539-.041a5.96 5.96 0 002.253-.819 6.241 6.241 0 001.161-.92c.227-.243.342-.382.342-.382a.287.287 0 00.06-.278c.313-.419.456-.959.359-1.522a1.986 1.986 0 00-2.3-1.619 1.986 1.986 0 00.425 3.94 5.427 5.427 0 01-2.404.878c-.417.072-.875.033-1.355-.012a6.336 6.336 0 01-1.47-.422c-.235-.12-.491-.237-.711-.392-.11-.078-.23-.143-.355-.25l-.187-.15-.087-.071-.025-.017-.038-.036a7.35 7.35 0 01-1.194-1.435 7.343 7.343 0 01-.794-1.859 6.863 6.863 0 01.37-4.378c.087-.176.174-.352.272-.53.088-.176.202-.325.302-.492l.075-.121.108-.126.212-.262.105-.136.026-.037.055-.052.22-.221c.278-.316.62-.579.946-.861.355-.244.709-.499 1.104-.696a8.534 8.534 0 012.543-.88 8.467 8.467 0 015.517.976c.194.128.398.253.602.379.208.146.422.324.633.491l.075.062.039.037.142.136.27.264c.183.183.374.354.526.553.701.759 1.235 1.675 1.679 2.628.447.964.714 2.012.836 3.086.111 1.076.098 2.183-.133 3.264a10.732 10.732 0 01-1.169 3.111l-.429.686c-.153.23-.367.482-.552.718l-.14.185-.052.073-.027.027-.037.038-.3.31c-.2.206-.4.423-.612.621-1.716 1.563-3.864 2.74-6.208 3.221-.575.153-1.18.194-1.778.276-.297.019-.598.018-.908.028-.15.005-.299.009-.45.003l-.456-.028c-1.211-.048-2.408-.324-3.56-.714l-.862-.323c-.28-.134-.55-.27-.821-.406-.142-.072-.281-.133-.412-.207l-.374-.236c-.253-.16-.503-.299-.76-.48l-.781-.605-.198-.149-.048-.034-.091-.092-.347-.326-.68-.644c-.231-.218-.414-.465-.626-.697-1.655-1.87-2.913-4.11-3.443-6.551a16.265 16.265 0 01.05-7.456c.164-.608.282-1.23.511-1.827l.306-.901c.087-.305.242-.589.364-.879l.375-.87c.132-.291.29-.554.425-.835l.424-.836.5-.837c1.318-2.182 2.808-4.307 4.25-6.403 1.45-2.097 2.896-4.171 4.238-6.282 1.354-2.102 2.58-4.257 3.593-6.471 1.011-2.225 1.78-4.483 2.143-6.853.018-.143.055-.299.074-.442l.034-.424c.026-.284.041-.566.07-.839l.04-.447v-.429c-.006-.289-.001-.569-.008-.857-.012-.567-.089-1.133-.12-1.686-.096-.552-.158-1.099-.263-1.639-.415-2.15-1.106-4.155-1.92-6-1.617-3.701-3.703-6.753-5.672-9.32-1.982-2.576-3.898-4.648-5.517-6.31a70.847 70.847 0 00-2.094-2.041c-.364-.613-.755-1.2-1.162-1.752a26.286 26.286 0 00-1.511-1.842c.585.156 1.183.321 1.772.498 1.448.425 2.89.873 4.324 1.344 1.433.46 2.871.952 4.297 1.434 1.428.494 2.858.997 4.268 1.515 1.421.516 2.833 1.044 4.246 1.572 1.414.539 2.809 1.091 4.216 1.652l2.093.861 2.065.888c.677.312 1.364.622 2.022.948l.979.507c.307.161.655.369.976.55 2.546 1.491 4.949 3.275 7.033 5.328 2.097 2.063 3.889 4.414 5.167 7.015 1.286 2.589 2.024 5.423 2.123 8.293.096 2.848-.462 5.703-1.489 8.392a13.645 13.645 0 01-2.543 3.607 13.272 13.272 0 01-3.601 2.587 12.812 12.812 0 01-4.24 1.249 12.288 12.288 0 01-4.377-.283c-.192-.052-.402-.091-.573-.147l-.471-.176c-.317-.096-.638-.276-.964-.423l-.246-.119-.229-.143-.456-.275c-.311-.182-.578-.426-.872-.632-1.114-.913-2.003-2.079-2.634-3.365a10.11 10.11 0 01-.986-4.143c.003-.355.027-.713.04-1.07l.08-.529.041-.264.02-.132-.005-.032.01-.001.014-.046c.095-.381.19-.827.306-1.083.06-.15.1-.296.17-.448l.22-.467c.324-.604.705-1.196 1.187-1.698.221-.274.497-.483.746-.719.287-.2.548-.428.852-.598 1.169-.75 2.552-1.14 3.952-1.178.348.025.697-.003 1.042.066l.461.06.594.144c.59.177 1.209.466 1.768.842a5.949 5.949 0 012.311 3.238c.188.654.274 1.337.232 2.02-.003.172-.038.339-.051.513l-.028.209-.068.291c-.047.223-.092.338-.143.475-.031.134-.122.29-.182.44-.556 1.191-1.674 2.114-2.961 2.498a4.777 4.777 0 01-2.006.133l-.067-.01-.01.001s-.056-.011.021-.003l-.031.005-.149-.049c-.09-.028-.21-.039-.29-.068-.138-.051-.271-.071-.424-.152a3.376 3.376 0 01-.435-.215c.105-.018.212-.015.317-.033a3.26 3.26 0 002.655-3.765 3.259 3.259 0 00-6.422 1.112c.054.313.158.606.292.883.027.156.073.299.121.451a5.34 5.34 0 001.546 2.351c.364.302.757.588 1.2.791.202.115.464.198.704.285.114.034.202.051.305.087l.147.039.031-.005.07.03.021-.003.088.017a6.46 6.46 0 002.794-.055c1.838-.425 3.489-1.677 4.362-3.395.47-.886.678-1.792.775-2.721a7.7 7.7 0 00-.245-2.78 8.282 8.282 0 00-3.099-4.561 8.303 8.303 0 00-2.57-1.261l-.584-.146-.031.006c-.125-.043-.047-.024-.08-.029l-.021.003-.089-.017-.165-.025-.342-.048c-.454-.082-.915-.077-1.371-.106-1.833.017-3.681.509-5.24 1.487-.403.22-.76.518-1.132.786-.332.315-.7.605-1.004.958-.636.668-1.157 1.445-1.587 2.249l-.3.621c-.093.209-.17.448-.259.678-.183.493-.25.848-.354 1.242l-.019.078-.018.078.003.021-.013.046-.025.165-.05.331-.099.671c-.02.444-.048.899-.046 1.35a12.423 12.423 0 004.587 9.368c.367.259.708.554 1.092.788l.574.34c.096.059.192.117.287.165l.303.141c.408.187.798.388 1.252.534l.663.229c.216.07.394.104.596.154 3.432.844 7.117.356 10.238-1.214a15.673 15.673 0 007.158-7.346s.022-.058.029-.081c.288-.758.532-1.519.75-2.308.162.133.347.273.536.433.28.188.603.379.952.597.187.086.375.182.565.289.201.104.4.199.628.277.218.081.449.17.689.257.248.064.495.129.755.202.261.083.534.111.811.16.133.02.277.048.42.066.143.019.294.025.435.032 1.178.108 2.472.012 3.793-.356a10.73 10.73 0 003.817-1.959c.279-.253.567-.507.846-.759l.389-.421.181-.193c.064-.064.123-.16.185-.235l.374-.505c.121-.171.209-.348.319-.517.22-.339.38-.72.553-1.083.608-1.511.85-3.216.584-4.877-.223-1.657-.98-3.243-2.027-4.51l-.422-.453-.105-.111-.052-.055-.004-.021s.028.038-.073-.051l-.027-.028-.203-.18c-.22-.219-.638-.522-1.003-.77a7.832 7.832 0 00-2.285-.978 7.353 7.353 0 00-1.205-.199c-.4-.017-.8-.034-1.191.002a7.224 7.224 0 00-2.239.527c-.691.292-1.338.65-1.87 1.108-.286.21-.521.465-.76.7l-.027.026-.064.065-.037.038-.07.088-.133.162c-.082.089-.201.271-.304.418-.226.307-.349.586-.502.881a5.61 5.61 0 00-.32.882 5.934 5.934 0 00-.221 1.701 5.811 5.811 0 00.649 2.635 5.57 5.57 0 001.025 1.389c.065.064.116.109.177.152a3.259 3.259 0 002.93.985 3.251 3.251 0 002.645-3.764 3.257 3.257 0 00-3.756-2.655 3.173 3.173 0 00-1.456.649c.041-.135.08-.282.142-.421.065-.183.152-.359.249-.548.1-.167.215-.37.332-.497.062-.075.095-.135.204-.25l.145-.154.073-.077.036-.039s-.053.063-.028.027l.021-.004c.177-.159.339-.338.544-.459.377-.301.823-.518 1.295-.707.47-.2.991-.29 1.52-.338a5.206 5.206 0 011.62.116c.536.122 1.065.32 1.557.621.22.155.397.243.701.512l.201.169.04.047.079.083.315.331c.382.471.76.974 1.008 1.543l.101.208.081.222.172.432c.073.298.19.6.221.906.246 1.234.106 2.536-.314 3.703-.134.281-.221.586-.38.849-.074.131-.144.283-.22.403l-.239.353c-.043.061-.066.118-.13.183l-.169.201-.302.364c-.23.222-.45.442-.671.652a9.725 9.725 0 01-3.078 1.821 9.505 9.505 0 01-3.206.523c-.129.001-.256.012-.376.001l-.371-.032c-.24-.023-.489-.034-.712-.081a27.018 27.018 0 00-.675-.119c-.215-.06-.419-.121-.621-.172-.202-.051-.397-.124-.58-.189-.185-.075-.358-.142-.53-.209-.33-.168-.625-.321-.896-.456-.253-.16-.482-.303-.674-.42a1.017 1.017 0 01-.171-.121c.463-1.979.68-4.013.583-6.057a21.693 21.693 0 00-.73-4.713 23.852 23.852 0 00-1.732-4.422c-1.453-2.807-3.43-5.298-5.681-7.441-2.262-2.152-4.798-3.956-7.5-5.484-.344-.187-.642-.361-1.019-.553l-1.046-.517c-.701-.329-1.407-.625-2.107-.944l-2.115-.868-2.13-.822a236.907 236.907 0 00-8.6-3.029c-1.436-.481-2.879-.94-4.324-1.408-1.452-.447-2.895-.905-4.354-1.329a104.22 104.22 0 00-4.387-1.214c-.732-.196-1.481-.366-2.23-.537l-.835-.167a31.873 31.873 0 00-1.204-1.186c-1.349-1.28-2.776-2.45-4.218-3.584a102.493 102.493 0 00-4.42-3.259c-.305-.216-.621-.429-.925-.634 3.658 1.47 7.846 2.891 12.469 4.226 4.735 1.359 9.943 2.539 15.477 3.609a262.592 262.592 0 0017.512 2.655c6.078.74 12.348 1.478 18.645 2.556 3.532.612 7.082 1.328 10.575 2.279a38.815 38.815 0 013.052 2.927c1.119 1.19 2.294 2.64 3.308 4.342 1.004 1.704 1.829 3.74 1.863 5.923-.007 2.255-.358 4.688-.705 7.216-.167 1.263-.351 2.561-.462 3.901-.102 1.337-.182 2.736.116 4.208.149.736.432 1.503.946 2.176a4.364 4.364 0 002.034 1.45c.776.263 1.529.337 2.295.354l.257-.001.308-.021c.212-.016.402-.038.6-.072a6.591 6.591 0 001.158-.319 5.57 5.57 0 001.997-1.365 6.41 6.41 0 001.233-1.995c.569-1.429.71-2.913.68-4.325-.032-1.422-.259-2.799-.596-4.125a26.608 26.608 0 00-1.282-3.802c-1.031-2.419-2.331-4.598-3.74-6.532a37.98 37.98 0 00-4.419-5.052 39.354 39.354 0 00-4.369-3.589c1.243.418 2.482.879 3.698 1.388 2.953 1.238 5.791 2.742 8.328 4.621 2.538 1.879 4.775 4.131 6.547 6.679.434.644.857 1.289 1.243 1.963.196.331.372.665.559.998l.275.532.13.256.132.267a57.618 57.618 0 011.879 4.279c1.133 2.884 2.018 5.821 2.582 8.771.565 2.95.818 5.901.658 8.762-.159 2.86-.753 5.635-1.851 8.101-1.087 2.463-2.714 4.601-4.698 6.168-1.982 1.578-4.272 2.618-6.552 3.217-1.143.284-2.285.449-3.378.402-1.103-.045-2.153-.281-3.062-.757a6.7 6.7 0 01-2.286-1.912c-.596-.776-1.019-1.669-1.293-2.566a8.176 8.176 0 01-.366-2.673c.006-.216.024-.423.062-.633.013-.11.03-.199.056-.3l.037-.156.039-.147a5.37 5.37 0 01.451-1.119c.767-1.399 2.031-2.348 3.256-2.839 1.246-.495 2.486-.527 3.453-.211.307.097.565.224.813.353-.17.008-.341.016-.518.046a3.26 3.26 0 00-2.655 3.766 3.259 3.259 0 006.422-1.113 3.22 3.22 0 00-1.595-2.267 5.007 5.007 0 00-2.221-1.536c-1.142-.393-2.589-.378-4.012.147-1.411.534-2.852 1.578-3.774 3.197a6.045 6.045 0 00-.557 1.309c-.023.058-.034.114-.055.182l-.046.168c-.03.135-.052.256-.074.378a5.421 5.421 0 00-.075.743 9.064 9.064 0 00.361 3.017c.293 1.012.747 2.018 1.419 2.921a7.8 7.8 0 002.639 2.279c1.064.567 2.287.87 3.533.934 1.248.073 2.508-.091 3.736-.379 2.453-.596 4.932-1.659 7.106-3.366 1.828-1.411 3.384-3.28 4.552-5.403-.2.893-.442 1.847-.742 2.844-.633 2.116-1.503 4.467-2.753 6.862a31.906 31.906 0 01-5.009 7.102c-2.1 2.264-4.677 4.309-7.624 5.957-5.88 3.315-13.203 4.937-20.405 4.585a33.965 33.965 0 01-5.325-.677 26.098 26.098 0 01-2.555-.674l-.617-.215c-.197-.084-.378-.138-.587-.231l-.313-.128-.139-.062-.152-.07c-.188-.096-.396-.178-.584-.274-3.078-1.528-5.659-3.904-7.147-6.726-1.496-2.81-1.786-6.098-.959-8.763a7.189 7.189 0 012.263-3.246 7.297 7.297 0 013.382-1.552 7.737 7.737 0 011.755-.1c.13.01.259.009.437.043l.219.026.198.03c.267.051.514.115.765.2a5.06 5.06 0 012.346 1.762c.552.774.874 1.641.954 2.475.037.208.029.413.032.617-.005.097-.002.172-.014.292l-.013.174.008.041.003.021-.02.068a2.974 2.974 0 01-.038.275c-.008-.106-.028-.22-.046-.325a3.258 3.258 0 00-3.757-2.655 3.266 3.266 0 00-2.655 3.766 3.273 3.273 0 002.359 2.585.32.32 0 00.131.074l.335.071a4.345 4.345 0 002.792-.43c.619-.332 1.312-.86 1.792-1.684.241-.406.463-.863.576-1.387l.025-.101-.003-.021.013-.045-.007-.042.046-.169c.024-.111.04-.265.06-.397.028-.273.047-.534.042-.812a6.524 6.524 0 00-1.035-3.437 6.76 6.76 0 00-3.176-2.648 8.011 8.011 0 00-1.079-.339l-.278-.059-.265-.041c-.145-.028-.352-.046-.548-.066a9.125 9.125 0 00-2.305.088 9.463 9.463 0 00-4.427 1.969 9.485 9.485 0 00-3.016 4.225c-1.141 3.395-.68 7.297 1.085 10.608a16.77 16.77 0 003.467 4.454c1.394 1.293 3.008 2.366 4.743 3.203.213.114.443.203.654.306l.164.079.174.077.323.126c.209.093.46.178.689.257l.685.235c.92.291 1.852.527 2.786.709 1.869.374 3.775.591 5.677.659a42.573 42.573 0 0011.241-1.067c3.632-.854 7.106-2.186 10.202-3.967a35.622 35.622 0 004.355-2.943 33.56 33.56 0 003.679-3.438 33.747 33.747 0 005.224-7.537c.639-1.27 1.207-2.516 1.654-3.72.239-.6.436-1.203.637-1.774.19-.58.371-1.148.522-1.7a48.412 48.412 0 001.25-5.808c.233-1.629.376-2.909.441-3.779.062-.88.101-1.337.101-1.337a.777.777 0 00-.141-.502c.073-.571.134-1.15.174-1.726.197-3.017-.026-6.102-.587-9.159-.554-3.071-1.435-6.116-2.576-9.106a61.242 61.242 0 00-1.894-4.426l-.134-.277-.134-.278-.264-.533c-.192-.364-.386-.738-.598-1.099a33.968 33.968 0 00-1.309-2.102c-1.222-1.784-2.666-3.423-4.255-4.908a42.1 42.1 0 013.129 1.325c1.248.568 2.609 1.298 4.067 2.151a44.56 44.56 0 014.474 3.078 46.187 46.187 0 014.522 4.035 48.892 48.892 0 014.225 4.924 48.421 48.421 0 013.629 5.639c1.071 1.972 2.037 4.015 2.803 6.083.766 2.067 1.367 4.174 1.667 6.215.146 1.026.221 2.022.139 2.97a9.866 9.866 0 01-.632 2.738 10.1 10.1 0 01-3.06 4.158c-1.264 1.013-2.673 1.622-3.957 1.833a6.664 6.664 0 01-3.354-.267 6.917 6.917 0 01-1.539-.764 1.983 1.983 0 001.612-2.725 1.99 1.99 0 00-3.679 1.517 2.1 2.1 0 00.649.832l.145.157c.091.091.259.255.462.435.427.355 1.075.876 2.068 1.273.973.411 2.284.667 3.759.498 1.474-.17 3.09-.761 4.542-1.86a11.315 11.315 0 003.602-4.563c.414-.962.704-2.01.837-3.106.141-1.109.075-2.235-.073-3.336-.296-2.203-.892-4.407-1.664-6.57a45.865 45.865 0 00-2.838-6.344c-2.214-4.103-4.997-7.892-8.081-11.007a42.542 42.542 0 00-4.737-4.159 40.293 40.293 0 00-4.733-3.087 35.621 35.621 0 00-2.145-1.099c1.193.191 2.431.331 3.727.374 2.323.081 4.825-.105 7.318-.838 2.487-.709 4.951-2.048 6.92-4.01.422-.416.807-.858 1.176-1.33.08-.035.158-.081.236-.127.225-.125.479-.211.73-.309.252-.097.523-.208.795-.309 1.122-.345 2.411-.654 3.849-.72 1.431-.044 2.989.083 4.569.529a13.89 13.89 0 014.569 2.256c.339.285.697.556 1.028.852.311.311.623.622.936.944.151.188.3.366.451.555.07.095.161.187.219.273l.177.281c.118.183.244.354.355.561l.319.599c.379.825.69 1.694.827 2.604.136.91.178 1.837.046 2.75-.132.914-.363 1.812-.735 2.639-.393.83-.858 1.619-1.461 2.292-.129.183-.307.332-.461.498l-.239.235-.053.063-.028.026-.01.002-.13.119-.272.229-.142.111-.124.086c-.175.105-.324.238-.524.326a6.273 6.273 0 01-2.39.769c-1.654.189-3.292-.278-4.522-1.181-.148-.114-.299-.238-.447-.352-.13-.128-.272-.264-.401-.392l-.051-.045-.024-.017-.097-.123-.201-.234c-.09-.145-.185-.257-.264-.405a4.428 4.428 0 01-.592-1.872 4.444 4.444 0 01.641-2.622 3.174 3.174 0 00.259 1.994 3.26 3.26 0 004.338 1.546 3.244 3.244 0 001.537-4.334 3.243 3.243 0 00-2.962-1.848 3.956 3.956 0 00-1.978.171c-.141.056-.283.103-.42.18a3.129 3.129 0 00-.43.246c-.165.104-.258.184-.371.279-.161.124-.249.236-.379.355a5.6 5.6 0 00-1.173 1.781 5.565 5.565 0 00-.4 2.344c.037.831.284 1.7.722 2.494.109.196.264.405.394.597l.191.235.096.123.053.055.026.028.063.054c.156.155.324.319.492.483l.536.433c1.502 1.103 3.518 1.709 5.534 1.446a7.703 7.703 0 002.913-.977c.227-.114.454-.293.676-.439l.173-.116.142-.11.272-.23.14-.12.047-.041.02-.003.035-.049.064-.065.264-.271c.171-.191.367-.364.524-.574.68-.783 1.2-1.689 1.636-2.644.413-.962.666-1.983.809-3.016.131-1.043.078-2.096-.089-3.119-.178-1.031-.531-2.011-.969-2.933l-.375-.676c-.125-.225-.29-.433-.436-.654l-.226-.315c-.072-.106-.151-.189-.231-.282-.149-.178-.311-.365-.459-.543l-.039-.036-.004-.021-.049-.034-.064-.064-.13-.128-.269-.254-.529-.509c-.365-.313-.758-.599-1.133-.899a14.837 14.837 0 00-4.963-2.306 15.15 15.15 0 00-4.875-.433c-1.515.123-2.867.496-4.022.9-.249.108-.489.214-.72.307.197-.291.381-.592.565-.892.684-1.202 1.295-2.51 1.581-3.955a10.19 10.19 0 00-.089-4.363c-.343-1.421-.992-2.747-1.813-3.893a13.452 13.452 0 00-6.553-4.853c-1.278-.433-2.598-.677-3.92-.684a10.003 10.003 0 00-3.786.709 10.822 10.822 0 00-3.132 1.884 10.284 10.284 0 00-2.155 2.627c-1.101 1.886-1.464 4.009-1.096 5.824a6.21 6.21 0 001.034 2.375 5.552 5.552 0 001.61 1.481c.876.535 1.68.772 2.302.889.435.161.907.219 1.392.167a.59.59 0 00.377-.055 3.257 3.257 0 002.522-3.731c-.298-1.719-1.994-2.96-3.767-2.653-1.772.307-2.865 1.87-2.679 3.565a4.363 4.363 0 01-1.105-2.352c-.214-1.358.143-3.019 1.074-4.521.922-1.501 2.463-2.831 4.339-3.531.967-.372 1.97-.534 3.045-.527 1.063-.002 2.162.205 3.223.568 2.125.738 4.142 2.148 5.535 4.054.691.953 1.219 2.02 1.501 3.152a7.935 7.935 0 01.107 3.47c-.208 1.152-.723 2.271-1.308 3.36a14.203 14.203 0 01-2.165 2.939c-1.683 1.752-3.826 2.96-6.062 3.69-2.246.733-4.564.994-6.768.979-2.204-.015-4.293-.297-6.197-.687a39.725 39.725 0 01-7.55-2.363c-2.285-1.536-4.741-2.817-7.256-3.884-3.059-1.294-6.229-2.301-9.402-3.136-3.184-.833-6.38-1.493-9.56-2.058-6.37-1.129-12.658-1.908-18.729-2.67-6.06-.764-11.886-1.601-17.37-2.637a200.013 200.013 0 01-15.336-3.418c-4.696-1.259-8.947-2.615-12.63-4.038-3.327-1.291-6.21-2.562-8.579-3.773-2.985-1.983-5.934-4.005-8.765-6.155-1.423-1.085-2.82-2.206-4.142-3.393-1.323-1.188-2.573-2.452-3.688-3.805l-.41-.508-.39-.512c-.126-.171-.257-.374-.385-.556-.114-.162-.236-.367-.352-.54a22.803 22.803 0 01-1.277-2.29 24.476 24.476 0 01-1.772-4.962 27.755 27.755 0 01-.727-5.251 33.156 33.156 0 01.192-5.346c.197-1.772.534-3.548.986-5.279a49.98 49.98 0 01.826-2.794c-.069.656-.139 1.43-.185 2.34a34.487 34.487 0 00.182 5.828 33.855 33.855 0 001.817 7.702c1.011 2.798 2.524 5.766 4.638 8.673s4.826 5.732 8.085 8.301c3.256 2.559 7.03 4.879 11.191 6.895a61.175 61.175 0 0013.792 4.791c4.982 1.112 10.303 1.639 15.793 1.59 5.49-.049 11.142-.706 16.841-1.843 5.697-1.148 11.452-2.767 17.188-4.801 5.737-2.034 11.461-4.453 17.157-7.156 1.606-.772 3.22-1.556 4.83-2.371.16-.007.32-.013.492-.01.628.03 1.259.018 1.895.09.317.031.642.05.961.091.318.042.639.093.969.143.331.05.664.111.995.161.322.062.682.096.989.193.315.085.631.17.948.266.157.037.317.095.477.153l.473.186c.638.212 1.233.549 1.846.861.297.164.58.372.878.546l.435.279.411.326c.264.222.556.418.811.653.257.245.504.492.76.727.127.118.246.247.357.389l.338.403.349.401c.11.142.2.287.31.429.202.298.413.583.604.883.173.314.345.627.528.939.091.156.172.313.234.485l.214.489.215.499c.073.17.112.335.174.507.113.345.235.678.328 1.027l.236 1.054.092.531.071.535c.051.356.102.712.101 1.077l.038 1.088-.07 1.086-.017.271-.01.13.004.021-.008.077-.096.564-.096.563c-.033.178-.092.338-.137.507-.094.328-.165.662-.311.998l-.193.495-.096.253-.12.236a11.113 11.113 0 01-2.439 3.405c-2.018 1.927-4.653 3.081-7.272 3.277-.33.014-.659.039-.979.052-.325-.019-.649-.028-.974-.046l-.195-.009-.255-.042-.506-.074c-.089-.016-.176-.023-.254-.041l-.215-.06-.427-.108a9.358 9.358 0 01-3.226-1.642 9.39 9.39 0 01-3.398-5.668c-.18-1.042-.216-2.055-.064-3.037a7.59 7.59 0 012.411-4.431c.569-.496 1.143-.906 1.717-1.188a7.34 7.34 0 012.067-.712 2.282 2.282 0 00-.962 2.259 2.271 2.271 0 002.63 1.852 2.27 2.27 0 001.853-2.628 2.279 2.279 0 00-1.576-1.788c-.004-.02-.039-.036-.06-.032 0 0-.043-.003-.12-.012a2.994 2.994 0 00-.449-.051c-.153-.016-.329-.039-.532-.036a7.773 7.773 0 00-3.106.548c-.645.241-1.321.616-2.007 1.121a8.58 8.58 0 00-1.866 1.997 8.198 8.198 0 00-1.236 2.908c-.237 1.049-.287 2.249-.122 3.455a10.585 10.585 0 003.732 6.791 10.484 10.484 0 003.826 2.063l.563.149c.192.053.383.106.547.12l.508.084.255.042.076.008.031-.005.067.01.141.007c.379.021.748.043 1.127.063.383-.024.757-.035 1.139-.058 3.044-.28 6.091-1.666 8.313-3.962a13.437 13.437 0 002.665-3.96l.125-.268.101-.286.202-.571c.151-.37.23-.781.332-1.185.04-.2.102-.404.132-.602l.075-.56.074-.561.01-.066.009-.076-.006-.032.017-.153.012-.302.053-1.179-.064-1.18c-.005-.397-.071-.782-.13-1.18l-.101-.583-.029-.296-.072-.288-.283-1.142c-.109-.378-.257-.739-.386-1.114-.064-.182-.119-.376-.202-.544l-.252-.525-.242-.527c-.019-.051-.049-.099-.07-.16a62.79 62.79 0 003.024 1.591c.892.436 1.913.935 3.039 1.427a71.615 71.615 0 003.685 1.497c1.331.489 2.755.961 4.253 1.367a33.3 33.3 0 004.726.931l.623.064.153.016.163.015.303.012.608.034.635.008c.848.003 1.68-.033 2.523-.125 1.676-.183 3.353-.603 4.885-1.308 1.534-.695 2.94-1.689 3.979-2.943 1.05-1.255 1.721-2.777 1.809-4.316a5.574 5.574 0 00-.325-2.186 5.606 5.606 0 00-1.046-1.762 5.016 5.016 0 00-1.477-1.15 5.205 5.205 0 00-1.59-.497c-1.034-.143-1.958.038-2.624.347a3.043 3.043 0 00-.998.688 2.27 2.27 0 001.839 3.985 2.272 2.272 0 00-.48-4.51 4.79 4.79 0 012.178-.013c.916.207 1.888.736 2.57 1.637.346.445.598.97.786 1.56.174.571.239 1.193.166 1.828-.145 1.27-.762 2.546-1.719 3.592-.955 1.056-2.217 1.897-3.617 2.494-1.398.607-2.941.938-4.49 1.11-.78.081-1.57.111-2.346.095l-.581-.007-.607-.034-.305-.023-.14-.007-.143-.019-.578-.05a31.613 31.613 0 01-4.52-.859 53.984 53.984 0 01-4.167-1.242 82.276 82.276 0 01-3.67-1.35c-1.13-.448-2.159-.871-3.064-1.262a101.654 101.654 0 01-4.208-1.911c-.015-.03-.029-.049-.045-.078-.206-.319-.453-.63-.667-.936-.112-.153-.216-.317-.347-.455l-.386-.427-.385-.427a3.7 3.7 0 00-.394-.415c-.28-.252-.551-.516-.831-.768-.28-.252-.594-.455-.893-.693l-.444-.331-.481-.293c-.323-.191-.626-.396-.956-.564-.667-.314-1.306-.654-1.999-.877l-.504-.181a2.9 2.9 0 00-.511-.159c-.348-.089-.695-.169-1.054-.257-.35-.1-.686-.117-1.019-.178-.33-.05-.67-.088-1.001-.138a83.39 83.39 0 01-1.008-.115c-.329-.039-.663-.046-1-.073-.294-.025-.575-.03-.865-.033a241.036 241.036 0 0010.554-5.777 355.507 355.507 0 008.378-5.014c.291-.179.591-.37.882-.55.232.1.454.201.688.311 1.454.649 2.901 1.311 4.383 1.934 1.464.638 2.977 1.191 4.494 1.701a18.715 18.715 0 006.304 1.43c.125.473.228.948.322 1.426.151.875.27 1.745.289 2.6.018.845-.042 1.682-.195 2.47-.307 1.577-1.036 2.948-2.068 3.932a6.32 6.32 0 01-3.658 1.696 6.418 6.418 0 01-1.913-.066 5.561 5.561 0 01-.888-.232l-.056-.012-.021.003s-.026-.027-.024-.017l-.082-.039-.232-.1c-.109-.067-.199-.094-.309-.172-.917-.581-1.608-1.535-2.028-2.471-.422-.946-.6-1.913-.548-2.727.051-.825.321-1.494.717-1.938a2.27 2.27 0 002.663 2.232 2.27 2.27 0 00.335-4.393.56.56 0 00-.364-.12l-.192.012a2.329 2.329 0 00-.542.03l-.042.007a7.291 7.291 0 00-.959.166c-.561.172-1.295.46-1.908 1.135-.64.648-1.079 1.647-1.191 2.739-.111 1.093.055 2.298.53 3.493.474 1.184 1.247 2.424 2.574 3.332.159.111.383.223.573.33l.234.109.117.055.08.029.035.016.068.02c.368.14.749.235 1.141.328a8.453 8.453 0 002.464.153 8.307 8.307 0 004.842-2.115c1.403-1.263 2.357-3.07 2.746-4.983.199-.958.276-1.937.277-2.924-.009-.986-.127-1.974-.286-2.956-.072-.352-.154-.703-.238-1.064a18.068 18.068 0 004.503-.908 18.376 18.376 0 005.813-3.207 17.968 17.968 0 004.298-5.069c.141-.239.27-.487.399-.735.129-.247.258-.495.364-.75l.17-.383c.031-.07.057-.107.093-.209l.075-.185c.098-.242.204-.497.284-.779a14.88 14.88 0 00.728-3.303 16 16 0 00.042-2.486 63.942 63.942 0 0110.132-.091c5.294.371 10.538 1.384 15.564 3.057.044.067.089.145.133.213.241.398.538.808.776 1.314.118.248.267.491.37.773.111.271.226.562.341.854.421 1.193.71 2.613.74 4.153a12.86 12.86 0 01-.879 4.842c-.084.197-.154.413-.249.612-.094.199-.199.4-.304.6-.176.406-.456.777-.69 1.161-.059.096-.117.192-.186.29l-.211.272c-.14.185-.279.37-.431.547l-.106.136-.036.039-.064.064-.264.272c-.175.169-.353.383-.524.509-.168.147-.338.284-.505.431-.181.138-.383.27-.576.4-.19.14-.396.251-.601.372-.206.111-.407.253-.629.335-.848.436-1.803.688-2.752.852a9.117 9.117 0 01-2.94.015c-.978-.131-1.947-.392-2.853-.847-.23-.089-.446-.223-.661-.347-.217-.134-.438-.235-.638-.394l-.613-.441-.572-.513a7.63 7.63 0 01-1.659-2.385 7.71 7.71 0 01-.242-5.678 8.136 8.136 0 011.365-2.415c.164-.168.331-.379.489-.525.169-.136.314-.29.496-.418a5.845 5.845 0 011.12-.666c1.585-.704 3.329-.62 4.681-.07a6.657 6.657 0 011.794 1.063l.025.017.04.046.102.09.194.192c.117.119.189.225.292.325.095.112.181.237.267.361.086.125.151.253.225.369.224.423.383.846.486 1.258a3.25 3.25 0 00-2.904-.957 3.26 3.26 0 00-2.655 3.765 3.258 3.258 0 003.767 2.653 3.26 3.26 0 002.541-2.189c.202-.389.386-.872.501-1.45a5.4 5.4 0 00.064-1.739 5.95 5.95 0 00-.6-1.978 5.414 5.414 0 00-.629-.964c-.133-.149-.282-.327-.413-.465l-.205-.19-.101-.09-.051-.045-.039-.036-.01.002-.039-.036a6.8 6.8 0 00-2.241-1.222 7.244 7.244 0 00-2.724-.354 7.547 7.547 0 00-2.814.744 7.933 7.933 0 00-1.293.782c-.211.144-.403.338-.609.514-.195.173-.347.349-.52.53l-.036.038-.037.039-.021.003-.058.096-.124.151-.237.309c-.169.201-.289.436-.434.654a5.58 5.58 0 00-.373.698l-.174.363-.138.378a9.157 9.157 0 00.016 6.544 9.019 9.019 0 001.874 2.948l.286.284.143.146.077.073.039.036.003.021.062.043.683.536c.215.189.475.326.718.488.243.162.496.322.752.438a11.06 11.06 0 006.776 1.177c.296-.03.574-.099.854-.158.277-.07.559-.119.831-.22.275-.09.549-.18.811-.279.259-.12.519-.23.777-.35.26-.109.501-.269.747-.397a5 5 0 00.706-.455c.228-.168.459-.326.675-.503.213-.198.427-.386.642-.573 1.547-1.481 2.653-3.346 3.299-5.197.654-1.862.843-3.752.719-5.458-.124-1.706-.578-3.216-1.118-4.475-.15-.306-.298-.603-.444-.889-.136-.287-.329-.533-.48-.786a6.674 6.674 0 00-.45-.673c.745.268 1.491.547 2.229.837 6.025 2.423 11.668 5.803 16.383 10.149a40.557 40.557 0 016.219 7.197 31.461 31.461 0 012.002 3.442c-.015.035-.039.082-.054.116a11.745 11.745 0 01-1.295 1.952l-.375.441-.411.415c-.145.154-.289.254-.427.385a4.55 4.55 0 01-.433.354 9.548 9.548 0 01-1.927 1.149 9.576 9.576 0 01-4.236.777 9.418 9.418 0 01-3.925-1.081c-1.16-.625-2.155-1.472-2.864-2.466a7.947 7.947 0 01-1.394-3.15c-.223-1.099-.099-2.118.265-2.997a5.173 5.173 0 011.603-2.091 4.892 4.892 0 012.028-.941l.448-.078a3.257 3.257 0 00-1.431 3.274 3.26 3.26 0 006.423-1.112 3.262 3.262 0 00-.69-1.501.605.605 0 00-.142-.201l-.255-.235a1.836 1.836 0 00-.336-.264 5.318 5.318 0 00-.487-.334 5.022 5.022 0 00-1.542-.591 5.306 5.306 0 00-2.211.007 6.044 6.044 0 00-2.442 1.153 6.05 6.05 0 00-2.317 4.232 6.324 6.324 0 00-.011.925l.051.485.076.437c.152.629.319 1.222.596 1.829a8.364 8.364 0 001.008 1.725 9.405 9.405 0 003.207 2.707c1.288.678 2.774 1.076 4.312 1.153a10.299 10.299 0 004.626-.887 10.535 10.535 0 002.09-1.263 10.941 10.941 0 001.772-1.735c.433-.536.807-1.105 1.155-1.702a27.397 27.397 0 011.528 4.114l.28 1.121.228 1.13.202 1.167.157 1.154c.205 1.552.334 3.108.367 4.658.075 3.099-.209 6.175-.981 9.099-.771 2.924-2.045 5.677-3.764 8.089-1.718 2.422-3.852 4.487-6.229 6.197-2.378 1.711-4.979 3.063-7.662 4.128-.663.265-1.359.525-2.016.757a13.41 13.41 0 01-.999.313c-.338.09-.677.181-1.009.249-1.355.3-2.747.444-4.133.502a27.984 27.984 0 01-8.139-.92c-2.61-.685-5.067-1.73-7.25-3.112-2.173-1.384-4.052-3.119-5.492-5.113a18.415 18.415 0 01-2.967-6.526c-.548-2.298-.69-4.667-.544-6.924.083-1.131.259-2.224.526-3.289a17.19 17.19 0 011.075-3.03 14.885 14.885 0 013.679-4.866 15.692 15.692 0 015.002-2.927c3.56-1.271 7.329-1.269 10.332-.115a10.81 10.81 0 012.084 1.056c.305.216.622.429.889.672l.102.09.101.09c.077.072.152.135.217.199.128.117.259.255.389.383 1.022 1.068 1.814 2.294 2.403 3.522 1.2 2.465 1.6 4.96 1.32 7.005a7.692 7.692 0 01-1.656 3.893 5.217 5.217 0 00.028-1.948 5.301 5.301 0 00-10.447 1.809 5.296 5.296 0 006.128 4.316c.51-.089.988-.246 1.434-.463.782-.318 1.962-.823 3.24-1.935a9.168 9.168 0 001.824-2.183 9.49 9.49 0 001.194-3.212c.448-2.438.058-5.311-1.207-8.151-.642-1.412-1.49-2.833-2.67-4.131a8.685 8.685 0 00-.461-.489l-.232-.228-.128-.117-.128-.117a10.56 10.56 0 00-1.092-.852 12.89 12.89 0 00-2.496-1.328c-3.565-1.422-7.872-1.491-11.984-.06-2.056.72-4.067 1.82-5.821 3.347a17.516 17.516 0 00-4.3 5.681c-1.054 2.222-1.625 4.693-1.778 7.22-.144 2.514.054 5.088.714 7.656a20.824 20.824 0 003.46 7.268c1.649 2.204 3.779 4.089 6.18 5.551 2.403 1.473 5.078 2.533 7.871 3.22 2.791.675 5.714.995 8.677.869a26.262 26.262 0 004.444-.566 21.5 21.5 0 001.112-.278c.368-.107.755-.228 1.09-.34a50.131 50.131 0 002.107-.794c2.782-1.114 5.513-2.521 8.048-4.312 2.526-1.79 4.829-3.992 6.69-6.578a25.99 25.99 0 002.777-4.924l.007.042a30.23 30.23 0 00.359 3.5c.38 2.317.979 4.596 1.8 6.793.8 2.201 1.832 4.319 2.989 6.351a48.258 48.258 0 003.93 5.823c.715.906 1.457 1.84 2.3 2.681.834.843 1.741 1.62 2.72 2.309a17.58 17.58 0 006.551 2.793c2.339.486 4.724.556 7.065.43 2.351-.128 4.672-.434 6.971-.8 4.598-.732 9.145-1.637 13.726-2.28 2.288-.31 4.599-.603 6.862-.748 2.257-.112 4.535.084 6.717.65a20.502 20.502 0 016.142 2.725c1.888 1.229 3.581 2.76 5.069 4.467 1.489 1.716 2.781 3.596 3.898 5.581a39.04 39.04 0 012.834 6.195.501.501 0 00.599.358.514.514 0 00.379-.602 45.828 45.828 0 00-2.002-6.414l.112-.031zm-192.344-29.655a36.94 36.94 0 014.091 5.022c1.286 1.902 2.459 4.028 3.364 6.34.914 2.299 1.564 4.816 1.615 7.34.023 1.251-.122 2.521-.576 3.619a5.301 5.301 0 01-.885 1.463c-.37.407-.82.721-1.332.928a4.425 4.425 0 01-.809.226c-.146.025-.282.049-.409.06l-.198.034-.259-.008c-.592-.005-1.202-.06-1.717-.24a2.604 2.604 0 01-1.244-.857c-.315-.397-.524-.918-.654-1.486-.265-1.156-.231-2.45-.163-3.728.09-1.282.233-2.562.378-3.832.291-2.541.561-5.013.504-7.45-.057-1.256-.358-2.438-.768-3.505a15.58 15.58 0 00-1.516-2.925c-1.144-1.765-2.44-3.172-3.652-4.347a30.188 30.188 0 00-2.243-1.972c.023.006.046.013.079.018a38.699 38.699 0 016.365 5.316l.029-.016zm34.128-60.524a8.456 8.456 0 01-1.411-5.669c.217-1.969 1.169-3.851 2.51-5.35a10.797 10.797 0 015.06-3.151 10.603 10.603 0 015.958.052 13.22 13.22 0 015.186 3.094c.735.71 1.385 1.488 1.95 2.335a13.86 13.86 0 011.64 3.515 69.526 69.526 0 00-7.188 1.094 6.098 6.098 0 00-.998-2.102 6.123 6.123 0 00-1.953-1.733 1.952 1.952 0 00-1.551-.397 1.96 1.96 0 00-1.595 2.262 1.959 1.959 0 002.263 1.593 1.951 1.951 0 001.615-1.835c.183.193.359.399.506.631.374.547.641 1.155.805 1.792-4.355.958-8.595 2.336-12.671 4.04a.842.842 0 01-.112-.152l-.014-.019zm12.535-.604l-.015.035-.04.082-.039.082c-.055.117-.1.232-.167.34a6.784 6.784 0 01-1.906 2.262c-1.576 1.196-3.697 1.659-5.613 1.197a9.848 9.848 0 01-.701-.2c-.103-.036-.242-.098-.368-.141-.092-.037-.221-.101-.337-.145a5.977 5.977 0 01-.638-.34 71.703 71.703 0 019.807-3.147l.017-.025zm-78.583 32.764a39.508 39.508 0 01.105-4.418 42.305 42.305 0 011.082-6.776c.145-.648.343-1.305.537-1.982.217-.671.42-1.361.687-2.051.242-.707.541-1.403.836-2.119.152-.359.327-.712.49-1.073.086-.186.163-.361.249-.547.098-.178.186-.354.282-.543a35.57 35.57 0 016.048-8.484c1.281-1.349 2.733-2.577 4.265-3.776.391-.282.793-.566 1.195-.85.201-.143.4-.295.602-.427l.629-.398c.416-.266.834-.52 1.25-.786.45-.249.903-.489 1.354-.738.225-.125.449-.261.678-.365l.676-.31c.458-.208.9-.446 1.374-.624.472-.189.956-.37 1.428-.559.472-.189.976-.319 1.472-.491a32.43 32.43 0 016.124-1.286c2.097-.234 4.231-.314 6.371-.169 2.13.146 4.268.463 6.361.948 2.1.473 4.142 1.161 6.137 1.953a42.328 42.328 0 015.728 2.818 40.753 40.753 0 014.948 3.457c-.316.162-.631.324-.957.488-.735.406-1.476.781-2.209 1.198l-1.094.629-.546.32-.525.317-1.048.643-1.057.655c-.612.374-1.211.757-1.823 1.131-.29-.121-.569-.245-.846-.358l-1.109-.452-.278-.113-.287-.111-.574-.212a28.032 28.032 0 00-2.335-.711 28.609 28.609 0 00-4.81-.799c-1.613-.139-3.245-.135-4.862-.048-3.229.205-6.426.844-9.497 1.837a44.292 44.292 0 00-8.797 3.96 44.542 44.542 0 00-7.71 5.767 42.132 42.132 0 00-6.238 7.326 38.129 38.129 0 00-2.427 4.155 41.481 41.481 0 00-1.738 3.982l-.146.025-.009-.052.014.019zm43.12-19.078c-5.545 3.203-11.113 6.206-16.703 8.902-5.588 2.706-11.208 5.107-16.805 7.138a137.03 137.03 0 01-8.906 2.895 37.41 37.41 0 011.646-3.58 37.175 37.175 0 012.455-4.053c1.793-2.607 3.906-4.979 6.243-7.112a41.516 41.516 0 013.683-2.977 43.634 43.634 0 013.98-2.567 42.816 42.816 0 018.643-3.794c3.005-.939 6.124-1.532 9.252-1.699a32.605 32.605 0 014.698.089c1.559.137 3.1.418 4.608.811.754.202 1.493.439 2.225.699l.541.207.265.104.277.113 1.101.464s.022.007.035.016a300.965 300.965 0 01-7.252 4.325l.014.019zm20.885-.011c-1.494-.503-2.97-1.031-4.421-1.66-1.436-.599-2.858-1.244-4.288-1.876l.95-.594 1.048-.643.525-.316.518-.294 1.035-.597c.683-.398 1.403-.769 2.108-1.16.67-.352 1.341-.693 2.022-1.037a32.23 32.23 0 011.908 2.085c1.263 1.53 2.342 3.168 3.128 4.856.171.432.393.844.533 1.281.159.424.308.849.431 1.246a17.305 17.305 0 01-5.443-1.29c-.01.002-.035-.015-.045-.013l-.009.012zm23.442-13.031a14.207 14.207 0 01-.645 2.977c-.068.226-.174.481-.27.733l-.075.185s-.047.105-.069.162l-.154.349c-.1.232-.22.467-.342.692-.11.234-.232.459-.366.675a16.765 16.765 0 01-3.965 4.701 17.499 17.499 0 01-5.388 2.993 16.86 16.86 0 01-4.413.872 10.38 10.38 0 00-.174-.571c-.151-.5-.326-.952-.493-1.417-.172-.496-.402-.961-.605-1.452-.879-1.908-2.067-3.687-3.446-5.327a28.628 28.628 0 00-1.536-1.676c.617-.279 1.245-.559 1.875-.829 0 0 .014.019.024.017.465.327.964.606 1.489.847.14.062.246.119.407.177.127.053.242.097.39.147.286.101.569.181.847.24 2.27.519 4.749-.05 6.551-1.489a7.757 7.757 0 002.149-2.658c.064-.129.127-.258.18-.385l.049-.095.046-.104.075-.185c.058-.16.106-.319.154-.477a66.89 66.89 0 017.743-1.298 13.63 13.63 0 01-.026 2.204l-.012-.008zm48.571 10.294c-4.894-4.636-10.741-8.26-17.004-10.878-6.273-2.616-12.991-4.2-19.787-4.751-.24-.023-.489-.033-.729-.056a52.297 52.297 0 016.03-.465c2.567-.058 5.358.124 8.268.554 2.909.43 5.939 1.182 8.965 2.225.762.244 1.515.564 2.272.841.75.299 1.507.64 2.26.96 1.508.705 3.007 1.422 4.464 2.275a42.345 42.345 0 014.265 2.739 30.218 30.218 0 013.843 3.337c1.178 1.224 2.227 2.566 3.048 4.023.426.72.763 1.488 1.069 2.262.274.778.509 1.575.639 2.389.236 1.365.21 2.765-.043 4.097a44.654 44.654 0 00-1.1-1.827 42.304 42.304 0 00-6.458-7.714l-.002-.011zm10.364 37.215l.078.449c-.041-.111-.071-.224-.1-.327.016-.035.019-.078.035-.113l-.013-.009zm73.171 36.631c-1.564-1.778-3.356-3.378-5.364-4.683a21.943 21.943 0 00-6.531-2.862c-2.314-.586-4.723-.792-7.095-.66-2.366.163-4.655.463-6.972.789-4.611.659-9.175 1.589-13.737 2.347-2.276.372-4.563.683-6.848.821-2.285.138-4.573.072-6.789-.381-2.213-.443-4.329-1.311-6.174-2.601a18.749 18.749 0 01-2.588-2.17c-.805-.805-1.513-1.67-2.251-2.583-1.417-1.794-2.744-3.689-3.894-5.679-1.15-1.99-2.172-4.046-2.975-6.203a35.387 35.387 0 01-1.812-6.619 26.413 26.413 0 01-.365-3.414c-.029-.66-.024-1.316.001-1.975a49.102 49.102 0 001.806 4.849 48.365 48.365 0 003.068 5.93 36.756 36.756 0 003.971 5.386 30.983 30.983 0 002.384 2.356c.855.721 1.73 1.429 2.681 2.026l.351.229.36.216.74.43c.494.247.979.507 1.511.726a19.14 19.14 0 003.209 1.043c2.185.523 4.441.712 6.667.735 2.238.02 4.467-.13 6.676-.33 2.21-.2 4.42-.465 6.624-.696 2.204-.232 4.41-.453 6.603-.564 2.203-.114 4.413-.131 6.595.07 2.164.216 4.327.678 6.371 1.44a26.327 26.327 0 015.82 2.974 28.83 28.83 0 014.949 4.273c1.49 1.598 2.796 3.368 3.935 5.232a33.588 33.588 0 011.456 2.645 29.1 29.1 0 00-2.383-3.097z" fill="#F2CAB3"/><path fill-rule="evenodd" clip-rule="evenodd" d="M0 71.705c2.214 2.817 4.591 5.114 6.814 7.027 2.473 2.126 4.786 3.764 6.718 5.06a68.699 68.699 0 004.622 2.817 46.33 46.33 0 001.704.907.438.438 0 00.346.015 414.625 414.625 0 014.228 3.206 135.588 135.588 0 014.738 3.795l.566.481.57.502c.158.146.319.29.48.432.217.194.434.388.642.587l.402.401c.569.567 1.134 1.13 1.666 1.741.547.584 1.046 1.203 1.545 1.822l.376.464c.202.259.396.528.591.797.097.135.194.269.293.402l.437.601.409.627a37.025 37.025 0 012.083 3.47.563.563 0 00.05.292c.132.267.284.52.433.762a.067.067 0 01-.006.039.34.34 0 00-.006.017s.034.38.08 1.08c.005.093.013.191.02.295.024.291.052.625.02.987-.005.107-.007.219-.01.333-.002.15-.005.305-.014.465a4.51 4.51 0 00-.005.235c0 .068-.001.137-.004.206a3.59 3.59 0 01-.058.472l-.047.381c-.064.537-.134 1.119-.298 1.718-.043.189-.085.379-.125.579-.041.201-.081.401-.166.598-.09.289-.19.585-.294.887l-.115.343a18.374 18.374 0 01-3.018 5.148 17.82 17.82 0 01-5.478 4.393c-.108.052-.214.11-.32.168-.17.093-.34.186-.52.257a26.17 26.17 0 00-.441.178c-.148.06-.296.121-.442.178-.428.2-.88.329-1.338.46-.17.049-.34.098-.51.15a7.22 7.22 0 01-.471.135l-.49.085c-.323.056-.655.125-.977.191l-.25.043-.223.017-.528.049-.237.021c-.274.027-.55.053-.796.029-.324-.008-.658-.015-.992-.021a17.7 17.7 0 01-.678-.074l-.34-.04a3.299 3.299 0 00-.174-.021c-.11-.011-.222-.022-.333-.052l-.503-.117-.504-.117-.256-.052-.25-.085c-.165-.052-.33-.107-.496-.161a33.45 33.45 0 00-.495-.161c-.314-.139-.638-.276-.962-.413-.223-.087-.435-.207-.646-.325-.096-.054-.19-.107-.286-.158l-.463-.252c-.096-.051-.186-.115-.275-.178a2.796 2.796 0 00-.162-.111 9.366 9.366 0 00-.363-.252 6.962 6.962 0 01-.505-.36l-.817-.685-.173-.172c-.449-.444-.896-.886-1.279-1.39-.89-1.112-1.64-2.345-2.12-3.69l-.074-.182a3.086 3.086 0 01-.12-.321l-.154-.51a9.153 9.153 0 00-.098-.332 4.602 4.602 0 01-.178-.704l-.203-1.049-.09-1.079c-.06-1.341.153-2.773.617-4.066.91-2.616 2.856-4.777 5.181-5.984l.432-.236.451-.186c.3-.127.6-.254.91-.329l.46-.133.224-.071.938-.163.111-.04.083-.015.51-.034a3.63 3.63 0 00.2-.016c.102-.01.204-.02.289-.015l.431.011c.14-.003.29.003.444.02a8.42 8.42 0 011.755.339c2.257.694 4.038 2.295 4.985 4.106a8.42 8.42 0 01.922 2.781l.007.042.017.093.011.192c.015.083.02.168.025.253.003.042.005.085.009.127.004.11.001.209-.001.305-.003.108-.006.21.001.317a4.81 4.81 0 01-.04.415 8.02 8.02 0 00-.024.208c-.012.143-.045.284-.077.423-.015.063-.03.126-.042.188-.394 1.571-1.234 2.8-2.105 3.595a.961.961 0 00-.065.06l-.065.059c.08-.4.094-.821.02-1.248a3.308 3.308 0 00-3.828-2.696 3.31 3.31 0 101.13 6.522c.124-.022.26-.045.381-.088l.376-.065c.75-.13 1.86-.483 3.029-1.361.22-.158.428-.35.643-.547l.225-.205a8.54 8.54 0 00.806-.987 7.93 7.93 0 001.193-2.6 8.2 8.2 0 01.058-.254 4.365 4.365 0 00.12-.685 6.17 6.17 0 00.054-.636l.003-.125c.005-.246.01-.508-.003-.744a2.356 2.356 0 01-.025-.253 3.953 3.953 0 00-.009-.127l-.032-.188.005-.097-.026-.146a9.98 9.98 0 00-1.129-3.357c-1.161-2.181-3.31-4.106-6.051-4.93a10.144 10.144 0 00-2.121-.405 4.269 4.269 0 00-.564-.031l-.57-.009c-.168-.006-.296.01-.434.027l-.097.012-.508.045-.062.01s-.075.003-.073.013l-.438.076-.539.115-.27.047-.265.088-.541.158a6.81 6.81 0 00-.797.283l-.264.105-.52.219-.501.269a12.624 12.624 0 00-5.96 6.945 12.552 12.552 0 00-.69 4.767l.055.559.027.285.024.135-.008.077.005.031.015.084.224 1.173c.051.294.136.577.22.862.03.099.06.198.088.298l.174.57c.033.114.079.222.124.328.032.076.064.15.09.226.57 1.489 1.42 2.866 2.426 4.087.418.546.91 1.016 1.401 1.485.08.075.16.151.238.227l.915.754c.193.16.405.299.617.437.117.077.234.153.347.233l.164.11c.107.074.213.147.332.212l.51.277c.106.055.212.113.319.172.235.129.471.259.717.356l.303.13c.255.109.507.217.763.319.182.06.366.116.55.173.185.057.37.113.552.173l.271.082.28.059.557.118.557.118c.108.024.215.035.32.045.08.008.16.016.24.03.14.012.282.027.423.042.232.025.466.051.702.063.193-.001.384.001.575.003.19.002.382.003.575.002.284.014.539-.014.795-.041.095-.01.19-.02.288-.028l.529-.049.295-.03.271-.047 1.058-.215.522-.09a42.247 42.247 0 011.01-.317c.509-.153 1.015-.305 1.486-.523.16-.066.318-.133.476-.201.157-.067.314-.135.475-.2.192-.079.37-.178.547-.277.119-.066.237-.132.36-.191a18.79 18.79 0 005.77-4.82c1.467-1.821 2.451-3.762 3.1-5.538.136-.453.274-.895.405-1.315.072-.206.12-.429.16-.629.023-.123.05-.243.076-.362l.054-.251c.159-.646.215-1.267.267-1.834a43.22 43.22 0 01.056-.591 3.33 3.33 0 00.025-.507c0-.086 0-.17.003-.251l-.001-.271a18.35 18.35 0 01.003-.588 2.73 2.73 0 00-.005-.396c.598 1.345 1.106 2.727 1.583 4.115a49.057 49.057 0 011.139 4.16l.04.229.13.75a.606.606 0 00-.042.254c.06.655.178 1.279.333 1.863.073.61.136 1.222.177 1.826.133 1.576.181 3.156.188 4.744 0 .997-.018 2.009-.048 3.013l-.011.12a7.05 7.05 0 01-.012.12c-.406 3.73-1.401 7.347-3.087 10.515-.842 1.584-1.82 3.063-3.006 4.341-.13.159-.262.292-.403.432l-.041.042-.459.455c-.06.055-.117.113-.175.171-.095.095-.19.191-.295.275l-.498.409-.489.406a6.83 6.83 0 01-.408.313l-.104.076a28.89 28.89 0 00-.352.259c-.235.174-.47.349-.708.504-2.797 1.955-5.816 3.497-8.901 4.225-1.54.352-3.088.524-4.59.408a12.519 12.519 0 01-2.189-.361c-.7-.201-1.394-.424-2.04-.742-2.597-1.235-4.549-3.387-5.729-5.736l-.206-.448-.102-.218-.006-.031-.01-.063-.054-.119-.18-.484-.095-.241-.06-.216c-.01-.04-.022-.08-.034-.12a4.126 4.126 0 01-.17-.756l-.078-.448-.034-.445c-.05-.593.01-1.182.105-1.746.027-.095.05-.191.071-.286a2.81 2.81 0 01.163-.538l.145-.401.18-.385c.481-1.006 1.24-1.835 2.084-2.475a7.222 7.222 0 012.737-1.311c.949-.229 1.909-.266 2.774-.105.876.16 1.656.508 2.297.987 1.285.968 2.022 2.311 2.43 3.55.148.543.197 1.135.132 1.63a3.16 3.16 0 01-.443 1.289l-.051.073a1.989 1.989 0 00-2.268-1.496c-1.032.179-1.808 1.215-1.62 2.298.187 1.084 1.14 1.745 2.182 1.629l.063-.011.062-.01c.157-.028.3-.074.44-.13.1-.039.22-.092.348-.157.493-.257 1.182-.741 1.764-1.658.584-.906.913-2.294.495-3.842a9.99 9.99 0 00-.074-.229c-.03-.092-.061-.185-.09-.279l-.044-.132-.01-.062-.027-.028-.033-.069c-.037-.09-.074-.181-.122-.269a8.8 8.8 0 01-.088-.195 5.467 5.467 0 00-.167-.351 8.355 8.355 0 01-.177-.31 12.268 12.268 0 00-.133-.237 7.471 7.471 0 00-1.823-2.035 6.863 6.863 0 00-2.795-1.254 7.941 7.941 0 00-3.34.063 8.706 8.706 0 00-3.273 1.5c-.997.752-1.911 1.737-2.516 2.958l-.222.457-.174.481c-.087.204-.138.416-.19.629-.03.125-.06.25-.098.376a8.384 8.384 0 00-.148 2.118c.01.181.02.362.04.541l.092.531c.041.291.119.584.199.883l.053.2.08.276.095.241.18.484.043.121.01.063s.05.099.048.088l.118.248.095.206c.044.096.09.193.131.292.655 1.303 1.496 2.563 2.578 3.663.184.2.386.381.586.561.088.079.175.157.261.237l.256.207c.22.181.438.359.674.512.64.469 1.331.864 2.067 1.209.728.357 1.502.609 2.302.825.796.195 1.614.332 2.45.381 1.663.119 3.358-.078 5.019-.473 1.66-.394 3.269-1.027 4.82-1.811a33.152 33.152 0 004.494-2.753c1.405-1.005 2.862-2.202 4.073-3.581 1.234-1.373 2.248-2.954 3.1-4.615a26.261 26.261 0 001.736-4.293 33.226 33.226 0 01-.198 1.891c-.091.778-.213 1.561-.335 2.344a83.132 83.132 0 01-.934 4.658c-.736 3.165-1.622 6.301-2.512 9.447-.836 2.957-1.674 5.922-2.392 8.927-.003.012-.01.021-.016.03a.098.098 0 00-.017.03c-.553.836-1.349 2.069-2.33 3.655a283.923 283.923 0 00-3.49 5.767 233.53 233.53 0 00-4.262 7.638l-.084.159c-.216.41-.437.829-.648 1.256l-.115.084c-.135.088-.29.189-.462.305-.188.097-.383.206-.609.331a5.541 5.541 0 00-.28.113c-.15.064-.307.13-.475.179-.532.21-1.17.31-1.86.354a6.853 6.853 0 01-2.19-.243 6.505 6.505 0 01-2.156-1.097 16.028 16.028 0 00-.479-.411 3.257 3.257 0 00-.18-.185c-.1-.099-.21-.207-.266-.285a5.073 5.073 0 01-.664-1.044c-.175-.388-.33-.79-.406-1.228-.074-.427-.13-.868-.087-1.305.04-.887.353-1.746.848-2.486l.2-.271.088-.112.128-.129c.147-.176.274-.282.41-.396l.06-.051a4.173 4.173 0 011.12-.602 3.764 3.764 0 012.406.002c.366.13.7.319.976.55.105.075.197.163.287.25l.106.101c.027.033.057.065.087.097.03.033.06.065.087.098.052.049.078.093.103.134l.037.056c.327.459.512.974.594 1.443a1.986 1.986 0 00-3.347 1.76 1.986 1.986 0 002.3 1.619 1.91 1.91 0 00.867-.386l.041-.007s.104-.082.298-.266c.171-.191.432-.483.645-.927a3.543 3.543 0 00.31-1.75 3.612 3.612 0 00-.242-1.085 3.41 3.41 0 00-.645-1.058c-.561-.632-1.352-1.107-2.248-1.381-.894-.264-1.917-.344-2.898-.056-.492.138-.98.352-1.424.643-.22.156-.468.339-.634.496l-.14.121-.021.004-.034.049-.037.038-.072.077-.27.304c-.671.836-1.157 1.875-1.298 2.983a5.932 5.932 0 00.469 3.267l.09.178c.094.187.187.373.314.546.074.116.148.232.232.347l.274.339c.149.178.249.273.383.401l.165.158.305.243.305.242a7.155 7.155 0 002.688 1.198 6.98 6.98 0 002.611.074c.2-.024.397-.069.583-.112.185-.043.371-.086.541-.158l.252-.092.253-.092c.16-.071.31-.14.457-.219.194-.082.36-.191.52-.295.088-.057.173-.113.26-.162l.137-.104.138-.104a125.617 125.617 0 00-3.247 6.797c-1.477 3.379-2.954 7.004-3.85 11.012-.079.303-.131.617-.185.932-.033.2-.067.401-.108.6-.06.362-.11.717-.16 1.074-.02.144-.04.289-.062.434-.099.669-.196 1.346-.294 2.023l-.146 1.016c-.267 2.053-.527 4.148-.526 6.326a21.03 21.03 0 001.026 6.487c.654 2.097 1.576 4.073 2.543 5.998.977 1.924 2.02 3.793 3.08 5.638a207.82 207.82 0 001.607 2.728c.545.914 1.085 1.822 1.604 2.726a55.186 55.186 0 012.748 5.512c.775 1.873 1.405 3.771 1.768 5.682.361 1.902.44 3.841-.017 5.605-.235.878-.597 1.703-1.12 2.405a6.557 6.557 0 01-1.913 1.726c-1.47.877-3.242 1.184-4.834 1.106a7.46 7.46 0 01-2.29-.505 5.968 5.968 0 01-1.868-1.179c-1.07-.974-1.715-2.279-1.873-3.561a5.243 5.243 0 01.084-1.871c.02-.096.048-.194.076-.292a6.73 6.73 0 00.041-.147l.052-.14a6.07 6.07 0 01.102-.273c.056-.144.105-.242.157-.346l.03-.062a4.21 4.21 0 01.214-.38c.603-.985 1.484-1.663 2.407-1.973.924-.31 1.872-.292 2.618-.014a3.06 3.06 0 011.782 1.795 1.987 1.987 0 00-2.868 2.107 1.986 1.986 0 003.629.734.333.333 0 00.093-.145l-.004-.02a1.9 1.9 0 00.207-1.163c.01-.13.017-.271.013-.421-.007-.535-.074-1.232-.418-1.977-.343-.746-1.034-1.506-2.023-1.947a4.929 4.929 0 00-3.433-.167 5.747 5.747 0 00-1.755.905 6.21 6.21 0 00-1.416 1.554l-.073.122a7.305 7.305 0 00-.437.847c-.075.184-.141.357-.208.529-.055.182-.11.363-.152.552a6.432 6.432 0 00-.107 2.359c.203 1.606 1.05 3.209 2.384 4.341a7.41 7.41 0 002.294 1.341 8.918 8.918 0 002.676.503 10.97 10.97 0 002.75-.305 9.312 9.312 0 002.648-1.081 7.688 7.688 0 002.19-1.989l.045.078a8.28 8.28 0 001.3-2.725c.54-1.972.459-4.05.11-6.061-.35-2.022-.983-4.005-1.748-5.943-.766-1.939-1.675-3.842-2.664-5.71-.505-.932-1.022-1.851-1.538-2.771a207.91 207.91 0 01-1.537-2.771c-1.009-1.853-2.01-3.73-2.928-5.62a68.093 68.093 0 01-1.066-2.37l.063.037a6.68 6.68 0 002.169.757c.778.155 1.652.175 2.556.062a8.026 8.026 0 002.765-.833c.084-.051.169-.097.254-.144.14-.077.282-.154.419-.252l.324-.238.16-.125.022-.003-.004-.02a.197.197 0 00.049-.031l.038-.028.064-.065.257-.248c.048-.048.097-.105.148-.162a4.44 4.44 0 01.14-.157c.155-.168.276-.344.399-.522.035-.052.07-.104.107-.156.283-.478.516-.99.66-1.52.133-.538.218-1.1.197-1.654a5.745 5.745 0 00-.281-1.626 3.52 3.52 0 00-.192-.52c-.035-.082-.07-.163-.102-.244a6.658 6.658 0 01-.144-.265c-.08-.15-.158-.3-.257-.439a5.573 5.573 0 00-1.042-1.182 4.477 4.477 0 00-1.351-.796 4.65 4.65 0 00-1.451-.318 5.89 5.89 0 00-1.42.117c-.911.19-1.736.634-2.316 1.195a3.512 3.512 0 00-1.034 2.09 3.57 3.57 0 00.23 1.763c.002.01.006.031.018.04a1.986 1.986 0 002.263 1.475c1.033-.179 1.809-1.215 1.621-2.298a1.986 1.986 0 00-2.887-1.421c.022-.058.044-.115.077-.175.106-.254.283-.532.45-.743.44-.505 1.028-.951 1.777-1.155.748-.205 1.6-.127 2.365.202.382.159.749.417 1.032.69.076.062.154.145.224.24l.121.14.017.022c-.003.001.012.017.012.017l.003.02.055.066.04.058c.114.161.225.316.313.493a2.5 2.5 0 01.183.37c.033.075.065.151.102.224.022.082.049.161.075.24.043.129.086.258.11.393.105.422.129.869.107 1.302a4.976 4.976 0 01-.775 2.409c-.06.074-.115.154-.17.232a2.507 2.507 0 01-.195.261c-.038.04-.069.076-.1.114a2.447 2.447 0 01-.097.113l-.258.249-.064.064-.02.004-.018.024-.123.097-.246.193a3.398 3.398 0 01-.316.208 5.426 5.426 0 00-.205.129c-.725.404-1.518.66-2.297.816-.771.134-1.534.191-2.222.127-.688-.063-1.318-.169-1.838-.379-.195-.059-.367-.144-.53-.224a5.211 5.211 0 00-.19-.091 2.026 2.026 0 01-.264-.159 38.032 38.032 0 01-.818-2.305 19.895 19.895 0 01-.894-5.973c-.006-2.016.242-4.055.503-6.086l.409-3.033c.048-.315.09-.637.131-.955l.072-.539c.032-.173.059-.345.085-.518.047-.305.094-.61.172-.911.392-1.893.962-3.751 1.585-5.544.17-.512.35-1.016.544-1.511a7.1 7.1 0 00.477 1.516c.025.05.047.097.068.144.022.048.043.095.068.144.025.05.052.096.079.142.026.047.053.093.078.142.047.089.095.177.153.264.06.097.13.192.2.287.035.047.07.098.106.148l.106.148c.079.083.16.176.23.271.15.189.329.351.518.512.369.333.783.615 1.235.869.47.23.956.436 1.482.559 1.047.281 2.213.251 3.308-.057.196-.049.381-.123.569-.197.08-.032.16-.064.24-.094l.385-.195.188-.097.02-.003.047-.041.038-.028.076-.056c.116-.074.203-.132.326-.228l.367-.3.1-.097c.177-.174.352-.346.508-.545a5.41 5.41 0 00.854-1.521 5.61 5.61 0 00.311-1.674 5.16 5.16 0 00-.22-1.647 4.97 4.97 0 00-.681-1.449c-.622-.923-1.535-1.484-2.483-1.749a4.44 4.44 0 00-2.755.091c-.05.019-.1.041-.15.063-.05.023-.1.045-.15.064l-.07.034-.02.003-.038.028-.032.006-.114.084s-.078.045-.116.074l-.144.1a3.293 3.293 0 00-.974 1.134 3.29 3.29 0 00-.347 1.842c.039.347.131.632.223.852.3.925 1.24 1.513 2.23 1.342a1.987 1.987 0 001.62-2.299 1.986 1.986 0 00-2.299-1.619 1.023 1.023 0 00-.246.064c.09-.102.18-.203.281-.296.056-.052.102-.092.16-.134l.074-.067s.078-.046.116-.074l.116-.074.042-.007.047-.04c.033-.022.07-.042.107-.062.037-.019.074-.039.108-.061.595-.286 1.359-.461 2.143-.275.771.178 1.509.716 1.964 1.42.466.767.676 1.675.576 2.583a4.474 4.474 0 01-.354 1.307 4.026 4.026 0 01-.753 1.107c-.137.157-.306.3-.46.43l-.02.018-.25.172a6.386 6.386 0 01-.32.195l-.09.047-.03.006s.01-.002.001.01l-.02.004-.148.079-.309.139c-.07.023-.142.049-.212.074a3.7 3.7 0 01-.428.134 5.49 5.49 0 01-4.816-.959l-.094-.076c-.121-.099-.244-.199-.349-.308-.064-.064-.141-.137-.206-.201a6.157 6.157 0 00-.088-.103l-.087-.103-.066-.075c-.037-.041-.075-.083-.11-.13a6.287 6.287 0 00-.172-.249 3.493 3.493 0 01-.064-.094 1.778 1.778 0 00-.092-.126l-.137-.234a7.235 7.235 0 01-.735-1.826 5.197 5.197 0 01-.14-.684c.3-.75.6-1.499.903-2.228 1.406-3.355 2.873-6.475 4.279-9.337a280.159 280.159 0 013.975-7.739 305.868 305.868 0 013.197-5.909l1.404-2.497a93.263 93.263 0 00-1.479 8.016 69.394 69.394 0 00-.65 9.642c.011 3.228.237 6.452.693 9.646a79.462 79.462 0 001.96 9.459c.09.314.175.627.26.94.127.462.253.925.392 1.394l.358 1.14.393 1.155a56.893 56.893 0 001.824 4.513 47.825 47.825 0 004.923 8.399 46.985 46.985 0 006.552 7.204c2.426 2.166 5.086 4.066 7.895 5.716a52.705 52.705 0 008.83 4.105 52.212 52.212 0 004.662 1.435c.787.207 1.582.392 2.383.554.789.153 1.555.299 2.4.4a28.95 28.95 0 009.088.143 29.657 29.657 0 008.71-2.657 29.853 29.853 0 007.502-5.173 30.028 30.028 0 005.581-7.212l.279-.499.265-.518c.168-.33.326-.658.487-1.029a23.882 23.882 0 001.85-6.685 23.888 23.888 0 00-.664-9.168 23.686 23.686 0 00-4.11-8.227 23.788 23.788 0 00-6.923-6.056l-.509-.277-.25-.139-.131-.074-.152-.07-.283-.142a10.632 10.632 0 00-.736-.347 13.352 13.352 0 00-1.107-.442 18.683 18.683 0 00-5.711-1.168 19.361 19.361 0 00-9.1 1.78 19.21 19.21 0 00-7.217 5.821c-.153.185-.287.383-.422.582-.085.125-.17.25-.261.374a21.02 21.02 0 00-.622.998l-.287.511-.155.285-.118.246-.091.184c-.05.101-.102.204-.155.32l-.245.568a15.874 15.874 0 00-1.115 4.604c-.258 3.157.45 6.382 2.052 9.12a15.492 15.492 0 002.977 3.67c1.162 1.066 2.534 1.923 3.933 2.56.778.338 1.507.576 2.29.752a12.604 12.604 0 004.722.106 11.665 11.665 0 002.262-.639c2.56-.969 4.724-2.857 5.997-5.181a4.654 4.654 0 00.816-3.533 4.689 4.689 0 00-9.237 1.6 4.682 4.682 0 005.418 3.816c.146-.025.302-.053.444-.099l-.197.163a11.572 11.572 0 01-3.713 1.877c-.665.191-1.339.329-2.026.394a9.943 9.943 0 01-2.047.022 10.016 10.016 0 01-1.996-.363 10.961 10.961 0 01-1.87-.695l-.484-.249-.43-.248c-.296-.163-.577-.361-.859-.559-.56-.386-1.078-.833-1.587-1.292a13.589 13.589 0 01-2.518-3.192c-1.344-2.364-1.984-5.129-1.743-7.832.065-.677.174-1.351.328-2.01.155-.66.375-1.31.622-1.932l.19-.452c.04-.1.097-.212.154-.325.028-.056.057-.112.083-.167l.118-.246.116-.202.254-.452c.174-.298.36-.588.546-.878.057-.08.112-.161.168-.242.14-.203.28-.407.438-.603a16.997 16.997 0 016.38-5.14 17.211 17.211 0 018.05-1.577c1.376.073 2.746.297 4.062.703.33.104.659.208.981.334.332.115.633.245.937.385.204.082.428.194.653.307.106.054.213.108.319.158l.094.048.119.066.227.132.462.253a21.618 21.618 0 016.265 5.483 21.785 21.785 0 014.364 15.771 21.376 21.376 0 01-.902 4.095 24.52 24.52 0 01-.736 1.951c-.118.311-.286.64-.455.97l-.23.469-.253.462a27.67 27.67 0 01-5.151 6.72 27.776 27.776 0 01-6.947 4.841 27.533 27.533 0 01-8.09 2.517 26.95 26.95 0 01-2.918.269c.163-.114.326-.228.497-.354a8.229 8.229 0 001.785-1.973 7.722 7.722 0 001.13-2.964c.182-1.116.136-2.374-.24-3.554a8.485 8.485 0 01-.079-.224 6.472 6.472 0 00-.09-.251l-.205-.447a4.103 4.103 0 00-.236-.432 3.005 3.005 0 01-.088-.147 1.596 1.596 0 00-.177-.268 6.695 6.695 0 00-1.39-1.455 6.273 6.273 0 00-1.802-.976 6.691 6.691 0 00-2.045-.397 4.016 4.016 0 00-.525.005l-.12.005a2.918 2.918 0 00-.4.031l-.51.089-.487.106a5.517 5.517 0 00-1.918 1.018 5.694 5.694 0 00-2.023 3.57 4.188 4.188 0 00-.059.683c-.004.109-.008.216-.003.326.008.068.011.135.015.202.005.098.01.196.028.295l.074.427.016.094c.02.058.033.11.048.163.02.076.042.154.078.255l.013.034c.058.161.118.33.192.467.148.297.317.589.512.845.801 1.031 1.969 1.634 3.086 1.762.56.065 1.1.025 1.595-.093l.125-.022.07-.033.142-.046c.11-.041.251-.098.382-.152.227-.115.431-.236.622-.376a3.64 3.64 0 001.345-1.908 3.27 3.27 0 00.1-1.466 2.021 2.021 0 00-.075-.373l-.022-.125a.128.128 0 00-.013-.038.168.168 0 00-.02-.031 2.272 2.272 0 00-2.62-1.79 2.284 2.284 0 00-1.853 2.628 2.28 2.28 0 002.324 1.884 1.9 1.9 0 01-.378.173c-.055.009-.108.027-.168.046l-.027.009-.26.045a3 3 0 01-2.923-1.189 2.669 2.669 0 01-.317-.525c-.023-.043-.038-.085-.053-.125-.016-.043-.03-.085-.054-.125-.038-.09-.077-.255-.109-.378l-.05-.292c-.012-.068-.012-.134-.013-.201 0-.046 0-.092-.003-.139-.015-.084-.012-.164-.009-.247l.003-.096a1.97 1.97 0 01.026-.348 3.885 3.885 0 011.353-2.477 3.704 3.704 0 011.262-.712 4.97 4.97 0 011.57-.24 4.718 4.718 0 011.558.256c.5.16.982.399 1.412.711.42.313.823.662 1.132 1.081a.998.998 0 01.134.181c.03.045.058.091.092.134.072.105.144.211.197.331.062.107.125.225.176.334l.133.331c.366.999.447 2.026.354 2.976a7.272 7.272 0 01-.807 2.597 6.967 6.967 0 01-1.443 1.838l-.097.083c-.233.198-.448.38-.678.524a4.746 4.746 0 01-.495.307 6.625 6.625 0 00-.224.129 27.273 27.273 0 01-3.995-.371.082.082 0 01-.056-.012l-.01.002a28.02 28.02 0 01-2.266-.37 43.087 43.087 0 01-2.29-.515 48.737 48.737 0 01-4.498-1.357 50.95 50.95 0 01-8.538-3.909c-2.71-1.57-5.288-3.377-7.634-5.45a44.272 44.272 0 01-6.349-6.895 45.98 45.98 0 01-4.8-8.066 48.557 48.557 0 01-1.785-4.348l-.384-1.104-.358-1.14a41.308 41.308 0 01-.438-1.51c-.07-.253-.14-.507-.213-.759-.04-.138-.075-.277-.11-.416-.035-.139-.07-.278-.11-.416a59.92 59.92 0 002.067 2.819c.085.097.167.2.25.305.062.078.123.155.187.231.036.072.082.16.136.261l.137.261c.28.499.696 1.231 1.31 2.112a39.46 39.46 0 002.345 3.061 51.41 51.41 0 003.432 3.634 67.895 67.895 0 009.77 7.795c1.922 1.244 3.96 2.469 6.23 3.418.564.224 1.16.442 1.796.579a4.09 4.09 0 001.019.114c.182 0 .393-.026.606-.095.222-.081.443-.173.667-.491.227-.361.304-.847.211-1.26-.095-.423-.31-.74-.52-1.015-.438-.547-.946-.942-1.451-1.316-1.009-.737-2.072-1.358-3.123-1.97-1.05-.612-2.107-1.191-3.163-1.77l-1.169-.641c-1.694-.927-3.357-1.838-4.987-2.726a51.48 51.48 0 00-.772-.429 35.626 35.626 0 01-.702-.389l-.188-.11c-.412-.244-.817-.482-1.224-.729-.287-.168-.56-.355-.832-.54-.17-.116-.34-.232-.513-.343a23.75 23.75 0 01-.328-.222c-.11-.075-.22-.15-.329-.222l-.629-.471c-1.681-1.211-3.133-2.527-4.442-3.76a55.925 55.925 0 01-3.392-3.587 53.455 53.455 0 01-2.365-2.992 6.164 6.164 0 01-.298-.421c-.625-2.489-1.155-4.994-1.53-7.537a72.101 72.101 0 01-.383-3.014c.004.023.018.038.03.052l.014.016a14.066 14.066 0 003.093 3.66l.22.175c.277.22.56.445.867.646l.281.198.323.191c.19.106.382.223.574.34.124.081.284.15.448.22.078.034.156.068.231.103.072.03.144.063.217.095.166.074.335.149.502.21.143.044.285.093.427.141a7.19 7.19 0 001.056.3c1.012.264 2.098.334 3.2.304 1.097-.05 2.207-.275 3.307-.616a12.644 12.644 0 003.11-1.579 13.244 13.244 0 002.574-2.496c.173-.244.343-.499.514-.754l.128-.194.058-.096.017-.024.042-.072.024-.047.194-.366.194-.367.19-.451a6.72 6.72 0 00.327-.905 9.813 9.813 0 00.38-3.693c-.223-2.472-1.422-4.808-3.222-6.396l-.7-.566c-.122-.086-.246-.166-.37-.247a11.13 11.13 0 01-.37-.247l-.096-.058-.05-.035-.059-.032-.024-.018-.176-.087-.365-.184c-.166-.076-.36-.151-.552-.226a27.85 27.85 0 01-.302-.119 8.056 8.056 0 00-3.454-.347 7.653 7.653 0 00-3.152 1.083 8.17 8.17 0 00-2.342 2.165l-.224.318-.062.075-.018.025s-.002-.011-.024.047l-.026.036-.09.156-.173.309-.172.373c-.226.49-.357.974-.463 1.475a6.57 6.57 0 00.162 2.923c.523 1.841 1.921 3.22 3.305 3.828a5.073 5.073 0 004.036.052 4.913 4.913 0 001.63-1.13 2.183 2.183 0 001.187-2.32 2.171 2.171 0 00-2.507-1.765 2.171 2.171 0 00-1.767 2.506c.106.614.462 1.122.946 1.435a4.272 4.272 0 01-1.56.118l-.107-.012c-.131-.009-.255-.042-.378-.074a3.778 3.778 0 01-.733-.259c-.045-.014-.129-.064-.21-.103l-.228-.133-.148-.114-.194-.127a4.592 4.592 0 01-.702-.64 5.334 5.334 0 01-1.075-1.746 5.318 5.318 0 01-.292-2.246c.051-.384.129-.806.269-1.173l.102-.276.16-.317.081-.154.017-.024-.003-.021.062-.075.177-.278c.981-1.468 2.723-2.51 4.639-2.67a6.484 6.484 0 012.84.399c.086.042.171.079.257.116.125.054.251.108.385.18l.347.208.178.098.124.097c.099.074.2.148.301.221l.302.222.56.504a8.042 8.042 0 012.349 5.378 7.862 7.862 0 01-.419 2.916c-.057.22-.138.401-.22.586l-.032.069-.138.314-.207.358-.205.368-.01.002-.016.035-.051.073-.102.157a8.137 8.137 0 00-.216.306c-.07.103-.14.207-.215.305a11.75 11.75 0 01-2.115 2.051 12.141 12.141 0 01-2.549 1.343c-.904.296-1.813.507-2.734.581-.917.041-1.818.047-2.678-.148-.288-.034-.561-.114-.832-.192-.141-.041-.282-.082-.424-.116a3.519 3.519 0 01-.316-.115c-.085-.034-.17-.068-.258-.097l-.288-.111a1.204 1.204 0 01-.29-.122c-.1-.052-.2-.102-.3-.152-.1-.049-.2-.099-.3-.152l-.151-.07-.072-.041-.035-.016-.01.002-.253-.16a13.09 13.09 0 01-1.007-.663 15.3 15.3 0 01-1.717-1.484c-.499-.525-.955-1.047-1.327-1.584a13.096 13.096 0 01-1.32-2.229 66.586 66.586 0 01-.127-3.584c-.031-3.16.173-6.318.577-9.447.401-3.139 1.001-6.247 1.723-9.334.693-2.993 1.513-5.963 2.336-8.942.877-3.174 1.756-6.358 2.487-9.59a67.28 67.28 0 00.92-4.731l.065-.42c.1-.655.202-1.312.272-1.978.107-.813.173-1.608.24-2.402v-.001c.228-3.205.374-6.396.352-9.623-.021-1.112-.042-2.225-.106-3.34.973 1.527 2.207 2.698 3.296 3.528 3.441 2.635 7.643 3.646 9.843 3.265a3.566 3.566 0 001.017-.327c1.15-.617 2.106-2.103 1.739-3.542-.278-1.046-1.461-2.795-6.406-2.7-6.178.104-9.225-3.973-10.014-5.242a43.507 43.507 0 01-.07-.419c-.047-.281-.093-.564-.149-.841-.276-1.595-.698-3.164-1.179-4.701l-.383-1.157c-.141-.384-.283-.767-.422-1.139l-.008-.042c4.079 3.211 9.85 3.735 13.541 3.096 1.866-.323 3.275-.932 3.977-1.719.836-.939 1.293-2.574.572-3.887-.42-.754-1.583-1.947-4.659-1.415-.928.161-1.97.47-3.106.914a14.25 14.25 0 01-2.785.783c-5.078.879-8.817-1.554-9.777-2.257a36.492 36.492 0 00-2.277-3.909l-.413-.648-.44-.621-.271-.381c-.205-.29-.412-.583-.631-.858-.537-.68-1.073-1.36-1.637-2.013 3.268 1.387 7.206 1.8 11.355 1.082 4.15-.719 7.592-2.42 8.618-4.25.753-1.355.706-3.117-.119-4.284-.456-.65-1.58-1.68-3.925-1.273-1.523.264-3.313 1.089-5.33 2.458-1.98 1.34-4.106 2.213-6.317 2.596-4.898.848-8.732-.993-9.12-1.18a.725.725 0 00-.032-.015c-.06-.032-.115-.044-.17-.056a246.525 246.525 0 00-4.396-3.617 343.628 343.628 0 00-4.374-3.428c3.87 1.143 8.032 1.174 11.597.556 3.9-.675 7.01-2.126 8.12-3.778 1.006-1.505 1.094-3.602.188-4.99-.529-.821-1.89-2.11-4.976-1.575-1.616.28-3.516 1.028-5.64 2.222-1.976 1.115-4.038 1.858-6.134 2.22-6.787 1.176-11.897-2.038-11.946-2.073a.566.566 0 00-.347-.08c-1.669-1.513-3.263-3.094-4.695-4.788-1.258-1.5-2.39-3.074-3.333-4.735a22.528 22.528 0 01-2.13-5.233l-.09-.328-.083-.361-.156-.714c-.056-.284-.097-.589-.138-.894a30.98 30.98 0 00-.063-.456l-.058-.333-.006-.342-.021-.683c-.029-.36-.003-.716.023-1.075l.02-.285a14.445 14.445 0 011.393-5.167 15.183 15.183 0 013.06-4.286 14.706 14.706 0 014.266-2.896c.056-.026.113-.052.17-.08.135-.063.273-.128.408-.181l.577-.197c.081-.027.161-.055.242-.084.303-.107.61-.216.972-.287l.66-.157.33-.079.084-.014.02-.004.157-.027.61-.073c.198-.035.407-.07.614-.053 1.636-.1 3.259.155 4.762.71 3.004 1.1 5.405 3.432 6.6 6.176.112.214.186.43.259.644.04.122.082.242.13.362.096.232.167.527.238.82.024.1.048.2.073.296l.073.298.03.167.01.063.071.535c.043.25.05.5.056.749.002.104.005.209.01.312.02 1.414-.33 2.805-.925 4.024-.603 1.231-1.447 2.311-2.477 3.123-.51.4-1.06.763-1.632 1.055-.08.038-.161.079-.241.119-.206.104-.41.207-.616.265l-.197.075a4.25 4.25 0 01-.707.222l-.504.13-.115.02-.02.003-.282.049a2.78 2.78 0 00-.18.025c-.09.014-.182.03-.272.032l-.447.023c-.19.02-.381.008-.571-.004a5.543 5.543 0 00-.313-.014 7.773 7.773 0 01-.872-.139 7.633 7.633 0 01-3.055-1.456 7.52 7.52 0 01-2.002-2.508 4.916 4.916 0 01-.28-.66l-.011-.03c-.082-.17-.139-.4-.193-.617l-.037-.148c-.135-.47-.168-.97-.195-1.437a5.991 5.991 0 01.62-2.683 6.128 6.128 0 011.6-1.983c.16-.135.32-.26.485-.363a3.47 3.47 0 01.506-.303l.041-.022a2.59 2.59 0 01.476-.217c.054-.02.107-.041.16-.063.116-.047.235-.095.377-.127a4.907 4.907 0 012.056-.217 5 5 0 011.569.437 3.309 3.309 0 10.046 6.528 3.325 3.325 0 002.75-3.16l-.008-.04a3.045 3.045 0 00-.044-.626 3.311 3.311 0 00-1.124-1.963 5.458 5.458 0 00-3.095-1.814 5.71 5.71 0 00-2.341.062c-.188.032-.402.102-.615.17a4.5 4.5 0 00-.625.238 4.58 4.58 0 00-.558.269l-.056.03a3.76 3.76 0 00-.454.275 11.77 11.77 0 01-.147.098 6.93 6.93 0 00-2.03 2.23 7.35 7.35 0 00-.948 3.211c-.015.593.015 1.2.153 1.809l.033.163c.043.219.085.432.19.69l.006.022c.094.298.19.605.333.884a9.148 9.148 0 002.299 3.165c1.026.906 2.312 1.574 3.729 1.94.359.089.723.144 1.087.199.117.007.236.018.355.03.254.023.512.048.772.032.097 0 .19-.003.284-.006a8.72 8.72 0 01.283-.006c.128-.008.254-.025.38-.042l.189-.025.354-.06.117-.01.125-.022.505-.12c.246-.042.532-.135.825-.23l.28-.09c.268-.082.507-.19.746-.296.115-.051.23-.102.347-.15.706-.327 1.381-.766 2.017-1.251 1.269-.982 2.33-2.293 3.092-3.788.749-1.503 1.217-3.204 1.192-4.96-.007-.133-.01-.266-.012-.4-.007-.306-.013-.613-.066-.917l-.093-.66-.014-.084-.024-.135-.025-.146-.082-.286c-.025-.1-.047-.197-.07-.293-.07-.294-.138-.585-.27-.926-.05-.133-.096-.27-.143-.409-.102-.302-.205-.606-.346-.869-1.426-3.273-4.268-6.043-7.836-7.357a13.53 13.53 0 00-5.662-.823c-.197 0-.39.027-.583.053l-.145.02-.723.104-.177.03-.146.026-.084.014-.328.089-.66.157c-.354.062-.745.203-1.14.345-.082.03-.164.06-.246.088l-.708.252c-.16.065-.314.14-.466.213l-.2.095a16.912 16.912 0 00-4.865 3.343 17.241 17.241 0 00-3.432 4.93c-.194.42-.37.85-.529 1.287v11.602a24.85 24.85 0 002.125 4.757A32.816 32.816 0 005.723 75.1c2.693 3.086 5.823 5.72 9.01 8.249.112.088.224.176.346.262l-.038-.026a70.31 70.31 0 00-.957-.639 66.85 66.85 0 01-6.54-5.081c-2.104-1.857-4.346-4.077-6.419-6.744.033.005.077.008.105-.018.067-.044.086-.123.042-.19 0 0-.223-.359-.572-1.07-.202-.4-.44-.913-.7-1.533v1c.145.272.28.513.4.724.155.273.29.497.394.661l-.102-.132c-.132-.172-.262-.34-.387-.524A41.177 41.177 0 010 69.608v2.097zm0-27.918v3.147a55.63 55.63 0 011.637-3.493l.002.01c1.167-2.252 2.561-4.618 4.25-6.96 1.702-2.324 3.68-4.673 6.062-6.663 1.193-.99 2.487-1.89 3.881-2.582a13.186 13.186 0 012.16-.857c.369-.107.75-.195 1.104-.266.187-.033.406-.07.606-.095a3.57 3.57 0 01.551-.041c.746-.033 1.49.042 2.154.281a3.61 3.61 0 011.649 1.153 3.2 3.2 0 01.674 1.847 4.17 4.17 0 01-.451 2.042c-.643 1.313-1.866 2.373-3.253 3.107a9.02 9.02 0 01-1.064.495l-.291.115-.283.103-.587.209c-.514.18-1.035.352-1.554.523-.278.092-.555.183-.83.276-3.2 1.058-6.404 2.279-9.202 4.04a22.513 22.513 0 00-3.844 2.984c-.244.222-.46.446-.672.665l-.16.166-.146.158a17.27 17.27 0 00-.646.73A21.69 21.69 0 000 47.213v2.53a19.772 19.772 0 012.806-4.015c.14-.16.296-.322.449-.482.1-.106.2-.21.294-.312.275-.273.55-.546.811-.774 1.094-1.005 2.333-1.906 3.666-2.706 2.662-1.62 5.724-2.73 8.922-3.734.804-.257 1.607-.514 2.418-.794l.618-.215.312-.118.302-.117c.443-.173.84-.36 1.244-.57 1.604-.846 3.14-2.088 4.036-3.853.438-.881.695-1.88.645-2.913a4.976 4.976 0 00-1.046-2.878 5.365 5.365 0 00-2.469-1.73 7.267 7.267 0 00-2.836-.377 7.214 7.214 0 00-.957.094c-.124.017-.249.033-.38.062-.469.081-.912.19-1.33.316-.858.256-1.68.592-2.45.983-1.561.785-2.934 1.785-4.197 2.862C8.354 30.634 6.32 33.09 4.63 35.55A52.296 52.296 0 000 43.787zm0-4.545v-3.111c1.105-1.677 2.292-3.308 3.48-4.933l.117-.16c1.496-2.058 2.987-4.109 4.223-6.279 1.268-2.226 2.243-4.595 2.598-7.071.184-1.234.215-2.484.106-3.732l-.023-.253c-.02-.234-.042-.492-.077-.695l-.153-.886a11.803 11.803 0 00-.509-1.758 12.932 12.932 0 00-4.25-5.81A12.895 12.895 0 000 2.088V.018A14.785 14.785 0 016.717 2.95c2.208 1.71 3.946 4.06 4.892 6.73.244.665.426 1.342.578 2.035l.09.52.073.546c.04.284.06.514.08.775l.02.238c.112 1.387.066 2.8-.156 4.18-.211 1.39-.601 2.734-1.097 4.022-.497 1.288-1.122 2.512-1.8 3.681-1.281 2.193-2.764 4.194-4.22 6.16l-.294.396C3.322 34.317 1.8 36.383.46 38.503c-.156.246-.31.492-.46.74zm0-18.658a8.128 8.128 0 002.134-2.18c1.16-1.736 1.564-3.803 1.289-5.643C3.14 10.824 2.01 9.26.666 8.312A6.74 6.74 0 000 7.911v2.604a4.768 4.768 0 011.276 2.563A6.015 6.015 0 010 17.701v2.883zm29.959 195.274l-.012-.017.01.006.002.011zm18.8-3.181c-1.681-1.276-3.132-2.645-4.429-3.934l.01-.001c-.207-.213-.415-.43-.619-.643a328.766 328.766 0 00-.383-.402c-.023-.025-.046-.051-.073-.078.035.042.067.087.099.133.032.045.064.091.098.133.63.846 1.434 1.834 2.427 2.917a59.872 59.872 0 003.492 3.484 69.139 69.139 0 004.473 3.755 75.368 75.368 0 005.312 3.759 60.005 60.005 0 002.946 1.754 28.005 28.005 0 003.132 1.529c.54.207 1.09.402 1.626.523.268.061.533.101.768.093.116-.01.22-.028.293-.04.051-.009.087-.047.09-.044l-.017.031a.647.647 0 00.08-.475c-.042-.176-.163-.38-.316-.579-.317-.406-.768-.779-1.237-1.127-.887-.66-1.868-1.245-2.844-1.829l-.163-.097c-.87-.512-1.76-1.012-2.64-1.507l-.482-.271-2.064-1.164c-1.373-.775-2.726-1.539-4.052-2.284-.894-.489-1.752-1.028-2.597-1.558l-.293-.184c-.3-.188-.584-.391-.867-.593-.162-.115-.323-.231-.487-.343l-.66-.465a24.433 24.433 0 01-.218-.174c-.135-.109-.268-.217-.405-.319zM30.69 79.684c-2.084 1.176-4.267 1.962-6.488 2.347-4.04.697-7.461-.04-9.736-.847l.614.506c.204.168.407.337.613.505.677.555 1.373 1.107 2.06 1.65l.11.089c4.508 2.342 9.95 2.634 14.422 1.86 3.514-.61 6.484-1.94 7.406-3.311.768-1.142.84-2.775.18-3.799-.685-1.04-2.019-1.42-3.885-1.098-1.501.26-3.28.966-5.296 2.098zm20.096 10.933c-1.366.236-3.016 1.005-4.91 2.288v-.01c-2.106 1.427-4.382 2.357-6.738 2.765-2.962.513-5.53.132-7.3-.356.101.09.203.18.306.28 3.482 2.616 8.392 3.623 13.709 2.702 4.202-.728 7.131-2.416 7.852-3.71.549-.986.525-2.302-.058-3.124-.553-.773-1.496-1.072-2.861-.835zm9.375 37.086c-.325-1.253-2.27-1.947-5.331-1.889-4.893.086-7.992-2.243-9.661-4.068.875 2.51 2.622 4.289 4.108 5.427 3.081 2.353 7 3.403 9.002 3.056.27-.047.505-.12.682-.215.758-.399 1.432-1.407 1.2-2.311zm-6.86-18.527c-.983.396-1.998.679-2.998.852l-.002-.01a13.988 13.988 0 01-8.718-1.291c3.706 4.413 10.344 5.163 14.358 4.468 1.574-.273 2.827-.791 3.349-1.375.577-.636.902-1.798.436-2.629-.716-1.282-3.117-1.317-6.425-.015z" fill="#F2CAB3"/></svg>