<svg width="133" height="295" fill="none" xmlns="http://www.w3.org/2000/svg"><path fill-rule="evenodd" clip-rule="evenodd" d="M133 46.182l-.281.197a70.995 70.995 0 01-4.624 2.955c-1.582.911-3.198 1.73-4.891 2.345-1.682.616-3.43 1.017-5.163 1.006l-.066-.008a19.377 19.377 0 01-8.938-1.578 19.78 19.78 0 01-3.954-2.302 18.282 18.282 0 01-3.278-3.175 18.33 18.33 0 01-1.316-1.85l-.152-.237-.067-.107-.075-.129c-.035-.067-.073-.133-.11-.199-.059-.105-.118-.208-.168-.314l-.247-.488-.222-.507a12.17 12.17 0 01-.927-4.315 12.334 12.334 0 01.654-4.345 11.947 11.947 0 012.17-3.829 12.39 12.39 0 011.579-1.564c.584-.47 1.206-.882 1.857-1.246l.252-.132.109-.062.13-.06c.179-.086.358-.173.513-.24.319-.134.682-.252 1.033-.36a8.976 8.976 0 012.166-.327 9.251 9.251 0 014.264.905 8.951 8.951 0 013.929 3.582l.139.257.109.22.064.148c.047.106.096.215.129.323a5.41 5.41 0 01.353 1.99c-.022 1.347-.518 2.699-1.448 3.724a5.81 5.81 0 01-1.637 1.285 4.026 4.026 0 01-1.955.451 4.351 4.351 0 01-1.98-.498c.851-.155 1.538-.83 1.642-1.72.129-1.104-.689-2.11-1.832-2.253-1.143-.143-2.168.631-2.297 1.735-.038.322.005.632.118.918a.479.479 0 00.024.275c.766 1.543 2.463 2.637 4.27 2.787a5.359 5.359 0 002.678-.469 7.046 7.046 0 002.112-1.497 6.938 6.938 0 001.976-4.68 7.32 7.32 0 00-.409-2.575 7.39 7.39 0 00-.254-.619l-.155-.313-.139-.257a9.467 9.467 0 00-.729-1.081 10.425 10.425 0 00-4.031-3.193 10.904 10.904 0 00-5.062-.918 11.23 11.23 0 00-2.52.467c-.41.134-.799.28-1.191.46-.203.094-.382.18-.551.28l-.132.07-.146.09-.267.162a14.18 14.18 0 00-3.704 3.18 13.738 13.738 0 00-3.14 8.96 14.03 14.03 0 00.965 4.756l.237.574.271.567c.06.123.123.237.184.351l.093.173.075.129c.024.046.041.073.058.1l.027.041.15.258a21.28 21.28 0 001.374 2.022 20.517 20.517 0 003.467 3.491 21.508 21.508 0 004.222 2.608 21.278 21.278 0 007.233 1.908c-.416.09-.867.185-1.337.257-.79.118-1.665.182-2.577.177-1.838.02-3.881-.422-5.886-1.38-1.992-.98-3.906-2.525-5.629-4.449l-.245-.284c-.34-.395-.687-.798-1.009-1.233l-.152-.194v-.002a14.29 14.29 0 01-.453-.598 48.471 48.471 0 01-.578-.834l-.29-.417-.275-.437a61.34 61.34 0 01-.08-.125l-.201-.312-.281-.438c-.27-.43-.542-.882-.816-1.337l-.001-.002-.308-.51a362.08 362.08 0 00-4.744-7.688l-.001-.001c-.839-1.301-1.678-2.603-2.55-3.908a156.892 156.892 0 00-2.712-3.876c-.983-1.32-1.99-2.632-3.06-3.887-.05-.147-.099-.306-.148-.464-.047-.156-.098-.312-.15-.472a35.869 35.869 0 01-.138-.435 17.581 17.581 0 01-.568-4.302c.026-1.574.28-3.272.85-4.963a15.4 15.4 0 012.716-4.848c.134-.144.265-.289.395-.433.196-.217.391-.434.599-.65.094-.08.185-.164.277-.248.091-.083.183-.167.276-.248l.278-.259.139-.124.064-.068.037-.028.64-.474c.048-.032.096-.07.143-.106.063-.048.123-.096.178-.126l.301-.169c.076-.043.15-.088.223-.133.123-.075.246-.15.38-.215h.001c.226-.103.452-.205.668-.32a11.26 11.26 0 015.977-.848c1.031.14 2.048.398 3.013.813.145.056.28.126.416.196.095.05.19.099.288.142l.351.175.337.205c.221.137.441.273.66.42l.62.48c.152.103.28.228.409.355.057.055.113.11.172.165l.285.264.071.063.03.036.011.002.139.159.267.316.139.159.096.142c.048.079.102.15.156.224.085.114.171.229.237.37.498.845.806 1.776.92 2.726.208 1.886-.363 3.783-1.5 5.13l-.104.113c-.116.125-.227.245-.346.364a19.87 19.87 0 01-.487.418l-.063.057-.002.011-.033-.004-.148.112-.294.202a4.066 4.066 0 00-.193.101h-.001a2.554 2.554 0 01-.309.152 5.145 5.145 0 01-2.212.43 5.508 5.508 0 01-3.549-1.436l-.151-.15-.081-.075-.023-.003-.028-.047a11.784 11.784 0 00-.084-.102 1.848 1.848 0 01-.18-.236l-.088-.12a3.46 3.46 0 001.511.56c1.865.234 3.545-1.035 3.755-2.836.21-1.8-1.13-3.448-2.994-3.682-1.565-.196-2.993.658-3.533 2.004a4.33 4.33 0 00-.91 2.094c-.067.58-.055 1.255.179 1.948l.02.06c.053.153.107.312.189.467.035.08.08.173.126.266.03.062.07.125.111.188l.06.094c.09.157.168.259.243.355l.075.098.04.049.048.06.031.026.1.11.21.223a6.58 6.58 0 002.163 1.446c.86.347 1.828.544 2.836.497a6.89 6.89 0 002.948-.849 6.4 6.4 0 00.542-.343l.072-.049.08-.053.274-.227.137-.113.062-.047.038-.039.065-.068c.089-.092.182-.184.274-.276.092-.091.185-.183.274-.275.17-.197.339-.393.509-.6a9.386 9.386 0 001.501-2.825 8.524 8.524 0 00.386-3.302 8.545 8.545 0 00-.959-3.362 4.571 4.571 0 00-.319-.565c-.051-.082-.102-.163-.15-.244l-.123-.2-.126-.169-.254-.336-.127-.168-.049-.06-.02-.025-.039-.048-.08-.087-.31-.332a8.365 8.365 0 01-.166-.18h-.001a4.353 4.353 0 00-.468-.465l-.683-.608a9.615 9.615 0 00-.495-.37l-.252-.18v-.001a7.498 7.498 0 00-.374-.264l-.401-.236c-.097-.054-.193-.112-.289-.169-.173-.103-.345-.206-.524-.292-1.115-.575-2.332-.956-3.575-1.21C94.645.55 93.363.53 92.1.643c-1.265.124-2.489.482-3.646.946-.286.127-.56.256-.846.394-.19.085-.374.2-.557.315-.092.057-.184.114-.276.168l-.413.253a1.904 1.904 0 00-.2.143 2.548 2.548 0 01-.145.107l-.654.495-.074.056-.025.018-.038.04-.077.076-.164.154-.316.297-.316.298-.317.298c-.324.35-.634.719-.94 1.083l-.002.002-.178.21a13.82 13.82 0 00-.626.871c-.114.168-.227.334-.344.497a3.052 3.052 0 00-.283.462 5.84 5.84 0 01-.138.247c-.13.245-.258.479-.398.712-.484.961-.87 1.947-1.131 2.936-.15.424-.23.864-.31 1.298v.003l-.03.168c-.025.119-.047.237-.07.354-.022.125-.046.248-.071.369-.029.246-.045.483-.062.72-.11.943-.063 1.862-.02 2.728l.002.033c.05.442.1.872.153 1.292.037.296.109.58.179.858a15.496 15.496 0 01.142.594c.015.057.03.114.042.171l-.09-.09a29.678 29.678 0 00-.586-.582c-1.156-1.102-2.386-2.138-3.725-3.013-1.338-.886-2.788-1.59-4.312-2.042-1.51-.472-3.103-.618-4.572-.574-.283-.004-.552.022-.82.047l-.315.029c-.141.024-.283.043-.425.062-.23.03-.46.062-.688.113a9.66 9.66 0 00-2.117.67c-1.353.592-2.521 1.533-3.31 2.696-.799 1.151-1.192 2.494-1.264 3.79a7.033 7.033 0 00.809 3.68 6.138 6.138 0 001.1 1.477l.08.086.04.038.02.024s-.02-.014.05.05l.144.126.035.03.045.036c.07.056.141.114.207.177l.144.116.144.116c.114.08.23.16.333.238 1.73 1.283 3.606 1.812 5.166 1.855a6.805 6.805 0 002.071-.284c.294-.104.553-.203.783-.337.238-.111.435-.25.596-.382.119-.07.211-.163.296-.247.045-.045.087-.088.13-.124.097-.09.17-.19.231-.272l.032-.043c.122-.18.189-.27.189-.27a.177.177 0 00.034-.07.551.551 0 01.012-.033c.247-.284.411-.634.458-1.03.129-1.105-.689-2.11-1.832-2.253-1.143-.144-2.168.63-2.297 1.735-.095.815.324 1.563 1.01 1.965a.08.08 0 00-.046.005 5.63 5.63 0 01-1.603.027c-.61-.076-1.265-.256-1.954-.528-.689-.271-1.413-.72-2.076-1.217a3.368 3.368 0 00-.249-.184 5.2 5.2 0 01-.138-.12 3.733 3.733 0 00-.138-.121 5.215 5.215 0 00-.215-.192l-.07-.062-.122-.107c-.003-.006-.01-.018 0-.017l.002-.01-.042-.027-.05-.05a3.931 3.931 0 01-.76-1.02c-.428-.772-.678-1.717-.696-2.72-.007-1.001.23-2.06.788-2.99a5.772 5.772 0 012.53-2.283 7.199 7.199 0 011.792-.59c.223-.058.453-.086.683-.115.094-.011.188-.023.281-.037.12-.005.243-.014.367-.023a7.06 7.06 0 01.63-.026c1.374-.001 2.741.148 4.075.588a14.56 14.56 0 013.792 1.955c1.184.856 2.283 1.864 3.316 2.95 2.064 2.196 3.877 4.697 5.605 7.263a155.424 155.424 0 012.53 3.896c.827 1.3 1.643 2.61 2.447 3.919a970.68 970.68 0 011.567 2.518 452.333 452.333 0 003.72 5.921c.22.351.442.702.677 1.055.1.154.204.308.307.462l.306.463.308.452.33.444c.14.197.286.39.43.58h.001l.222.296c.134.18.282.354.43.526.088.104.176.207.26.311.366.46.774.896 1.175 1.325l.25.268c.998 1.006 2.002 1.948 3.116 2.73 1.103.78 2.251 1.457 3.424 1.93a14.642 14.642 0 006.759 1.131c2.033-.147 3.713-.644 5.02-1.132a34.038 34.038 0 001.761-.715 14.282 14.282 0 001.703-.113c-.166.079-.333.16-.504.244h-.001c-.26.127-.527.257-.807.386-2.156 1.002-4.812 2.148-7.962 3.178-3.139 1.042-6.796 1.976-10.849 2.36-4.028.353-8.574.131-12.749-1.926l-.377-.194-.001-.001a58.67 58.67 0 00-.376-.194c-.255-.13-.5-.258-.75-.42-.127-.076-.25-.154-.373-.232a17.883 17.883 0 00-.373-.232 9.857 9.857 0 00-.233-.145 5.648 5.648 0 01-.51-.34 53.11 53.11 0 00-.48-.348c-.32-.232-.641-.463-.95-.712l-.387-.318a27.814 27.814 0 01-.998-.845c-1.829-1.6-3.52-3.422-5.198-5.341a82.444 82.444 0 01-1.18-1.381v-.001l-.385-.457a7.452 7.452 0 01-.186-.72c-.146-.583-.161-1.227-.161-1.901a7.269 7.269 0 01.384-2.04c.216-.692.585-1.342 1.016-1.951.06-.074.116-.149.173-.223a7.35 7.35 0 01.172-.223l.387-.42.05-.047.027-.03.124-.104.239-.21c.058-.04.111-.079.163-.117a3.53 3.53 0 01.242-.169 5.104 5.104 0 012.033-.724c.71-.106 1.444-.025 2.11.156.664.192 1.28.509 1.787.899l.165.13.203.188c.048.045.074.075.098.103a.84.84 0 00.052.057.756.756 0 00.05.055.571.571 0 01.08.092c.164.227.318.453.436.697.137.278.204.57.25.847a2.143 2.143 0 00-1.246-.613c-1.143-.144-2.168.63-2.297 1.735-.129 1.104.689 2.11 1.832 2.253.455.057.882-.03 1.254-.224a.274.274 0 00.222-.07l.25-.218c.163-.143.383-.387.615-.728.221-.353.444-.815.546-1.4a4.175 4.175 0 00-.104-2.004 4.095 4.095 0 00-.493-1.084 6.569 6.569 0 00-.4-.53l-.178-.206-.02-.025-.04-.037-.073-.053-.122-.113a6.362 6.362 0 00-2.327-1.39 6.568 6.568 0 00-2.914-.312c-.994.126-1.98.47-2.811 1.029a8.888 8.888 0 00-.63.475l-.229.222-.114.105-.088.087-.065.068-.456.53c-.096.119-.184.248-.272.377-.043.065-.087.13-.132.193-.497.786-.887 1.618-1.088 2.474a8.777 8.777 0 00-.223 2.485c.02.21.043.408.064.606l-.573-.702c-.384-.47-.77-.942-1.15-1.418l-.534-.658c-1.488-1.833-2.99-3.684-4.65-5.485l-.69-.74-.771-.727a22.327 22.327 0 01-.274-.261 24.944 24.944 0 00-.497-.467l-.812-.667c-.1-.079-.196-.16-.292-.24a6.757 6.757 0 00-.532-.419l-.875-.61c-.406-.307-.848-.563-1.289-.82a34.616 34.616 0 01-.527-.31 19.423 19.423 0 00-8.24-2.546c-2.92-.247-5.861.342-8.473 1.493-.101.046-.204.09-.308.134-.225.097-.453.195-.667.31l-.927.514-.459.258-.12.061s-.11.074-.097.064l-.05.038-.207.137-.832.57c-.19.136-.377.298-.563.458-.091.079-.182.157-.272.231l-.414.361a10.58 10.58 0 00-.185.19c-.061.063-.122.126-.185.188h-.001c-.243.253-.486.505-.73.768l-.65.832c-.82 1.137-1.525 2.354-1.98 3.657l-.182.488a7.932 7.932 0 00-.136.494c-.034.137-.072.272-.11.407-.055.196-.11.392-.153.594-.023.138-.047.275-.072.412-.095.54-.19 1.077-.2 1.631-.23 2.735.442 5.473 1.66 7.867.157.291.337.586.518.87l.253.434.027.058.057.094.067.095.147.193c.065.084.127.168.188.252.123.168.246.335.399.507l.71.774c.968.96 2.07 1.75 3.259 2.367 1.188.628 2.471 1.017 3.753 1.232 1.28.215 2.594.25 3.843.069 1.248-.18 2.468-.495 3.565-1.021a4.96 4.96 0 00.803-.41l.386-.224.193-.107s.073-.045.084-.044l.048-.026.085-.055.235-.165c.15-.105.298-.208.453-.325l.35-.299c.116-.1.232-.199.35-.298a9.58 9.58 0 002.921-5.921 9.504 9.504 0 00-.208-3.138c-.079-.414-.22-.8-.36-1.185a34.872 34.872 0 01-.1-.276 46.427 46.427 0 01-.107-.231c-.177-.383-.35-.76-.582-1.106l-.188-.317-.047-.082s-.048-.072-.049-.06l-.03-.037-.106-.144-.205-.276-.108-.133-.13-.147a23.52 23.52 0 01-.103-.114c-.136-.149-.272-.3-.418-.43a7.293 7.293 0 01-.207-.181c-.112-.1-.224-.201-.346-.29a8.322 8.322 0 00-2.458-1.332 8.919 8.919 0 00-2.57-.464 8.86 8.86 0 00-2.39.31 8.51 8.51 0 00-2.005.88l-.06.035-.049.027-.024.019-.1.074-.196.139a2.72 2.72 0 00-.38.304l-.017.016a5.014 5.014 0 00-.579.563l-.082.09-.04.042a6.61 6.61 0 00-.93 1.504c-.196.52-.354 1.011-.41 1.493a5.845 5.845 0 00.167 2.425 6 6 0 00.59 1.402l.275.448c.056.094.164.14.266.13a2.13 2.13 0 001.416.798c1.143.144 2.168-.63 2.297-1.735.13-1.104-.688-2.11-1.831-2.253-1.055-.132-2.01.52-2.245 1.48-.04-.135-.081-.27-.12-.428a5.236 5.236 0 01-.052-2.15c.05-.428.223-.852.41-1.296.21-.442.485-.875.848-1.286.035-.035.07-.07.104-.107.159-.163.322-.33.503-.46.1-.084.212-.18.358-.27l.197-.138.097-.064.025-.019.048-.026a7.42 7.42 0 011.797-.732 7.778 7.778 0 012.097-.216 7.657 7.657 0 012.21.462c.733.277 1.442.67 2.068 1.195.152.14.305.278.447.415.109.1.2.207.29.314.035.043.072.086.109.128l.1.11.095.143.205.276.096.142.03.037.036.07.159.28c.18.278.313.575.45.878.043.098.087.196.133.295l.068.197c.122.353.243.704.313 1.08a7.96 7.96 0 01.133 2.714 8.25 8.25 0 01-2.59 5.027 14.94 14.94 0 00-.281.231l-.28.231c-.158.12-.334.236-.51.353-.06.038-.118.077-.176.116l-.085.055-.048.026-.18.098-.349.184-.095.052a3.898 3.898 0 01-.62.294c-.965.444-2.042.7-3.128.837-1.098.145-2.229.09-3.342-.115-1.113-.216-2.22-.562-3.239-1.103a11.63 11.63 0 01-2.778-2.056l-.557-.625a6.698 6.698 0 01-.346-.45c-.073-.098-.146-.198-.22-.295l-.136-.191-.06-.073-.018-.035-.028-.047-.225-.387c-.05-.086-.101-.171-.153-.256a8.506 8.506 0 01-.297-.519c-1.059-2.123-1.62-4.543-1.407-6.953.01-.445.087-.883.163-1.32.028-.159.056-.318.08-.477.046-.197.102-.393.157-.59.028-.098.056-.196.082-.294.04-.147.08-.294.13-.44l.163-.426c.394-1.158 1.026-2.232 1.749-3.218l.57-.733c.103-.112.212-.224.32-.335.11-.112.218-.223.321-.335a4.74 4.74 0 01.205-.214l.115-.116.35-.294c.103-.082.2-.166.297-.252.127-.111.256-.224.402-.334l.832-.57.208-.137.049-.038.12-.06.42-.23.844-.472a6.09 6.09 0 01.514-.238c.124-.053.248-.105.366-.163 2.361-1.03 4.97-1.573 7.57-1.367 2.602.185 5.168.975 7.46 2.274.179.11.362.216.546.322.387.224.776.45 1.134.716l.812.57c.192.123.37.271.547.42.075.063.15.126.227.188l.761.617c.156.138.307.279.457.419l.255.236.712.655.692.729c1.59 1.697 3.097 3.51 4.583 5.298l.435.523.158.19.35.423c1.559 1.884 3.105 3.753 4.707 5.553 1.712 1.934 3.515 3.759 5.429 5.402 1.936 1.646 3.966 3.065 6.243 4.112.138.072.276.144.416.194l.41.16c.134.055.271.108.409.16.137.053.275.105.409.16l.443.165.435.13c.142.04.286.082.43.125l.43.125c.345.095.689.167 1.031.238.231.049.462.097.692.152.248.03.495.068.742.105.327.049.652.098.976.132 2.28.243 4.484.171 6.572-.057 4.174-.455 7.851-1.56 11-2.688a72.159 72.159 0 007.935-3.432 61.641 61.641 0 002.653-1.407 20.47 20.47 0 002.097-.597 29.344 29.344 0 002.291-.909c-.332.524-.663 1.048-1.016 1.559a157.375 157.375 0 01-2.614 3.773 282.24 282.24 0 01-2.697 3.719c-.307.407-.612.816-.918 1.225-.611.818-1.222 1.636-1.842 2.443-.93 1.22-1.871 2.43-2.822 3.627a283.36 283.36 0 01-2.883 3.576l-1.467 1.763-1.497 1.727c-.172.185-.343.373-.513.56h-.001c-.341.376-.683.751-1.032 1.106l-.791.793c-.168.16-.358.336-.549.512l-.001.001-.004.004-.28.26c-2.238 2.003-4.721 3.79-7.395 5.185-2.676 1.405-5.566 2.435-8.536 2.889-2.97.465-6.03.331-8.936-.436-2.885-.754-5.583-2.147-7.974-3.948-1.141-1.025-2.129-2.215-2.875-3.537a13.339 13.339 0 01-1.542-4.251 12.665 12.665 0 01-.009-4.461c.26-1.458.787-2.882 1.564-4.133l.12-.197c.066-.111.13-.22.198-.308l.317-.406c.157-.224.369-.448.576-.669l.126-.135.193-.204.201-.181.414-.362c.17-.145.353-.273.538-.401.117-.081.234-.163.349-.249a10.275 10.275 0 014.142-1.525 10.805 10.805 0 014.438.284c.23.072.457.15.684.23.125.045.25.089.377.132l.513.238.256.12.128.06.034.003-.002.011.042.027c.097.058.2.117.304.175.266.151.532.302.694.44.05.039.102.073.152.107.085.058.17.115.252.194l.41.355c.515.5.993 1.039 1.348 1.66.13.183.23.39.328.594.056.115.111.23.172.339.037.105.079.21.12.314.09.224.179.45.236.688.415 1.357.392 2.812.021 4.158a6.996 6.996 0 00-.122.352c-.07.216-.14.43-.252.634l-.197.433-.31.526a6.591 6.591 0 01-1.362 1.45c-1.09.843-2.505 1.296-3.921 1.27a6.404 6.404 0 01-2.407-.507 4.482 4.482 0 00-.182-.078l-.204-.091-.274-.154c-.168-.081-.26-.153-.352-.224-.026-.02-.05-.039-.077-.058a1.595 1.595 0 01-.248-.19 3.31 3.31 0 00-.144-.12c-1.033-.892-1.63-2.25-1.63-3.6 0-.674.158-1.35.445-1.977l.03-.062-.001.01c.03-.072.002-.02.002-.02l.002-.011.094-.13c.024-.036.047-.077.07-.117.027-.05.054-.098.083-.136.03-.04.058-.078.085-.117.054-.078.108-.156.193-.24.105-.128.22-.244.346-.358-.006.053-.018.106-.03.159a1.557 1.557 0 00-.03.16c-.21 1.8 1.13 3.448 2.994 3.682 1.864.234 3.544-1.035 3.754-2.836.21-1.801-1.129-3.449-2.993-3.683a3.55 3.55 0 00-.97.01 3.547 3.547 0 00-.463-.02h-.03a5.679 5.679 0 00-2.806.791c-.414.264-.808.551-1.143.912a3.64 3.64 0 00-.382.443l-.07.09-.045.057a5.086 5.086 0 00-.165.262l-.083.131-.004.032-.052.06-.002.02-.044.082a6.525 6.525 0 00-.767 2.71c-.12 1.9.664 3.87 2.127 5.228.76.715 1.595 1.19 2.499 1.553a8.261 8.261 0 002.858.598c1.95.082 3.92-.487 5.472-1.63a8.421 8.421 0 002.024-2.096l.32-.526.004-.032a.462.462 0 01.05-.064l.003-.005.002-.022.044-.081.074-.154.149-.308c.15-.284.254-.59.359-.896.046-.134.091-.268.141-.4.522-1.774.567-3.704.046-5.51a6.658 6.658 0 00-.319-.953c-.049-.125-.098-.25-.145-.378-.07-.135-.137-.27-.203-.406a6.41 6.41 0 00-.462-.841c-.478-.822-1.115-1.544-1.792-2.205l-.542-.47a7.408 7.408 0 00-.505-.372l-.107-.075a8.024 8.024 0 00-.851-.54c-.097-.055-.194-.11-.294-.17l-.063-.04-.074-.042-.022-.003-.042-.027-.16-.074-.32-.15-.643-.286-.332-.117a20.772 20.772 0 00-1-.333 13.33 13.33 0 00-5.581-.33 13.02 13.02 0 00-5.16 1.952 21.17 21.17 0 01-.32.227 8.026 8.026 0 00-.779.592l-.515.458c-.087.076-.175.152-.252.23l-.232.253c-.07.077-.14.153-.211.228-.24.258-.478.513-.689.823l-.428.577a4.966 4.966 0 00-.238.377l-.094.158c-1.844 3.065-2.445 6.764-1.77 10.243a15.705 15.705 0 001.863 4.976 16.596 16.596 0 003.414 4.127s.052.04.073.053a27.49 27.49 0 002.098 1.416c-.106.069-.213.141-.327.22l-.26.174c-.272.216-.56.463-.874.739l-.11.113-.002.003c-.109.11-.222.227-.336.35l-.105.11-.001.002c-.122.129-.247.26-.36.406-.146.188-.304.386-.462.584l-.194.301-.233.363c-.12.177-.221.377-.324.582l-.077.15-.037.076-.037.073c-.04.08-.081.16-.118.241-.06.134-.11.27-.16.415a10.4 10.4 0 00-.745 3.768 10.72 10.72 0 00.853 4.274l.254.52c.084.175.168.348.255.522l.312.507.141.236c.029.049.069.1.109.15.026.034.053.068.076.101l.401.518c.1.123.201.229.307.338l.123.13c.213.243.456.451.7.661.076.064.15.129.225.194 1.343 1.039 2.98 1.777 4.72 2.018 1.735.282 3.532.029 5.116-.61l.582-.264.144-.069.071-.034v-.005c.006.001.027-.007.096-.048l.036-.018.242-.143c.288-.149.718-.454 1.066-.737a7.7 7.7 0 001.642-1.915c.222-.353.389-.724.556-1.094l.016-.046c.13-.37.256-.73.333-1.107a7.005 7.005 0 00.124-2.323c-.092-.752-.266-1.48-.56-2.138-.092-.232-.213-.453-.33-.668-.05-.092-.1-.182-.147-.272l-.018-.035-.047-.082-.028-.047-.057-.094-.125-.18a3.486 3.486 0 00-.232-.299l-.092-.11a6.148 6.148 0 00-.646-.664l-.09-.082a7.426 7.426 0 00-.787-.577 5.874 5.874 0 00-1.64-.717 6.26 6.26 0 00-2.841-.16c-.73.124-1.262.372-1.63.543l-.059.028-.205.115a3.229 3.229 0 00-1.838 2.533c-.21 1.8 1.129 3.448 2.993 3.682 1.865.234 3.545-1.035 3.755-2.836a3.115 3.115 0 00-.23-1.606c.126.081.252.162.377.254.166.119.319.258.47.407l.045.047c.13.137.275.29.351.416l.051.067c.04.05.08.1.132.206l.113.188.056.094.002.003c-.004-.003 0 .005.007.015l-.001.016c.023.048.048.095.072.143.088.17.175.34.232.526.183.458.284.95.326 1.455.064.509.003 1.034-.104 1.564a4.736 4.736 0 01-.594 1.525 5.28 5.28 0 01-1.077 1.312c-.06.044-.113.088-.166.131-.147.118-.294.237-.559.387l-.23.145-.06.025-.107.052-.43.207c-.59.231-1.2.437-1.839.509l-.24.035-.238.014-.489.037c-.107-.007-.215-.008-.323-.01-.219-.003-.44-.006-.661-.049-1.313-.132-2.57-.649-3.62-1.411-.074-.062-.15-.122-.227-.183a4.423 4.423 0 01-.51-.443c-.044-.044-.092-.089-.14-.135-.072-.068-.144-.135-.203-.201l-.287-.34c-.017-.021-.034-.039-.05-.057a.557.557 0 01-.098-.126l-.154-.226-.28-.404-.232-.421a35.91 35.91 0 00-.232-.421 9.34 9.34 0 01-.92-3.51 9.479 9.479 0 01.403-3.256l.034-.12c.022-.085.045-.169.077-.246l.141-.342.06-.15h.001c.071-.177.141-.351.23-.51.114-.203.216-.407.32-.612l.177-.271c.062-.093.122-.184.178-.272.112-.182.232-.34.363-.498.13-.158.25-.306.357-.456l.37-.376.002-.001a106.31 106.31 0 00.343-.349l.185-.155c.16-.134.303-.255.439-.365a1.01 1.01 0 01.173-.13 24.575 24.575 0 005.893 2.381c1.619.41 3.28.651 4.941.696 1.66.056 3.32-.073 4.94-.348 3.241-.562 6.316-1.72 9.12-3.262 2.814-1.54 5.367-3.438 7.691-5.594.117-.113.233-.222.351-.332l.001-.001c.162-.152.327-.306.497-.474l.82-.855c.378-.401.734-.81 1.092-1.222h.001c.154-.177.307-.353.463-.53l1.492-1.781 1.45-1.81a206.03 206.03 0 002.804-3.672 284.4 284.4 0 004.725-6.505l.001-.001.002-.003.683-.96c.879-1.26 1.747-2.522 2.606-3.807a109.168 109.168 0 002.502-3.874c.292-.462.569-.932.844-1.4h.001c.114-.195.228-.39.344-.583l.415-.763c.526-.26 1.041-.523 1.547-.807a56.361 56.361 0 003.86-2.352v-2.552zm0 6.541c-.479.701-.96 1.417-1.441 2.147-2.749 4.159-5.457 8.834-8.137 13.85-2.659 5.029-5.273 10.445-7.781 16.102l-.328.735-.245.55c-2.335 5.234-4.737 10.62-7.439 15.93-1.648 3.22-3.409 6.437-5.379 9.518a41.802 41.802 0 01-3.823 2.077c-1.526.722-3.32 1.422-5.322 1.888-2.003.467-4.276.65-6.478.025-2.088-.624-4.25-1.595-6.49-2.6l-.532-.239-.187-.083c-1.16-.518-2.342-1.046-3.589-1.533-1.315-.502-2.688-.989-4.257-1.154-.78-.076-1.63-.03-2.463.257-.833.287-1.553.86-2.047 1.527-.495.667-.792 1.38-1.024 2.113l-.074.251-.07.307c-.03.139-.051.271-.071.399-.01.066-.02.132-.032.197a6.35 6.35 0 00-.018 1.216c.085.816.35 1.632.785 2.34a6.872 6.872 0 001.638 1.793c1.271.976 2.712 1.559 4.14 1.956 1.44.398 2.884.579 4.305.659 1.422.07 2.823.028 4.19-.105 2.722-.267 5.294-.88 7.636-1.653a38.866 38.866 0 006.346-2.75 40.89 40.89 0 004.883-3.14 59.463 59.463 0 01-2.474 3.149c-2.102 2.477-4.44 4.762-7.07 6.64a29.693 29.693 0 01-8.612 4.315c-.77.23-1.55.448-2.335.61-.281.066-.556.122-.834.178l-.22.045-.112.023-.61.108-.287.051-.298.05c-1.616.243-3.236.42-4.837.535-3.225.226-6.432.205-9.546-.131-3.114-.337-6.158-.98-8.98-1.986-2.822-1.007-5.428-2.411-7.584-4.204-2.155-1.794-3.812-4.003-4.807-6.38-1.006-2.377-1.376-4.904-1.3-7.288.047-1.179.227-2.332.586-3.385.359-1.043.919-1.984 1.648-2.731a6.714 6.714 0 012.59-1.633 8.817 8.817 0 012.95-.478 9.143 9.143 0 012.796.449c.217.07.422.15.624.252.096.045.192.089.277.133l.148.083.126.081c.368.221.686.489.99.777 1.182 1.16 1.762 2.658 1.899 3.991.135 1.355-.209 2.563-.79 3.393a3.68 3.68 0 01-.597.676c.042-.169.084-.338.104-.509.21-1.801-1.129-3.449-2.993-3.683-1.865-.234-3.544 1.035-3.755 2.836-.21 1.801 1.13 3.449 2.994 3.683a3.406 3.406 0 002.735-.854 4.887 4.887 0 002.19-1.683c.723-.986 1.144-2.38 1.02-3.919a7.4 7.4 0 00-2.098-4.603 6.985 6.985 0 00-1.153-.928 1.006 1.006 0 00-.105-.069 2.84 2.84 0 01-.062-.039l-.16-.085c-.115-.069-.232-.127-.35-.186a6.063 6.063 0 00-.72-.297c-.983-.351-2.032-.527-3.133-.556-1.09-.017-2.231.112-3.346.494a8.022 8.022 0 00-3.054 1.858c-.877.858-1.534 1.95-1.975 3.124-.43 1.175-.646 2.443-.716 3.718-.117 2.552.232 5.25 1.29 7.863.882 2.188 2.297 4.248 4.085 6.006a50.255 50.255 0 01-2.632-1.57c-1.939-1.244-4.034-2.78-6.072-4.711a32.825 32.825 0 01-5.651-6.964 31.64 31.64 0 01-3.742-9.139c-1.599-6.662-1.089-14.212 1.365-21.051a33.802 33.802 0 012.23-4.931c.441-.782.912-1.54 1.424-2.258l.388-.528.073-.093a7.8 7.8 0 01.335-.41l.223-.266.104-.118.114-.116c.065-.065.126-.133.187-.2.084-.094.168-.188.263-.276 2.433-2.513 5.57-4.295 8.835-4.875 3.257-.603 6.633.093 9.06 1.691 1.165.82 2.071 1.935 2.593 3.154a7.235 7.235 0 01.567 3.726c-.07.6-.217 1.191-.414 1.721l-.042.114a2.83 2.83 0 01-.118.29l-.092.206-.089.185a5.37 5.37 0 01-.428.675 5.238 5.238 0 01-2.455 1.737 5.717 5.717 0 01-2.758.187 3.227 3.227 0 01-.526-.125l-.098-.03a3.338 3.338 0 00-.093-.03c-.06-.02-.12-.04-.2-.071l-.172-.065-.044-.006-.022-.003-.063-.04a2.8 2.8 0 01-.268-.12c.055.006.108.015.164.025.058.01.117.02.18.028 1.864.234 3.543-1.035 3.754-2.836.21-1.8-1.13-3.448-2.994-3.682-1.354-.17-2.61.456-3.272 1.504a.336.336 0 00-.114.105l-.17.305c-.104.205-.27.575-.369 1.03a4.22 4.22 0 00-.007 1.795 4.709 4.709 0 001.159 2.234c.33.357.74.702 1.215.968l.084.054.022.003.042.027.045.005.157.096c.106.057.257.12.386.169.258.108.529.196.813.275a7.098 7.098 0 003.757.037 6.872 6.872 0 003.588-2.28 7.28 7.28 0 00.65-.942l.143-.254.118-.246c.062-.113.129-.274.196-.435l.033-.08a8.756 8.756 0 00.589-2.243 9.44 9.44 0 00-.672-4.86 9.898 9.898 0 00-3.353-4.173c-3.064-2.114-7.112-2.84-10.944-2.135-1.921.347-3.772 1.05-5.483 2.01-1.7.962-3.252 2.203-4.6 3.611a5.23 5.23 0 00-.318.35c-.057.066-.114.132-.173.198l-.117.137-.13.147-.223.266c-.062.076-.127.16-.194.247-.088.114-.179.23-.268.337l-.43.598a26.914 26.914 0 00-1.528 2.474 34.426 34.426 0 00-2.316 5.279A41.787 41.787 0 0022.82 91.8c-.202 3.76.115 7.51 1 11.025a34.114 34.114 0 001.682 5.074c.69 1.62 1.49 3.146 2.372 4.572a35.055 35.055 0 006.029 7.294c1.088.996 2.164 1.915 3.242 2.713.345.272.702.522 1.05.766.184.127.364.253.539.38l.464.306a42.7 42.7 0 001.085.704 54.504 54.504 0 005.444 2.946 58.825 58.825 0 003.67 1.559c.863.326 1.315.502 1.315.502a.859.859 0 00.55.015 24.59 24.59 0 001.689.679c2.958 1.089 6.12 1.791 9.352 2.174 3.232.384 6.548.441 9.871.238a64.463 64.463 0 004.99-.494l.31-.049.32-.046.62-.097.18-.032c.368-.067.74-.133 1.087-.211.842-.167 1.668-.4 2.495-.634a30.664 30.664 0 006.163-2.631 46.311 46.311 0 01-5.587 5.902 44.983 44.983 0 01-4.394 3.397 48.239 48.239 0 01-5.369 3.156 50.37 50.37 0 01-6.17 2.598 49.812 49.812 0 01-6.71 1.812 49.89 49.89 0 01-6.916.884c-2.3.125-4.58.067-6.728-.246-1.073-.167-2.083-.392-3.021-.749a10.446 10.446 0 01-5.83-5.626c-.644-1.528-.848-3.055-.683-4.372a6.515 6.515 0 011.246-3.15 6.86 6.86 0 011.217-1.262 2.298 2.298 0 00-.02.553c.12 1.102 1.15 1.917 2.288 1.82 1.138-.096 1.962-1.081 1.843-2.183-.12-1.103-1.15-1.918-2.288-1.821a2.148 2.148 0 00-1.023.372s-.071.034-.191.095c-.12.062-.324.167-.567.321a7.376 7.376 0 00-1.889 1.612c-.692.816-1.336 1.997-1.599 3.476-.261 1.469-.139 3.214.538 4.941.655 1.725 1.837 3.461 3.523 4.837a12.08 12.08 0 002.872 1.742c1.072.46 2.222.735 3.36.932 2.298.376 4.676.456 7.064.354a48.591 48.591 0 007.192-.839c4.757-.904 9.375-2.457 13.397-4.498a43.019 43.019 0 005.558-3.327 40.378 40.378 0 006.213-5.378 28.836 28.836 0 00-1.465 3.482c-.766 2.221-1.302 4.689-1.293 7.311-.013 2.62.61 5.396 1.998 7.876.298.527.633 1.037.98 1.538.012.088.036.178.059.268.04.161.055.332.07.509.008.094.016.19.028.287l.015.164c.02.224.04.455.066.694.02 1.177-.047 2.518-.402 3.92a14.46 14.46 0 01-1.87 4.247 13.93 13.93 0 01-3.6 3.737 25.02 25.02 0 00-.429.277 16.01 16.01 0 01-.727.459c-.204.105-.407.207-.61.309-.204.103-.407.205-.61.31l-.34.135-.003.001-.343.137c-.053.018-.107.04-.16.062a1.553 1.553 0 01-.182.069l-.325.09-.22.062c-.145.042-.29.084-.443.116l-.702.129c-.938.122-1.9.164-2.852.023-.952-.141-1.893-.379-2.77-.772-.877-.403-1.71-.888-2.438-1.502-.715-.623-1.368-1.303-1.872-2.095a2.199 2.199 0 01-.223-.355 3.32 3.32 0 00-.136-.234l-.168-.304-.048-.071-.018-.035.001-.011-.082-.162-.153-.335-.07-.172-.05-.148c-.021-.079-.047-.153-.072-.228a2.643 2.643 0 01-.106-.37 6.262 6.262 0 01-.076-2.534 6.334 6.334 0 012.506-4.004c.16-.11.319-.221.477-.321.084-.044.168-.09.252-.137.085-.046.169-.093.253-.137l.06-.036.025-.018.153-.057.295-.115a5.84 5.84 0 00.171-.053c.099-.031.197-.062.306-.083a5.102 5.102 0 012.052-.015 4.722 4.722 0 012.437 1.405 3.482 3.482 0 00-2.076-.348c-1.855.257-3.108 1.927-2.812 3.727.297 1.799 2.044 3.041 3.898 2.784 1.34-.191 2.372-1.117 2.724-2.302.057-.101.104-.215.151-.329a3.791 3.791 0 00.247-1.737c-.01-.115-.02-.231-.048-.348a3.05 3.05 0 00-.124-.484 2.883 2.883 0 00-.164-.424l-.01-.022c-.05-.126-.1-.215-.152-.307-.028-.05-.057-.1-.086-.158a5.634 5.634 0 00-1.45-1.661 6.136 6.136 0 00-2.227-1.084 5.94 5.94 0 00-3.43.157l-.296.115-.142.058-.07.024-.036.017-.073.046-.225.118c-.13.07-.262.14-.398.206-.195.128-.39.255-.598.393-1.537 1.112-2.734 2.876-3.062 4.913a7.584 7.584 0 00.123 3.094c.031.162.089.328.148.497.033.097.068.196.097.295l.068.194.07.171.152.335.081.173.027.058-.002.022.04.048.046.082.197.34c.051.081.098.164.145.247.083.148.165.294.272.426.583.889 1.348 1.67 2.167 2.371.842.693 1.793 1.236 2.788 1.677 1.007.442 2.081.696 3.157.842 1.076.135 2.174.088 3.227-.052l.783-.152c.183-.037.364-.096.543-.153.08-.026.159-.052.238-.076l.386-.125c.129-.038.236-.09.344-.142.112-.046.224-.094.337-.143.113-.048.225-.096.338-.142l.048-.027.022.003.038-.039.084-.043.168-.088.337-.186c.109-.063.22-.122.331-.182.111-.059.222-.119.331-.181.337-.208.661-.431.982-.652l.252-.173a14.948 14.948 0 003.766-4.096 14.49 14.49 0 001.852-4.576c.322-1.504.34-2.916.27-4.154-.01-.091-.023-.18-.035-.267-.023-.177-.046-.348-.064-.517.238.28.476.549.728.809 1.007 1.018 2.131 1.997 3.5 2.713a10.797 10.797 0 004.408 1.216 12.031 12.031 0 004.438-.585c2.798-.911 5.165-2.67 6.785-4.871a11.723 11.723 0 001.825-3.578 9.818 9.818 0 00.394-3.856 10.536 10.536 0 00-.978-3.582 10.727 10.727 0 00-1.996-2.872c-1.578-1.634-3.591-2.615-5.518-2.803a6.39 6.39 0 00-2.68.295 5.617 5.617 0 00-1.954 1.104 6.648 6.648 0 00-1.567 1.946c-.28.378-.489.809-.58 1.298a.53.53 0 01-.03.072.593.593 0 00-.026.313c-.125 1.746 1.19 3.314 3 3.541 1.808.227 3.543-1.034 3.754-2.835.21-1.802-1.031-3.328-2.795-3.647a4.597 4.597 0 012.677-.36c1.418.199 2.987 1.038 4.214 2.388 1.24 1.342 2.113 3.224 2.271 5.246a8.12 8.12 0 01-.362 3.098c-.311 1.027-.833 2.027-1.515 2.943-1.362 1.83-3.364 3.352-5.684 4.127a9.703 9.703 0 01-3.595.507 8.486 8.486 0 01-3.506-.941c-1.084-.549-2.068-1.38-2.99-2.267a14.555 14.555 0 01-2.31-2.966c-1.259-2.149-1.853-4.584-1.926-6.954-.082-2.381.335-4.7.989-6.827.653-2.126 1.555-4.058 2.497-5.767 1.515-2.747 3.177-4.932 4.574-6.573 2.208-1.746 4.207-3.725 6.008-5.838 2.191-2.565 4.123-5.314 5.894-8.137 1.76-2.825 3.358-5.714 4.855-8.605 2.749-5.322 5.17-10.676 7.519-15.87l.635-1.404c2.537-5.62 5.077-10.98 7.72-15.968a195.411 195.411 0 017.62-13.31v-3.759zm0 15.536a73.84 73.84 0 00-.735 2.364c-1.554 5.31-2.552 10.96-3.076 16.801-.513 5.843-.575 11.872-.211 18.02.364 6.138 1.11 12.388 2.165 18.688.299 1.778.619 3.57.962 5.364l-.134.473c-.059.169-.114.34-.17.512-.14.429-.282.862-.468 1.29-.042.1-.081.2-.121.3a7.22 7.22 0 01-.255.599c-.068.149-.139.298-.21.447-.07.149-.141.297-.209.447a12.2 12.2 0 00-.113.229c-.111.224-.224.453-.343.682-.05.093-.097.19-.144.288-.103.211-.206.424-.343.608l-.269.418-.155.24a17.44 17.44 0 01-.113.177c-.084.142-.19.281-.296.409l-.316.396c-.291.403-.641.759-.993 1.117-.135.137-.27.275-.402.415-.158.15-.328.29-.497.429-.103.085-.205.168-.304.254l-.411.34-.441.304c-.121.076-.24.156-.358.236-.177.12-.355.24-.543.347l-.472.254-.002.002-.476.256a3.955 3.955 0 01-.488.232l-.509.208-.508.209c-.111.044-.23.077-.349.111a16.133 16.133 0 00-.412.125h-.001c-.272.086-.547.173-.825.239-.358.075-.727.148-1.096.221a3.33 3.33 0 01-.55.084l-.559.06-.559.06a2.964 2.964 0 01-.341.013l-.114.001-.11.003c-.156-.002-.312.003-.469.007a9.642 9.642 0 01-.659.003l-1.127-.087-.566-.071-.563-.092h-.001c-.376-.058-.752-.116-1.11-.226l-1.104-.291-1.069-.395-.269-.099-.13-.049-.022-.003-.075-.031-.533-.263-.532-.262a2.837 2.837 0 01-.296-.18l-.083-.054a15.815 15.815 0 00-.301-.186 5.177 5.177 0 01-.692-.47l-.445-.328-.217-.169-.203-.189c-1.104-.965-2.041-2.105-2.704-3.374-1.35-2.519-1.722-5.405-1.16-7.999.039-.154.075-.305.111-.455.041-.17.081-.338.125-.505.057-.156.112-.309.166-.463l.001-.002.166-.462.067-.187.117-.236.225-.472c.019-.032.036-.069.053-.106.021-.043.041-.086.063-.119l.112-.192.237-.384a9.51 9.51 0 012.581-2.624c2.03-1.377 4.495-1.851 6.672-1.589 1.099.138 2.126.408 3.065.853.875.414 1.652.99 2.276 1.623a7.713 7.713 0 011.453 2.032c.335.694.582 1.378.688 2.011.171.849.174 1.599.103 2.211a2.407 2.407 0 00-1.986-1.609c-1.299-.163-2.472.723-2.618 1.977-.147 1.255.789 2.405 2.087 2.568a2.346 2.346 0 002.243-.98c.024-.008.037-.028.051-.048l.015-.038.032-.076c.072-.132.132-.266.183-.412l.003-.007c.06-.133.134-.295.18-.503.238-.688.488-1.766.359-3.164-.054-.703-.235-1.465-.536-2.265a8.953 8.953 0 00-1.454-2.401 8.953 8.953 0 00-2.551-2.072 10.857 10.857 0 00-3.424-1.147 11.626 11.626 0 00-3.967.024c-1.359.254-2.701.76-3.94 1.529a10.5 10.5 0 00-3.185 3.071l-.318.504c-.11.171-.209.344-.282.487l-.235.471-.118.235-.031.072-.003.032-.03.062-.05.135v.001c-.131.353-.262.706-.384 1.071-.041.174-.085.348-.129.522-.05.197-.1.395-.148.597-.601 3.025-.113 6.371 1.539 9.2.814 1.418 1.916 2.688 3.2 3.752l.235.203.249.184.508.368c.252.197.533.36.815.524h.001l.265.155c.083.044.166.092.248.139l.002.001c.105.061.209.121.311.17l.546.243.546.242.064.03.075.031.033.004.14.061.292.102 1.17.397 1.204.293c.403.116.814.167 1.214.217l.61.077.308.06.303.016 1.23.068c.27.005.542-.01.814-.024.136-.007.272-.014.408-.019l.101-.003.051-.001a3.76 3.76 0 00.46-.028l.605-.076.606-.076c.057-.004.115-.019.172-.022a29.36 29.36 0 00-.621.585l-.334.327c-.453.441-.975.949-1.526 1.528a86.387 86.387 0 00-2.32 2.505c-.819.942-1.705 1.973-2.582 3.114a55.543 55.543 0 00-2.615 3.686 32.114 32.114 0 00-2.312 4.278l-.248.578-.062.145-.063.155-.102.292-.213.571-.194.607a21.421 21.421 0 00-.616 2.479c-.309 1.68-.376 3.412-.124 5.108.242 1.695.826 3.345 1.791 4.728.942 1.38 2.287 2.495 3.801 3.033a5.993 5.993 0 002.291.342c.726-.039 1.454-.198 2.072-.48.619-.281 1.168-.647 1.591-1.084.422-.436.748-.907.962-1.391.449-.955.536-1.891.42-2.634a3.295 3.295 0 00-.393-1.17 2.407 2.407 0 00-1.908-1.403c-1.299-.163-2.472.723-2.618 1.977-.147 1.255.789 2.406 2.087 2.568 1.199.151 2.288-.594 2.574-1.689a4.585 4.585 0 01-.628 2.097 4.514 4.514 0 01-2.394 1.984 5.056 5.056 0 01-1.79.286 4.822 4.822 0 01-1.88-.388c-1.224-.512-2.326-1.499-3.105-2.728-.78-1.229-1.25-2.702-1.444-4.228-.194-1.525-.087-3.111.206-4.662.147-.776.35-1.545.584-2.298l.177-.555.213-.571.101-.281.048-.125.061-.134.222-.548a31.384 31.384 0 012.179-4.1 58.805 58.805 0 012.464-3.65 75.03 75.03 0 012.428-3.144c.775-.947 1.497-1.825 2.159-2.579l.322-.368c.528-.601.994-1.133 1.403-1.58a82.989 82.989 0 011.43-1.54.111.111 0 00.057-.01c.011-.004.022-.008.035-.011.299-.081.593-.182.886-.283l.25-.086.087-.028.067-.022h.001c.139-.044.279-.088.409-.151l.545-.236.535-.238c.178-.075.357-.161.526-.26.169-.098.338-.194.507-.29.169-.096.337-.191.506-.29.235-.142.459-.301.685-.462l.27-.19.467-.333.426-.371.192-.162c.225-.19.45-.38.65-.592l.27-.283c.427-.445.849-.887 1.186-1.383l.333-.437c.117-.138.225-.288.311-.451.098-.156.192-.313.286-.47.094-.157.189-.313.286-.47a4.63 4.63 0 00.349-.671c.039-.087.078-.173.12-.26.074-.153.145-.307.217-.461v-.001c.072-.154.143-.308.217-.462l.207-.469.207-.469c.1-.224.182-.456.264-.685v-.001l.069-.191.025-.068c.101-.247.185-.506.266-.757l.022-.067c.194.977.395 1.953.604 2.93v-21.118c-.292-2.55-.524-5.082-.692-7.592-.202-3.191-.319-6.339-.304-9.459.338.263.669.528.996.798v-.626a41.473 41.473 0 00-.985-.747l.018-.15.044.006.011.001c.271.071.576.154.912.251v-.832c-.281-.07-.54-.132-.777-.185a1.705 1.705 0 01-.231-.051c.037-2.247.138-4.464.304-6.652.162-2.163.397-4.297.704-6.395V68.26zm0 154.04v-.83a54.44 54.44 0 01-1.237 1.741 25.28 25.28 0 01-.953 1.238v.001c-.187.232-.375.466-.558.704-.481.587-.99 1.163-1.491 1.73h-.001l-.136.154c-1.146 1.238-2.304 2.474-3.577 3.631-1.261 1.158-2.575 2.287-3.999 3.294-1.414 1.019-2.896 1.943-4.461 2.715-1.565.772-3.224 1.379-4.922 1.743-.845.198-1.711.286-2.575.351-.871.032-1.737.022-2.579-.095a12.267 12.267 0 01-4.087-1.263 27.746 27.746 0 002.156-.524 43.914 43.914 0 009.614-3.928l.014-.02c6.075-3.328 11.416-7.89 15.869-13.14A61.92 61.92 0 00133 216.06v-5.671a61.264 61.264 0 01-3.013 4.592h-.001a4.675 4.675 0 01-.255.066c-.117.029-.237.062-.36.095h-.001a8.141 8.141 0 01-1.178.256l-.207.033-.092.017c-.19.034-.383.068-.583.079l-.375.028c-.189.013-.382.027-.579.048a14.652 14.652 0 01-4.376-.528 13.714 13.714 0 01-4.597-2.295 4.871 4.871 0 00-.193-.146v-.001a2.88 2.88 0 01-.343-.279c-.121-.106-.235-.217-.352-.329l-.155-.148c-.241-.198-.447-.43-.657-.666a11.443 11.443 0 00-.317-.348l-.24-.259-.214-.288c-.074-.096-.144-.192-.215-.288-.07-.096-.14-.192-.214-.288l-.107-.144-.028-.047-.047-.082-.198-.329a4.332 4.332 0 00-.092-.159l-.047-.079a2.642 2.642 0 01-.224-.417 21.596 21.596 0 01-.143-.312h-.001c-.047-.104-.093-.208-.143-.311a8.518 8.518 0 01-.163-.457l-.074-.215a5.023 5.023 0 01-.158-.538 36.559 36.559 0 01-.042-.161c-.017-.079-.038-.156-.059-.234a2.443 2.443 0 01-.095-.471c-.182-.948-.168-1.936-.043-2.91.113-.976.406-1.94.838-2.843.421-.904.973-1.77 1.677-2.498.158-.198.347-.37.546-.53a6.77 6.77 0 00.196-.176c.124-.116.247-.23.392-.326l.616-.456.678-.405a8.24 8.24 0 012.874-.89 8.245 8.245 0 013.039.207 8.427 8.427 0 012.725 1.256 8.44 8.44 0 012.015 2.037 3.836 3.836 0 00.146.238c.084.133.168.266.23.396.033.078.07.151.106.223.061.122.121.242.162.376.154.422.284.852.335 1.282.247 1.739-.351 3.394-1.296 4.537a6.6 6.6 0 01-1.594 1.41l-.025.019-.059.025-.121.072-.241.133c-.076.038-.145.066-.211.094-.07.029-.137.057-.205.093a4.927 4.927 0 01-.328.117l-.106.035c-.087.029-.18.049-.272.069a3.52 3.52 0 00-.169.039c-.484.092-.96.119-1.408.095.968-.477 1.672-1.389 1.803-2.515.21-1.801-1.129-3.448-2.994-3.682-1.864-.234-3.544 1.035-3.754 2.836-.145 1.243.461 2.418 1.463 3.098.335.314.758.64 1.312.916.489.246 1.06.47 1.722.586a6.266 6.266 0 002.15.008 6.3 6.3 0 001.162-.311l.169-.074.002-.001c.144-.062.292-.127.412-.189l.241-.133.121-.072.06-.036.048-.026.001-.011.047-.016a6.898 6.898 0 001.888-1.797 7.25 7.25 0 001.152-2.532 7.49 7.49 0 00.083-2.937 7.834 7.834 0 00-.412-1.488c-.054-.163-.133-.324-.21-.483a7.174 7.174 0 01-.12-.254c-.08-.165-.168-.306-.257-.449a6.806 6.806 0 01-.128-.209l-.028-.047-.029-.047-.019-.024-.058-.084-.117-.156-.244-.324c-.102-.151-.227-.285-.351-.419a5.81 5.81 0 01-.184-.203c-.168-.195-.358-.363-.558-.54l-.04-.035-.316-.279-.343-.25a9.872 9.872 0 00-6.563-1.944 9.743 9.743 0 00-3.509.92l-.371.193-.18.097-.097.053-.048.026-.022-.002-.062.046-.744.494a3.76 3.76 0 00-.492.375 259279433898.458 259279433898.458 0 01-.314.262c-.194.161-.39.325-.556.509a10.709 10.709 0 00-3.155 6.196 5.576 5.576 0 00-.078.695l-.008.116-.005.059a10.21 10.21 0 01-.013.247c-.013.209-.026.415-.009.62l.034.864c.02.128.038.256.056.382v.001c.022.158.044.316.07.47.021.181.066.356.11.531.026.102.052.205.073.308.069.28.138.561.253.826.035.092.067.183.099.272.063.178.125.351.202.527.084.164.165.327.244.488l.001.002.147.299c1.036 1.935 2.58 3.565 4.244 4.742a14.486 14.486 0 005.258 2.324c1.745.393 3.388.403 4.813.256.355-.054.688-.11 1.021-.166.236-.032.458-.094.671-.152.086-.024.172-.048.256-.069a6.22 6.22 0 00.805-.236c-.48.636-.982 1.269-1.494 1.89-4.186 5.088-9.231 9.524-14.958 12.765-2.86 1.632-5.895 2.937-9.03 3.839a36.287 36.287 0 01-4.036.908c-.03-.026-.071-.064-.102-.089a12.719 12.719 0 01-1.577-1.83l-.325-.498-.299-.527a2.498 2.498 0 01-.17-.327c-.03-.065-.06-.13-.095-.195-.081-.174-.163-.347-.231-.53a9.067 9.067 0 01-.587-2.206 9.191 9.191 0 01.458-4.315c.493-1.33 1.264-2.528 2.229-3.462.965-.934 2.106-1.64 3.31-2.022 1.186-.417 2.447-.509 3.562-.412a5.615 5.615 0 012.929 1.15 5.323 5.323 0 011.627 2.173c.314.78.403 1.563.346 2.241l-.054.461c-.375-1.222-1.479-2.187-2.866-2.361-1.865-.234-3.544 1.035-3.754 2.836-.211 1.801 1.129 3.449 2.993 3.682a3.43 3.43 0 001.703-.21.55.55 0 00.244-.067l.104-.06.21-.119c.107-.051.229-.134.365-.237.136-.084.276-.206.437-.345l.035-.031c.34-.305.726-.724 1.053-1.303.316-.581.58-1.298.633-2.14a5.891 5.891 0 00-.44-2.699 6.224 6.224 0 00-1.971-2.597 6.245 6.245 0 00-1.595-.907 8.47 8.47 0 00-.923-.29l-.496-.094-.455-.057c-.681-.053-1.321-.068-2.007.02a9.5 9.5 0 00-2.024.453c-1.336.452-2.6 1.24-3.656 2.282a10.14 10.14 0 00-2.416 3.82 10.197 10.197 0 00-.462 4.728c.107.819.34 1.62.654 2.4a10.93 10.93 0 001.226 2.231c.406.573.862 1.109 1.366 1.618a28.01 28.01 0 01-4.567.243l-1.209-.065-1.202-.118-1.232-.154-1.205-.195a48.875 48.875 0 01-4.778-1.035c-3.122-.848-6.124-2.041-8.83-3.664-2.704-1.622-5.088-3.673-7.007-6.046-1.92-2.373-3.373-5.068-4.387-7.86-1.013-2.803-1.608-5.717-1.899-8.625a54.986 54.986 0 01-.175-2.165 14.739 14.739 0 01-.02-.809l-.003-.249c.007-.328.024-.665.041-.993l.003-.057c.096-1.402.347-2.784.709-4.142a27.59 27.59 0 013.293-7.572c1.452-2.308 3.214-4.372 5.236-6.065 2.02-1.683 4.312-2.984 6.723-3.769a19.689 19.689 0 017.404-.91c2.46.157 4.88.732 7.095 1.543 1.11.422 2.157.912 3.138 1.482.98.579 1.895 1.227 2.724 1.94a15.43 15.43 0 013.808 5.003 15.882 15.882 0 011.474 5.7c.23 3.815-.87 7.451-2.902 10.003a10.772 10.772 0 01-1.662 1.695l-.132.1v.001a9.441 9.441 0 01-.802.565l-.12.072-.122.072c-.096.053-.181.108-.253.142a6.728 6.728 0 01-.49.254c-1.374.665-2.827 1.06-4.236 1.264-2.82.418-5.446.056-7.405-.821a8.129 8.129 0 01-3.417-2.756 5.906 5.906 0 001.944.614c3.042.381 5.783-1.69 6.126-4.627.343-2.938-1.844-5.616-4.885-5.998-3.041-.381-5.772 1.691-6.114 4.618a5.154 5.154 0 00.048 1.518c.081.848.246 2.141.987 3.702a9.15 9.15 0 001.655 2.416 10.382 10.382 0 002.873 2.112c2.32 1.161 5.315 1.646 8.522 1.276 1.6-.191 3.267-.591 4.92-1.341.203-.094.405-.188.621-.303l.3-.158.157-.089.146-.091c.41-.231.791-.509 1.173-.788a12.886 12.886 0 002.059-2.015c2.469-3.008 3.797-7.149 3.555-11.542-.127-2.191-.639-4.463-1.66-6.615a17.813 17.813 0 00-4.442-5.844c-1.922-1.677-4.237-2.968-6.71-3.877-2.486-.888-5.121-1.469-7.877-1.597a21.977 21.977 0 00-8.29 1.168c-2.687.936-5.204 2.426-7.37 4.297-2.18 1.881-4.02 4.141-5.526 6.628-1.497 2.499-2.67 5.223-3.402 8.112-.36 1.445-.624 2.935-.723 4.456l-.002.031c-.02.368-.042.746-.042 1.117 0 .391.007.806.023 1.156.044.778.105 1.514.175 2.263.312 3.019.912 6.075 1.973 9.048 1.06 2.972 2.594 5.851 4.636 8.424a27.992 27.992 0 004.122 4.15l-.045-.005a32.314 32.314 0 00-3.621-.716 38.509 38.509 0 00-7.331-.288c-2.447.117-4.865.477-7.244.984a50.214 50.214 0 00-6.985 2.05c-1.107.415-2.273.857-3.352 1.417a20.354 20.354 0 00-3.108 1.927c-1.951 1.474-3.547 3.374-4.716 5.479-1.17 2.105-1.943 4.39-2.504 6.691-.562 2.301-.924 4.638-1.24 6.959a346.821 346.821 0 00-.68 5.651c-.317 2.767-.633 5.528-1.047 8.273-.358 2.294-.742 4.617-1.261 6.847a21.53 21.53 0 01-2.614 6.286 20.327 20.327 0 01-4.527 5.111c-1.791 1.45-3.809 2.622-5.966 3.548a36.234 36.234 0 01-6.73 2.082c-2.055.721-4.446 1.041-6.787 1.128-.281-.003-.52.207-.529.478-.021.28.2.514.489.54 2.335.162 4.677.162 7.006-.013l.011.001c2.33-.176 4.655-.515 6.907-1.092 2.262-.564 4.467-1.321 6.555-2.321a30.579 30.579 0 005.886-3.634c1.8-1.439 3.422-3.074 4.795-4.903.28-.35.534-.722.788-1.094l.209-.304c.108-.179.22-.356.333-.533a16 16 0 00.557-.922c.577-.983 1.058-2.021 1.495-3.065.841-2.091 1.467-4.265 1.992-6.451.526-2.185.94-4.385 1.332-6.588.111-.624.22-1.249.33-1.873.276-1.578.553-3.155.857-4.722.424-2.188.915-4.367 1.556-6.484.653-2.115 1.47-4.199 2.593-6.103a18.805 18.805 0 011.904-2.71c.25-.31.536-.605.822-.901l.143-.149.17-.178.617-.564.314-.276.324-.264c.85-.72 1.79-1.353 2.739-1.952a29.123 29.123 0 013-1.581c2.069-.938 4.237-1.666 6.453-2.226a43.166 43.166 0 013.637-.762c-1.03.328-2.058.743-3.09 1.288a19.394 19.394 0 00-6.55 5.563c-.049.072-.104.138-.158.204v.001a2.141 2.141 0 00-.188.252l-.306.495-.31.494c-.105.164-.208.327-.312.494a8.678 8.678 0 00-.313.604c-.074.151-.148.302-.227.449l-.264.532-.133.266-.004.032-.044.077-.029.067-.05.135-.397 1.092c-.089.273-.164.576-.237.875l-.084.336-.053.212c-.036.136-.071.27-.088.412l-.072.622-.024.138c-.065.369-.129.738-.123 1.116a14.67 14.67 0 00.564 5.107 16.459 16.459 0 002.289 4.802 16.47 16.47 0 003.885 3.859l.562.397c.114.081.239.151.364.222.08.044.158.089.236.136l.6.348.308.169.32.149.631.285.322.139.16.074.075.031s-.01-.001.087.033l.044.005.418.142c.276.095.553.191.85.279.157.034.314.071.47.109l.005.001c.316.076.632.152.942.198l.7.088c.233.029.466.058.701.066.929.051 1.878.029 2.786-.129a13.364 13.364 0 005.107-1.883 12.556 12.556 0 003.77-3.65l.33-.556.33-.558.271-.59.272-.593.191-.574c.067-.187.134-.375.183-.597.105-.422.2-.845.237-1.265.131-.832.083-1.675.01-2.5-.129-.822-.305-1.627-.622-2.385-.282-.764-.707-1.47-1.135-2.143-.476-.648-.99-1.267-1.58-1.798a11.139 11.139 0 00-3.95-2.345c-.763-.215-1.509-.385-2.25-.402-.239-.029-.482-.018-.722-.008-.129.006-.257.012-.382.011l-.1.012-.064.007a8.243 8.243 0 00-.901.131c-1.395.281-2.66.884-3.645 1.707a8.063 8.063 0 00-2.2 2.835c-.478 1.006-.7 2.131-.634 3.108a6.636 6.636 0 002.012 4.375c.143.152.299.273.446.388.08.063.158.124.23.186.23.16.428.293.618.404.083.041.16.081.231.119l.162.083c.41.247.875.414 1.374.477 1.865.234 3.545-1.035 3.755-2.836.21-1.801-1.13-3.449-2.994-3.683-1.864-.233-3.544 1.035-3.754 2.836a1.962 1.962 0 00-.02.368 6.61 6.61 0 01-.282-.58 5.589 5.589 0 01-.455-2.178c-.017-.818.169-1.643.596-2.503a7.096 7.096 0 011.852-2.357c.812-.692 1.863-1.202 3.024-1.502.207-.059.421-.09.635-.12.088-.013.175-.025.262-.04.09-.004.18-.012.27-.019.218-.018.437-.037.658-.017.078.005.157.007.235.008.079.002.158.004.236.008l.477.06c.167.021.322.04.475.081.077.015.154.033.23.051l.231.051c1.317.393 2.559 1.039 3.63 1.989.544.46 1.007 1.029 1.435 1.605.391.604.766 1.249 1.012 1.943.281.677.42 1.413.538 2.145.06.737.096 1.492-.036 2.237a7.1 7.1 0 01-.183.906l-.046.186c-.025.138-.082.293-.138.447l-.04.107-.212.571c-.082.17-.166.338-.25.507-.085.169-.17.338-.252.507a65.01 65.01 0 01-.156.25l-.155.244-.31.494a11.142 11.142 0 01-3.503 3.183 11.815 11.815 0 01-4.594 1.534c-.811.105-1.645.109-2.46.04-.134-.002-.272-.025-.409-.047l-.2-.03-.609-.098c-.223-.04-.44-.097-.657-.153a11.553 11.553 0 00-.504-.123c-.287-.09-.584-.199-.884-.308l-.001-.001-.359-.13-1.088-.517-.277-.133-.263-.163-.537-.318-.155-.093a4.82 4.82 0 01-.37-.234l-.498-.367c-1.317-.97-2.486-2.139-3.402-3.461a14.988 14.988 0 01-2.026-4.258c-.434-1.49-.637-3.028-.552-4.529-.01-.289.028-.578.065-.869l.032-.25.065-.558c.012-.103.038-.202.064-.3.02-.075.04-.151.054-.229.029-.116.053-.231.078-.346.05-.231.099-.462.18-.698.06-.183.123-.365.187-.547v-.001c.063-.182.127-.365.188-.547l.05-.136.007-.064.026-.029.118-.246.227-.494.104-.229c.114-.253.227-.504.359-.746l.273-.461.274-.461.267-.456c.067-.119.153-.229.238-.338l.071-.091a18.598 18.598 0 015.88-5.321 19.203 19.203 0 016.482-2.276c2.053-.319 3.903-.348 5.4-.139.075.01.15.018.225.025l.152.015c.24.023.47.045.688.094l.133.017c2.718 1.603 5.677 2.79 8.718 3.65 1.635.466 3.303.838 4.98 1.136l1.272.203 1.251.179 1.301.141 1.309.077a33.591 33.591 0 005.848-.321 7.938 7.938 0 00-.393.092l-.358.11c-.3.092-.62.19-.952.302l-.226.089c-.163.064-.329.13-.504.189l-.162.064c-.201.079-.41.16-.608.264-.196.089-.392.184-.598.284l-.214.104c-.214.108-.423.231-.637.356l-.182.106v.001a4.975 4.975 0 00-.424.251l-.091.061-.04.027h-.001c-.095.063-.192.127-.284.197-.096.069-.196.136-.298.204a6.931 6.931 0 00-.55.397l-.034.027c-.262.208-.536.424-.81.65-.18.16-.336.311-.492.463-.104.101-.207.202-.319.305a11.967 11.967 0 00-1.478 1.86 12.052 12.052 0 00-1.814 4.733 12.054 12.054 0 00.402 5.435 12.891 12.891 0 002.87 4.939l.029.037-.002.021.051.039.06.062.132.126.253.249c.11.111.243.219.378.33l.001.001.184.153.049.039c.181.143.37.293.563.407.084.05.168.105.252.16.127.083.255.167.389.236.866.49 1.819.816 2.787 1.013 1.946.408 3.958.149 5.676-.582.844-.384 1.632-.861 2.298-1.452l.063-.058.037-.027.037-.028.001-.011.125-.104.218-.223c.103-.091.205-.218.305-.343l.045-.056c.031-.038.061-.076.092-.111a6.208 6.208 0 00.948-5.81 6.443 6.443 0 00-1.04-1.892c-.433-.533-.92-.997-1.489-1.329a4.702 4.702 0 00-1.742-.611 3.345 3.345 0 00-.722-.177c-1.865-.234-3.545 1.034-3.755 2.836-.21 1.801 1.13 3.448 2.994 3.682 1.864.234 3.544-1.035 3.754-2.836a3.092 3.092 0 00-.16-1.423c.109.122.229.257.336.401.349.479.635 1.026.824 1.626.377 1.201.366 2.646-.269 3.937-.16.317-.355.63-.568.919-.04.045-.075.09-.11.136-.071.09-.141.18-.243.276l-.216.212-.114.106-.098.074c-.59.514-1.28.928-2.03 1.28-1.496.66-3.282.904-4.998.558a8.246 8.246 0 01-2.488-.877l-.058-.035c-.361-.21-.729-.425-1.04-.691l-.12-.092-.001-.001a3.332 3.332 0 01-.392-.33l-.254-.239-.133-.114-.06-.062.001-.011-.04-.038a11.96 11.96 0 01-2.702-4.548c-.538-1.656-.706-3.406-.47-5.041a11.243 11.243 0 011.614-4.464c.403-.657.852-1.221 1.343-1.768a45.7 45.7 0 01.765-.764c.274-.226.538-.454.788-.673.154-.133.313-.247.471-.361.112-.08.224-.16.332-.245.067-.046.132-.095.197-.144a5.09 5.09 0 01.197-.144c.067-.041.134-.084.2-.127a5.84 5.84 0 01.201-.127l.155-.095.093-.058c.18-.111.358-.221.54-.325.264-.141.516-.273.767-.393.24-.133.49-.244.738-.343.237-.101.474-.202.699-.293.287-.107.56-.199.819-.286l.002-.001.446-.152c.279-.073.534-.143.767-.206l.28-.076c.19-.055.368-.087.53-.117.086-.016.167-.031.243-.047a13.197 13.197 0 004.776 1.534c.899.113 1.822.12 2.726.092a18.06 18.06 0 002.692-.391c1.769-.398 3.465-1.034 5.079-1.832 1.602-.8 3.111-1.764 4.539-2.803a41.873 41.873 0 004.03-3.367c1.275-1.178 2.448-2.445 3.583-3.684.192-.226.384-.45.575-.672l.002-.002a53.84 53.84 0 001.056-1.253c.184-.242.371-.479.558-.715.328-.415.655-.827.956-1.26.278-.381.55-.764.815-1.149zm0-35.259v-1.958a17.273 17.273 0 01-3.081-4.734 17.463 17.463 0 01-1.429-6.086 16.646 16.646 0 01.414-4.517l.061.002c.184.003.376.007.57.001.519.004.991-.017 1.469-.039h.001l.089-.004c.364-.005.719-.049 1.075-.092.184-.023.367-.046.553-.063l.278-.037v-2.225c-.2.033-.399.063-.599.09a11.82 11.82 0 00-.57.06 7.783 7.783 0 01-.875.074c-.465.028-.94.045-1.368.046a16.998 16.998 0 012.887-4.86c.001-.01.026-.029.027-.04l.011.002c.162-.222.324-.443.487-.663v-2.621a61.894 61.894 0 00-1.773 2.339 18.225 18.225 0 00-3.272 5.649 24.178 24.178 0 01-1.518-.115c-.922-.115-1.839-.263-2.69-.5-.85-.237-1.67-.547-2.413-.934-1.487-.774-2.652-1.888-3.335-3.17a6.296 6.296 0 01-.632-4.039 6.503 6.503 0 011.105-2.624l.029-.051.004-.032s.024-.019.023-.008l.064-.068.17-.197c.043-.037.078-.073.112-.109.046-.046.09-.093.153-.14.85-.72 2.008-1.086 3.07-1.214 1.073-.127 2.083 0 2.894.287.812.286 1.409.764 1.733 1.272a2.323 2.323 0 00-.385-.081c-1.299-.163-2.472.724-2.618 1.978-.147 1.254.789 2.405 2.087 2.568a2.355 2.355 0 002.216-.94.503.503 0 00.218-.321s.008-.075.044-.19c.065-.166.108-.346.131-.539l.003-.032c.053-.254.09-.576.114-.976-.01-.588-.086-1.381-.578-2.182-.469-.81-1.33-1.538-2.395-1.965-1.064-.438-2.314-.628-3.654-.535-1.33.105-2.792.477-4.092 1.488a4.985 4.985 0 00-.492.45l-.169.196-.091.098-.053.069-.026.03-.04.06c-.24.318-.459.649-.657.994a7.911 7.911 0 00-.869 2.328 8.122 8.122 0 00.711 5.3c.856 1.728 2.386 3.192 4.19 4.137.901.483 1.86.853 2.851 1.141.991.287 2.017.47 3.05.6.378.036.757.073 1.138.088a17.884 17.884 0 00-.404 4.616 18.317 18.317 0 001.509 6.564 18.667 18.667 0 003.82 5.668c.19.209.403.409.616.61l.089.084.012.012zM83.503 94.554l-.008-.013.004.005.004.005v.003zm0 0v.002l.019.03-.02-.032zm10.835 22.949a38.262 38.262 0 01-6.232 2.448 35.073 35.073 0 01-7.343 1.353c-2.567.189-5.29.076-7.831-.635-1.265-.354-2.488-.877-3.459-1.63-.484-.387-.896-.809-1.2-1.293a3.841 3.841 0 01-.549-1.57 4.144 4.144 0 01.009-.847c.016-.14.034-.29.06-.417l.024-.204.084-.239c.18-.576.415-1.145.736-1.583.334-.448.73-.757 1.224-.934.483-.179 1.074-.225 1.677-.181 1.228.088 2.531.502 3.784.964 1.263.463 2.497.987 3.731 1.512 2.458 1.037 4.863 2.046 7.319 2.713 1.268.322 2.545.385 3.748.307a16.42 16.42 0 003.379-.588c2.105-.573 3.903-1.403 5.417-2.224a30.24 30.24 0 002.639-1.573l-.013.021-.008.014a.382.382 0 01-.021.036 39.225 39.225 0 01-7.198 4.547l.023.003zM15.78 291.419c2.243-.98 4.37-2.225 6.263-3.772a21.614 21.614 0 004.78-5.448c1.265-2.061 2.17-4.319 2.734-6.641.531-2.327.901-4.63 1.252-6.957.426-2.878.742-5.77 1.057-8.651.193-1.77.386-3.536.604-5.293.293-2.313.65-4.607 1.184-6.857.531-2.239 1.26-4.432 2.361-6.437a16.476 16.476 0 014.413-5.19 19.256 19.256 0 012.94-1.85c1.044-.544 2.118-.964 3.25-1.398a51.944 51.944 0 016.828-2.059c2.323-.513 4.697-.879 7.089-1.014a37.77 37.77 0 017.168.235 30.74 30.74 0 013.527.66c.667.171 1.33.374 1.981.586a55.164 55.164 0 00-5.394.292c-2.305.254-4.59.631-6.84 1.187a38.56 38.56 0 00-6.553 2.212 29.656 29.656 0 00-3.058 1.597c-.971.607-1.934 1.236-2.81 1.975l-.335.273-.315.287-.642.583-.222.226v.001h-.001c-.321.327-.64.651-.948 1.019a19.668 19.668 0 00-1.991 2.785c-1.163 1.953-2.007 4.067-2.685 6.212-.667 2.146-1.183 4.344-1.62 6.541a223.7 223.7 0 00-.932 4.948v.001c-.1.551-.199 1.101-.3 1.651-.414 2.2-.838 4.388-1.371 6.54-.534 2.163-1.166 4.292-2.002 6.341a25.104 25.104 0 01-3.301 5.71c-1.333 1.769-2.935 3.341-4.673 4.722a29.247 29.247 0 01-5.734 3.491c-2.038.962-4.194 1.682-6.398 2.232a35.44 35.44 0 01-3.079.614 32.888 32.888 0 003.809-1.371l-.036.017z" fill="#F2CAB3"/></svg>